<svg width="376" height="352" viewBox="0 0 376 352" fill="none" xmlns="http://www.w3.org/2000/svg">
<path fill-rule="evenodd" clip-rule="evenodd" d="M362.427 147.066C358.095 177.303 353.205 193.275 324.665 224.94C296.124 256.605 165.521 277.436 117.237 277.436C68.9528 277.436 9.44838 242.581 13.2039 202.195C16.9594 161.809 36.5524 128.801 83.4491 124.737C131.375 120.585 173.474 139.815 220.526 129.501C261.204 120.585 273.651 86.598 301.59 75.8754C358.095 54.1896 365.374 126.496 362.427 147.066Z" fill="#2EC4B6"/>
<path d="M333.357 161.834C331.76 164.367 311.552 177.185 299.293 179.082C296.921 179.449 294.331 179.575 292.27 178.415C291.053 177.73 290.146 176.662 289.284 175.605C287.314 173.189 285.435 170.707 283.651 168.167C282.713 166.833 281.784 165.439 281.465 163.87C280.622 159.714 284.2 155.982 287.736 153.348C295.865 147.295 305.384 142.886 315.455 140.507C317.237 140.086 319.128 139.729 320.894 140.208C323.761 140.984 325.475 143.7 326.568 146.299C327.662 148.898 328.515 151.741 330.701 153.643C331.201 154.077 334.953 159.301 333.357 161.834Z" fill="white"/>
<path fill-rule="evenodd" clip-rule="evenodd" d="M224.769 272.262C205.156 275.402 214.504 262.057 217.208 245.354C221.653 217.908 227.133 176.199 227.133 176.199C227.133 176.199 230.707 239.754 230.707 255.229C230.707 270.704 227.133 271.884 224.769 272.262Z" fill="white"/>
<path d="M203.812 257.141C204.313 261.561 204.841 266.074 206.847 270.102C205.752 260.981 204.658 251.859 203.563 242.738C203.428 241.612 203.468 240.178 204.575 239.719C205.511 250.018 206.908 260.281 208.759 270.472C208.979 271.682 207.038 272.373 205.948 271.691C204.857 271.01 204.509 269.683 204.261 268.478C202.454 259.697 201.461 250.769 201.296 241.828C198.996 242.252 197.383 244.339 196.918 246.49C196.452 248.641 196.901 250.862 197.349 253.016C198.791 259.95 200.234 266.883 201.676 273.816C202.351 277.06 203.025 280.41 202.281 283.64C199.418 271.404 197.117 259.053 195.385 246.633C173.42 259.207 145.117 261.546 121.139 252.767C115.902 250.85 110.701 248.309 107.242 244.159C104.517 240.889 103.063 236.83 102.301 232.745C99.596 218.236 105.14 203.437 112.664 190.503C115.519 185.596 118.771 180.484 118.54 174.9C118.461 172.978 118.018 170.849 119.217 169.286C119.387 169.576 111.367 115.865 114.584 103.985C122.33 75.383 147.493 71.5095 163.604 71.8623C174.413 72.099 242.933 84.8469 252.833 102.183C265.844 124.967 263.081 144.122 260.771 156.753C260.083 160.514 227.142 175.922 227.133 176C225.25 192.389 212.612 228.101 202.014 241.264C202.613 246.556 203.213 251.849 203.812 257.141Z" fill="white"/>
<path fill-rule="evenodd" clip-rule="evenodd" d="M45.6523 190.454C39.4748 188.146 32.1131 188.83 26.5437 192.231C26.0045 192.561 25.2293 192.194 24.9624 191.646C24.6955 191.098 24.7953 190.461 24.9319 189.873C26.7106 182.209 33.7966 176.346 41.6769 173.651C49.5572 170.957 58.177 170.949 66.5538 171.41C67.385 171.455 68.2537 171.516 68.9627 171.924C69.6717 172.332 70.1488 173.204 69.7954 173.909C66.5002 180.478 64.0179 187.403 62.4138 194.501C62.1537 195.652 60.8797 196.416 59.625 196.512C58.3702 196.608 57.1408 196.174 56.0021 195.673C52.4534 194.109 49.2952 191.816 45.6523 190.454Z" fill="white"/>
<path fill-rule="evenodd" clip-rule="evenodd" d="M235.53 74.7709C235.837 70.3749 235.483 65.939 234.482 61.6345L234.461 61.5427C234.291 60.8149 234.116 60.0662 234.273 59.3378C234.619 57.7269 236.53 56.7572 238.285 56.791C240.04 56.8248 241.665 57.6091 243.218 58.375C250.666 62.0479 258.248 65.8136 264.112 71.4676C264.296 76.0449 263.144 80.5619 262.006 85.0211L262.006 85.0212L261.899 85.4403C257.15 104.078 253.262 122.908 250.248 141.86C249.959 143.676 249.411 145.819 247.571 146.455C246.251 146.911 244.716 146.328 243.778 145.346C242.84 144.364 242.392 143.06 242.079 141.775C241.307 138.606 241.214 135.293 241.807 132.091C242.17 130.132 242.783 128.227 243.396 126.321L243.396 126.321L243.396 126.321L243.396 126.321L243.396 126.321L243.396 126.321L243.396 126.321L243.396 126.32C243.947 124.61 244.497 122.899 244.867 121.149C245.236 119.398 245.423 117.619 245.603 115.842C246.564 106.396 247.38 96.9367 248.049 87.4684C248.143 86.1304 248.229 84.7504 247.761 83.4831C246.929 81.2291 244.503 79.8045 242.053 79.1513C241.631 79.0388 241.202 78.943 240.773 78.8473C239.774 78.6244 238.777 78.4018 237.866 77.9674C236.564 77.3465 235.435 76.1358 235.53 74.7709ZM240.081 74.4096C243.544 75.0938 246.929 76.1269 250.157 77.4854C250.807 77.7589 251.491 78.0791 251.842 78.6597C252.129 79.1339 252.146 79.7049 252.154 80.2498C252.256 86.6493 252.277 93.0657 251.553 99.4299C251.12 103.241 250.421 107.018 249.722 110.795L249.721 110.796L249.721 110.798C249.5 111.993 249.279 113.188 249.066 114.384C248.013 120.305 247.165 126.258 246.524 132.231C246.06 136.565 245.719 141.044 247.159 145.185C247.898 145.059 248.182 144.226 248.322 143.535L261.63 77.8719C261.952 76.281 262.274 74.6361 261.894 73.0563C261.229 70.2905 258.607 68.3673 256.079 66.8069C251.211 63.8029 246.031 61.2445 240.634 59.1799C240.185 64.244 240.001 69.3286 240.081 74.4096ZM246.924 117.534C249.361 105.824 250.461 93.8707 250.202 81.9429C250.182 81.0421 250.13 80.0739 249.542 79.361C249.11 78.8385 248.451 78.5326 247.808 78.2626C245.39 77.249 242.849 76.4947 240.25 76.0193C239.497 75.8817 238.391 76.0308 238.424 76.7479L247.768 80.3625C248.316 80.5746 248.9 80.8143 249.209 81.2878C249.513 81.7521 249.483 82.3354 249.444 82.8786L246.924 117.534ZM238.229 58.0216C237.459 57.5435 236.346 58.0363 235.917 58.8026C235.488 59.5689 235.553 60.4862 235.65 61.3466C235.793 62.609 235.981 63.872 236.169 65.1352C236.69 68.6399 237.211 72.1459 236.768 75.6432C237.475 75.8703 238.264 75.404 238.607 74.7826C238.949 74.1611 238.958 73.4311 238.96 72.7317L238.983 60.1198C238.985 59.349 238.916 58.4475 238.229 58.0216ZM245.148 144.901C244.724 141.784 244.612 138.63 244.816 135.494C244.925 133.818 245.124 132.148 245.322 130.478L245.322 130.477L245.322 130.477L245.323 130.477L245.323 130.476L245.323 130.476L245.323 130.476L245.323 130.475C245.586 128.266 245.848 126.057 245.903 123.835C243.963 129.243 243.23 135.027 243.766 140.71C243.905 142.188 244.163 143.738 245.148 144.901ZM246.216 120.641C246.528 120.51 246.659 120.1 246.475 119.83C246.158 119.976 246.023 120.39 246.2 120.677L246.216 120.641ZM243.314 93.5588C227.87 84.6421 210.407 79.2998 192.943 74.69C187.36 73.2164 181.731 71.8044 175.967 71.1998C158.887 69.4085 141.572 74.9254 127.37 83.9868C121.674 87.621 116.179 92.0912 113.718 98.1188C111.892 102.591 111.905 107.514 112.081 112.299C112.688 128.802 114.95 145.207 117.21 161.584C118.976 161.285 119.15 158.998 118.895 157.335C116.545 142.063 115.228 126.652 114.953 111.224C114.876 106.898 114.901 102.463 116.5 98.4038C119.395 91.0554 126.861 86.2496 134.187 82.4675C143.415 77.7039 153.446 73.6995 163.981 73.4869C176.742 73.2295 188.838 78.5288 199.986 84.3489C206.201 87.5936 212.502 91.217 216.456 96.756C220.046 101.785 221.35 107.915 222.292 113.899C225.282 132.893 225.392 152.168 225.495 171.367C225.5 172.143 225.449 173.033 224.799 173.516C224.355 173.846 223.748 173.887 223.181 173.915L202.362 174.93C212.063 177.541 222.825 176.511 231.762 172.116L254.895 160.739C257.054 159.677 259.283 158.562 260.771 156.753C262.819 154.264 263.112 150.915 263.209 147.774C263.565 136.173 262.326 124.531 259.532 113.225C260.501 125.455 260.635 137.744 259.934 149.991C259.814 152.082 259.635 154.276 258.42 156.035C257.123 157.914 254.867 158.977 252.718 159.955L227.752 171.315C228.785 153.155 227.984 134.905 225.362 116.886C224.48 110.825 223.355 104.68 220.393 99.2286C213.392 86.3455 197.895 79.9726 183.573 74.5726C204.985 80.4372 226.642 86.3987 245.906 96.9342C246.156 95.4787 244.654 94.3326 243.314 93.5588ZM323.1 148.991C324.209 151.669 325.77 154.524 328.638 155.545C329.318 155.594 329.724 154.751 329.501 154.148C329.314 153.644 328.876 153.277 328.446 152.917C328.361 152.846 328.277 152.775 328.195 152.704C326.369 151.116 325.473 148.873 324.591 146.662C324.416 146.225 324.242 145.789 324.062 145.36C322.968 142.761 321.254 140.045 318.387 139.269C316.621 138.791 314.731 139.147 312.948 139.568C302.877 141.947 293.359 146.357 285.23 152.41C281.693 155.043 278.115 158.776 278.958 162.931C279.277 164.501 280.207 165.894 281.144 167.229C282.928 169.769 284.808 172.25 286.778 174.666C287.639 175.723 288.546 176.792 289.764 177.477C291.824 178.636 294.414 178.51 296.787 178.143C309.045 176.246 319.537 169.114 329.521 162.19C330.04 161.829 330.581 161.446 330.85 160.895C331.119 160.345 331.004 159.579 330.433 159.295C329.779 158.969 329.006 159.419 328.423 159.847C319.132 166.656 309.208 173.31 297.689 175.702C295.505 176.156 293.098 176.423 291.134 175.422C289.664 174.673 288.671 173.326 287.734 172.028L281.923 163.979C281.433 163.301 280.926 162.572 280.908 161.754C280.889 160.936 281.596 160.051 282.463 160.157C290.608 161.148 298.792 161.861 306.994 162.293C307.646 162.328 308.329 162.355 308.924 162.101C309.69 161.774 310.158 161.048 310.566 160.358C314.038 154.499 316.69 148.214 318.434 141.715C320.751 143.271 321.832 145.906 322.864 148.42L322.938 148.599L322.989 148.725C323.026 148.814 323.063 148.903 323.1 148.991ZM315.93 141.201C314.378 146.636 312.083 151.885 309.117 156.778C308.62 157.598 308.068 158.443 307.198 158.919C306.092 159.525 304.716 159.411 303.442 159.278L283.152 157.159C286.518 152.994 291.519 150.291 296.516 147.969C301.246 145.771 306.101 143.81 311.055 142.097C312.623 141.555 314.268 141.03 315.93 141.201ZM203.812 257.141C204.313 261.561 204.841 266.074 206.847 270.102L203.563 242.738C203.428 241.612 203.468 240.178 204.575 239.719C205.511 250.018 206.908 260.281 208.759 270.472C208.979 271.682 207.038 272.373 205.948 271.691C204.857 271.01 204.509 269.683 204.261 268.478C202.454 259.697 201.461 250.769 201.296 241.828C198.996 242.252 197.383 244.339 196.918 246.49C196.452 248.641 196.901 250.862 197.349 253.016L201.676 273.817C202.351 277.06 203.025 280.41 202.281 283.64C199.418 271.404 197.117 259.054 195.385 246.633C173.42 259.207 145.117 261.546 121.139 252.767C115.902 250.85 110.701 248.309 107.242 244.159C104.517 240.889 103.063 236.83 102.301 232.745C99.596 218.236 105.14 203.437 112.664 190.503C112.86 190.166 113.058 189.828 113.257 189.49C115.949 184.892 118.755 180.101 118.54 174.9C118.526 174.557 118.5 174.206 118.474 173.854C118.355 172.235 118.233 170.57 119.217 169.286C120.538 171.536 121.042 174.198 120.625 176.736C143.365 175.819 166.139 175.635 188.892 176.183C189.158 177.162 187.642 177.617 186.563 177.602C165.329 177.305 144.085 177.644 122.874 178.617C122.202 178.648 121.497 178.689 120.928 179.024C120.329 179.376 119.98 179.994 119.658 180.584C113.638 191.611 107.598 202.798 104.688 214.878C103.192 221.091 102.619 227.89 105.686 233.574C106.849 235.731 108.495 237.635 110.332 239.332C120.195 248.439 134.965 251.232 148.817 251.014C157.658 250.875 166.48 249.685 175.003 247.482C184.039 245.147 193.051 241.466 199.218 234.857C202.84 230.976 205.302 226.277 207.458 221.535C211.574 212.481 214.732 203.045 216.869 193.41C218.207 193.674 218.226 195.445 217.917 196.692C214.096 212.122 209.656 228.569 197.072 239.156C185.707 248.718 169.692 251.684 154.435 252.484C145.622 252.946 136.671 252.801 128.135 250.698C119.599 248.595 111.448 244.388 106.029 237.865C107.61 243.507 112.963 247.533 118.537 250.139C133.172 256.98 150.454 256.618 166.613 254.24C177.378 252.656 188.427 250.056 196.804 243.533C203.965 237.957 208.528 229.993 211.963 221.888C215.765 212.916 218.403 203.512 219.799 193.949C220.669 193.435 221.313 194.874 221.203 195.831C219.32 212.221 212.613 228.101 202.014 241.264L203.812 257.141ZM193.635 285.167C192.701 283.691 192.1 282.032 191.882 280.328L190.54 284.584L187.155 272.496C186.892 271.558 186.253 270.385 185.24 270.586C184.255 270.782 184.144 272.047 184.291 272.98C185.029 277.669 186.436 282.266 188.462 286.61L184.862 283.652C184.687 285.06 185.082 286.524 185.952 287.685C184.077 286.391 181.561 285.951 179.313 286.521C180.92 288.611 183.101 290.31 185.587 291.409L182.545 287.433C185.004 288.762 187.581 289.901 190.24 290.834L187.662 287.808L190.847 288.634C188.41 283.444 185.927 278.055 185.986 272.385C186.908 276.997 188.259 281.535 190.017 285.929C190.315 286.674 190.646 287.444 191.281 287.972C191.916 288.501 192.947 288.7 193.612 288.205C194.129 287.82 194.28 287.157 194.397 286.549L195.832 279.1L197.408 288.337C198.602 285.512 202.488 284.804 205.733 284.785C210.019 284.76 214.337 285.202 218.643 285.643H218.643H218.643H218.643H218.644H218.644H218.644H218.644H218.644C226.407 286.438 234.135 287.229 241.573 285.274C241.355 286.351 240.973 287.398 240.442 288.375C246.444 287.557 252.518 287.198 258.582 287.303C261.143 287.347 263.712 287.473 266.281 287.599H266.281H266.281H266.281H266.282H266.282H266.282H266.282H266.283C273.074 287.933 279.866 288.267 286.519 287.086L242.357 286.723C243.187 286.678 243.822 285.775 243.539 285.043C243.257 284.312 242.151 283.999 241.483 284.461C241.049 283.168 239.096 282.594 237.95 283.421C238.615 281.502 239.929 279.786 241.657 278.581C239.707 278.483 237.726 279.042 236.159 280.133L240.909 259.552C240.507 259.228 239.838 259.446 239.541 259.856C239.247 260.263 239.214 260.781 239.183 261.271L239.183 261.287C238.738 268.314 236.091 275.207 231.654 280.892L229.912 276.173L227.414 281.809C226.283 280.989 224.677 280.782 223.351 281.285C223.69 282.491 224.72 283.505 225.988 283.882L226.579 282.4L230.48 284.846C228.989 283.383 228.666 280.99 229.721 279.226L232.082 282.933L236.658 274.461C236.684 277.863 235.126 281.078 233.6 284.165C235.259 282.948 236.685 281.454 237.79 279.775C238.857 281.543 237.692 283.915 235.836 284.968C233.981 286.021 231.686 286.078 229.518 285.992C226.21 285.862 222.877 285.473 219.548 285.084C212.072 284.212 204.617 283.342 197.516 285.402L196.492 276.563C194.928 279.209 193.949 282.157 193.635 285.167ZM238.19 285.403C238.03 285.224 238.031 284.936 238.193 284.757L238.322 284.803C238.539 284.317 239.451 284.357 239.618 284.859C239.197 285.143 238.703 285.332 238.19 285.403ZM262.318 191.489C257.175 189.055 251.054 189.712 245.344 190.445C243.731 190.652 242.086 190.869 240.625 191.541C239.164 192.214 237.891 193.432 237.639 194.938C223.695 193.308 210.333 187.562 199.927 178.722C197.669 176.803 195.364 174.071 196.38 171.378C196.699 170.532 197.32 169.818 197.966 169.155C202.818 164.176 209.507 161.181 216.018 158.306C208.638 158.912 201.557 162.272 196.673 167.487C195.553 168.682 194.521 170.017 194.135 171.565C193.184 175.387 196.355 178.973 199.528 181.537C209.655 189.72 222.392 195.033 235.663 196.611C236.458 196.705 236.499 197.753 236.427 198.501C236.103 201.827 238.04 205.074 240.725 207.274C243.41 209.474 246.772 210.796 250.109 211.979C260.443 215.643 271.167 218.342 282.07 220.022C282.79 220.133 283.78 220.08 283.931 219.412C281.415 217.854 278.387 217.26 275.426 216.68L275.136 216.623L274.947 216.585C267.439 215.106 260.032 213.179 252.785 210.82C249.813 209.852 246.833 208.795 244.24 207.124C241.648 205.452 239.447 203.091 238.618 200.248C238.209 198.845 238.764 196.749 240.307 196.926C246.589 197.645 253.043 198.355 259.177 196.896C260.565 196.566 262.012 196.069 262.858 194.987C263.704 193.905 263.596 192.094 262.318 191.489ZM246.472 195.375C244.316 195.028 242.113 194.935 239.932 195.099C240.992 193.214 243.581 192.718 245.835 192.431C250.734 191.806 255.836 191.197 260.53 192.651C260.84 192.748 261.171 192.87 261.339 193.133C261.56 193.478 261.399 193.948 261.085 194.223C260.771 194.499 260.343 194.623 259.929 194.732C255.568 195.873 250.935 196.094 246.472 195.375ZM175.117 290.451C178.725 290.356 182.356 291.103 185.59 292.605C184.725 293.768 182.988 293.931 181.476 293.985L141.946 295.39C141.583 295.347 141.515 294.824 141.772 294.581C142.028 294.338 142.429 294.306 142.794 294.29L181.383 292.528C179.154 292.336 176.978 291.615 175.117 290.451ZM99.0423 168.061C98.479 170.583 100.758 173.274 103.503 173.465C99.0145 179.797 90.9295 182.922 83.1611 185.128C78.3127 186.505 72.9346 187.636 68.3125 185.693C67.7389 186.021 68.3506 186.829 68.9561 187.102C73.4541 189.131 78.7869 188.001 83.5714 186.664C90.5878 184.704 97.8201 182.17 102.594 176.973C102.79 176.76 102.985 176.541 103.181 176.32C104.41 174.938 105.691 173.496 107.539 173.176C113.487 172.146 118.441 168.658 123.336 165.212C124.447 164.43 125.554 163.651 126.669 162.903C133.447 158.355 140.964 154.775 148.882 152.325C149.581 152.108 150.431 151.707 150.369 151.02C140.553 151.863 131.973 157.343 124.061 162.848L123.797 163.032C118.42 166.774 112.802 170.684 106.186 171.612C108.347 170.016 107.89 166.329 105.452 165.133C103.014 163.938 99.6056 165.539 99.0423 168.061ZM100.874 169.602C100.433 168.379 101.114 166.923 102.324 166.304C102.668 166.128 103.052 166.011 103.443 166.01C104.736 166.009 105.68 167.303 105.688 168.513C105.697 169.723 105.042 170.839 104.405 171.892C102.915 171.678 101.356 170.939 100.874 169.602ZM247.76 142.643C247.395 142.262 247.507 141.748 247.624 141.216C247.706 140.84 247.79 140.455 247.709 140.1C247.639 139.793 247.448 139.532 247.256 139.269C247.086 139.037 246.916 138.804 246.828 138.539C246.848 138.188 247.35 138.008 247.691 138.153C248.033 138.299 248.224 138.642 248.344 138.976C248.779 140.192 248.555 141.598 247.76 142.643ZM214.669 115.95C215.584 113.92 217.397 112.12 219.709 111.708C220.457 111.574 220.434 110.42 219.779 110.057C219.123 109.694 218.281 109.908 217.593 110.215C214.39 111.642 212.368 114.784 211.575 118.021C210.783 121.258 211.045 124.63 211.312 127.941L212.728 145.544C212.776 146.143 212.835 146.771 213.191 147.27C213.916 148.287 215.471 148.319 216.774 148.242L223.37 147.849C221.904 146.774 219.937 146.321 218.105 146.638C217.035 146.823 215.961 146.162 215.394 145.293C214.827 144.424 214.661 143.384 214.521 142.374C213.601 135.768 213.264 129.09 213.514 122.432C213.596 120.23 213.754 117.98 214.669 115.95ZM231.512 272.2C231.138 272.454 230.762 271.875 230.707 271.445C228.158 251.384 227.774 231.144 227.392 210.946L227.135 197.329C227.128 196.941 227.134 196.516 227.4 196.219C227.858 195.707 228.822 195.942 229.223 196.494C229.623 197.047 229.624 197.763 229.61 198.43C229.218 218.307 229.476 238.222 231.509 258.011C231.533 258.252 231.558 258.493 231.583 258.734C232.049 263.229 232.522 267.792 231.512 272.2ZM210.319 145.75C209.76 145.463 209.071 145.626 208.46 145.795C180.199 153.62 152.002 161.688 124.221 170.898C123.701 171.07 123.106 171.318 122.987 171.823C122.861 172.357 123.398 172.867 123.972 172.966C124.547 173.065 125.128 172.872 125.676 172.684C153.518 163.095 181.778 154.574 210.363 147.147C210.977 146.987 210.877 146.037 210.319 145.75Z" fill="#111111"/>
<path fill-rule="evenodd" clip-rule="evenodd" d="M311.01 265.449C310.352 265.72 309.64 265.971 308.932 265.857C308.223 265.743 307.561 265.121 307.703 264.461C309.004 258.432 307.371 251.903 303.346 247.04C301.935 245.336 300.256 243.837 298.881 242.107C298.015 241.017 297.245 239.647 297.684 238.352C298.309 236.51 300.826 236.062 302.886 235.93C307.675 235.625 312.464 235.319 317.253 235.013C319.459 234.873 322.001 234.852 323.474 236.396C327.574 240.696 335.566 240.985 340.008 236.994C340.696 236.376 341.561 237.606 341.534 238.497C341.448 241.3 340.214 244.06 338.141 246.084C337.651 246.561 337.026 247.029 336.323 246.96C335.62 246.892 335.101 245.947 335.662 245.544C336.864 244.679 338.089 243.793 338.932 242.613C339.775 241.433 340.184 239.887 339.609 238.573C336.516 242.237 333.393 245.879 330.24 249.498C324.775 255.774 318.929 262.193 311.01 265.449ZM319.648 246.982C318.861 247.186 318.022 247.03 317.237 246.822C311.584 245.327 306.377 241.192 300.595 242.16C307.337 247.243 310.916 255.766 309.678 263.786C314.12 262.896 317.628 259.791 320.774 256.723C325.431 252.183 329.852 247.431 334.018 242.49C331.024 242.467 328.041 241.658 325.497 240.18C322.354 240.908 322.769 246.174 319.648 246.982ZM323.753 238.634C321.88 236.568 318.516 236.631 315.632 236.869C311.871 237.178 308.11 237.487 304.349 237.796C302.822 237.922 301.069 238.173 300.272 239.399C306.782 240.675 313.128 242.679 319.133 245.354C319.906 243.083 321.454 241.049 323.495 239.624C323.724 239.464 323.987 239.258 323.956 238.992C323.941 238.855 323.848 238.739 323.753 238.634V238.634Z" fill="#2EC4B6"/>
<path fill-rule="evenodd" clip-rule="evenodd" d="M44.9236 189.356C39.2589 187.235 32.5083 187.864 27.4012 190.989C26.9068 191.291 26.1959 190.954 25.9512 190.451C25.7064 189.947 25.798 189.362 25.9232 188.822C27.5543 181.782 34.0521 176.395 41.2782 173.92C48.5044 171.444 56.4086 171.437 64.09 171.861C64.8522 171.903 65.6488 171.958 66.299 172.333C66.9492 172.708 67.3866 173.509 67.0625 174.156C64.0408 180.191 61.7646 186.553 60.2937 193.074C60.0552 194.131 58.887 194.833 57.7364 194.921C56.5858 195.009 55.4584 194.611 54.4142 194.15C51.1601 192.713 48.2641 190.607 44.9236 189.356ZM45.5711 182.233C45.0662 182.617 44.2772 182.414 43.8021 181.998C43.3271 181.582 43.0564 181.006 42.683 180.508C40.6801 177.833 36.0838 178.055 33.3594 180.096C30.635 182.136 29.3166 185.361 28.1161 188.428C36.1089 185.178 45.9535 186.344 52.8294 191.356C53.7682 192.04 54.6997 192.811 55.8558 193.075C57.0118 193.338 58.4681 192.865 58.761 191.785C60.3252 186.018 62.2529 180.337 64.5306 174.782C60.1603 179.867 50.9823 178.117 45.5711 182.233ZM43.8319 179.16C44.2807 179.687 45.0956 179.828 45.8051 179.708C46.5145 179.589 47.159 179.258 47.82 178.989C50.0957 178.063 52.6163 177.857 55.0561 177.433C57.496 177.01 60.0125 176.293 61.7301 174.617C57.8548 174.606 53.9796 174.595 50.1043 174.584C46.2098 174.573 42.0131 174.65 38.8844 176.821C40.789 176.886 42.645 177.764 43.8319 179.16Z" fill="#2EC4B6"/>
<path fill-rule="evenodd" clip-rule="evenodd" d="M226.917 188.87C226.908 185.679 226.899 182.488 226.89 179.296C226.887 178.38 226.884 177.464 226.882 176.547C226.88 175.915 226.993 175.125 227.635 174.928C228.12 174.779 228.654 175.106 228.881 175.534C229.108 175.962 229.105 176.461 229.097 176.939C229.027 181.392 228.956 185.845 228.885 190.299C228.875 190.939 228.76 191.727 228.12 191.952C227.051 191.385 226.92 190.019 226.917 188.87H226.917Z" fill="#111111"/>
<path fill-rule="evenodd" clip-rule="evenodd" d="M220.112 185.916C219.619 186.119 219.364 185.358 219.44 184.859C219.713 183.072 219.987 181.281 220.451 179.529C220.74 178.438 221.157 177.291 222.119 176.619C223.081 175.947 224.734 176.065 225.204 177.098C225.433 177.599 225.338 178.171 225.233 178.707C224.585 182.022 223.712 185.298 222.622 188.51C222.576 188.646 222.525 188.788 222.415 188.887C222.147 189.128 221.663 188.966 221.477 188.665C221.291 188.364 221.315 187.992 221.345 187.645C221.788 187.615 221.994 187.127 222.101 186.723C222.535 185.074 222.97 183.425 223.404 181.776C223.743 180.493 224.051 179.031 223.264 177.934C222.456 178.4 222.152 179.342 221.912 180.202C221.428 181.932 220.944 183.661 220.46 185.391C220.402 185.597 220.321 185.83 220.112 185.916L220.112 185.916Z" fill="#111111"/>
</svg>
