<svg width="400" height="400" viewBox="0 0 400 400" fill="none" xmlns="http://www.w3.org/2000/svg">
<path d="M274.957 84.1431C271.782 75.6669 268.47 66.8233 246.045 72.805C234.004 76.0169 223.91 87.365 215.659 104.217C209.451 117.62 204.205 134.951 200.021 155.731C191.471 198.192 187.869 253.118 189.553 306.521L185.821 306.638L185.772 305.028C184.633 266.465 186.232 227.183 190.45 192.356C172.504 173.704 152.049 159.003 137.143 154.12C101.821 146.331 92.4891 166.908 92.7206 185.264C92.7629 188.62 93.9358 191.412 95.1175 194.224C96.3393 197.132 97.5704 200.062 97.5704 203.661C97.5704 206.049 92.2321 210.979 85.2928 217.389C71.6503 229.991 51.8199 248.308 54.2001 264.248C56.3996 278.98 70.3482 290.165 83.1873 296.179C84.4443 296.768 85.8133 297.862 87.4606 299.178C88.6321 300.114 89.9444 301.162 91.4571 302.222L91.5734 302.302C92.7617 303.121 94.7229 304.276 97.457 305.767L98.3005 306.224C136.98 327.09 181.872 313.033 195.86 307.844L196.678 307.538L295.876 306.433L295.863 306.356C295.836 306.194 295.791 305.954 295.734 305.644C294.802 300.59 290.422 276.853 299.748 267.287C328.871 237.413 360.805 151.921 317.386 116.096C307.791 108.179 298.27 103.366 290.958 99.6695C286.517 97.4245 282.891 95.5914 280.558 93.725C277.684 91.4265 276.333 87.8193 274.957 84.1431Z" fill="#2EC4B6"/>
<path fill-rule="evenodd" clip-rule="evenodd" d="M99.2806 179.831C97.0945 179.451 100.958 183.786 100.958 183.786C100.958 183.786 101.467 180.211 99.2806 179.831Z" fill="white"/>
<path fill-rule="evenodd" clip-rule="evenodd" d="M131.979 306.766C131.979 306.766 108.497 296.942 108.497 283.263C108.497 279.25 111.007 279.636 116.027 284.419C116.573 284.94 117.355 285.738 118.374 286.815C118.998 287.475 104.905 270.363 112.006 267.162C118.928 264.041 120.538 280.241 120.9 280.017C121.302 279.768 121.185 274.867 122.787 272.7C123.65 271.533 126.188 271.283 128.108 272.7C138.197 280.144 131.979 306.766 131.979 306.766Z" fill="white"/>
<path fill-rule="evenodd" clip-rule="evenodd" d="M121.886 206.423C121.886 206.423 112.118 205.921 110.786 202.815C109.455 199.709 116.698 201.474 116.698 201.474L121.886 206.423Z" fill="white"/>
<path fill-rule="evenodd" clip-rule="evenodd" d="M105.366 191.699C103.18 190.475 104.423 187.558 105.366 187.436C108.158 187.077 110.361 193.263 110.669 193.883C111.202 194.956 106.476 192.32 105.366 191.699Z" fill="white"/>
<path fill-rule="evenodd" clip-rule="evenodd" d="M127.853 210.452C127.853 210.452 122.505 196.818 127.455 197.892C132.406 198.967 130.982 214.817 130.982 214.817L127.853 210.452Z" fill="white"/>
<path fill-rule="evenodd" clip-rule="evenodd" d="M124.262 200.521C124.332 202.732 125.277 206.125 127.091 210.751C127.116 210.814 127.149 210.874 127.188 210.929L130.318 215.294C130.759 215.909 131.729 215.645 131.796 214.89L131.853 214.237C132.733 203.669 131.463 197.925 127.629 197.093C125.398 196.609 124.181 197.943 124.262 200.521ZM127.365 198.711C129.747 199.322 130.854 203.741 130.37 212.037L130.34 212.518L128.576 210.058L128.267 209.258C126.744 205.253 125.955 202.31 125.897 200.469L125.892 200.212C125.889 198.818 126.271 198.472 127.282 198.691L127.365 198.711Z" fill="#111111"/>
<path fill-rule="evenodd" clip-rule="evenodd" d="M108.967 266.335C105.522 267.888 105.76 271.806 108.39 277.143L108.592 277.546C109.073 278.492 109.622 279.469 110.229 280.471L110.438 280.813L110.412 280.796C109.429 280.141 108.58 279.759 107.851 279.646C105.912 279.349 104.924 280.777 104.924 283.263C104.924 292.836 113.008 300.928 128.962 307.603C129.479 307.819 130.067 307.519 130.195 306.972C134.415 288.906 133.086 277.214 125.98 271.97C123.799 270.362 120.647 270.462 119.391 272.161L119.282 272.315C118.748 273.1 118.375 274.133 118.099 275.418L118.087 275.475L118.051 275.333C117.855 274.564 117.647 273.839 117.412 273.112C116.634 270.703 115.702 268.811 114.534 267.545C112.996 265.878 111.085 265.38 108.967 266.335ZM116.771 277.823L117.169 279.7L117.215 279.895C117.244 280.013 117.271 280.108 117.298 280.188C117.335 280.297 117.373 280.386 117.433 280.481C117.508 280.6 117.6 280.704 117.748 280.793C118.036 280.967 118.405 280.977 118.71 280.788C119.102 280.546 119.198 280.338 119.305 279.652L119.355 279.31C119.391 279.057 119.52 277.98 119.542 277.81C119.629 277.13 119.716 276.568 119.823 276.033C120.074 274.778 120.412 273.83 120.849 273.239C121.447 272.431 123.462 272.366 124.903 273.43L125.092 273.572C131.086 278.188 132.383 288.645 128.781 305.009L128.67 305.508L128.301 305.349C113.86 299.05 106.737 291.668 106.737 283.263C106.737 281.736 107.004 281.351 107.575 281.439C108.587 281.594 110.355 282.807 112.735 285.076L113.039 285.371C113.402 285.727 113.848 286.181 114.376 286.732L115.079 287.469C115.091 287.481 115.109 287.497 115.145 287.53L115.156 287.557C115.184 287.603 115.273 287.619 115.868 287.73L116.075 287.657C116.32 287.564 116.359 287.502 116.567 287.175L116.615 286.976C116.644 286.845 116.639 286.815 116.624 286.701L116.585 286.541C116.576 286.509 116.569 286.493 116.558 286.47L116.549 286.45C116.525 286.398 116.511 286.371 116.488 286.336L116.241 286.004L115.613 285.172C115.505 285.028 115.396 284.881 115.276 284.717C114.242 283.314 113.24 281.865 112.298 280.37C111.416 278.969 110.646 277.617 110.017 276.341C107.798 271.838 107.621 268.931 109.712 267.988C112.228 266.854 114.161 268.948 115.687 273.67C116.102 274.953 116.43 276.246 116.771 277.823Z" fill="#111111"/>
<path fill-rule="evenodd" clip-rule="evenodd" d="M111.779 194.383L112.523 195.061C121.759 203.491 128.189 210.218 131.616 214.886C137.599 223.033 142.42 231.483 146.483 240.431C147.927 243.611 149.234 246.76 150.522 250.103L150.873 251.02C151.275 252.076 151.663 253.118 152.086 254.274L153.889 259.248C158.765 272.599 157.151 273.25 152.509 260.264L150.685 255.228C150.303 254.182 149.953 253.236 149.602 252.303L149.337 251.604C147.946 247.947 146.547 244.546 144.987 241.111C140.969 232.261 136.203 223.908 130.292 215.858L130.021 215.493C126.509 210.817 119.99 204.057 110.674 195.599C110.338 195.294 110.313 194.775 110.618 194.439C110.923 194.103 111.443 194.078 111.779 194.383ZM90.162 175.761L101.663 185.578C102.741 186.503 103.582 187.228 103.983 187.581C104.323 187.881 104.356 188.4 104.056 188.741C103.756 189.081 103.237 189.114 102.896 188.814L99.903 186.234C95.9283 182.829 89.6532 177.489 89.0935 177.009C88.7488 176.714 88.7085 176.196 89.0036 175.851C89.2987 175.506 89.8173 175.466 90.162 175.761Z" fill="#111111"/>
<path fill-rule="evenodd" clip-rule="evenodd" d="M111.418 200.13C109.908 200.472 109.399 201.655 110.035 203.137C111.095 205.611 115.027 206.889 121.844 207.239C122.601 207.278 122.999 206.354 122.45 205.831L117.263 200.883C117.159 200.784 117.031 200.714 116.892 200.68C114.362 200.064 112.562 199.87 111.418 200.13ZM116.292 202.218L119.675 205.443L119.471 205.424L118.961 205.37C114.606 204.882 112.129 203.873 111.538 202.493L111.476 202.345C111.296 201.891 111.361 201.82 111.779 201.725C112.551 201.55 113.996 201.687 116.054 202.162L116.292 202.218Z" fill="#111111"/>
<path fill-rule="evenodd" clip-rule="evenodd" d="M106.616 311.567C104.557 312.753 105.396 313.987 109.837 315.958C114.628 318.113 123.546 322.272 138.864 323.444C162.589 325.259 184.191 321.835 211.461 321.835C249.215 321.835 265.787 330.13 279 328.217C314.422 323.089 322.447 313.136 311.88 310.567C300.278 307.748 263.403 308.092 250.989 307.281L247.148 307.035L243.848 306.952C208.118 306.075 150.846 306.952 139.661 306.952C116.843 306.952 106.616 311.567 106.616 311.567Z" fill="white"/>
<path fill-rule="evenodd" clip-rule="evenodd" d="M211.461 321.835C249.215 321.835 265.787 330.417 279 328.504C314.422 323.375 322.447 313.135 311.88 310.567C300.278 307.748 258.133 306.832 247.756 307.057C247.756 307.057 295.464 315.872 292.911 318.792C285.31 327.485 266.382 316.98 232.005 317.286C224.923 317.35 211.461 321.835 211.461 321.835Z" fill="#F4FBFA"/>
<path fill-rule="evenodd" clip-rule="evenodd" d="M141.926 307.325C141.007 307.33 140.269 307.332 139.661 307.332L138.62 307.335C123.785 307.404 112.966 308.964 106.115 312.055L106.008 312.11C104.407 313.031 103.794 314.388 104.8 315.782C105.45 316.683 106.811 317.534 109.109 318.569L111.062 319.442C113.5 320.521 114.945 321.106 117.115 321.87L117.351 321.952C123.611 324.139 130.558 325.632 138.771 326.261C144.607 326.707 150.555 326.86 157.074 326.77L159.357 326.73C163.644 326.642 167.295 326.491 173.967 326.133L185.499 325.494C196.488 324.9 203.191 324.662 211.106 324.655L211.461 324.655C225.626 324.655 237.198 325.733 250.032 327.834L251.146 328.02C253.08 328.356 263.717 330.23 266.653 330.652L266.755 330.666C271.88 331.387 275.671 331.532 279.175 331.024L280.155 330.88C296.065 328.503 307.562 324.961 313.368 321.043C319.169 317.129 318.644 312.644 312.36 311.03L312.168 310.982C306.949 309.714 297.042 309.009 281.649 308.548L278.492 308.458C277.572 308.434 276.621 308.409 275.621 308.385L262.221 308.075C257.06 307.947 253.896 307.837 251.501 307.691L247.226 307.418L243.878 307.333L240.476 307.256C230.609 307.05 218.823 306.951 205.333 306.943L201.322 306.943C191.922 306.949 182.192 306.995 171.33 307.076L141.926 307.325ZM208.471 309.386C221.935 309.41 233.609 309.528 243.263 309.758L247.117 309.855L251.499 310.135C253.911 310.279 257.068 310.388 262.15 310.513L275.057 310.811C276.579 310.848 277.985 310.885 279.334 310.922L282.495 311.015C297.169 311.471 306.707 312.166 311.591 313.353L311.884 313.427C315.935 314.49 316.068 316.278 312.004 319.021C306.447 322.771 283.634 332.818 267.513 329.392L266.772 329.288C263.364 328.781 251.945 326.22 251.272 326.108L249.617 325.837C237.255 323.846 225.972 322.803 212.371 322.758L210.394 322.758C202.261 322.78 195.255 323.052 183.353 323.71L175.094 324.17C167.105 324.606 163.296 324.762 158.325 324.852L157.925 324.859C132.719 325.837 117.351 319.965 117.351 319.965C115.339 319.247 110.135 317.439 110.135 317.439L109.747 317.262C97.6044 313.139 124.116 309.842 138.641 309.775L143.17 309.757L169.474 309.53C181.72 309.435 192.502 309.384 202.931 309.382L208.471 309.386Z" fill="#111111"/>
<path fill-rule="evenodd" clip-rule="evenodd" d="M264.487 289.718C264.487 289.718 264.423 293.334 265.536 295.008C266.65 296.681 269.754 301.336 272.641 302.561C273.531 302.939 276.927 302.987 278.967 304.179C283.066 306.574 283.979 310.888 278.967 311.802C269.018 313.616 265.536 308.372 265.536 308.372C265.536 308.372 261.438 302.561 257.33 298.708C253.222 294.855 249.949 293.695 249.949 293.695" fill="white"/>
<path d="M298.823 130.712C297.438 130.608 296.624 131.661 296.624 132.935C296.624 137.347 303.831 143.38 308.528 143.38C309.905 143.38 311.031 142.395 310.631 140.89C310.481 140.323 310.134 139.819 309.565 139.199L309.44 139.064C308.8 138.385 308.139 137.779 306.657 136.503L304.386 134.557C303.829 134.075 302.943 133.306 302.675 133.077L302.352 132.803C301.732 132.279 301.252 131.898 300.823 131.595C300.066 131.06 299.479 130.761 298.823 130.712Z" fill="white"/>
<path fill-rule="evenodd" clip-rule="evenodd" d="M252.78 217.209C252.78 217.209 250.051 209.42 243.037 207.311C240.809 206.641 250.557 221.353 241.953 226.842C239.267 228.555 234.492 229.444 228.616 230.28C202.421 234.009 194.524 224.235 178.354 219.461C171.87 217.548 140.333 209.081 135.565 252.209C132.581 279.204 155.186 287.57 175.445 291.859C216.03 300.452 278.218 297.065 297.613 268.744C320.732 234.984 285.199 205.585 280.193 202.477C278.981 201.725 282.457 211.373 282.843 216.252C283.23 221.132 280.193 222.907 280.193 222.907C280.193 222.907 278.996 217.74 268.415 216.854C257.834 215.968 252.78 217.209 252.78 217.209Z" fill="white"/>
<path fill-rule="evenodd" clip-rule="evenodd" d="M97.1012 181.269C97.472 182.143 98.3346 183.301 99.737 184.874C100.663 185.913 102.381 185.395 102.577 184.017C103.025 180.869 102.088 178.659 99.5605 178.22C97.5823 177.876 96.3049 179.391 97.1012 181.269ZM100.958 183.786L100.707 183.503C98.3472 180.81 97.8717 179.586 99.2805 179.831C100.738 180.084 101.297 181.403 100.958 183.786Z" fill="#111111"/>
<path fill-rule="evenodd" clip-rule="evenodd" d="M105.262 186.625C104.343 186.743 103.593 187.823 103.387 189.015C103.149 190.385 103.659 191.681 104.967 192.412L105.869 192.912C106.738 193.389 107.519 193.798 108.279 194.163L108.632 194.329C109.198 194.591 109.656 194.774 110.004 194.87C110.361 194.968 110.632 194.996 110.92 194.89C111.537 194.665 111.645 194.082 111.432 193.586L111.365 193.435C111.279 193.236 111.069 192.734 110.948 192.454L110.922 192.393C110.591 191.638 110.255 190.942 109.884 190.278C108.512 187.82 107.037 186.397 105.262 186.625ZM108.625 191.385C108.847 191.802 109.059 192.237 109.267 192.698L109.336 192.853L109.135 192.759L108.988 192.689C108.014 192.221 106.985 191.668 105.766 190.985C105.107 190.617 104.872 190.021 104.998 189.294C105.053 188.977 105.177 188.672 105.333 188.448C105.38 188.379 105.427 188.324 105.469 188.283L105.515 188.243L105.471 188.247C106.322 188.138 107.394 189.171 108.456 191.075L108.625 191.385Z" fill="#111111"/>
<path fill-rule="evenodd" clip-rule="evenodd" d="M119.246 200.728C119.101 200.095 110.955 185.25 116.675 185.716C122.395 186.182 121.033 203.007 120.834 203.007C120.599 203.007 119.351 201.183 119.246 200.728Z" fill="white"/>
<path fill-rule="evenodd" clip-rule="evenodd" d="M113.823 187.927C113.824 189.347 114.297 191.227 115.147 193.512C115.403 194.198 115.688 194.91 116.003 195.65L116.195 196.097C116.949 197.836 118.463 200.968 118.449 200.911C118.531 201.264 118.871 201.855 119.319 202.503L119.483 202.739C120.031 203.517 120.304 203.799 120.766 203.823L120.961 203.828C121.516 203.857 121.516 204.048 121.644 203.241L121.69 202.946C121.709 202.825 121.729 202.667 121.749 202.479L121.761 202.363C121.812 201.838 121.858 201.154 121.889 200.405C121.97 198.471 121.947 196.401 121.789 194.469L121.746 193.979C121.234 188.564 119.749 185.146 116.741 184.901C114.819 184.744 113.823 185.947 113.823 187.927ZM116.608 186.531C118.525 186.687 119.756 189.691 120.159 194.603C120.311 196.462 120.334 198.466 120.255 200.337L120.228 200.893L120.199 200.843C120.12 200.708 120.066 200.605 120.048 200.56L120.043 200.545C120.008 200.391 118.367 196.995 117.695 195.446C117.315 194.571 116.975 193.736 116.68 192.942C115.893 190.826 115.459 189.104 115.459 187.927C115.459 186.855 115.733 186.487 116.522 186.525L116.608 186.531Z" fill="#111111"/>
<path fill-rule="evenodd" clip-rule="evenodd" d="M141.725 230.886C141.725 230.886 143.517 228.396 144.524 227.16C145.531 225.924 146.61 224.889 146.61 224.889C146.61 224.889 122.286 222.468 113.861 216.197C102.858 208.007 92.989 194.425 83.0477 191.552C71.163 188.117 66.7644 196.083 63.3364 196.733C52.8938 198.711 33.7681 204.342 42.5135 221.348C45.2135 226.599 53.9598 229.04 60.1216 226.113C66.9995 222.846 75.4695 214.843 84.3776 214.843C94.6789 214.843 96.4725 223.282 109.549 227.756C117.575 230.502 141.725 230.886 141.725 230.886Z" fill="white"/>
<path fill-rule="evenodd" clip-rule="evenodd" d="M170.689 291.064C170.689 291.064 176.627 297.546 179.088 301.717C181.548 305.887 180.686 308.148 184.102 310.076C189.234 312.972 194.523 312.241 196.877 310.701C199.23 309.161 197.022 305.22 192.089 305.22C190.875 305.22 189.448 302.434 188.757 300.59C188.066 298.747 188.382 294.21 188.382 294.21L170.689 291.064Z" fill="white"/>
<path fill-rule="evenodd" clip-rule="evenodd" d="M281.294 204.11C281.294 204.11 319.986 251.566 265.575 279.422C227.521 298.904 165.001 288.386 165.001 288.386C165.001 288.386 233.062 306.683 277.546 284.623C305.93 270.548 311.544 246.622 298.003 222.263C294.459 215.888 281.294 204.11 281.294 204.11Z" fill="#F4FBFA"/>
<path fill-rule="evenodd" clip-rule="evenodd" d="M279.022 201.743C279.509 201.097 280.269 201.089 280.836 201.441C282.663 202.575 285.968 205.319 289.146 208.538C293.558 213.006 297.497 218.069 300.517 223.526C308.787 238.466 308.048 254.108 297.553 269.434C288.276 282.98 270.126 291.156 244.649 294.819C222.365 298.022 196.568 297.579 175.193 293.053L174.121 292.822C161.887 290.152 152.869 286.759 146.046 281.516C137.096 274.639 132.922 265.016 134.353 252.075C136.518 232.486 144.263 221.599 155.937 217.785C160.277 216.367 164.926 216.019 169.723 216.492C173.013 216.816 175.775 217.428 178.699 218.292L179.219 218.447C182.396 219.41 185.1 220.474 189.27 222.322L192.352 223.703C198.74 226.566 202.437 227.924 207.222 228.889C213.243 230.103 219.873 230.246 227.917 229.146L229.111 228.976C235.677 228.019 239.201 227.15 241.297 225.813C243.751 224.248 244.627 221.711 244.276 218.198C244.116 216.6 243.719 214.915 243.093 212.95L242.921 212.42C242.65 211.617 241.86 209.361 241.715 208.871C241.535 208.264 241.452 207.841 241.482 207.448C241.556 206.461 242.421 205.852 243.389 206.143C248.505 207.682 252.179 212.15 254.436 219.394C254.636 220.037 254.277 220.721 253.634 220.921C252.99 221.122 252.306 220.763 252.106 220.12C250.388 214.605 247.88 211.018 244.595 209.266L244.379 209.154L245.267 211.745L245.292 211.819C247.547 221.436 245.871 228.976 230.704 231.307C229.869 231.435 213.096 232.878 206.132 231.155C195.582 228.544 180.609 218.801 171.633 218.447C162.657 218.093 160.683 218.801 156.695 220.104C145.994 223.6 137.094 234.923 135.298 253.623C134.35 263.498 139.684 273.503 148.43 279.666C170.689 295.352 222.306 296.099 244.302 292.937C269.169 289.362 287.797 280.92 296.607 268.055C306.54 253.549 306.233 238.889 298.383 224.707C295.479 219.46 291.674 214.571 287.41 210.252C285.468 208.285 283.481 206.507 281.869 205.21L281.598 204.994L281.834 205.924L282.589 208.827L282.865 209.914C282.908 210.086 282.949 210.253 282.99 210.419L283.134 211.015C283.644 213.16 283.954 214.824 284.059 216.156C284.351 219.837 283.285 222.513 280.808 223.96C280.227 224.3 279.48 224.104 279.14 223.522C278.8 222.94 278.996 222.193 279.577 221.853C281.15 220.935 281.851 219.174 281.627 216.349C281.534 215.168 281.241 213.603 280.757 211.566L280.62 210.998C280.56 210.756 280.499 210.507 280.433 210.248L279.37 206.14C279.212 205.518 279.093 205.029 278.998 204.603L278.97 204.477C278.808 203.737 278.723 203.207 278.718 202.808C278.713 202.4 278.771 202.075 279.022 201.743Z" fill="#111111"/>
<path fill-rule="evenodd" clip-rule="evenodd" d="M252.682 215.865L253.554 215.718C259.309 214.769 263.953 214.425 267.502 214.694C271.247 214.978 275.216 215.99 279.411 217.726C279.964 217.955 280.227 218.589 279.998 219.143C279.769 219.696 279.135 219.959 278.581 219.73C274.59 218.078 270.842 217.122 267.339 216.857C263.818 216.59 259.049 216.969 253.05 218.002C252.46 218.104 251.899 217.708 251.798 217.117C251.696 216.527 252.092 215.966 252.682 215.865Z" fill="#111111"/>
<path fill-rule="evenodd" clip-rule="evenodd" d="M259.618 210.999C262.215 210.466 264.588 210.742 266.704 211.835C268.73 212.881 270.486 214.198 271.967 215.783C272.277 216.115 272.259 216.635 271.928 216.944C271.596 217.254 271.076 217.236 270.766 216.905C269.416 215.459 267.811 214.256 265.95 213.295C264.179 212.38 262.189 212.149 259.949 212.609C259.504 212.7 259.07 212.414 258.979 211.969C258.887 211.525 259.174 211.091 259.618 210.999Z" fill="#111111"/>
<path fill-rule="evenodd" clip-rule="evenodd" d="M264.87 206.697C265.103 206.307 265.607 206.18 265.997 206.413C268.08 207.659 269.805 209.053 271.168 210.597C272.544 212.156 273.673 214.149 274.562 216.571C274.718 216.997 274.5 217.469 274.074 217.625C273.648 217.782 273.176 217.563 273.019 217.137C272.197 214.897 271.168 213.081 269.936 211.685C268.69 210.274 267.097 208.986 265.153 207.824C264.764 207.591 264.637 207.086 264.87 206.697Z" fill="#111111"/>
<path fill-rule="evenodd" clip-rule="evenodd" d="M241.065 226.219C241.409 225.729 242.085 225.61 242.575 225.954C243.066 226.297 232.597 241.207 232.597 244.1C232.597 247.237 234.137 249.336 238.242 252.648L239.981 254.03L240.487 254.436C243.032 256.492 244.514 257.934 245.773 259.765C247.534 262.324 248.363 265.182 248.152 268.571C247.891 272.75 246.63 275.639 244.131 278.972L243.905 279.27C243.624 279.633 242.387 281.213 242.048 281.675C240.839 283.326 240.27 284.569 240.167 286.029C239.711 292.459 242.737 300.224 249.308 309.295C249.659 309.78 249.551 310.458 249.066 310.809C248.581 311.161 247.903 311.052 247.551 310.567C240.709 301.122 237.505 292.901 238.004 285.875C238.136 284.012 238.815 282.468 240.137 280.618L240.299 280.394C240.687 279.863 242.106 278.053 242.226 277.896C244.606 274.773 248.048 270.204 245.292 261.51C243.905 257.132 230.732 254.03 230.299 244.712C230.197 242.517 233.856 236.509 241.065 226.219Z" fill="#111111"/>
<path d="M245.052 271.301L243.539 271.317C234.58 271.432 229.132 271.883 227.448 272.605L227.387 272.632C224.912 273.767 222.965 275.307 221.477 277.151C220.321 278.584 219.504 280.12 218.97 281.653C218.811 282.109 218.688 282.537 218.596 282.925L218.534 283.201L221.125 286.522C221.151 286.555 221.174 286.589 221.196 286.624L221.221 286.66L221.303 286.779C221.862 287.591 222.498 288.384 223.315 289.31L223.692 289.729C224.363 290.462 226.5 292.765 227.226 293.594C228.78 295.368 230.088 297.075 231.341 299.034C233.251 302.021 234.936 305.47 236.448 309.646L236.557 309.952L236.665 310.265C236.798 310.652 236.927 311.049 237.067 311.497L237.706 313.591C238.648 316.678 239.307 318.095 240.351 318.954L240.527 319.095C241.895 320.16 243.171 320.423 246.716 320.536L247.753 320.565C252.466 320.694 254.925 316.951 252.228 314.231C251.382 313.378 248.592 312.716 244.029 312.439C243.432 312.403 243.993 310.863 244.029 310.265C244.066 309.667 244.58 309.212 245.177 309.248C245.706 309.28 246.214 309.317 246.701 309.359C240.657 300.6 237.707 293.137 238.176 286.522C238.309 284.658 238.109 283.929 239.43 282.079L239.683 281.733C240.164 281.09 241.408 279.504 241.52 279.357C242.537 278.022 243.246 276.929 243.815 275.735L243.927 275.495L243.964 275.409L244.027 275.269C244.327 274.585 244.643 273.405 244.966 271.751L245.052 271.301Z" fill="white"/>
<path fill-rule="evenodd" clip-rule="evenodd" d="M219.584 281.943C220.438 284.435 221.929 285.957 224.004 288.312L224.296 288.639C224.815 289.209 227.164 291.739 227.933 292.616C229.486 294.39 230.795 296.097 232.048 298.056C233.958 301.043 235.642 304.492 237.154 308.668C237.227 308.869 237.3 309.075 237.372 309.287L237.57 309.88C237.614 310.016 237.659 310.155 237.704 310.299L237.963 311.131C238.095 311.564 238.363 312.451 238.412 312.613L238.555 313.075C239.423 315.844 240.067 317.161 241.058 317.976L241.233 318.116C242.543 319.137 243.768 319.421 246.982 319.543L248.459 319.587C253.173 319.716 255.631 315.973 252.934 313.253C252.088 312.399 249.299 311.738 244.736 311.461C244.138 311.425 243.683 310.911 243.719 310.313C243.755 309.715 244.269 309.26 244.867 309.296L245.436 309.333C250.201 309.663 253.163 310.403 254.474 311.725C258.696 315.983 254.937 321.814 248.593 321.758L247.83 321.739C243.3 321.617 241.676 321.293 239.68 319.651C238.256 318.48 237.483 316.906 236.489 313.734L235.845 311.622L235.638 310.958C235.55 310.68 235.466 310.423 235.382 310.173L235.32 309.988C235.251 309.788 235.183 309.595 235.115 309.407C233.657 305.378 232.043 302.074 230.22 299.224C229.122 297.507 227.978 295.993 226.64 294.436L226.301 294.045C225.518 293.151 222.968 290.408 222.614 290.012C220.301 287.427 218.919 285.339 217.933 282.587L217.833 282.3C215.915 276.704 213.452 274.795 210.236 275.988C209.674 276.196 203.389 279.211 209.476 275.164C215.563 271.117 219.584 281.943 219.584 281.943Z" fill="#111111"/>
<path fill-rule="evenodd" clip-rule="evenodd" d="M257.425 243.419C256.244 243.419 254.548 240.025 254.548 238.367C254.548 236.708 258.791 237.269 258.791 237.269C258.791 237.269 263.247 237.867 262.632 239.535C262.018 241.203 258.082 243.419 257.425 243.419Z" fill="#2EC4B6"/>
<ellipse cx="250.44" cy="231.209" rx="2.34015" ry="4.37179" fill="#111111"/>
<ellipse cx="272.82" cy="232.198" rx="2.56465" ry="4.30331" fill="#111111"/>
<path fill-rule="evenodd" clip-rule="evenodd" d="M271.147 239.423C273.1 238.583 275.262 238.425 277.609 238.937C279.905 239.438 286.82 243.766 286.578 244.15C286.336 244.534 279.334 240.996 277.259 240.543C275.235 240.101 273.421 240.234 271.795 240.932C271.378 241.111 270.895 240.919 270.716 240.502C270.537 240.085 270.73 239.602 271.147 239.423Z" fill="#111111"/>
<path fill-rule="evenodd" clip-rule="evenodd" d="M272.391 242.262C274.442 242.371 274.976 241.903 277.785 243.727C280.594 245.55 282.693 249.844 282.309 250.086C281.925 250.327 279.683 246.497 277.11 244.568C274.538 242.64 271.503 243.492 271.527 243.039C271.55 242.611 271.896 242.277 272.316 242.262L272.391 242.262Z" fill="#111111"/>
<path fill-rule="evenodd" clip-rule="evenodd" d="M258.15 245.199C257.58 248.74 257.724 250.994 257.937 253.509C258.15 256.024 260.161 259.645 260.363 261.159C260.564 262.673 256.559 256.431 256.317 253.785C256.075 251.139 254.358 243.946 257.357 244.28C257.357 244.28 258.214 244.806 258.15 245.199Z" fill="#111111"/>
<path fill-rule="evenodd" clip-rule="evenodd" d="M243.227 239.856C245.048 239.856 245.786 239.901 247.559 240.249C248.005 240.337 248.294 240.769 248.207 241.214C248.119 241.659 247.687 241.949 247.242 241.862C246.611 241.737 245.401 241.209 243.394 241.231C240.651 241.26 238.263 242.782 238.144 242.53C237.95 242.12 241.406 239.856 243.227 239.856Z" fill="#111111"/>
<path fill-rule="evenodd" clip-rule="evenodd" d="M246.206 236.328C246.647 236.432 246.921 236.874 246.817 237.316C246.712 237.758 246.27 238.031 245.828 237.927C241.884 236.997 238.718 237.022 236.486 236.935C234.29 236.849 229.365 237.193 229.221 236.763C229.076 236.332 242.167 235.375 246.206 236.328Z" fill="#111111"/>
<path fill-rule="evenodd" clip-rule="evenodd" d="M264.506 288.633C265.105 288.644 265.582 289.138 265.571 289.737C265.532 291.948 265.842 293.509 266.439 294.407C268.946 298.175 271.071 300.717 273.065 301.563C273.12 301.586 273.249 301.619 273.451 301.658L273.75 301.712C273.974 301.749 274.92 301.892 275.086 301.919C275.709 302.017 276.223 302.112 276.724 302.225C277.831 302.476 278.752 302.797 279.514 303.243C281.806 304.581 283.318 306.539 283.465 308.463C283.635 310.687 282.019 312.347 279.162 312.868C272.147 314.148 267.237 312.894 264.65 308.997C261.958 305.18 259.269 302.014 256.588 299.499C253.949 297.024 251.607 295.433 249.586 294.717C249.022 294.517 248.727 293.897 248.927 293.332C249.127 292.768 249.747 292.473 250.311 292.673C252.655 293.504 255.233 295.255 258.072 297.917C260.867 300.54 263.65 303.816 266.44 307.772C268.478 310.842 272.522 311.875 278.773 310.735C280.627 310.397 281.379 309.624 281.303 308.628C281.217 307.507 280.15 306.126 278.42 305.115C277.88 304.799 277.154 304.546 276.245 304.34C275.853 304.251 275.444 304.174 274.96 304.095L273.392 303.851L273.09 303.798C272.714 303.727 272.447 303.657 272.218 303.56C270.727 302.927 269.196 301.566 267.592 299.648C266.534 298.384 265.723 297.245 264.634 295.608C263.747 294.275 263.357 292.309 263.403 289.698C263.413 289.1 263.907 288.623 264.506 288.633Z" fill="#111111"/>
<path fill-rule="evenodd" clip-rule="evenodd" d="M273.265 308.639C273.372 308.28 273.749 308.076 274.108 308.183C275.225 308.517 276.015 308.886 276.497 309.324C276.954 309.739 277.406 310.377 277.868 311.242C278.045 311.572 277.921 311.983 277.59 312.159C277.26 312.336 276.85 312.211 276.673 311.881C276.277 311.141 275.909 310.621 275.585 310.327C275.287 310.056 274.659 309.763 273.72 309.482C273.362 309.375 273.158 308.998 273.265 308.639Z" fill="#111111"/>
<path fill-rule="evenodd" clip-rule="evenodd" d="M276.801 307.205C276.919 306.849 277.303 306.657 277.658 306.775C278.614 307.094 279.325 307.456 279.797 307.885C280.265 308.311 280.714 308.998 281.169 309.957C281.33 310.295 281.186 310.699 280.848 310.859C280.51 311.02 280.105 310.876 279.945 310.538C279.559 309.725 279.198 309.172 278.885 308.889C278.577 308.608 278.023 308.325 277.23 308.062C276.875 307.943 276.683 307.56 276.801 307.205Z" fill="#111111"/>
<path fill-rule="evenodd" clip-rule="evenodd" d="M247.786 316.544C247.905 316.189 248.288 315.997 248.643 316.115C249.6 316.433 250.31 316.796 250.782 317.225C251.251 317.65 251.7 318.338 252.155 319.296C252.316 319.634 252.172 320.039 251.833 320.199C251.495 320.36 251.091 320.216 250.931 319.878C250.545 319.065 250.183 318.512 249.871 318.228C249.562 317.948 249.008 317.665 248.216 317.401C247.86 317.283 247.668 316.899 247.786 316.544Z" fill="#111111"/>
<path fill-rule="evenodd" clip-rule="evenodd" d="M249.758 314.244C249.876 313.889 250.26 313.697 250.615 313.815C251.571 314.133 252.282 314.496 252.754 314.925C253.222 315.35 253.672 316.038 254.127 316.996C254.287 317.334 254.143 317.738 253.805 317.899C253.467 318.059 253.063 317.915 252.902 317.577C252.516 316.764 252.155 316.212 251.843 315.928C251.534 315.647 250.98 315.365 250.187 315.101C249.832 314.983 249.64 314.599 249.758 314.244Z" fill="#111111"/>
<path fill-rule="evenodd" clip-rule="evenodd" d="M169.956 290.264C170.398 289.86 177.883 298.445 179.488 301.165C180.005 302.042 180.414 302.886 180.777 303.789C180.889 304.068 180.993 304.343 181.106 304.654L181.532 305.856C182.163 307.611 183.212 308.329 184.635 309.131C188.809 311.487 193.739 311.458 196.283 309.794C197.694 308.871 195.788 306.305 192.089 306.305C190.36 306.305 188.872 303.987 187.741 300.971C187.212 299.558 187.079 297.303 187.3 294.134C187.342 293.537 187.86 293.086 188.457 293.128C189.055 293.17 189.505 293.688 189.464 294.285C189.263 297.166 189.38 299.164 189.772 300.209L189.886 300.505C190.648 302.414 191.768 304.136 192.089 304.136C194.696 304.136 196.901 305.14 198.086 306.737C199.34 308.426 199.175 310.494 197.47 311.609C194.228 313.73 188.431 313.764 183.569 311.02C181.69 309.96 180.867 308.862 180.096 306.787L179.682 305.622C179.544 305.233 179.426 304.915 179.298 304.598C178.974 303.792 178.613 303.046 178.154 302.268C176.558 299.564 173.801 296.067 169.889 291.797C169.485 291.355 169.515 290.669 169.956 290.264Z" fill="#111111"/>
<path fill-rule="evenodd" clip-rule="evenodd" d="M190.036 308.639C190.144 308.28 190.521 308.076 190.88 308.183C191.996 308.517 192.786 308.886 193.269 309.324C193.726 309.739 194.177 310.377 194.64 311.242C194.817 311.572 194.692 311.983 194.362 312.159C194.032 312.336 193.621 312.211 193.445 311.881C193.049 311.141 192.681 310.621 192.357 310.327C192.058 310.056 191.431 309.763 190.492 309.482C190.133 309.375 189.929 308.998 190.036 308.639Z" fill="#111111"/>
<path fill-rule="evenodd" clip-rule="evenodd" d="M192.586 307.533C192.705 307.178 193.088 306.986 193.444 307.104C194.4 307.422 195.11 307.785 195.583 308.214C196.051 308.639 196.5 309.327 196.955 310.285C197.116 310.623 196.972 311.028 196.633 311.188C196.295 311.349 195.891 311.205 195.731 310.866C195.345 310.054 194.984 309.501 194.671 309.217C194.362 308.937 193.808 308.654 193.016 308.39C192.66 308.272 192.468 307.888 192.586 307.533Z" fill="#111111"/>
<path fill-rule="evenodd" clip-rule="evenodd" d="M67.5825 192.837L67.3533 192.995C66.6278 193.502 65.2304 194.522 64.9227 194.738L64.8911 194.76C64.0938 195.309 63.5554 195.588 63.1346 195.667C55.6997 197.076 49.2787 198.653 44.8833 201.98C38.7374 206.634 35.4175 214.77 39.6286 222.959C42.6251 228.786 53.9534 230.244 60.5869 227.092C61.7218 226.553 62.9307 225.878 64.3892 224.986L64.9955 224.612C65.2053 224.481 65.4211 224.346 65.6508 224.2L67.239 223.187L68.9753 222.075L69.6109 221.673C75.9954 217.662 80.0517 215.927 84.3776 215.927C87.9534 215.927 90.4697 216.909 93.6308 219.228L93.8692 219.404C94.4181 219.815 97.9805 222.656 99.1833 223.532C102.3 225.801 105.377 227.475 109.198 228.782L109.534 228.894C115.125 230.703 125.821 231.717 141.708 231.97C142.063 231.975 142.398 231.807 142.605 231.519L143.225 230.664C144.114 229.443 144.828 228.503 145.364 227.845C146.008 227.055 146.674 226.33 147.361 225.672C148.029 225.031 147.639 223.902 146.718 223.81L145.762 223.713C130.255 222.1 119.817 219.278 114.508 215.327L114.121 215.037C111.29 212.896 108.586 210.48 104.465 206.526L99.1388 201.41C97.033 199.403 96.2929 198.751 94.8177 197.498L94.5866 197.302C91.1377 194.377 88.1452 192.372 85.2425 191.175C84.6055 190.913 83.9747 190.691 83.3487 190.51C76.885 188.642 72.2447 189.68 67.5825 192.837ZM82.7466 192.593C83.2947 192.752 83.8509 192.948 84.4161 193.181C86.9883 194.241 89.7109 196.043 92.8669 198.688L94.1019 199.738C95.4613 200.907 96.4025 201.782 99.5355 204.792L103.251 208.366C107.458 212.395 110.215 214.835 113.213 217.067L113.389 217.196C118.837 221.153 128.733 223.935 143.128 225.605L144.305 225.738L144.289 225.756C144.153 225.912 144.018 226.071 143.884 226.232L143.588 226.593L143.361 226.876C142.932 227.42 142.421 228.094 141.828 228.901L141.177 229.792L139.859 229.767C124.915 229.464 114.901 228.441 109.9 226.73C106.438 225.545 103.634 224.047 100.8 222.024L100.46 221.779C99.3053 220.938 95.757 218.108 95.1671 217.667C91.5475 214.963 88.5665 213.758 84.3776 213.758C79.5216 213.758 75.1801 215.613 68.4682 219.83L67.4366 220.484L65.2246 221.902C64.5681 222.321 64.0493 222.648 63.5449 222.959L62.9846 223.302C61.7084 224.075 60.6425 224.665 59.6563 225.133C54.0329 227.805 45.9111 225.584 43.4778 220.852C39.7561 213.615 41.0656 208.296 46.384 204.27C50.4468 201.193 56.4062 199.149 63.5383 197.798C64.2848 197.657 65.0043 197.299 65.9429 196.668L66.1215 196.546C66.3997 196.354 68.0873 195.121 68.7314 194.679L68.7986 194.633C72.9625 191.813 76.9556 190.92 82.7466 192.593Z" fill="#111111"/>
<path fill-rule="evenodd" clip-rule="evenodd" d="M342.445 222.065L342.343 222.313L342.138 222.826C339.47 229.593 337.116 239.96 335.06 253.952L334.94 254.775L334.933 254.734C334.137 250.042 333.132 246.396 331.909 243.785C329.783 239.248 326.754 237.535 323.175 239.163C311.561 244.446 312.254 265.931 324.554 303.687C324.717 304.189 325.185 304.529 325.714 304.529H339.066C339.425 304.529 339.765 304.371 339.997 304.098C356.671 284.431 364.138 271.21 362.313 263.945L362.253 263.715C360.592 257.466 356.438 256.127 350.515 259.485L350.304 259.606L350.599 258.926C360.876 235.119 362.762 220.461 355.818 214.748C350.72 210.554 346.068 213.329 342.445 222.065ZM354.466 215.69C360.579 220.719 358.407 237.189 346.811 262.715C346.28 263.882 359.946 254.734 359.946 264.54L359.99 264.726C361.306 270.762 354.515 282.947 339.543 300.849L338.5 302.089L325.714 303C325.714 303 308.475 246.082 324.186 241.384C328.706 240.032 332.042 246.597 333.696 264.356C333.832 265.81 335.944 265.841 336.122 264.391L336.267 263.221C338.643 244.228 341.463 230.804 344.699 222.999L344.884 222.559C347.907 215.481 351.051 212.88 354.466 215.69Z" fill="#111111"/>
<path d="M354.267 216.632C360.381 221.661 357.904 237.061 346.308 262.587C345.777 263.754 347.176 264.845 348.179 264.046L348.586 263.725C355.174 258.597 358.552 258.989 359.946 264.54L359.99 264.727C361.306 270.762 354.515 282.947 339.543 300.849L338.5 302.089H326.6L326.173 300.759C314.955 265.598 314.512 245.784 324.186 241.384C328.648 239.354 332.042 246.597 333.696 264.356C333.832 265.81 335.944 265.841 336.122 264.391L336.267 263.221C338.643 244.228 341.463 230.804 344.699 222.999L344.884 222.559C347.907 215.481 350.852 213.822 354.267 216.632Z" fill="white"/>
<ellipse cx="322.479" cy="256.938" rx="4.33746" ry="4.33748" fill="#F4FBFA"/>
<ellipse cx="349.588" cy="228.745" rx="4.33745" ry="4.33749" fill="#F4FBFA"/>
<circle cx="351.757" cy="270.493" r="4.33748" fill="#F4FBFA"/>
<path fill-rule="evenodd" clip-rule="evenodd" d="M121.859 307.542C114.203 307.663 87.8733 309.614 87.4184 308.637C86.8366 307.388 115.549 305.744 121.807 305.645L123.767 305.619C129.458 305.557 121.859 307.542 121.859 307.542ZM234.482 305.005C235.156 304.987 235.716 305.518 235.734 306.192C235.752 306.865 235.22 307.426 234.547 307.444L223.649 307.713C216.867 307.869 209.005 308.03 197.389 308.259C196.715 308.272 196.158 307.736 196.145 307.063C196.132 306.389 196.667 305.832 197.341 305.819L217.911 305.4C224.156 305.265 229.174 305.145 234.482 305.005ZM262.589 304.436C263.263 304.425 263.818 304.963 263.828 305.637C263.839 306.31 263.301 306.865 262.628 306.876L259.769 306.911L251.023 306.971C249.191 306.99 247.758 307.015 246.068 307.056C245.395 307.073 244.835 306.54 244.819 305.867C244.802 305.193 245.335 304.634 246.008 304.617L248.16 304.571C249.568 304.545 251 304.529 252.901 304.515L260.175 304.467C261.02 304.459 261.786 304.449 262.589 304.436ZM341.65 302.089C341.65 302.089 343.84 301.711 359.831 302.908C360.503 302.959 361.007 303.544 360.957 304.216C360.906 304.888 352.999 304.549 342.189 304.53L339.216 304.534C331.278 304.57 323.904 304.784 311.666 305.288L296.219 305.941C289.628 306.211 285.695 306.342 280.913 306.455C280.239 306.471 279.68 305.938 279.665 305.264C279.649 304.591 280.182 304.032 280.855 304.016L284.696 303.916C289.264 303.783 293.958 303.6 302.281 303.244L311.106 302.869C324.905 302.299 332.579 302.089 341.65 302.089Z" fill="#111111"/>
<path d="M304.687 126.484L304.966 125.97C307.154 122.008 309.059 120.041 311.281 120.683C311.461 120.735 311.638 120.806 311.811 120.896C313.173 121.602 313.5 122.914 313.118 124.705L313.093 124.816L313.157 124.724C313.802 123.807 314.418 123.099 315.056 122.574L315.193 122.464C316.611 121.36 318.116 121.257 319.479 122.408C321.655 124.245 321.408 127.326 319.631 129.222L319.533 129.324C319.286 129.574 319.137 130.114 318.972 131.386L318.828 132.5C318.656 133.785 318.54 134.349 318.269 135.22C317.757 136.864 316.917 138.236 315.61 139.357C313.966 140.765 311.193 140.569 307.286 138.963C306.867 138.791 306.666 138.311 306.839 137.891C307.011 137.471 301.359 132.487 301.188 132.705L301.133 132.769C300.818 133.096 300.298 133.106 299.971 132.792L299.177 132.027C298.699 131.566 298.937 130.757 299.589 130.63C300.783 130.395 301.71 130.137 302.361 129.861C302.907 129.629 303.206 129.407 303.277 129.263C303.277 129.263 304.464 126.9 304.687 126.484Z" fill="white"/>
<path fill-rule="evenodd" clip-rule="evenodd" d="M298.823 130.712C297.438 130.608 296.624 131.661 296.624 132.935C296.624 137.347 303.831 143.38 308.528 143.38C309.905 143.38 311.031 142.395 310.631 140.89C310.481 140.323 310.134 139.819 309.565 139.199L309.44 139.064C308.8 138.385 308.139 137.779 306.657 136.503L304.386 134.557C303.829 134.075 302.943 133.306 302.675 133.077L302.352 132.803C301.732 132.279 301.252 131.898 300.823 131.595C300.066 131.06 299.479 130.761 298.823 130.712ZM298.267 132.935C298.267 131.21 300.738 133.595 303.713 136.147L305.689 137.837C308.108 139.923 311.06 142.092 309.565 142.251C304.828 142.755 298.267 136.474 298.267 132.935Z" fill="#111111"/>
<path fill-rule="evenodd" clip-rule="evenodd" d="M299.202 119.151C299.542 118.85 301.238 117.665 300.362 119.22C299.486 120.775 294.422 122.748 299.486 130.611C299.679 130.91 299.444 131.51 299.022 131.676C298.6 131.842 298.123 131.634 297.957 131.212C296.677 127.951 296.084 125.59 296.198 124.056C296.318 122.429 297.339 120.803 299.202 119.151Z" fill="#111111"/>
<path fill-rule="evenodd" clip-rule="evenodd" d="M292.876 121.888C292.965 121.443 293.843 120.342 293.843 121.244C293.843 122.146 292.553 124.433 294.368 127.011C296.184 129.589 299.308 131.337 299.041 131.703C298.774 132.07 298.26 132.151 297.893 131.884C295.264 129.969 293.668 128.471 293.067 127.296C292.439 126.071 292.396 124.278 292.876 121.888Z" fill="#111111"/>
<path fill-rule="evenodd" clip-rule="evenodd" d="M304.687 126.484L304.966 125.97C307.154 122.008 309.059 120.041 311.281 120.683C311.461 120.735 311.638 120.806 311.811 120.896C313.173 121.602 313.5 122.914 313.118 124.705L313.093 124.816L313.157 124.724C313.802 123.807 314.418 123.099 315.056 122.574L315.193 122.464C316.611 121.36 318.116 121.257 319.479 122.408C321.655 124.245 321.408 127.326 319.631 129.222L319.533 129.324C319.286 129.574 319.137 130.114 318.972 131.386L318.828 132.5C318.656 133.785 318.54 134.349 318.269 135.22C317.757 136.864 316.917 138.236 315.61 139.357C313.966 140.765 311.193 140.569 307.286 138.963C306.867 138.791 306.666 138.311 306.839 137.891C307.011 137.471 312.926 140.908 315.193 138.236C317.459 135.564 317.704 130.037 318.358 128.362L318.516 128.07C319.769 126.803 319.811 124.839 318.419 123.663C317.701 123.057 317.049 123.101 316.202 123.761C315.43 124.362 314.626 125.393 313.698 126.895L313.426 127.342C312.97 128.112 312.055 129.709 311.934 129.912L311.767 130.188C311.204 131.108 310.487 131.684 310.381 131.708C310.274 131.733 310.123 131.648 310.086 130.87C310.073 130.614 310.138 130.357 310.274 130.007L310.329 129.871C310.493 129.47 311.401 127.584 311.464 127.449C311.739 126.855 311.96 126.337 312.143 125.849C312.882 123.881 311.783 122.732 311.055 122.354C310.977 122.314 310.9 122.283 310.825 122.262C309.697 121.936 308.127 123.611 306.294 126.967L305.896 127.71C305.603 128.27 305.315 128.846 304.75 129.991C304.339 130.823 303.243 131.419 301.415 131.901L301.314 131.926L301.323 131.95C301.403 132.202 301.359 132.487 301.188 132.705L301.133 132.769C300.818 133.096 300.298 133.106 299.971 132.792L299.177 132.027C298.699 131.566 298.937 130.757 299.589 130.63C300.783 130.395 301.71 130.137 302.361 129.861C302.907 129.629 303.206 129.407 303.277 129.263L304.045 127.718C304.281 127.251 304.464 126.9 304.687 126.484Z" fill="#111111"/>
<ellipse cx="315.467" cy="128.997" rx="1.86668" ry="1.53039" fill="#2EC4B6"/>
<ellipse cx="310.133" cy="124.73" rx="1.86668" ry="1.53039" fill="#2EC4B6"/>
<path fill-rule="evenodd" clip-rule="evenodd" d="M298.658 135.464C298.398 135.233 298.072 134.817 297.785 134.366L297.416 134.53L296.979 134.717C296.891 134.757 296.834 134.789 296.817 134.814C296.766 134.908 296.65 134.943 296.555 134.894C296.463 134.844 296.426 134.728 296.476 134.634C296.511 134.545 296.756 134.266 297.212 133.993C297.295 133.944 297.386 133.898 297.484 133.853C297.316 133.539 297.184 133.235 297.122 132.991C297.028 132.632 297.103 132.378 297.226 132.288C297.347 132.2 297.65 132.183 298.111 132.566C298.196 132.631 298.21 132.752 298.145 132.836C298.081 132.919 297.961 132.935 297.876 132.87C297.788 132.805 297.699 132.769 297.628 132.742L297.663 132.88C297.676 132.929 297.693 132.98 297.717 133.03C297.799 133.211 297.904 133.418 298.023 133.63C298.383 133.493 298.794 133.37 299.237 133.31C299.454 133.281 299.674 133.275 299.903 133.277C300.034 133.269 300.149 133.369 300.157 133.5C300.166 133.632 300.066 133.746 299.935 133.755C299.401 133.806 298.908 133.941 298.472 134.093L298.329 134.144C298.565 134.512 298.817 134.847 299.034 135.036C299.151 135.139 299.163 135.32 299.06 135.438C298.955 135.557 298.775 135.568 298.658 135.464Z" fill="#2EC4B6"/>
<path fill-rule="evenodd" clip-rule="evenodd" d="M173.24 282.196C171.892 288.551 165.382 290.353 165.453 295.469C165.489 298.115 166.22 300.31 166.82 301.999C168.04 305.431 171.218 308.966 172.69 312.24C173.948 315.037 180.261 313.145 180.765 317.492C181.04 319.86 176.574 321.225 175.359 321.317C173.614 321.449 171.403 320.85 168.725 319.52C165.468 317.937 162.854 316.69 160.961 314.41C160.592 313.966 160.36 312.71 159.952 310.736C159.506 308.576 157.98 303.085 153.993 294.22C153.424 292.953 151.245 287.772 148.821 282.471C146.821 278.097 155.087 269.336 158.752 269.642C167.756 270.395 174.193 277.707 173.24 282.196Z" fill="white"/>
<path fill-rule="evenodd" clip-rule="evenodd" d="M166.928 319.613C164.687 318.279 162.843 316.741 161.398 315C161.029 314.555 160.757 312.917 160.349 310.943C160.135 309.909 152.354 291.241 149.787 284.214C149.308 282.903 150.471 283.821 150.744 284.214C152.233 286.36 161.398 300.515 165.776 313.628" fill="#F4FBFA"/>
<path fill-rule="evenodd" clip-rule="evenodd" d="M168.675 319.056L169.008 319.22C171.526 320.471 173.559 321.022 175.077 320.907C176.707 320.784 179.368 319.314 179.485 318.062C179.674 316.053 179.13 315.483 176.442 314.468C175.663 314.174 173.555 314.238 170.307 314.73C169.715 314.819 169.162 314.412 169.073 313.82C168.983 313.228 169.39 312.675 169.982 312.585L170.517 312.507C173.839 312.031 176.016 311.989 177.209 312.439L177.562 312.576C180.788 313.852 181.936 315.171 181.645 318.265C181.398 320.887 177.799 322.876 175.241 323.07C173.333 323.214 171.034 322.613 168.324 321.3L168.051 321.166C164.662 319.52 161.963 317.496 159.967 315.09C159.704 314.774 159.535 314.351 159.363 313.704L159.323 313.55C159.259 313.299 159.195 313.02 159.12 312.67L158.69 310.561L158.624 310.253C157.917 307.086 155.869 301.241 152.765 294.297L152.292 293.252C152 292.616 147.838 285.87 147.527 284.29C146.365 278.379 151.115 275.452 151.115 275.452C151.115 275.452 148.652 280.65 149.346 283.205C149.886 285.192 154.441 292.028 156.061 297.269C157.738 302.692 159.493 308.479 162.057 313.211C163.993 316.783 165.378 318.401 168.675 319.056Z" fill="#111111"/>
<path fill-rule="evenodd" clip-rule="evenodd" d="M173.934 317.84C174.041 317.482 174.418 317.278 174.777 317.385C175.894 317.719 176.684 318.087 177.166 318.525C177.623 318.941 178.074 319.578 178.537 320.444C178.714 320.774 178.589 321.184 178.259 321.361C177.929 321.537 177.519 321.413 177.342 321.083C176.946 320.342 176.578 319.822 176.254 319.528C175.956 319.257 175.328 318.964 174.389 318.684C174.03 318.577 173.826 318.199 173.934 317.84Z" fill="#111111"/>
<path fill-rule="evenodd" clip-rule="evenodd" d="M175.826 315.749C175.945 315.394 176.328 315.202 176.684 315.32C177.64 315.638 178.35 316.001 178.823 316.43C179.291 316.855 179.74 317.543 180.195 318.501C180.356 318.839 180.212 319.243 179.873 319.404C179.535 319.564 179.131 319.42 178.971 319.082C178.585 318.269 178.223 317.717 177.911 317.433C177.602 317.153 177.048 316.87 176.256 316.606C175.9 316.488 175.708 316.104 175.826 315.749Z" fill="#111111"/>
<path fill-rule="evenodd" clip-rule="evenodd" d="M169.041 272.07C171.425 273.029 176.114 278.345 175.389 281.331C174.639 284.419 173.539 285.652 171.788 287.699L171.605 287.911C171.071 288.518 168.866 290.758 168.779 290.852L168.569 291.083C166.605 293.3 165.802 295.752 167.4 300.27C168.571 303.58 170.497 307.343 173.155 310.931C173.506 311.404 174.378 312.794 173.905 313.145C173.432 313.495 172.312 312.362 171.961 311.889C169.183 308.139 167.168 304.504 165.922 300.982C164.04 295.66 164.494 293.467 167.092 290.601L167.258 290.423C167.536 290.133 169.446 288.19 169.952 287.626L170.003 287.569C171.635 285.712 172.711 283.745 173.402 280.902C173.879 278.937 171.873 275.448 167.633 272.617C164.818 270.737 166.656 271.111 169.041 272.07Z" fill="#111111"/>
</svg>
