<svg width="373" height="343" viewBox="0 0 373 343" fill="none" xmlns="http://www.w3.org/2000/svg">
<path fill-rule="evenodd" clip-rule="evenodd" d="M142.17 305.792C167.53 313.633 195.368 311.701 221.377 305.925C257.818 297.832 293.522 281.372 315.629 253.549C323.136 244.1 329.084 232.899 328.44 221.215C327.644 206.786 316.952 193.513 318.505 179.137C319.734 167.756 328.437 158.187 331.302 147.057C335.569 130.483 324.508 111.774 307.055 106.042C296.488 102.571 284.913 103.542 273.692 103.629C252.449 103.793 231.18 100.589 211.106 94.2012C199.577 90.5328 188.473 85.8357 177.119 81.7311C136.299 66.973 89.5762 60.1906 48.8805 75.2369C31.8703 81.5261 15.4933 92.7329 10.5083 108.946C5.82331 124.184 12.2677 140.715 22.4653 153.479C32.663 166.243 46.3416 176.225 58.6704 187.287C70.9992 198.35 82.4354 211.257 86.14 226.721C88.3381 235.897 87.6806 245.473 89.5571 254.709C94.4678 278.878 116.81 297.951 142.17 305.792Z" fill="#2EC4B6"/>
<path d="M166.779 86.1724C167.735 86.686 168.406 87.5683 168.806 88.5169C169.934 91.193 169.026 94.2506 167.538 96.7738C166.051 99.297 164.007 101.525 162.641 104.106C161.403 106.443 160.75 109.039 160.745 111.639C160.745 111.994 160.221 112.181 159.869 112.035C159.516 111.889 159.313 111.551 159.14 111.232C155.542 104.587 154.715 96.3204 158.639 89.8328C159.459 88.4767 160.509 87.1848 161.96 86.3918C163.41 85.5987 165.323 85.3892 166.779 86.1724Z" fill="white"/>
<path d="M133.88 106.73C135.09 107.09 136.102 107.867 136.977 108.716C141.259 112.869 142.757 118.758 144.088 124.349C144.172 124.698 143.855 125.258 143.608 124.981C141.237 122.323 137.824 120.675 134.848 118.596C131.871 116.516 129.123 113.594 129.134 110.157C129.138 109.106 129.447 107.995 130.29 107.286C131.228 106.497 132.67 106.371 133.88 106.73Z" fill="white"/>
<path fill-rule="evenodd" clip-rule="evenodd" d="M138.817 80.6604C137.082 86.7512 140.262 93.0209 143.407 98.6136C143.715 99.1611 144.223 99.8002 144.876 99.6628C144.608 95.9887 145.606 92.3389 145.756 88.6591C145.907 84.9794 144.975 80.9198 141.8 78.6756C141.221 78.2663 140.336 78.4354 139.799 78.8906C139.262 79.3458 139.002 80.0108 138.817 80.6604L138.817 80.6604Z" fill="white"/>
<path fill-rule="evenodd" clip-rule="evenodd" d="M142.166 257.307C143.625 258.996 143.666 261.406 143.047 263.487C142.262 266.13 140.478 268.493 138.122 270.166C137.535 270.584 149.873 278.148 139.553 278.577C129.233 279.006 134.777 271.944 133.992 272.175C132.526 272.605 130.843 272.892 129.95 274.044C129.057 275.197 130.165 277.37 131.575 276.805C132.508 276.431 133.361 277.759 132.868 278.577C132.375 279.395 131.257 279.673 130.251 279.814C127.98 280.133 125.545 280.129 123.522 279.127C121.499 278.126 120.064 275.895 120.721 273.871C121.064 272.814 119.933 271.748 118.745 271.591C117.557 271.433 116.388 271.892 115.278 272.31C101.758 277.398 86.1516 277.619 72.4673 272.917C58.7831 268.216 47.1583 258.638 40.5786 246.645C38.9669 243.707 37.6203 240.594 35.3466 238.054C31.9411 234.248 26.5099 232.055 21.1588 232.323C19.3407 232.415 18.3662 230.08 19.2002 228.591C20.0341 227.103 21.8514 226.355 23.5412 225.731C30.3274 223.227 37.3213 220.947 44.6092 220.398C61.0809 219.157 77.802 227.634 85.9696 240.846C89.5674 246.666 91.6296 253.259 95.7646 258.769C99.8995 264.279 107.154 268.698 114.193 266.991C114.817 266.839 114.878 266.063 114.854 265.47C114.645 260.244 118.585 255.109 124.009 253.538C123.553 253.94 125.27 253.233 128.059 252.01C129.158 251.528 117.68 248.677 108.002 243.874C97.9518 238.886 100.684 229.518 105.292 222.262C106.217 220.805 85.665 207.982 89.5172 204.811C94.9895 200.307 111.557 214.373 112.733 213.331C113.404 212.735 113.918 211.653 114.193 211.543C116.628 210.572 118.554 208.397 120.721 207.683C122.258 207.176 124.101 208.068 125.509 207.683C127.133 207.238 114.426 197.55 118.182 194.52C121.938 191.491 133.304 206.016 134.744 205.865C167.204 202.455 151.852 241.978 152.45 242.557C154.467 244.512 139.384 254.085 142.166 257.307Z" fill="white"/>
<path fill-rule="evenodd" clip-rule="evenodd" d="M131.917 236.667C133.84 236.542 134.814 235.008 134.093 233.24C133.372 231.472 131.229 230.14 129.307 230.264C127.384 230.389 126.41 231.923 127.131 233.691C127.852 235.459 129.995 236.792 131.917 236.667Z" fill="#2EC4B6"/>
<path fill-rule="evenodd" clip-rule="evenodd" d="M154.438 224.321C155.853 224.233 156.569 223.139 156.039 221.88C155.509 220.62 153.932 219.671 152.518 219.76C151.104 219.848 150.388 220.942 150.918 222.201C151.448 223.461 153.024 224.41 154.438 224.321Z" fill="#2EC4B6"/>
<ellipse cx="167.319" cy="238.33" rx="21.5183" ry="19.6019" fill="white"/>
<path d="M238.13 247.193C235.846 248.372 232.515 249.579 231.039 247.59C230.351 246.663 230.491 245.433 230.66 244.321C232.097 234.83 235.027 223.968 236.465 214.477C239.392 208.151 249.438 173.827 253.585 171.5C254.02 171.256 251.928 168.273 251.711 163.011C251.66 161.789 233.768 154.788 229.255 146.926C227.338 143.587 224.336 133.226 225.543 129.02C227.133 123.474 233.456 124.383 233.603 124.109C233.909 123.539 250.969 124.451 256.343 131.665C260.681 137.488 257.226 150.747 257.321 150.724C258.595 150.412 258.682 170.144 259.95 170.363C275.416 173.041 289.89 212.134 290.502 211.845C294.384 216.094 298.267 220.344 302.149 224.593C304.606 227.282 307.215 230.823 305.631 234.019C304.812 235.671 303.039 236.735 301.272 237.544C285.617 244.716 264.971 239.693 248.002 243.588C244.557 244.379 241.227 245.595 238.13 247.193Z" fill="white"/>
<ellipse cx="248.904" cy="143.153" rx="3.71902" ry="3.20941" fill="#2EC4B6"/>
<path fill-rule="evenodd" clip-rule="evenodd" d="M343.963 200.481C342.386 202.537 340.461 204.467 337.968 205.503C335.475 206.539 332.321 206.515 330.202 204.923C328.5 209.605 321.817 212.083 317.06 209.797C316.504 213.628 313.143 216.979 309.035 217.799C304.927 218.618 300.359 216.849 298.127 213.574C295.659 209.953 287.447 211.99 286.479 207.81C285.959 210.204 283.553 212.139 280.903 212.293C278.253 212.447 275.601 210.806 274.758 208.491C271.876 209.731 268.303 208.42 266.231 206.2C264.159 203.979 263.253 201.057 262.461 198.223C256.36 176.382 253.656 153.782 253.778 131.233C253.169 133.971 249.022 134.941 246.379 133.56C243.736 132.18 242.408 129.37 241.633 126.668C241.005 124.483 237.928 123.729 235.526 124.205C233.123 124.68 230.958 125.954 228.531 126.307C223.829 126.991 219.09 123.778 217.611 119.617C216.132 115.457 217.517 110.742 220.386 107.25C223.255 103.757 227.437 101.351 231.803 99.6077C237.435 97.3582 243.529 96.0887 249.666 95.8861C251.158 95.8368 252.958 95.6844 253.622 94.4544C256.91 95.854 260.644 95.9499 264.234 96.4002C272.634 97.454 280.711 100.611 287.365 105.442C296.559 112.116 302.821 121.69 311.834 128.571C326.707 139.926 348.347 143.459 359.851 157.745C363.205 161.909 365.47 166.809 366.406 171.918C367.285 176.714 366.862 182.02 363.602 185.849C360.342 189.679 353.638 191.198 349.605 188.053C348.74 192.508 346.799 196.783 343.963 200.481Z" fill="white"/>
<path fill-rule="evenodd" clip-rule="evenodd" d="M255.457 184.072C255.885 182.217 256.177 180.213 255.339 178.48C254.501 176.747 252.122 175.524 250.305 176.421C243.957 179.557 240.16 185.72 237.154 191.742C234.148 197.765 231.446 204.166 226.245 208.753C221.93 212.559 216.045 214.823 210.068 214.976C209.469 215.292 209.929 216.216 210.594 216.387C211.259 216.559 211.975 216.345 212.655 216.451C214.535 216.742 214.938 219.336 213.711 220.678C212.485 222.02 210.445 222.4 208.566 222.699C207.326 222.896 207.846 224.889 209.084 225.096C210.322 225.303 211.459 224.518 212.541 223.929C213.624 223.339 215.166 222.972 216.019 223.822C214.414 224.561 213.307 226.139 213.236 227.789C215.263 225.84 218.182 224.703 221.115 224.72C220.33 225.613 219.546 226.505 218.761 227.398C222.035 226.77 224.748 224.163 225.287 221.128C225.791 218.289 228.916 216.625 231.585 215.125C243.676 208.326 252.52 196.822 255.457 184.072Z" fill="white"/>
<path fill-rule="evenodd" clip-rule="evenodd" d="M186.299 0.3086C186.066 0.368419 185.696 0.327731 185.733 0.107247C185.873 0.041293 186.029 -0.0265709 186.181 0.0105167C186.333 0.0476043 186.432 0.249663 186.31 0.340535L186.299 0.3086Z" fill="#111111"/>
<path fill-rule="evenodd" clip-rule="evenodd" d="M227.522 273.878C226.835 273.577 225.817 274.348 226.296 274.892C227.271 275.997 227.915 277.347 228.137 278.755C229.082 278.059 228.899 276.715 228.626 275.63C228.454 274.949 228.209 274.179 227.522 273.878ZM230.674 279.477L231.409 279.463C232.722 279.441 234.057 279.427 235.831 279.415L242.613 279.374C243.401 279.367 244.115 279.358 244.864 279.347C245.493 279.338 246.01 279.799 246.02 280.377C246.03 280.954 245.529 281.43 244.9 281.439L242.235 281.469L234.079 281.521C232.371 281.537 231.034 281.559 229.458 281.594C228.83 281.608 228.309 281.151 228.293 280.574C228.278 279.996 228.775 279.517 229.403 279.503L230.179 279.487C229.758 277.957 229.713 276.341 230.049 274.793C231.598 275.832 231.84 278.116 230.674 279.477ZM179.557 276.8C179.771 276.366 180.031 275.918 180.478 275.676C180.925 275.434 181.606 275.501 181.836 275.929C180.521 277.653 179.731 279.712 179.579 281.813C179.189 282.037 178.642 281.777 178.448 281.394C178.255 281.01 178.317 280.563 178.403 280.147C178.641 278.995 179.029 277.868 179.557 276.8ZM101.529 282.521C106.509 282.276 111.136 282.047 113.633 282.011C113.633 282.011 120.72 280.309 115.413 280.361L113.585 280.384C107.749 280.469 80.9751 281.878 81.5177 282.95C81.7935 283.495 92.2708 282.978 101.529 282.521L101.529 282.521ZM219.822 280.853C219.805 280.275 219.283 279.819 218.655 279.835C213.704 279.955 209.026 280.058 203.202 280.174L184.02 280.533C183.392 280.545 182.893 281.022 182.905 281.6C182.917 282.177 183.437 282.636 184.065 282.625C194.897 282.429 202.228 282.291 208.553 282.157L218.715 281.926C219.343 281.911 219.839 281.43 219.822 280.853ZM335.543 278.037C320.631 277.011 318.589 277.335 318.589 277.335C310.13 277.335 302.974 277.515 290.106 278.004L281.877 278.325C274.116 278.63 269.739 278.788 265.479 278.901L261.898 278.987C261.27 279 260.772 279.48 260.787 280.057C260.802 280.635 261.323 281.092 261.951 281.078C266.411 280.982 270.078 280.869 276.225 280.637L290.629 280.078C302.041 279.646 308.917 279.462 316.319 279.432L319.091 279.427C321.862 279.432 324.428 279.457 326.693 279.479L326.693 279.479L326.694 279.479L326.694 279.479L326.694 279.479L326.694 279.479C332.672 279.538 336.558 279.576 336.592 279.159C336.639 278.582 336.169 278.08 335.543 278.037ZM155.973 279.394L153.067 286.201C151.513 283.784 153.046 280.194 155.973 279.394ZM159.052 284.607C158.961 284.161 158.241 283.866 157.964 284.242L155.3 287.86C154.74 288.62 154.368 289.945 155.324 290.207L158.571 285.855C158.851 285.481 159.143 285.053 159.052 284.607ZM138.35 284.179C138.586 283.863 138.877 283.522 139.291 283.479C139.706 283.435 140.121 283.942 139.817 284.204L138.059 288.412C137.348 287.968 137.099 287.077 137.246 286.299C137.394 285.521 137.864 284.83 138.35 284.179ZM126.51 285.95C126.461 286.21 126.571 286.471 126.689 286.712C127.131 287.624 127.702 288.482 128.383 289.261C129.026 288.755 129.06 287.811 128.692 287.111C128.323 286.411 127.647 285.897 126.99 285.407C126.743 285.496 126.554 285.709 126.51 285.95ZM144.383 288.58C144.839 289.417 144.703 290.498 144.05 291.217C143.246 290.298 142.803 289.117 142.819 287.938C142.824 287.594 142.911 287.191 143.25 287.046C143.954 286.745 144.347 287.814 144.256 288.523L144.383 288.58ZM149.503 282.632C149.628 282.27 149.775 281.879 150.122 281.673C150.469 281.466 151.061 281.605 151.094 281.983C150.744 283.38 150.403 284.777 150.071 286.177C149.68 286.517 148.976 286.214 148.791 285.749C148.605 285.285 148.767 284.772 148.929 284.3L149.503 282.632Z" fill="#111111"/>
<path fill-rule="evenodd" clip-rule="evenodd" d="M86.1127 204.19L87.7816 205.527L85.665 206.625C89.8829 207.306 93.4786 209.843 96.4236 212.702C101.191 217.329 104.729 223.02 106.647 229.145C107.845 225.366 105.589 221.429 103.098 218.227C99.3576 213.418 94.8887 209.089 89.8612 205.404C96.5326 203.927 102.723 208.754 107.586 213.205C108.463 214.008 109.415 215.024 109.148 216.136C109.102 216.326 109.027 216.529 108.951 216.732C108.729 217.331 108.503 217.938 109.017 218.259C112.316 214.818 116.527 212.121 121.182 210.471C118.788 210.42 116.382 211.097 114.43 212.371C117.325 209.299 121.807 207.552 126.221 207.775C124.897 203.994 122.711 200.469 119.847 197.496C121.503 196.45 123.679 197.791 125.077 199.117C127.531 201.443 129.777 203.955 131.785 206.618C142.187 206.44 152.296 213.104 155.452 222.221C156.655 221.739 156.359 220.097 155.778 219.015C151.679 211.371 143.122 205.906 133.9 205.043C131.845 204.85 130.727 203.17 129.58 201.448C128.595 199.966 127.588 198.454 125.946 197.829C122.395 196.476 119.201 194.337 116.711 191.644C116.58 192.752 117.17 193.906 118.182 194.52L114.582 193.818C114.883 194.588 115.569 195.224 116.405 195.507L114.39 196.139C118.892 197.756 122.431 201.475 123.577 205.792L115.383 209.89C116.762 208.149 118.405 206.585 120.25 205.257C117.654 205.269 115.687 207.324 114.087 209.204C114.668 207.563 115.345 205.951 116.114 204.377C113.058 206.892 111.213 210.609 111.148 214.379C104.555 207.871 96.1293 202.946 86.9221 200.221C88.5067 201.213 90.076 202.225 91.6295 203.257C89.851 202.541 87.8842 202.223 85.9465 202.339L89.7123 204.101L86.1127 204.19ZM131.034 253.25L143.389 247.003C145.647 245.861 148.33 244.694 150.686 245.653C148.019 248.819 144.868 251.639 141.355 254.006C141.318 255.105 143.268 254.695 144.112 253.916L154.503 244.333C153.635 244.025 152.633 244.053 151.787 244.408L150.566 242.776C143.92 245.152 137.516 248.098 131.462 251.563C129.242 252.833 126.35 251.831 124.062 250.667C118.23 247.697 112.987 243.753 108.666 239.084C105.531 235.696 102.753 231.374 103.786 227.028L103.799 226.971C104.106 225.681 104.51 223.981 103.238 223.396C101.456 226.56 101.662 230.448 103.089 233.761C104.517 237.074 107.051 239.886 109.812 242.386C116.025 248.012 123.608 252.353 131.841 254.996C132.593 255.237 133.754 255.249 133.838 254.52C132.986 253.961 132.035 253.531 131.034 253.25ZM143.126 216.833C143.61 216.783 144.135 216.788 144.537 217.041C144.939 217.294 145.121 217.875 144.786 218.2C143.196 219.74 143.689 222.634 145.716 223.653C145.557 222.857 145.848 221.937 146.608 221.529C147.367 221.121 148.554 221.493 148.688 222.293C147.444 222.462 146.594 223.847 147.08 224.913C147.513 225.862 147.129 227.066 146.209 227.65C145.289 228.234 143.929 228.137 143.118 227.429C142.815 227.164 142.55 226.817 142.288 226.473C141.726 225.736 141.179 225.018 140.3 225.183C140.177 225.205 140.052 225.246 139.927 225.287C139.621 225.386 139.317 225.484 139.07 225.32C138.828 225.159 138.813 224.838 138.822 224.564C138.835 224.151 138.857 223.714 139.104 223.369C139.352 223.024 139.913 222.836 140.263 223.095C140.386 223.187 140.464 223.315 140.541 223.444L140.541 223.444C140.57 223.493 140.6 223.543 140.632 223.59C141.242 224.483 142.973 224.354 143.419 223.384C143.136 221.847 141.131 220.804 139.552 221.371C138.848 221.625 138.07 220.937 138.062 220.241C138.053 219.545 138.565 218.935 139.13 218.472C140.236 217.565 141.653 216.984 143.126 216.833ZM145.883 224.634C145.253 224.623 144.571 224.628 144.07 224.979C143.569 225.33 143.456 226.167 144.013 226.437C144.217 226.535 144.46 226.536 144.69 226.518C145.211 226.475 145.759 226.323 146.087 225.948C146.416 225.572 146.41 224.932 145.97 224.671L145.883 224.634ZM176.834 224.452C178.46 222.863 181.643 223.014 183.085 224.746C183.679 225.461 185.106 225.06 185.386 224.198C185.667 223.336 185.018 222.394 184.14 221.997C183.263 221.6 182.23 221.633 181.263 221.77C180.694 221.851 180.106 221.96 179.513 222.07C177.025 222.531 174.433 223.012 172.648 221.517C170.763 219.938 168.027 219.455 165.491 219.703C162.955 219.95 160.554 220.846 158.193 221.731L152.67 223.803C150.894 224.469 148.95 225.283 148.204 226.908C147.458 228.533 149.089 230.912 150.869 230.255C157.633 227.756 165.635 230.045 171.159 234.418C176.684 238.791 180.165 244.922 183.111 251.053C183.535 251.936 185.057 251.867 185.759 251.15C186.462 250.433 186.568 249.391 186.64 248.428L187.48 237.194C187.594 235.675 187.696 234.09 187.049 232.688C186.337 231.144 184.825 230.056 183.375 229.039L176.834 224.452ZM171.522 232.964C165.46 228.532 157.03 226.427 149.735 228.821C149.173 227.012 151.485 225.648 153.393 224.969L160.359 222.489C162.358 221.778 164.416 221.056 166.56 221.066C170.672 221.085 173.921 223.645 177.149 226.19C178.24 227.05 179.33 227.908 180.449 228.666C180.763 228.879 181.085 229.087 181.409 229.297C182.932 230.283 184.479 231.284 185.304 232.794C186.118 234.285 186.087 236.033 186.013 237.7C185.831 241.768 185.498 245.83 185.014 249.877C184.963 250.301 184.507 250.866 184.201 250.545C181.545 243.854 177.585 237.396 171.522 232.964ZM123.037 213.949C123.863 213.92 124.836 214.023 125.258 214.676C125.454 214.981 125.484 215.37 125.337 215.697C123.23 214.599 120.146 215.864 119.627 218.039C118.578 217.415 118.692 215.846 119.573 215.031C120.453 214.216 121.789 213.994 123.037 213.949ZM136.669 207.376C135.091 208.836 135.09 211.481 136.667 212.943C137.243 213.477 137.061 214.45 136.449 214.95C135.837 215.45 134.946 215.555 134.134 215.465C132.49 215.282 131.096 214.44 129.691 213.591C128.746 213.02 127.796 212.446 126.762 212.068C123.518 210.88 119.678 211.789 116.926 213.767C114.174 215.745 112.371 218.642 111.086 221.629C110.054 224.026 109.31 226.692 110.108 229.164C111.183 232.492 114.693 234.558 117.941 236.327C115.114 236.152 112.689 239.199 113.726 241.624C114.145 242.604 114.974 243.382 115.812 244.099C118.118 246.072 120.663 247.808 123.385 249.266C123.895 249.539 124.926 249.3 124.541 248.889L116.142 242.987C114.206 241.627 115.37 238.482 117.599 237.577C119.827 236.672 122.401 237.27 124.746 237.878L116.761 233.609C114.988 232.66 113.128 231.632 112.154 229.973C110.675 227.452 111.691 224.346 112.893 221.704C113.946 219.392 115.161 217.079 117.093 215.31C119.025 213.542 121.808 212.389 124.484 212.865C126.147 213.16 127.589 214.03 129.017 214.891C129.31 215.067 129.602 215.244 129.896 215.415C131.62 216.418 133.642 217.289 135.638 216.898C137.634 216.507 139.234 214.279 138.147 212.691C137.071 211.118 136.546 209.231 136.669 207.376ZM130.769 219.43C131.35 219.798 131.988 220.255 132.034 220.902C132.049 221.124 131.98 221.362 131.798 221.509C131.572 221.69 131.242 221.689 130.942 221.68C130.055 221.651 129.11 221.604 128.391 221.125C127.672 220.645 127.364 219.564 128.021 219.014C128.765 218.39 129.94 218.905 130.769 219.43ZM37.1617 237.364C33.4142 233.264 27.729 230.719 21.9088 230.533C20.7329 230.496 21.4733 228.753 22.4866 228.203C32.1544 222.956 43.7913 220.649 54.8638 222.35C65.9363 224.052 76.3104 229.879 82.5006 238.491C84.8144 241.71 86.5269 245.242 88.2387 248.773C88.8004 249.932 89.362 251.091 89.9448 252.238C92.3035 256.881 95.1216 261.477 99.3882 264.774C103.655 268.071 109.641 269.872 114.935 268.269C115.326 268.15 115.734 267.999 115.975 267.692C116.279 267.306 116.237 266.792 116.199 266.31L116.198 266.309L116.198 266.308C116.195 266.27 116.192 266.233 116.189 266.195C115.808 261.186 120.065 257.012 124.009 253.538C118.585 255.109 114.645 260.244 114.854 265.47C114.878 266.063 114.817 266.839 114.193 266.991C107.154 268.697 99.8995 264.279 95.7646 258.769C93.3819 255.594 91.6874 252.06 89.9908 248.52C88.7431 245.918 87.4942 243.313 85.9696 240.846C77.802 227.634 61.0809 219.157 44.6092 220.398C37.3213 220.947 30.3274 223.227 23.5412 225.731C21.8514 226.355 20.0341 227.103 19.2002 228.591C18.3662 230.08 19.3407 232.415 21.1588 232.323C26.5099 232.055 31.9411 234.248 35.3466 238.054C37.1081 240.022 38.3132 242.334 39.5161 244.641L39.5161 244.641L39.5162 244.641L39.5162 244.641L39.5162 244.641L39.5162 244.641L39.5163 244.642L39.5163 244.642L39.5163 244.642L39.5163 244.642L39.5163 244.642L39.5164 244.642L39.5164 244.642L39.5164 244.642L39.5164 244.642L39.5165 244.642C39.8661 245.313 40.2156 245.983 40.5786 246.645C47.1583 258.638 58.7831 268.216 72.4673 272.917C86.1516 277.619 101.758 277.398 115.278 272.31L115.377 272.273C116.458 271.866 117.592 271.438 118.745 271.591C119.933 271.748 121.064 272.814 120.721 273.871C120.064 275.895 121.499 278.126 123.522 279.127C125.545 280.129 127.98 280.133 130.251 279.814C131.257 279.673 132.375 279.395 132.868 278.577C133.361 277.759 132.508 276.431 131.575 276.805C130.165 277.37 129.057 275.197 129.95 274.044C130.701 273.074 132.014 272.717 133.285 272.372C133.523 272.307 133.76 272.243 133.992 272.175C138.324 270.902 141.848 267.521 143.047 263.487C143.666 261.406 143.625 258.996 142.166 257.307C139.384 254.085 133.146 255.785 131.138 259.462C129.131 263.138 130.16 267.578 131.696 271.442L128.201 271.765C128.78 273.554 128.533 275.557 127.532 277.181L130.278 278.141C127.274 279.902 122.605 277.937 122.091 274.695C122.036 274.347 122.019 273.987 122.002 273.627C121.962 272.795 121.922 271.965 121.413 271.299C120.253 269.782 117.73 270.257 115.813 270.833C107.934 273.198 99.6709 274.481 91.384 274.624C87.1171 274.697 82.8045 274.464 78.6982 273.396C74.5796 272.324 70.7732 270.44 67.034 268.524C59.2787 264.551 51.3617 260.13 46.5699 253.258C45.0725 251.11 43.9173 248.769 42.7643 246.434C41.1842 243.232 39.6083 240.04 37.1617 237.364ZM135.052 257.43C137.306 256.24 140.7 256.905 141.695 259.113C142.283 260.417 141.97 261.914 141.457 263.245C140.37 266.065 138.409 268.596 135.864 270.461C135.013 271.085 133.437 271.458 133.106 270.505C132.314 268.229 131.513 265.898 131.592 263.509C131.67 261.12 132.798 258.62 135.052 257.43ZM146.206 256.722L147.664 257.235C147.193 257.847 146.691 258.484 145.957 258.81C145.222 259.136 144.188 259.022 143.792 258.367L146.156 256.876L146.206 256.722ZM152.073 255.264C151.366 255.248 150.62 255.223 150.019 254.879C148.912 254.246 148.751 252.849 148.707 251.651C147.477 252.13 147.106 253.719 147.735 254.803C148.364 255.888 149.701 256.488 151.023 256.671C152.052 256.814 153.095 256.746 154.136 256.678C154.432 256.659 154.728 256.639 155.024 256.625C157.147 256.521 159.309 256.664 161.464 256.806C165.546 257.076 169.603 257.344 173.327 255.93C176.121 254.869 178.413 252.957 180.643 251.082C181.023 250.763 181.43 250.392 181.45 249.919C181.47 249.447 180.81 248.995 180.438 249.321C177.546 251.848 174.45 254.478 170.556 255.273C168.813 255.628 167.008 255.591 165.224 255.552L152.073 255.264ZM145.931 211.742C146.612 211.526 147.113 212.553 146.642 213.054C146.17 213.555 145.306 213.529 144.631 213.299C144.256 213.172 143.885 212.982 143.672 212.671C143.349 212.198 143.52 211.497 144.032 211.197C144.544 210.896 145.307 211.048 145.637 211.516L145.931 211.742ZM163.456 239.15L162.708 238.068C158.797 241.077 155.997 245.285 154.864 249.856C154.689 250.563 154.619 251.448 155.26 251.871C156.037 251.378 156.287 250.455 156.518 249.606L156.549 249.494C157.637 245.508 160.083 241.846 163.456 239.15ZM138.392 209.832C137.814 209.45 138.011 208.454 138.699 208.284C139.386 208.113 140.101 208.884 139.81 209.481C139.547 210.02 138.804 210.167 138.167 210.245L138.392 209.832ZM139.629 272.202C139.247 271.466 137.991 271.11 137.472 271.771C138.206 271.982 138.145 272.741 138.081 273.538C138.022 274.279 137.96 275.052 138.535 275.445C138.66 275.531 138.806 275.587 138.951 275.642C139.101 275.7 139.25 275.757 139.378 275.847C139.63 276.024 139.728 276.447 139.443 276.575C137.929 277.38 135.699 276.524 135.256 274.969C135.223 274.856 135.198 274.739 135.173 274.622L135.173 274.622L135.173 274.622L135.173 274.622L135.173 274.622L135.173 274.622L135.173 274.622C135.096 274.266 135.019 273.908 134.746 273.659C134.382 273.327 133.536 273.568 133.7 274.014C133.835 275.385 134.101 276.96 135.382 277.673C136.377 278.227 137.64 278.051 138.784 277.856L143.569 277.042C143.194 275.457 141.324 274.308 139.588 274.597C139.804 273.806 140.012 272.938 139.629 272.202ZM158.655 252.031C159.857 248.223 162.323 244.76 165.638 242.224C165.856 242.058 166.092 241.889 166.372 241.854C166.728 241.81 167.103 242.021 167.221 242.334C164.63 244.625 162.503 247.358 160.981 250.353C160.52 251.262 159.676 252.385 158.655 252.031ZM148.257 242.37L150.756 231.008C149.91 230.949 149.377 231.812 149.093 232.548C147.74 236.062 147.07 239.798 147.123 243.526C147.737 243.684 148.131 242.945 148.257 242.37ZM164.172 252.015C163.378 251.478 163.886 250.323 164.491 249.608C166.407 247.342 168.762 245.391 171.413 243.874C171.993 244.07 171.642 244.877 171.214 245.286L164.172 252.015ZM172.774 249.997C172.432 249.183 171.096 249.601 170.352 250.141L167.529 252.189C167.609 252.519 167.81 252.824 168.09 253.042C169.879 252.378 171.497 251.326 172.774 249.997ZM165.082 225.42C164.49 225.14 163.662 225.63 163.694 226.241C163.726 226.852 164.602 227.266 165.161 226.935C165.72 226.604 165.673 225.699 165.082 225.42ZM167.452 225.198C168.153 224.877 168.597 224.135 168.517 223.419L168.599 223.397C168.086 223.071 167.286 223.234 166.971 223.729C166.656 224.224 166.892 224.945 167.452 225.198ZM181.98 234.285C181.789 234.565 181.58 234.835 181.353 235.092C181.214 235.249 181.044 235.414 180.824 235.426C180.558 235.44 180.348 235.229 180.182 235.037C179.604 234.368 179.009 233.671 178.788 232.84C178.567 232.009 178.831 231.005 179.641 230.584C179.7 231.128 180.287 231.279 180.912 231.441C181.346 231.553 181.799 231.669 182.104 231.925C182.791 232.503 182.473 233.558 181.98 234.285ZM161.195 223.928C161.614 223.377 162.693 223.465 163.002 224.074C163.311 224.684 162.689 225.499 161.961 225.44C161.232 225.382 160.775 224.479 161.195 223.928Z" fill="#111111"/>
<path fill-rule="evenodd" clip-rule="evenodd" d="M256.915 220.625C258.472 220.467 259.934 221.583 260.485 222.931C261.036 224.279 260.854 225.787 260.48 227.186C260.049 228.796 259.374 230.351 258.481 231.792C258.062 232.468 257.471 233.19 256.626 233.237C255.469 233.302 254.757 232.108 254.434 231.084C253.905 229.403 253.619 227.658 253.588 225.908C253.567 224.788 253.659 223.636 254.175 222.621C254.691 221.607 255.704 220.748 256.915 220.625Z" fill="#2EC4B6"/>
<path fill-rule="evenodd" clip-rule="evenodd" d="M177.997 79.4608C177.347 80.5784 176.579 82.011 177.449 82.9944C179.025 81.6487 180.59 80.2904 182.076 78.8613C184.062 76.9522 185.934 74.878 187.051 72.4441C188.168 70.0103 188.459 67.1554 187.289 64.7423C186.661 63.4462 185.106 62.1948 183.722 62.8211C182.847 63.2169 182.497 64.1794 182.263 65.05C181.879 66.4791 181.573 67.9346 181.267 69.3896C180.536 72.8729 179.804 76.3533 177.997 79.4608ZM185.652 71.9383C184.539 74.3481 182.644 76.3693 180.779 78.3474C180.498 78.645 180.144 78.9706 179.718 78.9234C181.235 75.9203 182.277 72.7153 182.803 69.4399C182.837 69.2246 182.87 69.0079 182.903 68.7907C183.131 67.2803 183.363 65.7431 184.238 64.4617C184.43 64.1805 184.749 63.8829 185.095 63.9774C185.296 64.0323 185.427 64.2053 185.534 64.371C186.989 66.6218 186.766 69.5285 185.652 71.9383ZM147.34 87.9259C147.252 84.8797 146.141 81.8649 144.198 79.3964C143.349 78.3179 142.122 77.2572 140.681 77.3802C139.026 77.5213 138.023 79.1228 137.558 80.5898C136.392 84.2733 136.842 88.2707 138.168 91.9084C139.493 95.5461 141.651 98.8753 143.932 102.088C144.315 102.626 145.104 103.216 145.597 102.759C145.784 102.586 145.823 102.324 145.852 102.082L147.05 92.0653C147.215 90.6898 147.38 89.3092 147.34 87.9259ZM143.407 99.0709C140.262 93.4782 137.082 87.2086 138.817 81.1177C139.002 80.4681 139.262 79.8031 139.799 79.3479C140.336 78.8927 141.221 78.7236 141.8 79.1329C144.975 81.3771 145.907 85.4367 145.756 89.1165C145.696 90.5936 145.499 92.066 145.302 93.5371C145.008 95.7305 144.715 97.921 144.876 100.12C144.223 100.258 143.715 99.6184 143.407 99.0709ZM168.806 88.9742C168.406 88.0256 167.735 87.1433 166.78 86.6297C165.323 85.8465 163.41 86.056 161.96 86.8491C160.509 87.6422 159.459 88.934 158.639 90.2901C154.715 96.7777 155.542 105.044 159.14 111.69C159.313 112.008 159.516 112.346 159.869 112.492C160.221 112.638 160.745 112.452 160.746 112.096C160.75 109.497 161.403 106.9 162.641 104.563C163.389 103.15 164.341 101.842 165.293 100.534C166.079 99.4532 166.866 98.3723 167.538 97.2311C169.026 94.7079 169.934 91.6503 168.806 88.9742ZM159.74 91.257C160.772 89.2901 162.722 87.2264 165.052 87.6468C166.688 87.9419 167.814 89.4624 167.982 90.9875C168.15 92.5126 167.548 94.022 166.794 95.389C166.055 96.7294 165.163 97.9909 164.272 99.2525C163.418 100.461 162.563 101.67 161.843 102.949C160.723 104.934 159.936 107.077 159.515 109.279C156.722 103.631 156.806 96.8444 159.74 91.257ZM130.29 107.744C131.228 106.955 132.67 106.828 133.88 107.188C135.09 107.548 136.102 108.325 136.977 109.173C141.259 113.326 142.757 119.215 144.088 124.806C144.172 125.156 143.855 125.715 143.608 125.438C141.944 123.573 139.766 122.205 137.586 120.835C136.66 120.254 135.735 119.673 134.848 119.053C131.871 116.973 129.123 114.052 129.134 110.614C129.138 109.564 129.447 108.453 130.29 107.744ZM131.229 108.867C130.64 109.398 130.548 110.24 130.632 110.994C130.969 113.993 133.445 116.402 136.037 118.248C137.795 119.5 139.671 120.611 141.637 121.565C141.009 117.224 138.852 113.08 135.568 109.908C134.416 108.794 132.423 107.791 131.229 108.867Z" fill="#2EC4B6"/>
<path fill-rule="evenodd" clip-rule="evenodd" d="M274.414 223.846C275.54 224.061 276.142 225.186 276.437 226.208C277.377 229.468 276.819 233.069 274.927 235.958C274.82 236.121 274.702 236.288 274.523 236.384C273.906 236.715 273.249 236.011 272.971 235.406C271.816 232.888 271.284 230.131 271.427 227.402C271.472 226.547 271.593 225.665 272.08 224.936C272.566 224.207 273.503 223.672 274.414 223.846L274.414 223.846Z" fill="#2EC4B6"/>
<path fill-rule="evenodd" clip-rule="evenodd" d="M288.953 221.922C290.128 224.252 290.466 226.932 289.9 229.448C289.713 230.279 289.299 231.216 288.406 231.433C287.145 231.74 286.18 230.425 285.677 229.318C284.651 227.057 283.698 224.559 284.436 222.205C284.778 221.117 285.763 219.997 286.982 220.159C287.929 220.286 288.551 221.124 288.953 221.922L288.953 221.922Z" fill="#2EC4B6"/>
<path fill-rule="evenodd" clip-rule="evenodd" d="M258.703 199.393C259.153 202.38 258.716 205.477 257.453 208.26C257.122 208.987 256.578 209.795 255.722 209.828C254.616 209.87 254.037 208.634 253.906 207.625C253.571 205.046 254.125 202.376 255.468 200.092C255.819 199.495 256.268 198.888 256.957 198.644C257.647 198.4 258.602 198.72 258.703 199.393V199.393Z" fill="#2EC4B6"/>
<path fill-rule="evenodd" clip-rule="evenodd" d="M244.776 232.416C245.525 235.224 244.067 238.408 241.359 239.877C240.815 240.171 240.073 239.913 239.694 239.449C239.314 238.985 239.219 238.379 239.184 237.8C239.056 235.657 239.612 233.483 240.765 231.617C241.109 231.061 241.564 230.492 242.238 230.338C243.463 230.057 244.474 231.289 244.776 232.416L244.776 232.416Z" fill="#2EC4B6"/>
<path fill-rule="evenodd" clip-rule="evenodd" d="M241.952 219.267C241.122 217.374 241.093 215.195 241.872 213.285C242.125 212.664 242.512 212.026 243.176 211.769C244.549 211.237 245.898 212.65 246.311 213.966C246.868 215.738 246.731 217.687 245.929 219.378C245.566 220.143 244.924 220.939 244.017 220.965C243.033 220.994 242.321 220.107 241.952 219.267H241.952Z" fill="#2EC4B6"/>
<path fill-rule="evenodd" clip-rule="evenodd" d="M270.12 215.791C270.39 216.401 270.645 217.043 270.588 217.698C270.531 218.354 270.071 219.026 269.37 219.158C268.399 219.34 267.594 218.478 267.114 217.68C266.465 216.6 265.959 215.447 265.61 214.255C265.402 213.544 265.255 212.767 265.569 212.09C265.884 211.413 266.831 210.945 267.517 211.325C267.829 211.498 268.023 211.802 268.199 212.096C268.917 213.292 269.559 214.526 270.12 215.791H270.12Z" fill="#2EC4B6"/>
<path fill-rule="evenodd" clip-rule="evenodd" d="M343.963 200.481C342.386 202.537 340.461 204.467 337.968 205.503C335.475 206.539 332.321 206.515 330.202 204.923C328.5 209.605 321.817 212.083 317.06 209.797C316.504 213.628 313.143 216.979 309.035 217.799C304.927 218.618 300.359 216.849 298.127 213.574C296.965 211.869 294.531 211.418 292.178 210.983C289.533 210.493 286.991 210.022 286.479 207.81C285.959 210.204 283.553 212.139 280.903 212.293C278.253 212.447 275.601 210.806 274.758 208.491C271.876 209.731 268.303 208.42 266.231 206.2C264.159 203.979 263.253 201.057 262.461 198.223C256.36 176.382 253.656 153.782 253.778 131.233C253.169 133.971 249.022 134.941 246.379 133.56C243.736 132.18 242.408 129.37 241.633 126.668C241.005 124.483 237.928 123.729 235.526 124.205C234.407 124.426 233.34 124.82 232.274 125.214L232.274 125.214C231.051 125.667 229.828 126.119 228.531 126.307C223.829 126.991 219.09 123.778 217.611 119.617C216.132 115.457 217.517 110.742 220.386 107.25C223.255 103.757 227.437 101.351 231.803 99.6077C237.435 97.3582 243.529 96.0887 249.666 95.8861C251.158 95.8368 252.958 95.6844 253.622 94.4544C256.204 95.5534 259.06 95.8486 261.906 96.1427L261.906 96.1427C262.685 96.2231 263.463 96.3035 264.234 96.4002C272.634 97.454 280.711 100.611 287.365 105.442C292.12 108.894 296.091 113.121 300.063 117.35L300.063 117.35C303.772 121.299 307.482 125.249 311.834 128.571C318.006 133.283 325.344 136.649 332.639 139.994C342.923 144.71 353.121 149.388 359.851 157.745C363.205 161.909 365.471 166.809 366.406 171.918C367.285 176.714 366.862 182.02 363.602 185.849C360.342 189.679 353.638 191.198 349.605 188.053C348.74 192.508 346.799 196.783 343.963 200.481ZM250.553 104.774C252.694 102.814 254.15 100.231 254.659 97.4925C249.872 96.4897 244.88 97.5051 240.143 98.6915C234.854 100.016 229.493 101.623 225.229 104.79C220.965 107.957 217.971 113.013 218.902 117.98C219.276 119.974 220.835 122.184 223.021 121.961L221.921 123.233C222.112 123.632 222.589 123.898 223.062 123.87C225.086 123.612 226.887 122.218 227.509 120.429C227.597 120.175 227.665 119.911 227.733 119.647C227.9 119.003 228.066 118.359 228.525 117.863C229.172 117.164 230.742 117.182 230.892 118.09C230.99 118.678 230.459 119.211 229.964 119.709C229.403 120.272 228.888 120.791 229.373 121.294C231.548 119.969 233.671 118.572 235.736 117.106C237.02 116.194 238.422 114.729 237.666 113.409C237.143 112.497 237.851 111.203 238.958 111.045C240.065 110.886 241.166 111.921 240.97 112.936C242.16 112.187 243.377 111.415 244.197 110.325C245.017 109.235 245.366 107.742 244.687 106.573C244.15 105.65 244.741 104.338 245.831 104.035C246.921 103.732 248.204 104.522 248.314 105.564C249.116 105.093 248.805 103.952 248.311 103.204C247.818 102.456 247.218 101.529 247.713 100.782C248.44 99.6881 250.264 100.487 251.288 101.356C251.543 100.432 251.379 99.4164 250.841 98.6013C250.817 97.7453 252.259 97.3965 252.918 98.0014C253.577 98.6062 253.496 99.6385 253.057 100.394C252.769 100.889 252.361 101.309 251.952 101.731C251.738 101.951 251.524 102.172 251.327 102.404C250.753 103.078 250.307 103.948 250.553 104.774ZM329.574 193.21C331.98 193.331 332.446 196.44 331.93 198.604C331.414 200.769 330.989 203.645 333.143 204.638C334.424 205.228 335.976 204.733 337.22 204.08C343.082 201.002 346.185 194.855 347.927 188.858C348.13 188.159 348.237 187.248 347.568 186.866C340.513 182.832 335.527 175.866 334.289 168.312C336 168.615 336.622 170.51 337.099 172.051C338.86 177.74 343.171 182.723 348.805 185.579C349.563 174.177 345.29 162.56 337.161 153.923C339.804 154.387 341.642 156.566 343.034 158.684C348.426 166.883 350.994 176.628 350.281 186.188C352.219 188.762 356.553 189.048 359.439 187.387C362.324 185.726 363.915 182.645 364.581 179.575C366.338 171.476 362.521 163.008 356.519 156.865C350.516 150.722 342.548 146.532 334.572 142.736C333.498 142.225 332.419 141.718 331.34 141.211C324.406 137.952 317.442 134.679 311.418 130.163C306.879 126.761 302.978 122.73 299.076 118.698C295.323 114.82 291.569 110.942 287.247 107.622C279.613 101.757 270.14 97.7389 260.219 97.0746C258.557 96.9633 256.636 97.046 255.592 98.2405C254.548 99.4351 255.781 101.809 257.311 101.2L251.338 105.356C252.761 105.583 253.666 107.233 253.019 108.42C252.372 109.607 250.392 109.927 249.343 109.015C250.55 108.757 251.591 107.917 252.027 106.85C248.793 107.752 245.962 109.822 244.278 112.517C245.615 112.325 247.027 113.232 247.29 114.453C246.317 114.658 245.255 114.782 244.188 114.906L244.188 114.906C240.985 115.28 237.734 115.659 236.696 118.245C238.108 118.275 239.452 119.17 239.925 120.394C236.887 119.709 233.541 120.282 230.975 121.927C232.442 122.571 234.135 122.608 235.81 122.644C237.837 122.688 239.838 122.732 241.385 123.848C242.774 124.851 243.357 126.416 243.944 127.989L243.944 127.989C244.209 128.7 244.475 129.413 244.816 130.076C245.912 132.208 249.189 133.932 250.88 132.16C251.158 131.868 251.358 131.507 251.556 131.15C251.875 130.574 252.188 130.009 252.811 129.762C254.591 129.057 255.678 131.596 255.67 133.378C255.571 155.194 258.35 177.02 263.929 198.225C264.555 200.604 265.258 203.056 266.923 204.966C268.588 206.875 271.487 208.097 273.972 207.22C271.243 203.696 270.537 198.921 272.144 194.855C272.113 198.545 273.04 202.24 274.826 205.545L273.843 195.484C276.238 197.062 276.148 200.054 276.059 203.024C275.968 206.056 275.878 209.066 278.432 210.526C280.946 211.963 284.817 209.955 284.76 207.234C284.732 205.897 283.957 204.668 283.194 203.459C282.271 201.995 281.367 200.56 281.826 198.999L285.888 204.557L284.846 194.946C286.816 197.255 287.628 200.368 287.01 203.247C286.537 205.452 287.542 207.869 289.493 209.222C291.444 210.575 294.247 210.797 296.422 209.773C293.899 205.71 292.623 201 292.776 196.324L298.098 209.635C300.814 206.579 301.726 202.244 300.447 198.476C303.746 202.008 302.623 208.205 298.257 210.562C299.261 213.486 302.149 215.79 305.44 216.289C308.731 216.789 312.272 215.462 314.245 212.989C315.52 211.392 316.07 209.005 314.669 207.5C309.631 202.085 307.36 194.58 308.632 187.55C309.912 194.043 311.302 200.781 315.517 206.122L313.002 196.935C315.205 197.986 315.658 200.367 316.116 202.776C316.55 205.058 316.989 207.366 318.926 208.592C322.242 210.69 326.648 207.67 328.631 204.449C323.979 195.525 319.862 186.364 316.306 177.024C320.066 180.485 321.733 185.213 323.406 189.956C324.962 194.369 326.523 198.795 329.778 202.224C330.735 199.299 330.663 196.097 329.574 193.21ZM231.804 123.673C229.725 122.986 227.271 123.359 225.543 124.626C227.644 125.184 230.011 124.824 231.804 123.673ZM246.824 105.45C246.308 105.14 245.493 105.519 245.458 106.085C245.424 106.651 246.189 107.111 246.739 106.855C247.289 106.599 247.34 105.76 246.824 105.45ZM239.116 113.822C239.682 113.67 240.023 113.025 239.803 112.521C239.524 112.309 239.06 112.511 238.934 112.823C238.808 113.136 238.924 113.486 239.079 113.787L239.116 113.822ZM254.753 102.204C255.145 102.092 255.346 101.607 255.134 101.283C254.67 101.117 254.516 101.865 254.741 102.274L254.753 102.204ZM243.621 158.466C238.789 157.044 234.684 153.658 232.625 149.394C232.222 148.56 231.095 148.163 230.047 147.793C228.804 147.355 227.672 146.956 227.986 145.913C228.784 143.263 227.962 140.516 227.156 137.823C226.993 137.278 226.83 136.736 226.682 136.197C225.801 132.992 225.626 129.109 228.292 126.891C227.26 130.508 227.419 134.404 228.743 137.94C228.827 138.165 228.915 138.394 229.005 138.627C229.936 141.05 230.997 143.813 229.201 145.665C229.444 146.719 231.081 147.016 232.073 146.442C233.064 145.869 233.545 144.796 233.967 143.791C232.983 149.76 237.904 156.025 244.375 157.043C248.282 157.658 251.783 160.146 253.414 163.468C255.046 166.79 254.761 170.85 252.679 173.952C255.178 174.947 256.746 177.374 257.172 179.848C257.599 182.322 257.046 184.849 256.302 187.258C252.423 199.807 243.041 210.839 230.733 217.326C228.545 218.479 227.363 220.665 226.192 222.831C224.912 225.199 223.645 227.544 221.09 228.493C219.537 229.069 217.154 228.441 217.262 226.904C216.203 227.684 215.005 228.495 213.65 228.432C212.294 228.37 211.037 226.887 211.819 225.868C210.05 226.57 207.616 227.122 206.507 225.672C205.394 224.218 206.87 222.211 208.563 221.351C209.055 221.101 209.58 220.886 210.104 220.671L210.104 220.671C211.382 220.147 212.657 219.623 213.456 218.599C211.827 218.451 210.036 218.231 208.951 217.104C207.865 215.977 208.329 213.682 209.964 213.603C215.473 213.337 220.854 211.227 224.877 207.757C229.483 203.784 232.105 198.382 234.703 193.03C235.274 191.853 235.845 190.679 236.434 189.522C239.706 183.108 244.368 176.56 251.703 174.393C252.299 171.857 252.898 169.271 252.63 166.688C252.363 164.105 251.084 161.477 248.681 160.115C247.574 159.488 246.313 159.168 245.052 158.848C244.572 158.726 244.092 158.605 243.621 158.466ZM231.585 215.125C243.676 208.326 252.52 196.822 255.457 184.072C255.885 182.217 256.177 180.213 255.339 178.48C254.501 176.747 252.122 175.524 250.305 176.421C243.957 179.557 240.16 185.72 237.154 191.742C236.774 192.504 236.399 193.271 236.023 194.04C233.425 199.354 230.789 204.746 226.245 208.753C221.93 212.559 216.045 214.823 210.068 214.976C209.469 215.292 209.929 216.216 210.594 216.387C210.957 216.481 211.335 216.46 211.715 216.438C212.03 216.42 212.347 216.403 212.655 216.451C214.535 216.743 214.938 219.336 213.711 220.678C212.485 222.02 210.445 222.4 208.566 222.699C207.326 222.896 207.846 224.889 209.084 225.096C210.154 225.275 211.15 224.713 212.099 224.176L212.099 224.176C212.248 224.092 212.395 224.008 212.541 223.929C213.624 223.339 215.166 222.972 216.019 223.822C214.414 224.561 213.307 226.139 213.236 227.789C215.263 225.84 218.182 224.703 221.115 224.72L218.761 227.398C222.035 226.77 224.748 224.163 225.287 221.128C225.774 218.385 228.707 216.74 231.312 215.278L231.585 215.125ZM239.622 245.821C237.338 247 234.007 248.207 232.531 246.218C231.843 245.291 231.983 244.061 232.152 242.949L236.465 214.477C237.348 222.641 236.549 230.957 234.124 238.852C233.383 241.265 232.538 244.022 234.011 246.131C240.595 242.74 247.926 240.582 255.427 239.827C260.828 239.283 266.331 239.452 271.817 239.62C280.65 239.89 289.437 240.159 297.675 237.453C299.675 236.796 301.689 235.915 302.996 234.375C304.303 232.835 304.687 230.485 303.375 228.949L290.74 214.15C290.143 213.451 289.642 212.25 290.502 211.845L302.149 224.593C304.606 227.282 307.215 230.823 305.631 234.019C304.812 235.671 303.039 236.735 301.272 237.544C292.375 241.62 282.348 241.314 272.234 241.005C264.551 240.771 256.819 240.535 249.494 242.216C246.049 243.007 242.719 244.223 239.622 245.821ZM254.887 276.189L254.272 277.468C254.994 278.853 257.026 279.038 258.694 278.972C262.22 278.832 265.735 278.433 269.192 277.779C272.101 277.229 275.407 276.133 276.292 273.527C276.811 271.995 276.322 270.372 275.85 268.805L275.85 268.805C275.791 268.612 275.734 268.42 275.678 268.229C274.534 264.31 274.31 260.167 275.024 256.163C275.314 254.537 275.757 252.925 276.2 251.316C277.036 248.275 277.871 245.243 277.665 242.134C273.265 250.865 272.105 260.944 274.421 270.328L274.447 270.434C274.696 271.439 274.958 272.496 274.593 273.465C274.001 275.041 272.041 275.742 270.288 276.166C266.999 276.961 262.997 277.289 260.672 275.007C260.511 274.85 260.358 274.676 260.284 274.471C259.965 273.581 261.156 272.926 262.062 272.497C265.52 270.855 267.447 267.237 267.842 263.676C268.237 260.116 267.341 256.553 266.437 253.072L266.432 253.052C265.53 249.577 264.61 246.032 264.946 242.473C265.003 241.868 263.916 241.694 263.497 242.164C263.078 242.634 263.161 243.316 263.266 243.916L266.492 262.293C266.883 264.519 265.904 266.807 264.363 268.56C262.821 270.314 260.761 271.612 258.685 272.811C257.625 273.423 256.486 274.036 255.235 274.058C253.983 274.08 252.625 273.278 252.574 272.128C256.171 271.221 258.585 267.939 259.313 264.575C260.042 261.211 259.404 257.739 258.765 254.359L256.963 244.833C256.704 243.464 255.87 241.701 254.387 241.969C256.31 247.828 257.496 253.891 257.914 260C258.082 262.456 258.086 265.07 256.713 267.182C255.456 269.116 253.241 270.324 251.093 271.406C250.135 271.889 249.134 272.393 248.522 273.225C247.91 274.056 247.843 275.322 248.678 275.969C249.509 276.614 250.646 276.356 251.788 276.097C252.912 275.842 254.041 275.586 254.887 276.189ZM260.469 276.525C261.157 276.739 261.837 276.951 261.982 277.559C260.234 277.766 258.456 277.761 256.71 277.544C255.912 277.444 255.634 276.405 256.048 275.77C256.462 275.135 257.265 274.825 258.015 274.556C258.443 275.2 258.905 275.874 259.632 276.222C259.886 276.344 260.178 276.435 260.469 276.525ZM250.251 273.737C250.844 273.362 251.731 273.452 252.221 273.937L252.363 273.824C252.585 274.114 252.569 274.54 252.326 274.816C251.414 274.67 250.436 274.93 249.75 275.5C249.432 274.906 249.658 274.112 250.251 273.737ZM237.934 135.272C236.171 134.21 234.442 134.714 233.035 136.588C232.801 136.9 232.886 137.327 233.225 137.542C233.564 137.758 234.029 137.679 234.263 137.368C235.246 136.058 236.101 135.808 237.116 136.42C237.461 136.627 237.923 136.539 238.149 136.222C238.375 135.905 238.278 135.48 237.934 135.272ZM231.596 130.522C230.966 130.262 231.392 129.36 231.959 128.996C233.055 128.293 234.397 128.01 235.701 127.742C237.241 127.425 239.088 127.185 240.188 128.225C237.591 129.037 234.974 129.792 232.338 130.49C232.095 130.554 231.827 130.617 231.596 130.522ZM243.53 144.513C243.821 144.16 244.083 143.911 244.411 143.721C245.133 143.303 246.026 143.334 246.694 143.892C249.142 145.94 248.362 148.93 245.739 151.207C243.303 153.321 240.008 154.254 237.879 152.807C236.248 151.7 236.491 150.183 238.009 149.289L238.052 149.265C238.47 149.031 239.812 148.411 239.794 148.42L239.937 148.348C240.354 148.135 240.657 147.945 240.877 147.754C241.216 147.461 241.545 147.116 241.881 146.709C242.139 146.398 242.718 145.606 243.094 145.092C243.266 144.857 243.395 144.68 243.432 144.634L243.53 144.513ZM238.765 151.704C241.757 153.736 249.33 147.951 245.69 144.907C245.261 144.548 244.782 145.218 244.084 146.193C243.525 146.974 242.826 147.951 241.9 148.753C241.307 149.267 240.495 149.639 239.788 149.964C238.558 150.527 237.648 150.945 238.765 151.704Z" fill="#111111"/>
</svg>
