<?xml version="1.0" encoding="UTF-8"?>
<!DOCTYPE svg PUBLIC "-//W3C//DTD SVG 1.1//EN" "http://www.w3.org/Graphics/SVG/1.1/DTD/svg11.dtd">
<svg xmlns="http://www.w3.org/2000/svg" version="1.1" width="107px" height="96px" style="shape-rendering:geometricPrecision; text-rendering:geometricPrecision; image-rendering:optimizeQuality; fill-rule:evenodd; clip-rule:evenodd" xmlns:xlink="http://www.w3.org/1999/xlink">
<g><path style="opacity:0.99" fill="#2dc1b4" d="M 61.5,-0.5 C 65.8333,-0.5 70.1667,-0.5 74.5,-0.5C 76.1368,0.379591 77.9701,1.04626 80,1.5C 81.301,1.36126 82.1344,0.694594 82.5,-0.5C 86.1667,-0.5 89.8333,-0.5 93.5,-0.5C 102.917,5.74134 106.25,14.408 103.5,25.5C 104.512,27.5629 105.512,29.5629 106.5,31.5C 106.5,37.1667 106.5,42.8333 106.5,48.5C 102.63,62.0385 93.9629,71.0385 80.5,75.5C 81.9385,74.0115 82.6052,72.1782 82.5,70C 81.0551,63.8437 78.0551,58.5103 73.5,54C 71.1093,53.7132 68.7759,53.2132 66.5,52.5C 65.9026,47.0886 65.0693,41.7553 64,36.5C 62.9667,33.9673 61.1334,32.3006 58.5,31.5C 58.0056,26.0053 55.0056,23.3386 49.5,23.5C 49.5,21.1667 49.5,18.8333 49.5,16.5C 51.8333,16.5 54.1667,16.5 56.5,16.5C 56.5,17.8333 56.5,19.1667 56.5,20.5C 58.5,20.5 60.5,20.5 62.5,20.5C 62.7839,17.2234 62.4505,14.0567 61.5,11C 53.8333,10.3333 46.1667,10.3333 38.5,11C 36.5081,15.152 37.8415,16.9854 42.5,16.5C 42.5,18.8333 42.5,21.1667 42.5,23.5C 37.0388,23.2902 34.0388,25.9569 33.5,31.5C 32.914,31.7093 32.414,32.0426 32,32.5C 31.196,31.1955 30.0293,30.5288 28.5,30.5C 26.2501,32.114 24.2501,33.9473 22.5,36C 22.9541,37.6217 23.9541,38.7884 25.5,39.5C 26.0404,51.2481 26.8737,62.9147 28,74.5C 28.7504,75.1258 29.5838,75.6258 30.5,76C 46.4965,76.4999 62.4965,76.6666 78.5,76.5C 75.4571,82.0767 71.7905,87.2433 67.5,92C 64.6907,93.0934 62.024,94.2601 59.5,95.5C 54.8333,95.5 50.1667,95.5 45.5,95.5C 34.5898,90.7173 23.5898,85.8839 12.5,81C 11.8333,79.6667 11.1667,78.3333 10.5,77C 7.83333,76 5.16667,75 2.5,74C 1.60064,72.3484 0.60064,70.8484 -0.5,69.5C -0.5,67.1667 -0.5,64.8333 -0.5,62.5C 2.16667,60.5 2.16667,58.5 -0.5,56.5C -0.5,53.1667 -0.5,49.8333 -0.5,46.5C 0.959987,41.5434 4.29332,38.3768 9.5,37C 15.0164,32.1352 19.183,26.3018 22,19.5C 26.6922,13.469 32.5255,8.96896 39.5,6C 46.8651,3.4975 54.1985,1.33084 61.5,-0.5 Z"/></g>
<g><path style="opacity:1" fill="#142321" d="M 70.5,31.5 C 75.0165,32.6253 75.3498,34.292 71.5,36.5C 68.0749,35.249 67.7416,33.5824 70.5,31.5 Z"/></g>
<g><path style="opacity:1" fill="#1e2221" d="M 80.5,75.5 C 80.1583,76.3382 79.4916,76.6716 78.5,76.5C 62.4965,76.6666 46.4965,76.4999 30.5,76C 29.5838,75.6258 28.7504,75.1258 28,74.5C 26.8737,62.9147 26.0404,51.2481 25.5,39.5C 23.9541,38.7884 22.9541,37.6217 22.5,36C 24.2501,33.9473 26.2501,32.114 28.5,30.5C 30.0293,30.5288 31.196,31.1955 32,32.5C 32.414,32.0426 32.914,31.7093 33.5,31.5C 34.0388,25.9569 37.0388,23.2902 42.5,23.5C 42.5,21.1667 42.5,18.8333 42.5,16.5C 37.8415,16.9854 36.5081,15.152 38.5,11C 46.1667,10.3333 53.8333,10.3333 61.5,11C 62.4505,14.0567 62.7839,17.2234 62.5,20.5C 60.5,20.5 58.5,20.5 56.5,20.5C 56.5,19.1667 56.5,17.8333 56.5,16.5C 54.1667,16.5 51.8333,16.5 49.5,16.5C 49.5,18.8333 49.5,21.1667 49.5,23.5C 55.0056,23.3386 58.0056,26.0053 58.5,31.5C 61.1334,32.3006 62.9667,33.9673 64,36.5C 65.0693,41.7553 65.9026,47.0886 66.5,52.5C 68.7759,53.2132 71.1093,53.7132 73.5,54C 78.0551,58.5103 81.0551,63.8437 82.5,70C 82.6052,72.1782 81.9385,74.0115 80.5,75.5 Z"/></g>
<g><path style="opacity:1" fill="#f8f8f8" d="M 63.5,40.5 C 63.5,48.1667 63.5,55.8333 63.5,63.5C 61.2646,63.2053 59.2646,63.5386 57.5,64.5C 52.6111,66.4435 51.6111,69.6102 54.5,74C 46.5,74.6667 38.5,74.6667 30.5,74C 30,73.5 29.5,73 29,72.5C 28.1678,62.4834 28.3344,52.4834 29.5,42.5C 33.7841,40.5321 35.4508,37.1987 34.5,32.5C 42.1739,32.3336 49.8406,32.5003 57.5,33C 60.8172,34.4802 62.8172,36.9802 63.5,40.5 Z"/></g>
<g><path style="opacity:1" fill="#1a1a1a" d="M 42.5,38.5 C 55.5164,38.6758 60.3498,45.0092 57,57.5C 52.3624,63.5369 46.5291,65.0369 39.5,62C 33.5927,57.3385 32.0927,51.5052 35,44.5C 37.1141,41.8792 39.6141,39.8792 42.5,38.5 Z"/></g>
<g><path style="opacity:1" fill="#e8e8e8" d="M 27.5,32.5 C 29.1486,33.714 30.8152,35.0473 32.5,36.5C 31.675,37.3857 30.675,37.719 29.5,37.5C 28.8333,41.5 28.1667,41.5 27.5,37.5C 23.5,36.8333 23.5,36.1667 27.5,35.5C 27.5,34.5 27.5,33.5 27.5,32.5 Z"/></g>
<g><path style="opacity:1" fill="#e2e2e2" d="M 37.5,25.5 C 42.8437,25.334 48.1771,25.5006 53.5,26C 55.0368,27.1096 55.7035,28.6096 55.5,30.5C 49.1667,30.5 42.8333,30.5 36.5,30.5C 36.6287,28.7839 36.962,27.1172 37.5,25.5 Z"/></g>
<g><path style="opacity:1" fill="#8a8a8a" d="M 60.5,12.5 C 61.4614,14.2646 61.7947,16.2646 61.5,18.5C 60.1667,18.5 58.8333,18.5 57.5,18.5C 57.5,17.5 57.5,16.5 57.5,15.5C 58.1515,16.0906 58.8182,16.7573 59.5,17.5C 60.4519,15.9547 60.7852,14.288 60.5,12.5 Z"/></g>
<g><path style="opacity:1" fill="#f7f7f7" d="M 44.5,16.5 C 45.5,16.5 46.5,16.5 47.5,16.5C 47.5,18.8333 47.5,21.1667 47.5,23.5C 46.5,23.5 45.5,23.5 44.5,23.5C 44.5,21.1667 44.5,18.8333 44.5,16.5 Z"/></g>
<g><path style="opacity:1" fill="#fafafa" d="M 60.5,12.5 C 60.7852,14.288 60.4519,15.9547 59.5,17.5C 58.8182,16.7573 58.1515,16.0906 57.5,15.5C 51.6535,14.8334 45.6535,14.1668 39.5,13.5C 46.4684,12.503 53.4684,12.1697 60.5,12.5 Z"/></g>
<g><path style="opacity:1" fill="#787878" d="M 63.5,40.5 C 64.4924,48.3159 64.8257,56.3159 64.5,64.5C 62.1667,64.5 59.8333,64.5 57.5,64.5C 59.2646,63.5386 61.2646,63.2053 63.5,63.5C 63.5,55.8333 63.5,48.1667 63.5,40.5 Z"/></g>
<g><path style="opacity:1" fill="#eeeeee" d="M 42.5,40.5 C 54.1695,40.6679 58.3362,46.3345 55,57.5C 51.2566,61.2594 46.7566,62.4261 41.5,61C 33.2702,53.7683 33.6035,46.9349 42.5,40.5 Z"/></g>
<g><path style="opacity:1" fill="#242424" d="M 44.5,43.5 C 47.9103,43.3838 49.2436,45.0504 48.5,48.5C 46.8333,48.5 45.1667,48.5 43.5,48.5C 43.366,46.7085 43.6993,45.0418 44.5,43.5 Z"/></g>
<g><path style="opacity:1" fill="#181c1b" d="M 75.5,39.5 C 79.1708,40.329 81.8375,42.4957 83.5,46C 81.8113,47.3582 80.478,49.0249 79.5,51C 78.1667,51.6667 76.8333,51.6667 75.5,51C 74.6667,49.5 73.5,48.3333 72,47.5C 71.3333,46.1667 71.3333,44.8333 72,43.5C 73.7198,42.6159 74.8865,41.2825 75.5,39.5 Z"/></g>
<g><path style="opacity:1" fill="#ebebeb" d="M 76.5,41.5 C 78.0481,41.8212 78.7148,42.8212 78.5,44.5C 82.5,45.1667 82.5,45.8333 78.5,46.5C 78.719,47.675 78.3857,48.675 77.5,49.5C 76.5,47.8333 75.1667,46.5 73.5,45.5C 74.325,44.6143 75.325,44.281 76.5,44.5C 76.5,43.5 76.5,42.5 76.5,41.5 Z"/></g>
<g><path style="opacity:1" fill="#1e1e1e" d="M 37.5,47.5 C 40.2776,47.0217 42.2776,48.0217 43.5,50.5C 45.1667,49.1667 46.8333,49.1667 48.5,50.5C 49.7224,48.0217 51.7224,47.0217 54.5,47.5C 55.2436,50.9496 53.9103,52.6162 50.5,52.5C 49.9738,58.6426 47.1405,59.9759 42,56.5C 41.51,55.2068 41.3433,53.8734 41.5,52.5C 38.0897,52.6162 36.7564,50.9496 37.5,47.5 Z"/></g>
<g><path style="opacity:1" fill="#f4f4f4" d="M 44.5,51.5 C 48.1612,51.3501 49.1612,52.8501 47.5,56C 43.7071,56.4866 42.7071,54.9866 44.5,51.5 Z"/></g>
<g><path style="opacity:1" fill="#f0f0f0" d="M 67.5,55.5 C 69.2967,55.9349 71.2967,55.9349 73.5,55.5C 73.5,56.8333 73.5,58.1667 73.5,59.5C 76.5,59.1667 77.8333,60.5 77.5,63.5C 73.8333,63.5 70.1667,63.5 66.5,63.5C 66.1936,60.6146 66.5269,57.9479 67.5,55.5 Z"/></g>
<g><path style="opacity:1" fill="#888888" d="M 67.5,55.5 C 66.5269,57.9479 66.1936,60.6146 66.5,63.5C 70.1667,63.5 73.8333,63.5 77.5,63.5C 73.7016,64.4834 69.7016,64.8168 65.5,64.5C 65.1796,61.1016 65.513,57.7683 66.5,54.5C 67.1067,54.6236 67.44,54.9569 67.5,55.5 Z"/></g>
<g><path style="opacity:1" fill="#f5f5f5" d="M 56.5,66.5 C 64.1739,66.3336 71.8406,66.5003 79.5,67C 82.1924,69.6324 81.859,71.9658 78.5,74C 71.1667,74.6667 63.8333,74.6667 56.5,74C 53.9009,71.4213 53.9009,68.9213 56.5,66.5 Z"/></g>
</svg>
