<svg width="103" height="100" viewBox="0 0 103 100" fill="none" xmlns="http://www.w3.org/2000/svg">
<path fill-rule="evenodd" clip-rule="evenodd" d="M53 0.833577C36.6089 0.830043 8.89012 7.50711 8.62671 17.2429L8.89012 48.8815C11.2023 73.0585 28.7324 93.374 53 99.9999C77.2677 93.374 94.7978 73.0585 97.11 48.8815L97.3734 17.2429C97.3358 9.62766 69.3912 0.830043 53 0.833577Z" fill="#2EC4B6"/>
<path fill-rule="evenodd" clip-rule="evenodd" d="M52.2369 74.0269L52.238 74.0209C52.0193 75.4138 51.1857 76.5964 49.7372 77.5688C48.0973 78.6463 46.0474 82.2335 49.7372 82.2335C50.7053 82.2335 52.9759 81.8175 53.7139 81.0378C53.9325 80.8275 54.1512 80.3545 54.3698 79.6187C54.6158 78.9354 54.8755 78.4755 55.1488 78.2389C55.5314 79.6581 55.6825 82.8047 54.5619 85.0123C53.4686 87.141 53.1133 88.7572 53.4959 89.861C54.5892 90.4655 56.8304 90.1321 60.2195 89.5277C60.9028 82.4583 61.0668 71.8908 60.2195 59.3025C62.4607 58.8295 63.2936 58.3579 64.2502 58.4104C65.7261 58.463 68.7748 58.8595 69.6767 60.0159C73.6671 65.0354 75.8639 68.4364 76.5198 69.803C76.7931 70.4337 77.6677 73.6255 79.1437 79.0918C79.089 79.5385 79.2256 84.1865 79.1437 84.607C81.0675 88.3519 82.9564 87.2294 85.1293 87.2294C85.0199 86.4147 84.7193 83.9549 83.7354 82.6935C82.6421 81.3531 83.1751 79.0273 82.9564 78.2389C82.8197 77.6608 82.6968 76.7541 82.5874 75.5189C82.5054 74.2049 82.3961 73.2457 82.2594 72.6412C80.3189 64.2315 78.4057 57.3592 76.5198 52.0243C77.3965 52.2451 80.0779 53.3654 81.9498 53.2609C84.9798 53.0917 88.1698 52.2451 87.6997 50.8283C87.5357 50.0661 87.0711 49.6457 86.3058 49.5668C86.1691 49.5405 85.8138 49.5274 85.2398 49.5274C84.7752 49.5274 84.3926 49.488 84.0919 49.4091C82.8852 49.1285 81.2332 49.6986 79.9131 49.4091C76.6586 48.6955 73.7618 46.9828 72.4201 45.244C70.3156 42.4846 67.2293 40.9209 66.628 40.553C65.4528 39.8171 65.4506 39.1601 63.1547 38.5819C60.0389 37.7935 52.1315 30.7449 51.2842 29.9828C50.3549 29.1418 49.8493 28.406 49.7673 27.7752C49.6853 26.9605 50.0543 25.4888 50.8742 23.3601C51.5848 21.468 51.6942 19.97 51.2022 18.8662C51.1749 19.3655 51.1209 15.6337 50.0823 14.2146C49.7543 13.7415 49.276 13.1371 48.6474 12.4012C47.8821 11.5077 47.3901 10.9296 47.1715 10.6667C46.3242 10.9033 45.5863 11.6654 44.9576 12.9531C44.2744 14.3986 43.6594 15.2789 43.1128 15.5943C42.9588 15.5601 41.5752 14.9824 40.6477 14.7859C39.435 14.5289 38.0995 14.6114 37.9601 14.254C37.7414 13.6233 37.5638 13.1634 37.4271 12.8743C36.9351 11.8756 36.2655 11.3763 35.4182 11.3763C34.4616 11.3763 33.2864 11.8504 32.5484 13.3747C32.4118 13.6638 31.7013 14.6946 30.6627 17.5592C29.1868 21.6064 28.9953 25.2523 29.1867 26.8291C29.7879 31.7698 30.5806 34.8972 31.5645 36.2112C31.6738 36.3163 32.0018 36.4346 32.5484 36.566C32.9857 36.6711 33.2181 36.8682 33.2454 37.1573C33.0267 38.0508 30.5778 40.1719 30.0585 41.8538C29.5118 43.5883 29.1292 44.8892 28.9105 45.7565C28.1179 48.805 27.9129 51.5907 28.2956 54.1136C28.5416 55.7167 28.6782 58.2265 28.7055 61.6429C28.7329 65.2696 28.8422 67.9108 29.0335 69.5664C29.1155 70.3548 29.2932 71.4061 29.5665 72.7201C29.9218 74.3232 30.1405 75.3875 30.2224 75.9131C30.6324 78.436 30.5504 80.6173 29.9765 82.4569C28.6919 84.0337 26.9446 86.3463 26.4799 88.8167C26.4799 90.6911 31.8258 91.2569 34.4195 88.4561C35.049 87.7764 35.4664 83.7634 35.029 80.2944C34.8104 78.376 35.3198 75.059 35.6751 71.6163C36.0577 67.7794 36.6357 65.177 36.6084 64.0732C36.5264 61.5765 37.6048 57.5283 38.534 57.1078C42.0871 59.2102 49.6415 61.0647 50.0241 61.2487C50.3521 61.4327 50.5434 61.6298 50.5981 61.84C51.6427 70.03 52.1886 74.0933 52.2357 74.03L52.2369 74.0269Z" fill="white"/>
<path fill-rule="evenodd" clip-rule="evenodd" d="M37.0943 42.2543C36.7357 42.4543 36.2435 41.2845 36.4581 40.7506C37.2141 38.8703 37.9286 39.3925 37.8033 40.3115C37.6784 41.2282 37.8033 41.859 37.0943 42.2543Z" fill="#F28A0C"/>
<path fill-rule="evenodd" clip-rule="evenodd" d="M48.2077 9.4525C48.0746 9.16496 47.9416 8.8774 47.7986 8.59622C47.486 7.98173 46.642 7.79138 46.1829 8.23056C45.9115 8.49017 45.6422 8.75197 45.373 9.01376L45.373 9.01378L45.3729 9.0138L45.3729 9.01385L45.3729 9.01386L45.3728 9.01389L45.3728 9.01393L45.3727 9.01398C44.7848 9.58556 44.197 10.1571 43.5869 10.7059L43.5003 10.7846C42.726 11.4957 42.0837 12.2882 41.6535 13.2343C41.619 13.3103 41.6259 13.4038 41.6329 13.4973C41.6361 13.5406 41.6394 13.5839 41.6385 13.6255C41.6853 13.6198 41.7367 13.6192 41.7881 13.6186C41.9017 13.6172 42.0152 13.6157 42.0788 13.5608C42.1992 13.4569 42.2957 13.328 42.3924 13.1988L42.3924 13.1988C42.4532 13.1176 42.5141 13.0363 42.5811 12.9609C43.2861 12.1671 43.9952 11.3765 44.7096 10.5904C44.7428 10.5538 44.8022 10.5392 44.8616 10.5245C44.8892 10.5177 44.9169 10.5109 44.9419 10.5019C44.9403 10.5305 44.9406 10.5597 44.9408 10.5889C44.9413 10.6521 44.9418 10.7154 44.9243 10.7736C44.8791 10.924 44.8273 11.0731 44.7754 11.2221L44.7754 11.2221L44.7754 11.2222L44.7754 11.2222L44.7754 11.2222L44.7753 11.2223L44.7753 11.2223L44.7753 11.2223L44.7753 11.2224L44.7753 11.2224L44.7753 11.2224L44.7753 11.2224L44.7753 11.2224C44.6779 11.5022 44.5807 11.7818 44.5279 12.069C44.3878 12.8308 44.286 13.6015 44.2287 14.3726C44.2201 14.4894 44.3892 14.6293 44.5427 14.7438L44.6459 14.8197C44.6733 14.8399 44.9402 14.6703 44.9706 14.5572C45.0432 14.2871 45.0991 14.0129 45.1551 13.7386L45.1551 13.7385C45.211 13.4644 45.2669 13.1902 45.3395 12.9202C45.3744 12.7904 45.4086 12.6605 45.4429 12.5306L45.443 12.5305L45.443 12.5302L45.4431 12.53L45.4431 12.53C45.7333 11.4305 46.0226 10.3342 46.6644 9.3416C46.9694 8.86985 47.1423 9.02589 47.3183 9.32749L47.5827 9.78348C47.9113 10.3537 48.2353 10.9277 48.5622 11.5068L48.5627 11.5077L48.5631 11.5085L48.5634 11.5089L48.5634 11.5089C48.8471 12.0115 49.1328 12.5178 49.4256 13.0286C49.5459 13.2768 49.6699 13.5208 49.7929 13.7628C50.1254 14.4171 50.4506 15.0571 50.6767 15.728C50.9571 16.5604 51.2597 17.4838 51.1482 18.3171C50.9996 19.4284 50.0733 21.8634 50.0733 21.8634C49.0017 25.3275 43.8058 31.9172 41.6424 33.1997C39.6574 34.3764 37.5076 35.1338 35.1428 35.2224C33.8152 35.2722 32.6869 34.7774 31.5961 34.1343L31.4405 34.0415C30.5621 33.5114 29.9926 32.8401 29.9111 31.8017C29.8486 31.0044 29.7694 30.208 29.6902 29.4117L29.6902 29.4116L29.6902 29.4116L29.6902 29.4116L29.6902 29.4115L29.6902 29.4115L29.6902 29.4115L29.6902 29.4114L29.6902 29.4114L29.6902 29.4114L29.6902 29.4113C29.5592 28.0947 29.4283 26.7782 29.3728 25.4587C29.3128 24.0327 29.4178 22.5868 29.6041 21.1687C29.7701 19.9052 30.0543 18.6533 30.3502 17.4077L30.4775 16.8743C31.1619 14.0096 32.7926 11.6972 35.082 9.7905C35.9025 9.10712 36.5974 9.2198 37.1263 10.1339C37.3514 10.5231 37.5662 10.9177 37.781 11.3124L37.781 11.3124L37.781 11.3124L37.781 11.3124L37.7811 11.3124L37.7811 11.3125L37.7811 11.3125L37.7811 11.3125L37.7811 11.3126L37.7811 11.3126C38.0007 11.716 38.2203 12.1194 38.4509 12.5169C38.5073 12.6142 38.6192 12.6817 38.7311 12.7492C38.7828 12.7804 38.8344 12.8116 38.8806 12.8457C38.8831 12.7921 38.8918 12.7359 38.9005 12.6796C38.9193 12.558 38.938 12.4364 38.8945 12.3411L38.8239 12.1862C38.4653 11.3999 38.106 10.6119 37.6887 9.85412C37.0774 8.74428 35.9279 8.21816 34.7032 9.10466C33.1581 10.2231 31.9146 11.6204 30.9626 13.21C30.4751 14.0239 30.1628 14.9406 29.8534 15.849C29.7896 16.0362 29.7259 16.2231 29.6609 16.4086L29.5988 16.5876C29.0266 18.2602 28.6375 19.9776 28.5099 21.7385C28.4694 22.2977 28.4847 22.8609 28.5 23.4237C28.5048 23.6006 28.5096 23.7775 28.5126 23.9542C28.5175 24.2334 28.5206 24.5126 28.5237 24.7919C28.5331 25.6349 28.5425 26.4781 28.5996 27.3182C28.6448 27.985 28.7158 28.6503 28.7868 29.3155C28.8708 30.1025 28.9548 30.8894 28.9961 31.6785L29.0008 31.7543C29.1759 34.2458 31.484 35.6218 33.4443 36.0859C35.1431 36.4882 36.9684 36.3946 38.7163 35.7477C40.7095 35.1463 42.3446 34.0064 43.8863 32.7974C45.8799 31.2342 50.9042 23.1761 51.7686 20.3046C52.2838 18.5928 52.1964 16.9833 51.5055 15.3468C50.892 13.8937 50.0879 12.5617 49.1784 11.2632C48.7866 10.7038 48.4972 10.0782 48.2077 9.4525ZM28.8429 53.341C28.8344 53.1389 28.825 52.9364 28.8155 52.7337C28.7655 51.6665 28.7153 50.5946 28.814 49.5377C28.9932 47.6203 29.4642 45.7556 30.3721 44.0085C30.7409 43.2987 31.0442 42.5459 31.2782 41.7845C31.5728 40.8259 32.1951 40.093 32.8214 39.3552C32.9308 39.2263 33.0403 39.0974 33.1482 38.967C33.6458 38.3659 34.1209 37.7445 34.5623 37.1039C34.7828 36.7839 34.8768 36.7378 35.0987 37.0948C36.0216 38.5796 38.1478 38.9096 39.6678 37.9789C42.1549 36.4559 44.2987 34.5403 46.4423 32.6248L46.5824 32.4996C47.5895 31.5998 48.4889 30.5788 48.9459 29.2753C48.9961 29.1322 49.1089 28.9981 49.2234 28.8907C49.3054 28.8137 49.4055 28.7551 49.5057 28.6964C49.5495 28.6707 49.5933 28.6451 49.6356 28.6179C49.6321 28.664 49.6309 28.7107 49.6296 28.7574C49.627 28.858 49.6243 28.9586 49.5991 29.0536C49.2073 30.5363 48.3088 31.7309 47.2214 32.7898C45.9079 34.0689 44.5899 35.3514 43.1826 36.5299C42.1617 37.3846 41.0158 38.1079 39.8772 38.8164C39.504 39.0487 39.0289 39.144 38.5735 39.2353C38.5133 39.2474 38.4534 39.2594 38.3941 39.2716C38.0416 39.3445 37.9333 39.4956 37.9201 39.8288C37.9158 39.9393 37.9142 40.0508 37.9126 40.1625V40.1626C37.9039 40.7816 37.895 41.4079 37.4126 41.9109C37.2041 42.1283 36.9397 42.3058 36.673 42.4541C36.5949 42.4974 36.3593 42.4159 36.3003 42.3265C35.7216 41.4505 35.4518 40.5165 36.3341 39.6775C36.6544 39.373 36.2972 39.221 36.203 39.1931C35.7226 39.051 35.4599 38.7063 35.194 38.3576C35.138 38.2842 35.0819 38.2106 35.0237 38.1387C34.9649 38.0662 34.6908 38.0371 34.659 38.0823C34.3738 38.4865 34.0709 38.8799 33.768 39.2734C32.9936 40.2792 32.219 41.2853 31.7402 42.4735C31.6178 42.7773 31.4941 43.0808 31.3704 43.3843C30.9994 44.2943 30.6283 45.2044 30.2913 46.126C29.5499 48.1529 29.393 50.2512 29.5341 52.3814C29.5533 52.6719 29.5735 52.9625 29.5936 53.2531L29.5936 53.2534L29.5936 53.2534C29.6797 54.4936 29.7658 55.7345 29.78 56.976C29.7983 58.5732 29.7273 60.1734 29.6416 61.7698C29.602 62.506 29.5266 63.2404 29.4512 63.975C29.4039 64.4357 29.3566 64.8964 29.3181 65.3575C29.1629 67.2174 29.4724 69.0364 29.8033 70.8572C29.9342 71.5777 30.0073 72.3087 30.0803 73.039L30.0803 73.0391L30.0803 73.0392L30.0803 73.0393L30.0804 73.0394L30.0804 73.0395L30.0804 73.0396L30.0804 73.0397L30.0804 73.0398L30.0804 73.0399L30.0804 73.0399L30.0804 73.04C30.1004 73.2396 30.1203 73.4391 30.1414 73.6384C30.3677 75.7724 30.5616 77.9188 30.273 80.0527C30.2231 80.4218 30.1929 80.7965 30.1627 81.172C30.0671 82.3585 29.9709 83.5525 29.2495 84.6028C29.0079 84.9546 28.7237 85.3053 28.3831 85.5616C28.2197 85.6846 28.0767 85.7736 27.9457 85.8552C27.4838 86.1429 27.1695 86.3387 26.6218 87.6084C26.045 88.9456 26.6785 89.4158 27.0853 89.7178L27.0854 89.7179L27.0855 89.718L27.0856 89.718C27.1746 89.7841 27.2527 89.842 27.3049 89.8993C27.1731 90.1323 26.4795 90.0852 26.218 89.9005C25.3897 89.3155 25.393 88.2496 25.7469 87.2988C26.1359 86.2538 26.6492 85.3638 27.6971 84.969C28.7337 84.5785 29.059 83.7327 29.2052 82.8446C29.459 81.303 29.6958 79.7423 29.72 78.1874C29.7401 76.8918 29.5899 75.5916 29.4402 74.2963C29.4124 74.0563 29.3847 73.8164 29.3581 73.5768C29.1525 71.7251 28.9377 69.8715 28.6272 68.035C28.4074 66.7349 28.5057 65.4466 28.604 64.1589C28.6358 63.7417 28.6677 63.3246 28.6887 62.9071C28.749 61.7097 28.8499 60.5141 28.9509 59.3184C29.0163 58.5435 29.0817 57.7686 29.1361 56.9932C29.1582 56.6775 29.1415 56.3593 29.1238 56.0237C29.1144 55.8441 29.1047 55.6594 29.1006 55.4675C29.0691 55.1968 29.0306 54.9346 28.9928 54.6776C28.9259 54.2219 28.8614 53.7824 28.8429 53.341ZM36.8492 41.6733C37.1793 41.3714 37.1801 40.9907 37.181 40.6091C37.1816 40.3111 37.1823 40.0125 37.3398 39.7505C37.3642 39.7098 37.2527 39.5268 37.1878 39.5176C37.0892 39.5037 36.9235 39.5547 36.8782 39.6298C36.7536 39.8361 36.6466 40.0523 36.5395 40.2686C36.4906 40.3673 36.4417 40.4661 36.3911 40.5639C36.1245 41.0797 36.3341 41.4432 36.8492 41.6733ZM55.2133 85.0218C55.4793 84.4531 55.6967 83.8276 55.756 83.2122C55.9071 81.6445 56.0243 80.0681 56.0297 78.4953C56.034 77.2367 55.9744 75.9782 55.9148 74.7197C55.8879 74.1516 55.861 73.5836 55.84 73.0155C55.829 72.7189 55.8214 72.4222 55.8137 72.1254C55.8082 71.913 55.8028 71.7007 55.7961 71.4883C55.6986 68.3954 54.7272 65.5531 53.1107 62.9153C52.9493 62.6519 52.4253 62.4156 52.107 62.4552C51.087 62.582 50.1201 62.4102 49.1416 62.2364C48.968 62.2055 48.794 62.1746 48.6192 62.1453C47.096 61.8897 45.6298 61.4876 44.295 60.7602C43.1838 60.1547 42.1261 59.4548 41.0713 58.7569L41.0712 58.7568L40.7792 58.5637C39.9861 58.0398 39.2018 57.4922 38.4827 56.8796C38.0658 56.5246 37.8439 56.7211 37.6843 57.0213C36.9876 58.3327 36.3332 59.6711 36.1369 61.15C35.8555 63.269 35.5804 65.3904 35.3828 67.5175C35.1824 69.675 35.0343 71.837 34.8862 73.9987C34.8574 74.419 34.8286 74.8393 34.7994 75.2596C34.6912 76.8176 34.6079 78.3772 34.5301 79.9368C34.4687 81.1673 34.5541 82.3683 34.7845 83.6018C35.0628 85.0919 35.0904 86.706 34.4163 88.134C33.8156 89.4065 32.6933 90.2433 31.187 90.4016C30.3212 90.4926 29.7012 89.5931 30.1727 88.8736C30.4158 88.5028 30.8056 88.217 31.189 87.9358L31.1891 87.9357C31.2948 87.8582 31.4001 87.781 31.5017 87.7024C31.5649 87.6536 31.6876 87.6766 31.8104 87.6996C31.867 87.7102 31.9236 87.7208 31.9744 87.7244C31.9556 87.7682 31.9394 87.8138 31.9232 87.8594C31.8872 87.9604 31.8513 88.0615 31.7876 88.1421C31.7196 88.2284 31.6363 88.307 31.5535 88.3851C31.4204 88.5107 31.2887 88.6349 31.2245 88.7872C31.1395 88.9886 31.1771 89.3129 31.3006 89.4927C31.3771 89.6041 31.778 89.6418 31.9266 89.5504C32.8718 88.9686 33.6895 88.2796 33.8615 87.1083C33.8887 86.9226 33.9501 86.7377 34.011 86.554L34.0111 86.554C34.0976 86.2931 34.1835 86.0344 34.17 85.7785C34.1264 84.9468 34.0343 84.1177 33.9422 83.2884L33.9422 83.2883C33.8976 82.8868 33.8531 82.4852 33.814 82.0833L33.8079 82.0207C33.7611 81.5407 33.7141 81.059 33.7112 80.5777C33.7015 78.9934 33.698 77.4088 33.7215 75.8246L33.7254 75.5658L33.7254 75.5656V75.5656C33.7594 73.2705 33.7934 70.9749 33.8784 68.6811C33.9156 67.677 34.0322 66.6744 34.1486 65.6736C34.1663 65.5212 34.184 65.3689 34.2014 65.2166C34.3316 64.0789 34.4723 62.9409 34.6602 61.811C34.9787 59.8953 35.539 58.051 36.5878 56.3713C36.7566 56.1009 36.6985 55.6356 35.9564 55.7009C35.5779 55.7342 34.9056 55.8619 34.3161 55.9739L34.316 55.9739C33.7499 56.0815 33.2602 56.1746 33.1809 56.1554C33.2591 56.028 34.7848 55.3659 35.4817 55.3089C37.1721 55.1708 38.5184 55.9735 39.8359 56.8776C39.9463 56.9533 40.0567 57.0293 40.167 57.1052C41.8647 58.2732 43.5677 59.4448 45.5701 60.1144C46.9789 60.5855 48.4076 60.972 49.9104 61.0605C50.1971 61.0774 50.4818 61.1213 50.7666 61.1652L50.7668 61.1653L50.767 61.1653L50.7672 61.1653L50.7674 61.1653L50.7675 61.1654L50.7677 61.1654L50.7679 61.1654L50.7681 61.1654L50.7682 61.1654L50.7684 61.1655L50.7686 61.1655C50.9618 61.1953 51.1552 61.2251 51.3493 61.2465C51.4224 61.2545 51.4997 61.2291 51.577 61.2037C51.6125 61.192 51.6481 61.1803 51.6833 61.1719C51.6678 61.1451 51.6535 61.1174 51.6392 61.0897C51.6076 61.0287 51.576 60.9677 51.5324 60.9162C51.395 60.7542 51.2529 60.5941 51.0998 60.4464C47.8809 57.3423 45.3757 53.078 45.3978 52.9085C45.4645 52.951 45.8025 53.3767 46.2172 53.8989C46.71 54.5195 47.3111 55.2764 47.694 55.6889C49.3142 57.4343 50.9953 59.1284 52.6892 60.8082C54.6263 62.7292 55.8074 65.0259 56.4039 67.6181C56.7096 68.9467 56.9471 70.2822 56.8463 71.6674C56.773 72.6748 56.7568 73.6858 56.7405 74.6968C56.7338 75.1186 56.727 75.5404 56.7161 75.962L56.6977 76.6642C56.6689 77.757 56.6401 78.8499 56.6222 79.9429L56.6218 79.9682C56.6182 80.265 56.5937 82.2669 56.0115 84.2439C55.5516 85.8057 54.6749 87.3564 54.3303 87.9658L54.3302 87.966L54.3299 87.9666C54.2622 88.0862 54.2151 88.1695 54.1959 88.2093C53.9499 88.7172 53.9662 89.0466 54.4374 89.1041C54.8367 89.1528 55.3445 89.0977 55.4762 88.4807L55.4834 88.4468C55.5178 88.2841 55.5541 88.1123 55.6439 87.979C55.6964 87.901 55.7932 87.8506 55.89 87.8003C55.933 87.7779 55.976 87.7556 56.0151 87.7308C56.0248 87.7548 56.0027 87.8391 55.9719 87.9567C55.8594 88.3852 55.6308 89.2558 56.4069 89.2645C57.1941 89.2732 57.1522 88.8399 57.126 88.5682C57.1218 88.5245 57.1179 88.485 57.118 88.4521L57.1181 88.4448C57.1188 88.208 57.1199 87.8576 57.3253 87.825C57.7827 87.7525 57.8026 88.1789 57.8169 88.486L57.8171 88.4887C57.8206 88.5651 57.8182 88.6416 57.8158 88.717C57.8056 89.0356 57.7961 89.3341 58.2426 89.5188C58.7338 89.722 59.0987 89.584 59.4169 89.2725C59.7533 88.9432 59.6588 88.5856 59.3453 88.2809C58.7043 87.6577 58.7327 86.8368 58.7692 86.0798C58.8428 84.5539 58.976 83.0303 59.1092 81.507L59.1092 81.5067L59.1094 81.5053C59.1449 81.099 59.1804 80.6928 59.2148 80.2866C59.2635 79.7108 59.3216 79.1357 59.3796 78.5606L59.3796 78.5605L59.3796 78.5604L59.3797 78.5602L59.3797 78.5601L59.3797 78.5599L59.3797 78.5598L59.3797 78.5597L59.3797 78.5595L59.3797 78.5594L59.3797 78.5593L59.3797 78.5591L59.3798 78.5583C59.4319 78.0425 59.4839 77.5267 59.5293 77.0104C59.5973 76.2364 59.661 75.462 59.7247 74.6877L59.7249 74.6857C59.7993 73.7814 59.8737 72.8771 59.9549 71.9733C59.9794 71.6999 60.0192 71.4272 60.0589 71.1547C60.1182 70.7478 60.1774 70.3413 60.186 69.9336C60.199 69.3212 60.1719 68.7084 60.1449 68.0954V68.0953V68.0952V68.0951V68.0949V68.0948V68.0947V68.0946V68.0945V68.0944V68.0943V68.0941C60.1295 67.7449 60.1141 67.3957 60.1061 67.0465C60.0995 66.7573 60.1014 66.4678 60.1034 66.1783C60.1062 65.7696 60.1089 65.3609 60.0875 64.9534C60.0681 64.5852 60.0568 64.2151 60.0455 63.8447C60.0137 62.7985 59.9817 61.7507 59.7669 60.741C59.6074 59.9916 59.0553 58.5851 58.6715 57.6073L58.6714 57.6072C58.4518 57.0476 58.2873 56.6285 58.283 56.5534C58.4427 56.6769 59.6244 58.5173 60.0015 59.3374L60.0089 59.3532C60.3688 60.136 60.3876 60.1768 61.1791 59.8438C62.713 59.1985 64.3052 58.7673 65.9639 58.5743C66.0783 58.561 66.1952 58.5719 66.3124 58.5829L66.3125 58.5829C66.4136 58.5924 66.5148 58.6018 66.6147 58.5958C66.7239 58.5892 66.8316 58.5564 66.9393 58.5236C66.9873 58.509 67.0353 58.4943 67.0834 58.482C67.0504 58.4424 67.0197 58.3992 66.989 58.356C66.9223 58.2619 66.8555 58.1679 66.764 58.111C66.492 57.9418 66.2139 57.7818 65.9358 57.6218L65.9357 57.6217L65.9355 57.6216C65.6594 57.4627 65.3834 57.3039 65.1133 57.1361C64.5627 56.794 64.2239 56.5645 63.7639 56.2529L63.763 56.2523C63.6535 56.1782 63.5372 56.0994 63.4095 56.0133C63.3216 55.954 62.9837 55.6168 62.9302 55.5101C63.0457 55.476 66.5481 56.6034 67.6741 57.9681C68.6529 59.1544 69.5728 60.3887 70.4704 61.6343C71.594 63.1934 72.6807 64.7777 73.76 66.366L74.014 66.7397C74.9019 68.0452 75.7905 69.3516 76.6136 70.6948L76.7041 70.8425C77.4283 72.0234 78.1616 73.2192 78.673 74.4903C79.3907 76.2738 79.9956 78.1087 80.026 80.0761C80.0342 80.6078 80.114 81.1377 80.1939 81.668C80.2595 82.1037 80.3252 82.5397 80.3512 82.9774C80.4131 84.0165 80.1633 85.0166 79.7756 85.997C79.7008 86.1861 79.7968 86.4428 79.8878 86.6864C79.915 86.7594 79.9419 86.8313 79.9636 86.8997C79.9773 86.9431 80.1935 86.9541 80.3077 86.9344C80.7154 86.8641 80.8024 86.5909 80.8475 86.2239C80.8849 85.9206 81.0178 85.6245 81.1473 85.3359L81.1645 85.2978L81.1961 85.2269C81.2273 85.1566 81.435 85.0848 81.4986 85.1197C81.5847 85.167 81.6505 85.3154 81.6537 85.4226C81.657 85.5316 81.6448 85.6427 81.6327 85.7533C81.6146 85.9185 81.5966 86.0826 81.6304 86.237C81.6872 86.4957 81.8422 86.7512 82.0167 86.9591C82.0793 87.0338 82.4501 87.0024 82.4646 86.9567C82.5215 86.7767 82.5352 86.5837 82.5488 86.3914L82.5488 86.3912C82.5524 86.3403 82.556 86.2894 82.5604 86.2388C82.5629 86.2105 82.5569 86.1816 82.5509 86.1526C82.5445 86.1219 82.5382 86.0913 82.542 86.0618C82.5716 85.8331 82.605 85.6049 82.6384 85.3766C82.6499 85.2978 82.6614 85.2191 82.6728 85.1403L82.819 85.3078C82.9908 85.5044 83.1626 85.701 83.3313 85.9001C83.3422 85.913 83.3418 85.9356 83.3413 85.9579C83.3409 85.9805 83.3404 86.0028 83.3521 86.0138C83.4058 86.0645 83.4582 86.1189 83.5107 86.1733L83.5108 86.1734L83.5109 86.1735L83.511 86.1736C83.6616 86.3297 83.813 86.4866 83.9995 86.5634C84.0948 86.6025 84.4656 86.3181 84.491 86.1509C84.531 85.8874 84.479 85.5104 84.3023 85.3352C83.4845 84.5243 82.9476 83.5612 82.6999 82.4847C82.5754 81.9434 82.5295 81.3855 82.4836 80.827L82.4836 80.827C82.4541 80.4687 82.4247 80.1101 82.3744 79.7554L82.3055 79.2693C82.0654 77.5717 81.8251 75.8735 81.5286 74.185C81.3076 72.9261 81.0517 71.673 80.7959 70.4199L80.7958 70.4196C80.6669 69.7882 80.538 69.1568 80.4136 68.5247C80.3959 68.4351 80.4106 68.3375 80.4246 68.2436L80.4295 68.2109C80.6957 66.3781 80.3417 64.5929 79.9099 62.8356L79.8345 62.5286C79.2837 60.285 78.7307 58.0325 77.9635 55.8555C77.5052 54.555 76.8845 53.3085 76.2638 52.062L76.2637 52.0618L76.2636 52.0616L76.2635 52.0614L76.2634 52.0612L76.2633 52.061L76.2632 52.0608L76.2631 52.0606L76.2631 52.0604L76.263 52.0602L76.2629 52.0601L76.2628 52.0599C75.9915 51.5151 75.7202 50.9704 75.4626 50.4212C75.3662 50.2157 75.2721 50.009 75.178 49.8023L75.1779 49.8021L75.1778 49.802L75.1776 49.8015L75.1773 49.8009L75.1771 49.8004L75.1769 49.7999L75.1766 49.7994L75.1764 49.7988L75.1763 49.7987C74.9383 49.2758 74.7002 48.7529 74.4252 48.2489L74.3429 48.0981C73.7254 46.9662 73.1064 45.8313 72.4029 44.7495C71.5267 43.4023 70.4648 42.1696 69.0664 41.3096C67.9364 40.6146 66.721 40.0295 65.4924 39.5066C64.1355 38.9291 62.7527 38.4078 61.3701 37.8866L61.3701 37.8866L61.37 37.8866L61.37 37.8866L61.37 37.8866L61.3699 37.8866L61.3699 37.8866L61.3699 37.8865L61.3698 37.8865L61.3698 37.8865L61.3697 37.8865L61.3697 37.8865L61.3691 37.8863L61.3685 37.886C60.9526 37.7293 60.5367 37.5725 60.1216 37.4142C59.8424 37.3077 59.5584 37.2129 59.2745 37.118L59.2744 37.118C58.9479 37.0089 58.6213 36.8999 58.3023 36.7732C58.2053 36.7347 58.1383 36.6264 58.0714 36.518C58.0406 36.4682 58.0098 36.4184 57.976 36.3753C58.0254 36.3743 58.0758 36.3698 58.1262 36.3653C58.2344 36.3557 58.3426 36.346 58.4411 36.3711C61.1067 37.0488 63.6232 38.0965 66.1421 39.1452L66.1428 39.1455L66.1436 39.1458L66.1443 39.1461L66.145 39.1464L66.1457 39.1467L66.1465 39.147L66.1472 39.1473L66.1479 39.1476L66.1486 39.1479C66.5336 39.3082 66.9188 39.4685 67.3045 39.6275C69.2608 40.4341 70.9236 41.5792 72.1982 43.199C72.9943 44.2107 73.7625 45.2745 74.3299 46.4144C74.9552 47.6705 76.0263 48.3526 77.2133 48.8838C78.605 49.5066 80.0756 50.004 81.6575 49.8727C82.549 49.7986 83.4357 49.655 84.3204 49.5117L84.6409 49.4599C85.6842 49.2921 87.0112 49.8742 86.7825 50.9695C86.6384 51.6598 86.1144 52.0023 85.5108 52.1588C85.2878 52.2166 85.0647 52.2771 84.8413 52.3378C83.4716 52.7097 82.0911 53.0846 80.6485 52.8452C79.9453 52.7285 79.2555 52.5383 78.5656 52.3481L78.5655 52.3481L78.5654 52.3481C78.2315 52.256 77.8976 52.164 77.5621 52.0802C77.4688 52.057 77.3714 52.0491 77.274 52.0412C77.2288 52.0375 77.1837 52.0339 77.1389 52.0287L77.1453 52.0466L77.1541 52.0717C77.1608 52.0913 77.1673 52.111 77.1739 52.1307C77.1981 52.204 77.2224 52.2774 77.2566 52.3461C78.5527 54.9508 79.5193 57.6612 80.092 60.5043C80.2071 61.0754 80.3418 61.6429 80.4765 62.2104L80.4765 62.2105C80.6446 62.9189 80.8127 63.6272 80.9426 64.3423C81.0546 64.9595 81.1107 65.5861 81.1668 66.213L81.1668 66.2132C81.1979 66.561 81.2291 66.9089 81.2698 67.2553C81.2908 67.4345 81.3114 67.6138 81.3319 67.7932C81.4222 68.5807 81.5125 69.3687 81.6461 70.1493C81.7977 71.0351 81.9623 71.9189 82.127 72.8026L82.127 72.8027C82.3659 74.0854 82.6048 75.368 82.8039 76.6565C82.9326 77.4891 83.0026 78.33 83.0726 79.1712C83.1204 79.7457 83.1682 80.3202 83.2348 80.8923C83.413 82.4248 83.7517 83.9026 84.9377 85.0597C85.3753 85.4867 85.4264 86.2371 85.115 86.7444C84.7734 87.3008 84.2372 87.4909 83.5042 87.3303C83.358 87.2982 83.1771 87.2596 83.0528 87.3129C82.4168 87.586 81.8066 87.8048 81.2065 87.2288C81.1578 87.1821 80.8708 87.3258 80.7235 87.4224C79.7445 88.0644 78.9097 87.4311 78.8703 86.4473C78.8561 86.0926 78.9333 85.7137 79.0593 85.3771C79.5664 84.0225 79.5604 82.6378 79.4205 81.2367C79.3882 80.9137 79.3662 80.5891 79.3442 80.2646L79.3442 80.2645L79.3441 80.2644L79.3441 80.2642L79.3441 80.2641L79.3441 80.264L79.3441 80.2638L79.3441 80.2637L79.3441 80.2635L79.3441 80.2634L79.3441 80.2633L79.344 80.2631C79.305 79.6871 79.2659 79.1113 79.1696 78.5446C78.7586 76.1259 77.827 73.8866 76.4737 71.8234C74.6095 68.9813 72.7199 66.1545 70.8135 63.3387C70.4086 62.7407 69.9749 62.1611 69.5411 61.5814C69.193 61.1161 68.8448 60.6508 68.5115 60.1759C68.0207 59.4766 67.3049 59.548 66.6483 59.6135C66.5411 59.6242 66.4356 59.6347 66.3328 59.6417C65.1374 59.7231 64.0229 60.1198 62.9077 60.5168C62.3903 60.701 61.8727 60.8852 61.3469 61.038C60.6183 61.2497 60.6782 61.6574 60.7405 62.0813C60.7531 62.1677 60.7659 62.2547 60.7722 62.3409C60.7994 62.7171 60.8407 63.0924 60.882 63.4676C60.9326 63.927 60.9832 64.3863 61.0079 64.8471L61.0308 65.2738C61.1182 66.8943 61.2056 68.516 61.2151 70.1379C61.2185 70.7251 61.1415 71.3126 61.0643 71.9006C61.0193 72.2442 60.9742 72.5881 60.9451 72.9321C60.8736 73.7783 60.8084 74.625 60.7433 75.4717C60.6549 76.6191 60.5666 77.7666 60.4626 78.9127C60.4238 79.3404 60.3884 79.7687 60.353 80.1972C60.2301 81.6858 60.107 83.1758 59.84 84.641C59.5897 86.0141 59.8536 87.2191 60.3647 88.4488C60.6561 89.1497 59.9372 90.1286 59.0975 90.1376C59.0189 90.1384 58.9366 90.1439 58.8527 90.1494C58.427 90.1776 57.9619 90.2084 57.7441 89.6521C57.726 89.606 57.4209 89.5838 57.3712 89.644C57.1045 89.9676 56.778 89.9333 56.4525 89.8992C56.3356 89.887 56.2188 89.8747 56.105 89.8791C55.9895 89.8835 55.8728 89.8808 55.7562 89.8782H55.7561C55.5448 89.8734 55.334 89.8686 55.1309 89.906C54.4955 90.0229 53.9562 89.8355 53.5707 89.3952C53.1941 88.9651 53.2995 88.4538 53.6409 87.9601C53.7572 87.7499 53.8738 87.5418 53.9897 87.335L53.9897 87.3349C54.4236 86.5605 54.8476 85.8038 55.2133 85.0218ZM86.1569 50.9603C86.1132 50.8989 86.0731 50.8259 86.033 50.7528C85.9448 50.592 85.8566 50.4312 85.7295 50.3946C85.3008 50.271 84.8106 50.1648 84.3838 50.2453C82.6631 50.5695 80.9568 50.8854 79.2332 50.3022C79.0886 50.2533 78.9434 50.2054 78.7982 50.1575C77.6526 49.7798 76.5078 49.4023 75.642 48.5046C75.6083 48.4696 75.5518 48.4551 75.4953 48.4406C75.469 48.4338 75.4427 48.427 75.4186 48.4182C75.416 48.455 75.4087 48.4941 75.4014 48.5331C75.3856 48.6175 75.3699 48.7019 75.4015 48.7633C75.7365 49.4127 76.078 50.0599 76.4505 50.6894C76.5466 50.8518 76.7401 51.006 76.9238 51.0667C77.1848 51.1529 77.4453 51.2423 77.7059 51.3317C78.5569 51.6237 79.4092 51.9162 80.2856 52.1015C81.6822 52.397 83.0996 52.1463 84.4608 51.7976C84.5713 51.7693 84.6882 51.7472 84.8078 51.7246L84.8078 51.7246L84.8079 51.7246L84.8079 51.7246L84.8079 51.7246L84.808 51.7246C85.2971 51.6322 85.8307 51.5314 86.1569 50.9603ZM34.5898 27.0954C33.6583 27.5408 32.7077 27.7799 31.7333 27.585C31.4227 27.5228 31.0488 27.136 30.9527 26.8252C30.7096 26.0384 30.5569 25.2238 30.4047 24.4119L30.4047 24.4119L30.3522 24.1324C30.2214 23.4404 30.6565 23.0108 31.2557 22.8324C32.5428 22.4493 33.8525 22.2587 35.1215 22.9232C36.5959 23.6953 36.4316 25.7899 35.4849 26.4404C35.2557 26.598 35.033 26.7644 34.7927 26.944L34.7925 26.9441L34.7924 26.9442C34.7264 26.9936 34.659 27.0439 34.5898 27.0954ZM34.8748 23.8618C34.8566 23.8422 34.8386 23.8175 34.8206 23.7929C34.7814 23.7392 34.7423 23.6856 34.7008 23.6841C34.5176 23.6773 34.3336 23.6884 34.1496 23.6996H34.1496H34.1496H34.1495H34.1495H34.1495H34.1495H34.1495H34.1495C34.082 23.7037 34.0145 23.7078 33.947 23.711C33.9732 23.762 34.0004 23.8126 34.0276 23.8632L34.0276 23.8632C34.0883 23.9762 34.1491 24.0891 34.1981 24.2067C34.277 24.3958 34.3465 24.5886 34.4159 24.7814L34.4159 24.7814L34.416 24.7817L34.4161 24.782L34.4162 24.7822C34.4388 24.8449 34.4614 24.9075 34.4842 24.9701C34.5118 25.0453 34.5373 25.1213 34.5629 25.1973L34.5629 25.1974C34.5745 25.2317 34.586 25.2661 34.5977 25.3004C34.6327 25.2823 34.6696 25.2663 34.7065 25.2502C34.7866 25.2153 34.8667 25.1804 34.9269 25.1253C35.3547 24.7328 35.1887 24.3284 34.8748 23.8618ZM53.1334 66.3054L53.1007 65.8747C53.0807 65.8027 53.0536 65.7508 53.0304 65.7066C53.0113 65.67 52.9948 65.6386 52.9874 65.6054C52.9309 65.3531 52.8773 65.1 52.8238 64.847C52.7071 64.2955 52.5904 63.7441 52.443 63.2003C52.4348 63.1701 52.4287 63.1337 52.4221 63.0945L52.422 63.0945C52.3878 62.8917 52.3411 62.6147 51.9356 62.7442C51.52 62.8769 51.5569 63.0704 51.6237 63.4212L51.6337 63.4738C51.8855 64.8161 52.0619 66.1733 52.2154 67.5302C52.3329 68.5687 52.3919 69.6144 52.442 70.6585C52.4602 71.039 52.4861 71.4204 52.512 71.8019C52.5855 72.8855 52.6592 73.9706 52.5584 75.0394C52.4333 76.3661 51.5844 77.4189 50.3634 78.1244C49.2034 78.7947 48.099 79.4996 47.6395 80.8344C47.3558 81.6585 47.6325 82.2439 48.4254 82.266C48.5717 82.2701 48.72 82.2045 48.8684 82.1389C48.9365 82.1088 49.0046 82.0787 49.0725 82.0553C49.0214 82.0008 48.9733 81.9381 48.9253 81.8754L48.9252 81.8753C48.8187 81.7361 48.7122 81.597 48.5717 81.5481C48.1926 81.4163 48.1655 81.3274 48.3176 80.9469C48.6311 80.1626 49.1112 79.5705 49.8638 79.1524C51.0632 78.4861 52.121 77.6459 52.7739 76.4561C53.5735 74.9987 53.948 73.4402 53.7021 71.7724C53.5541 70.7694 53.4448 69.7605 53.3407 68.7521C53.258 67.9509 53.1972 67.1476 53.1334 66.3054ZM58.0152 43.0545C57.6452 41.0229 57.2852 39.0518 56.8939 37.0864C56.6278 35.7498 55.6504 34.93 54.5659 34.1743C54.4382 34.0853 54.3092 33.9967 54.1799 33.9079L54.1799 33.9079L54.1798 33.9079L54.1798 33.9079L54.1798 33.9079L54.1798 33.9079L54.1798 33.9078L54.1798 33.9078C53.4447 33.4032 52.6994 32.8915 52.119 32.2507C51.11 31.1367 49.4314 28.476 49.5133 27.0879C49.5679 26.1628 49.9051 25.0866 49.9051 25.0866C49.9051 25.0866 49.7422 27.0002 49.9051 27.584C50.4787 29.6402 52.0451 31.2697 53.4894 32.3614C53.8217 32.6126 54.1657 32.8519 54.5096 33.091L54.5096 33.0911L54.5096 33.0911L54.5096 33.0911L54.5097 33.0911L54.5097 33.0911L54.5097 33.0911L54.5098 33.0912C55.1873 33.5625 55.8642 34.0334 56.4496 34.5936C57.0168 35.1363 57.4735 35.8493 57.5917 36.7168C57.6593 37.2131 57.7427 37.7043 57.8264 38.1971L57.8264 38.1972L57.8264 38.1973L57.8265 38.1974L57.8265 38.1975L57.8265 38.1975L57.8265 38.1976L57.8265 38.1977C57.9955 39.1932 58.1657 40.1957 58.2097 41.2614C58.2601 42.4843 58.9457 44.264 59.2724 45.112L59.2724 45.112C59.377 45.3835 59.4448 45.5594 59.4432 45.5911C59.3246 45.5485 58.4478 44.0785 58.1285 43.3858C58.0877 43.2972 58.0506 43.2069 58.0152 43.0545ZM47.318 16.0192C45.9761 15.3959 44.619 14.8031 43.201 14.1979C42.5268 14.0378 41.8897 13.8783 41.2613 13.721L41.2612 13.721L41.2612 13.721C41.0524 13.6687 40.8446 13.6167 40.6367 13.5649C39.1565 13.1967 37.6642 13.2365 36.2085 13.6129C35.5418 13.7853 34.905 14.0677 34.2701 14.3492C34.0773 14.4347 33.8847 14.5201 33.6915 14.6024C33.6276 14.6296 33.5992 14.7339 33.5708 14.8382C33.5577 14.8865 33.5445 14.9349 33.5278 14.9756C33.5722 14.9843 33.6167 14.9957 33.6613 15.0071C33.7648 15.0335 33.8683 15.0599 33.9696 15.0536C34.0378 15.0493 34.1025 15.0101 34.1682 14.9704C34.21 14.9451 34.2521 14.9196 34.2959 14.9026C35.5552 14.4135 36.8657 14.1167 38.2207 14.0807C40.3434 14.0242 42.357 14.5299 44.3006 15.3108C44.7521 15.4922 45.1983 15.6857 45.6445 15.8793C46.0982 16.0761 46.552 16.2729 47.0112 16.4569C47.1415 16.5091 47.2967 16.5038 47.4519 16.4985C47.5235 16.4961 47.595 16.4937 47.6641 16.4969C47.6282 16.4451 47.5962 16.3856 47.5642 16.3261C47.4952 16.1978 47.4262 16.0694 47.318 16.0192ZM39.9891 20.2127C39.8559 19.7571 40.3768 19.7506 40.8203 19.8023C41.7308 19.9082 42.6503 19.9429 43.5698 19.9776C43.9476 19.9919 44.3254 20.0061 44.7027 20.0254C44.7894 20.0298 44.9118 20.0248 45.0364 20.0198L45.0364 20.0198H45.0365H45.0365C45.3118 20.0087 45.5982 19.9972 45.5372 20.0849C44.2132 21.9893 40.5085 21.9893 39.9891 20.2127ZM31.7647 28.5763C31.5609 29.7175 31.8443 30.4488 33.1433 30.7334C33.6058 30.8348 34.179 30.5581 34.5022 30.3848C35.0038 30.1159 35.4875 29.8166 35.9714 29.5171C36.1337 29.4167 36.296 29.3163 36.459 29.217C36.4434 29.3633 36.8873 30.3555 37.1852 30.5339C37.3911 30.3913 37.4736 30.2498 37.5606 30.1004L37.5606 30.1004L37.5607 30.1003L37.5607 30.1003C37.5884 30.0528 37.6166 30.0045 37.6493 29.9551C37.698 29.8816 37.7189 29.7913 37.7397 29.7008L37.7398 29.7007C37.7504 29.6544 37.7611 29.6081 37.7756 29.5638C37.8236 29.4166 37.8378 29.2535 37.8519 29.0902C37.8884 28.6687 37.9249 28.2466 38.5457 28.0969C38.5716 28.0906 38.6037 28.0867 38.6381 28.0824C38.7917 28.0634 38.9931 28.0385 38.9141 27.7779C38.8173 27.4589 38.5453 27.5439 38.4214 27.5872C37.8917 27.7723 37.3739 27.9978 36.8725 28.2473C36.2836 28.5403 35.6992 28.8415 35.1147 29.1428L35.1143 29.143C34.5693 29.4239 34.0242 29.7049 33.4756 29.9791C32.9289 30.2524 32.5173 29.904 32.1612 29.4755C31.9023 29.1639 31.9631 28.5958 31.9996 28.255C32.0136 28.1241 32.0241 28.0268 32.0114 27.9903C31.8826 28.1129 31.7897 28.4365 31.7647 28.5763ZM36.4875 29.1997L36.459 29.217C36.4597 29.2098 36.4616 29.2046 36.4648 29.2017C36.4697 29.1971 36.4774 29.1967 36.4875 29.1997ZM36.4875 29.1997C36.6136 29.123 36.7402 29.047 36.8675 28.9723C36.9897 28.9006 37.1319 28.8605 37.2742 28.8203C37.3397 28.8019 37.4052 28.7834 37.4687 28.7619C37.4341 28.8557 37.4123 28.9894 37.389 29.132C37.3491 29.3761 37.3049 29.6465 37.1852 29.7881C37.1602 29.8176 37.0076 29.6678 36.8487 29.5117C36.7018 29.3676 36.5495 29.2181 36.4875 29.1997ZM55.1125 77.0688C55.1187 76.9562 55.1224 76.8489 55.126 76.7456C55.1344 76.5032 55.1421 76.2826 55.1783 76.0664C55.1935 75.9754 55.2657 75.8932 55.3379 75.8111C55.3708 75.7738 55.4036 75.7364 55.4311 75.6982C55.4587 75.7361 55.4944 75.7742 55.53 75.8124C55.6067 75.8944 55.6834 75.9764 55.6801 76.0553C55.6095 77.7715 55.5218 79.5125 54.671 81.0528C54.3384 81.6551 53.6356 82.1205 53.0026 82.493C52.7283 82.6544 52.1035 82.551 51.8165 82.3416C51.3532 82.0037 51.3117 81.4062 51.5957 80.9171C51.7939 80.5757 52.1363 80.2957 52.4634 80.0485C52.5376 79.9925 52.6842 80.0251 52.8308 80.0577C52.8978 80.0726 52.9648 80.0875 53.0249 80.0939C52.9976 80.1339 52.9714 80.1749 52.9453 80.2159C52.8875 80.3066 52.8296 80.3973 52.7591 80.4777C52.6893 80.5573 52.6106 80.6321 52.5322 80.7068L52.5321 80.7068C52.3847 80.847 52.2381 80.9864 52.1525 81.1554C52.0603 81.3372 52.0639 81.7063 52.1888 81.8114C52.3422 81.9405 52.7157 81.9786 52.9091 81.8882C54.1118 81.3262 54.5177 80.2548 54.7403 79.0851C54.8641 78.4341 54.9862 77.7828 55.1125 77.0688ZM31.7598 21.0612C32.7766 21.1801 34.644 19.9332 34.644 19.6644C34.644 19.3957 32.1099 19.1186 31.0987 19.025C30.6343 18.982 30.3608 19.1121 30.3234 19.5619C30.2698 20.2077 31.0179 20.9745 31.7598 21.0612ZM50.3935 82.4719C49.2428 81.7615 49.4717 81.0439 50.573 79.9879C50.7009 79.8653 50.8714 79.744 51.0405 79.7119C51.1644 79.6884 51.299 79.7172 51.4335 79.7459L51.4336 79.7459C51.4924 79.7585 51.5512 79.7711 51.6091 79.7793C51.585 79.8151 51.562 79.852 51.539 79.8888C51.4888 79.9692 51.4386 80.0497 51.3763 80.1202C51.0665 80.471 50.7542 80.8202 50.4305 81.159C50.0786 81.5272 50.3666 81.6788 50.6636 81.8245C50.7021 81.8434 50.7509 81.8501 50.7983 81.8565C50.8601 81.865 50.9196 81.8731 50.951 81.9077C51.0441 82.0104 51.118 82.1292 51.1919 82.248C51.2218 82.2961 51.2517 82.3441 51.2828 82.3911C51.2358 82.4045 51.189 82.4194 51.1422 82.4342C51.0336 82.4687 50.925 82.5031 50.8135 82.5196C50.6876 82.5382 50.5544 82.5115 50.3935 82.4719ZM30.2454 87.3933C29.9821 87.4159 29.7188 87.4384 29.4211 87.4907C29.2646 87.614 29.1011 87.7279 28.9402 87.84C28.5753 88.0942 28.2234 88.3394 27.9947 88.6646C27.7802 88.9694 27.8207 89.5601 27.9728 89.9389C28.0555 90.1448 28.4592 90.2554 28.7886 90.3457C28.8331 90.3579 28.8763 90.3697 28.9172 90.3814C29.0933 90.4316 29.3385 90.3745 29.5106 90.2885C29.6356 90.226 29.7362 90.1184 29.8368 90.0108C29.8808 89.9638 29.9248 89.9167 29.9708 89.8735C29.9115 89.8515 29.8441 89.8183 29.7766 89.7852C29.6302 89.7131 29.4838 89.6411 29.4207 89.6836C29.082 89.9115 28.9687 89.6887 28.8782 89.5104C28.8531 89.4611 28.8298 89.4152 28.8039 89.3832C28.7153 89.2735 28.7709 88.9482 28.8846 88.8171C29.0331 88.646 29.2111 88.499 29.3894 88.3518C29.5227 88.2417 29.6562 88.1315 29.7778 88.0108C29.9038 87.8857 30.0054 87.7379 30.107 87.59C30.1525 87.5238 30.1981 87.4575 30.2458 87.3933L30.2454 87.3933Z" fill="#111111"/>
<path fill-rule="evenodd" clip-rule="evenodd" d="M2.46518 24.6943C0.88763 24.9443 -0.129654 26.562 0.193014 28.3076C0.382122 29.3306 0.989515 30.2453 1.77752 30.8526L1.99607 34.2847C2.01737 34.6144 2.38103 34.9047 2.60594 34.769L4.01095 33.8549L5.80905 35.2705C6.09692 35.5077 6.37445 35.2875 6.27446 34.8986L5.2489 30.9609C5.82365 30.3027 6.09499 29.2244 5.90583 28.0057C5.58316 25.9268 4.04273 24.4442 2.46518 24.6943ZM3.63366 31.619C4.01039 31.6389 4.35517 31.5675 4.65738 31.4182L5.33809 33.9754L4.04686 32.9964C3.91991 32.9033 3.77866 32.8904 3.67946 32.9618L2.67042 33.6558L2.52533 31.3215C2.88192 31.4936 3.25673 31.5991 3.63366 31.619ZM2.61124 25.5598C3.7944 25.4036 4.94973 26.5155 5.19173 28.0434C5.43373 29.5714 4.67077 30.7847 3.4876 30.7534C3.07132 30.7424 2.65849 30.5918 2.28767 30.3441C2.26811 30.3282 2.24748 30.3142 2.22609 30.3021C1.57217 29.8542 1.05923 29.1124 0.907116 28.2698C0.665115 26.9294 1.42808 25.7161 2.61124 25.5598Z" fill="#F28A0C"/>
<path fill-rule="evenodd" clip-rule="evenodd" d="M99.8167 51.3608C101.394 51.6108 102.411 53.2285 102.089 54.9741C101.9 55.9971 101.292 56.9118 100.504 57.5191L100.286 60.9512C100.264 61.2809 99.9008 61.5712 99.6759 61.4355L98.2709 60.5214L96.4728 61.937C96.1849 62.1742 95.9074 61.954 96.0074 61.5651L97.0329 57.6274C96.4582 56.9692 96.1869 55.8909 96.376 54.6722C96.6987 52.5933 98.2391 51.1107 99.8167 51.3608ZM98.6482 58.2855C98.2715 58.3054 97.9267 58.234 97.6245 58.0847L96.9438 60.6419L98.235 59.6629C98.3619 59.5698 98.5032 59.5569 98.6024 59.6283L99.6114 60.3223L99.7565 57.988C99.3999 58.1601 99.0251 58.2656 98.6482 58.2855ZM99.6706 52.2264C98.4874 52.0701 97.3321 53.182 97.0901 54.7099C96.8481 56.2379 97.6111 57.4512 98.7942 57.4199C99.2105 57.4089 99.6234 57.2583 99.9942 57.0107C100.014 56.9947 100.034 56.9807 100.056 56.9686C100.71 56.5207 101.223 55.7789 101.375 54.9363C101.617 53.5959 100.854 52.3826 99.6706 52.2264Z" fill="#F28A0C"/>
</svg>
