<?xml version="1.0" encoding="UTF-8"?>
<!DOCTYPE svg PUBLIC "-//W3C//DTD SVG 1.1//EN" "http://www.w3.org/Graphics/SVG/1.1/DTD/svg11.dtd">
<svg xmlns="http://www.w3.org/2000/svg" version="1.1" width="115px" height="85px" style="shape-rendering:geometricPrecision; text-rendering:geometricPrecision; image-rendering:optimizeQuality; fill-rule:evenodd; clip-rule:evenodd" xmlns:xlink="http://www.w3.org/1999/xlink">
<g><path style="opacity:0.992" fill="#2ec2b5" d="M 114.5,30.5 C 114.5,36.1667 114.5,41.8333 114.5,47.5C 109.962,59.2109 102.296,68.3775 91.5,75C 84.608,78.6743 77.608,81.8409 70.5,84.5C 63.8333,84.5 57.1667,84.5 50.5,84.5C 32.7949,81.232 17.9616,72.8986 6,59.5C 3.25475,55.343 1.08809,51.0096 -0.5,46.5C -0.5,41.1667 -0.5,35.8333 -0.5,30.5C 3.77479,17.4723 12.7748,12.6389 26.5,16C 30.6308,17.2355 34.6308,18.7355 38.5,20.5C 37.6267,22.8863 36.1267,24.8863 34,26.5C 33.5002,37.1615 33.3335,47.8281 33.5,58.5C 34.6141,61.4488 36.6141,63.6155 39.5,65C 44.8642,65.1705 50.1975,65.6705 55.5,66.5C 56.6933,68.5267 58.36,70.0267 60.5,71C 70.0092,71.8243 79.3425,71.6576 88.5,70.5C 91.1483,70.2615 92.9817,68.9282 94,66.5C 95.8215,59.1506 92.9881,54.8172 85.5,53.5C 88.1504,50.3489 90.9838,47.3489 94,44.5C 96.1606,35.338 92.6606,31.1713 83.5,32C 78.9981,35.3358 74.9981,39.1691 71.5,43.5C 70.8333,43.5 70.5,43.8333 70.5,44.5C 69.5416,44.9528 68.7083,45.6195 68,46.5C 67.6667,39.8333 67.3333,33.1667 67,26.5C 63.7856,24.1395 61.6189,21.1395 60.5,17.5C 61.5258,15.1529 62.5258,12.8195 63.5,10.5C 80.1795,-0.0699019 95.0129,2.26343 108,17.5C 110.74,21.6467 112.907,25.98 114.5,30.5 Z"/></g>
<g><path style="opacity:1" fill="#2c2d2c" d="M 63.5,10.5 C 62.5258,12.8195 61.5258,15.1529 60.5,17.5C 61.6189,21.1395 63.7856,24.1395 67,26.5C 67.3333,33.1667 67.6667,39.8333 68,46.5C 68.7083,45.6195 69.5416,44.9528 70.5,44.5C 70.5,44.8333 70.5,45.1667 70.5,45.5C 68.1667,48.1667 65.8333,50.8333 63.5,53.5C 66.4815,54.1649 69.6482,54.4982 73,54.5C 76.7622,54.4148 80.2622,53.7481 83.5,52.5C 86.7974,49.7044 89.9641,46.7044 93,43.5C 94.275,35.1095 90.775,31.9429 82.5,34C 79.2232,36.7663 76.5566,39.933 74.5,43.5C 73.5,43.5 72.5,43.5 71.5,43.5C 74.9981,39.1691 78.9981,35.3358 83.5,32C 92.6606,31.1713 96.1606,35.338 94,44.5C 90.9838,47.3489 88.1504,50.3489 85.5,53.5C 92.9881,54.8172 95.8215,59.1506 94,66.5C 92.9817,68.9282 91.1483,70.2615 88.5,70.5C 87.8333,70.5 87.5,70.1667 87.5,69.5C 92.6785,68.1514 94.5118,64.818 93,59.5C 91.8333,58.3333 90.6667,57.1667 89.5,56C 84.8452,55.5008 80.1785,55.3342 75.5,55.5C 75.5,60.1667 75.5,64.8333 75.5,69.5C 75.1667,70.8333 74.8333,70.8333 74.5,69.5C 74.5,64.8333 74.5,60.1667 74.5,55.5C 69.8215,55.3342 65.1548,55.5008 60.5,56C 58.0718,57.0183 56.7385,58.8517 56.5,61.5C 55.6618,61.1583 55.3284,60.4916 55.5,59.5C 56.0283,58.2794 56.695,57.1127 57.5,56C 50.1742,55.5003 42.8409,55.3337 35.5,55.5C 34.8333,56.5 34.1667,57.5 33.5,58.5C 33.3335,47.8281 33.5002,37.1615 34,26.5C 36.1267,24.8863 37.6267,22.8863 38.5,20.5C 41.3104,18.0535 41.1437,15.7202 38,13.5C 37.5026,10.854 37.3359,8.1873 37.5,5.5C 45.4647,4.43069 53.4647,4.26403 61.5,5C 63.1554,6.44425 63.822,8.27759 63.5,10.5 Z"/></g>
<g><path style="opacity:1" fill="#fbfbfb" d="M 42.5,14.5 C 48.1667,14.5 53.8333,14.5 59.5,14.5C 59.3367,16.8568 59.5034,19.1902 60,21.5C 62.1667,23.6667 64.3333,25.8333 66.5,28C 56.1506,28.8323 45.8172,28.6656 35.5,27.5C 37.483,25.0163 39.6496,22.6829 42,20.5C 42.4955,18.5273 42.6621,16.5273 42.5,14.5 Z"/></g>
<g><path style="opacity:1" fill="#e4e4e4" d="M 40.5,6.5 C 47.5,6.5 54.5,6.5 61.5,6.5C 61.5,8.83333 61.5,11.1667 61.5,13.5C 54.4921,13.6663 47.4921,13.4996 40.5,13C 39.232,10.8368 39.232,8.67016 40.5,6.5 Z"/></g>
<g><path style="opacity:1" fill="#f5f5f5" d="M 35.5,30.5 C 45.8333,30.5 56.1667,30.5 66.5,30.5C 66.6662,36.5092 66.4995,42.5092 66,48.5C 64.647,49.6853 63.4803,51.0186 62.5,52.5C 53.5246,53.4982 44.5246,53.8315 35.5,53.5C 35.5,45.8333 35.5,38.1667 35.5,30.5 Z"/></g>
<g><path style="opacity:1" fill="#474747" d="M 53.5,33.5 C 52.8333,33.5 52.5,33.8333 52.5,34.5C 51.5,34.5 50.5,34.5 49.5,34.5C 49.7947,36.7354 49.4614,38.7354 48.5,40.5C 48.6716,39.5084 48.3382,38.8417 47.5,38.5C 47.5,36.5 47.5,34.5 47.5,32.5C 49.7354,32.2053 51.7354,32.5386 53.5,33.5 Z"/></g>
<g><path style="opacity:1" fill="#f7f7f7" d="M 83.5,52.5 C 80.8333,49.1667 77.8333,46.1667 74.5,43.5C 76.5566,39.933 79.2232,36.7663 82.5,34C 90.775,31.9429 94.275,35.1095 93,43.5C 89.9641,46.7044 86.7974,49.7044 83.5,52.5 Z"/></g>
<g><path style="opacity:1" fill="#f0f0f0" d="M 52.5,34.5 C 52.5,36.5 52.5,38.5 52.5,40.5C 54.5,40.5 56.5,40.5 58.5,40.5C 58.5,41.5 58.5,42.5 58.5,43.5C 56.5,43.5 54.5,43.5 52.5,43.5C 52.5,45.5 52.5,47.5 52.5,49.5C 51.5,49.5 50.5,49.5 49.5,49.5C 49.7947,47.2646 49.4614,45.2646 48.5,43.5C 46.5,43.5 44.5,43.5 42.5,43.5C 42.5,42.5 42.5,41.5 42.5,40.5C 44.5,40.5 46.5,40.5 48.5,40.5C 49.4614,38.7354 49.7947,36.7354 49.5,34.5C 50.5,34.5 51.5,34.5 52.5,34.5 Z"/></g>
<g><path style="opacity:1" fill="#3a3a3a" d="M 89.5,35.5 C 93.6493,38.948 93.4826,42.2813 89,45.5C 89.3443,43.7424 89.8443,41.9091 90.5,40C 90.2272,38.4672 89.8938,36.9672 89.5,35.5 Z"/></g>
<g><path style="opacity:1" fill="#0a0a0a" d="M 47.5,38.5 C 48.3382,38.8417 48.6716,39.5084 48.5,40.5C 46.5,40.5 44.5,40.5 42.5,40.5C 42.5,41.5 42.5,42.5 42.5,43.5C 44.5,43.5 46.5,43.5 48.5,43.5C 48.6716,44.4916 48.3382,45.1583 47.5,45.5C 45.7354,44.5386 43.7354,44.2053 41.5,44.5C 41.5,42.8333 41.5,41.1667 41.5,39.5C 43.7354,39.7947 45.7354,39.4614 47.5,38.5 Z"/></g>
<g><path style="opacity:1" fill="#070707" d="M 53.5,33.5 C 53.5,35.5 53.5,37.5 53.5,39.5C 55.5,39.5 57.5,39.5 59.5,39.5C 59.5,41.1667 59.5,42.8333 59.5,44.5C 57.5,44.5 55.5,44.5 53.5,44.5C 53.5,46.5 53.5,48.5 53.5,50.5C 52.8333,50.5 52.5,50.1667 52.5,49.5C 52.5,47.5 52.5,45.5 52.5,43.5C 54.5,43.5 56.5,43.5 58.5,43.5C 58.5,42.5 58.5,41.5 58.5,40.5C 56.5,40.5 54.5,40.5 52.5,40.5C 52.5,38.5 52.5,36.5 52.5,34.5C 52.5,33.8333 52.8333,33.5 53.5,33.5 Z"/></g>
<g><path style="opacity:1" fill="#595959" d="M 71.5,43.5 C 72.5,43.5 73.5,43.5 74.5,43.5C 77.8333,46.1667 80.8333,49.1667 83.5,52.5C 80.2622,53.7481 76.7622,54.4148 73,54.5C 69.6482,54.4982 66.4815,54.1649 63.5,53.5C 69.5092,53.6662 75.5092,53.4995 81.5,53C 78.8333,50.3333 76.1667,47.6667 73.5,45C 72.4232,44.5304 71.4232,44.6971 70.5,45.5C 70.5,45.1667 70.5,44.8333 70.5,44.5C 70.5,43.8333 70.8333,43.5 71.5,43.5 Z"/></g>
<g><path style="opacity:1" fill="#fcfcfc" d="M 63.5,53.5 C 65.8333,50.8333 68.1667,48.1667 70.5,45.5C 71.4232,44.6971 72.4232,44.5304 73.5,45C 76.1667,47.6667 78.8333,50.3333 81.5,53C 75.5092,53.4995 69.5092,53.6662 63.5,53.5 Z"/></g>
<g><path style="opacity:1" fill="#474747" d="M 48.5,43.5 C 49.4614,45.2646 49.7947,47.2646 49.5,49.5C 50.5,49.5 51.5,49.5 52.5,49.5C 52.5,50.1667 52.8333,50.5 53.5,50.5C 51.7354,51.4614 49.7354,51.7947 47.5,51.5C 47.5,49.5 47.5,47.5 47.5,45.5C 48.3382,45.1583 48.6716,44.4916 48.5,43.5 Z"/></g>
<g><path style="opacity:1" fill="#fcfcfc" d="M 35.5,55.5 C 42.8409,55.3337 50.1742,55.5003 57.5,56C 56.695,57.1127 56.0283,58.2794 55.5,59.5C 54.5655,60.5676 54.2322,61.901 54.5,63.5C 49.1563,63.666 43.8229,63.4994 38.5,63C 35.9586,61.1516 34.9586,58.6516 35.5,55.5 Z"/></g>
<g><path style="opacity:1" fill="#f6f6f6" d="M 74.5,69.5 C 69.4889,69.6659 64.4889,69.4993 59.5,69C 56.9586,67.1516 55.9586,64.6516 56.5,61.5C 56.7385,58.8517 58.0718,57.0183 60.5,56C 65.1548,55.5008 69.8215,55.3342 74.5,55.5C 74.5,60.1667 74.5,64.8333 74.5,69.5 Z"/></g>
<g><path style="opacity:1" fill="#f5f5f5" d="M 87.5,69.5 C 83.5,69.5 79.5,69.5 75.5,69.5C 75.5,64.8333 75.5,60.1667 75.5,55.5C 80.1785,55.3342 84.8452,55.5008 89.5,56C 90.6667,57.1667 91.8333,58.3333 93,59.5C 94.5118,64.818 92.6785,68.1514 87.5,69.5 Z"/></g>
<g><path style="opacity:1" fill="#2b3937" d="M 35.5,55.5 C 34.9586,58.6516 35.9586,61.1516 38.5,63C 43.8229,63.4994 49.1563,63.666 54.5,63.5C 54.2322,61.901 54.5655,60.5676 55.5,59.5C 55.3284,60.4916 55.6618,61.1583 56.5,61.5C 55.9586,64.6516 56.9586,67.1516 59.5,69C 64.4889,69.4993 69.4889,69.6659 74.5,69.5C 74.8333,70.8333 75.1667,70.8333 75.5,69.5C 79.5,69.5 83.5,69.5 87.5,69.5C 87.5,70.1667 87.8333,70.5 88.5,70.5C 79.3425,71.6576 70.0092,71.8243 60.5,71C 58.36,70.0267 56.6933,68.5267 55.5,66.5C 50.1975,65.6705 44.8642,65.1705 39.5,65C 36.6141,63.6155 34.6141,61.4488 33.5,58.5C 34.1667,57.5 34.8333,56.5 35.5,55.5 Z"/></g>
<g><path style="opacity:1" fill="#2e2e2e" d="M 90.5,62.5 C 92.6877,63.5357 92.6877,65.0357 90.5,67C 88.3046,68.373 85.9712,68.7063 83.5,68C 85.6079,67.6401 87.6079,66.9734 89.5,66C 90.3366,64.9887 90.67,63.8221 90.5,62.5 Z"/></g>
</svg>
