<?xml version="1.0" encoding="UTF-8"?>
<!DOCTYPE svg PUBLIC "-//W3C//DTD SVG 1.1//EN" "http://www.w3.org/Graphics/SVG/1.1/DTD/svg11.dtd">
<svg xmlns="http://www.w3.org/2000/svg" version="1.1" width="93px" height="102px" style="shape-rendering:geometricPrecision; text-rendering:geometricPrecision; image-rendering:optimizeQuality; fill-rule:evenodd; clip-rule:evenodd" xmlns:xlink="http://www.w3.org/1999/xlink">
<g><path style="opacity:0.994" fill="#2ec3b5" d="M 26.5,-0.5 C 32.1667,-0.5 37.8333,-0.5 43.5,-0.5C 55.6928,3.36133 61.6928,11.6947 61.5,24.5C 55.3694,31.1315 49.036,37.6315 42.5,44C 30.3765,52.4632 19.2099,61.9632 9,72.5C 8.23502,74.0657 8.40168,75.3991 9.5,76.5C 9.87426,78.9497 11.3743,79.9497 14,79.5C 16.7318,79.3852 19.2318,78.5519 21.5,77C 27.0363,71.6314 32.3697,66.1314 37.5,60.5C 45.2983,53.2025 52.9649,45.7025 60.5,38C 61.448,37.5172 62.448,37.3505 63.5,37.5C 63.9731,38.9063 64.9731,39.573 66.5,39.5C 67.1451,40.8118 68.1451,41.8118 69.5,42.5C 70.8726,40.7935 72.5393,39.4602 74.5,38.5C 79.6878,43.3693 84.8545,48.3693 90,53.5C 90.7568,55.3146 91.5902,56.9812 92.5,58.5C 92.5,62.5 92.5,66.5 92.5,70.5C 85.0872,87.7238 72.0872,98.0572 53.5,101.5C 45.8333,101.5 38.1667,101.5 30.5,101.5C 16.8877,99.204 6.55434,92.204 -0.5,80.5C -0.5,76.8333 -0.5,73.1667 -0.5,69.5C 2.12271,59.5037 2.12271,49.5037 -0.5,39.5C -0.5,35.5 -0.5,31.5 -0.5,27.5C 3.0573,12.9423 12.0573,3.60898 26.5,-0.5 Z"/></g>
<g><path style="opacity:1" fill="#2c3030" d="M 74.5,38.5 C 72.5393,39.4602 70.8726,40.7935 69.5,42.5C 68.1451,41.8118 67.1451,40.8118 66.5,39.5C 67.675,39.719 68.675,39.3857 69.5,38.5C 67.7721,36.7745 65.7721,35.4411 63.5,34.5C 62.4376,35.4246 62.4376,36.4246 63.5,37.5C 62.448,37.3505 61.448,37.5172 60.5,38C 52.9649,45.7025 45.2983,53.2025 37.5,60.5C 46.1991,50.8043 54.8657,41.1376 63.5,31.5C 66.063,33.7102 68.563,36.0435 71,38.5C 75.4159,36.0883 79.2492,32.9217 82.5,29C 82.121,26.8115 80.9543,24.6449 79,22.5C 77.6976,21.9152 76.531,21.2485 75.5,20.5C 76.0431,20.44 76.3764,20.1067 76.5,19.5C 75.277,18.3861 73.9437,18.2195 72.5,19C 61.9391,26.555 52.2725,35.2217 43.5,45C 31.6829,53.6699 20.5162,63.1699 10,73.5C 9.51722,74.448 9.35055,75.448 9.5,76.5C 8.40168,75.3991 8.23502,74.0657 9,72.5C 19.2099,61.9632 30.3765,52.4632 42.5,44C 49.036,37.6315 55.3694,31.1315 61.5,24.5C 64.3904,21.4474 67.7238,18.9474 71.5,17C 74.1396,16.161 76.4729,16.661 78.5,18.5C 80.1153,21.4495 82.1153,24.1162 84.5,26.5C 82.2712,31.3976 78.9379,35.3976 74.5,38.5 Z"/></g>
<g><path style="opacity:1" fill="#f4f4f4" d="M 75.5,20.5 C 70.0823,24.439 70.4156,25.2723 76.5,23C 80.1684,25.7251 80.1684,28.2251 76.5,30.5C 75.914,30.2907 75.414,29.9574 75,29.5C 74.7508,30.624 74.2508,31.624 73.5,32.5C 72.3777,31.3698 71.0443,30.7031 69.5,30.5C 67.1931,26.9445 65.1931,27.2778 63.5,31.5C 54.8657,41.1376 46.1991,50.8043 37.5,60.5C 31.4245,65.069 25.7578,70.2356 20.5,76C 16.8188,78.9203 13.1521,79.087 9.5,76.5C 9.35055,75.448 9.51722,74.448 10,73.5C 20.5162,63.1699 31.6829,53.6699 43.5,45C 52.2725,35.2217 61.9391,26.555 72.5,19C 73.9437,18.2195 75.277,18.3861 76.5,19.5C 76.3764,20.1067 76.0431,20.44 75.5,20.5 Z"/></g>
<g><path style="opacity:1" fill="#9f9f9f" d="M 75.5,20.5 C 76.531,21.2485 77.6976,21.9152 79,22.5C 80.9543,24.6449 82.121,26.8115 82.5,29C 79.2492,32.9217 75.4159,36.0883 71,38.5C 68.563,36.0435 66.063,33.7102 63.5,31.5C 65.1931,27.2778 67.1931,26.9445 69.5,30.5C 71.0443,30.7031 72.3777,31.3698 73.5,32.5C 74.2508,31.624 74.7508,30.624 75,29.5C 75.414,29.9574 75.914,30.2907 76.5,30.5C 80.1684,28.2251 80.1684,25.7251 76.5,23C 70.4156,25.2723 70.0823,24.439 75.5,20.5 Z"/></g>
<g><path style="opacity:1" fill="#f8f8f8" d="M 69.5,30.5 C 70.2899,31.7942 71.2899,32.9609 72.5,34C 69.4775,34.1637 66.8109,33.1637 64.5,31C 65.9617,29.3721 67.6283,29.2054 69.5,30.5 Z"/></g>
<g><path style="opacity:1" fill="#e4e3e4" d="M 66.5,39.5 C 66.0269,38.0937 65.0269,37.427 63.5,37.5C 62.4376,36.4246 62.4376,35.4246 63.5,34.5C 65.7721,35.4411 67.7721,36.7745 69.5,38.5C 68.675,39.3857 67.675,39.719 66.5,39.5 Z"/></g>
<g><path style="opacity:1" fill="#3d4544" d="M 63.5,37.5 C 65.0269,37.427 66.0269,38.0937 66.5,39.5C 64.9731,39.573 63.9731,38.9063 63.5,37.5 Z"/></g>
<g><path style="opacity:1" fill="#303a39" d="M 37.5,60.5 C 32.3697,66.1314 27.0363,71.6314 21.5,77C 19.2318,78.5519 16.7318,79.3852 14,79.5C 11.3743,79.9497 9.87426,78.9497 9.5,76.5C 13.1521,79.087 16.8188,78.9203 20.5,76C 25.7578,70.2356 31.4245,65.069 37.5,60.5 Z"/></g>
</svg>
