<svg width="93" height="84" viewBox="0 0 93 84" fill="none" xmlns="http://www.w3.org/2000/svg">
<path d="M73.9509 77.478C83.7024 78.2384 101.36 66.2873 87.7775 48.6293C73.7204 28.169 97.7194 13.5313 77.9554 2.19525C63.6293 -6.02175 46.4092 11.7322 34.88 8.20755C10.2861 2.19525 -5.27725 24.4069 5.56876 38.5286C13.6735 49.0811 -5.98308 56.3319 1.90875 64.6886C10.6927 73.9899 17.6534 63.935 30.5381 66.0401C49.2447 69.0963 62.6523 76.5969 73.9509 77.478Z" fill="#2EC4B6"/>
<path d="M55.4107 5.30098L55.5659 5.38362L55.7195 5.46711C57.8843 6.65617 57.3284 8.55946 60.1737 11.3875C66.3366 17.513 72.229 23.8689 77.833 30.4344L78.2748 30.9531L78.4031 31.1044C80.4889 33.5704 81.4065 35.1553 81.458 37.057C81.496 38.4634 83.1114 39.4084 81.94 40.4979L81.8767 40.556L81.8706 40.5609L81.8511 40.58C81.5725 40.8473 81.2606 41.0848 80.9205 41.2872L80.8293 41.3399L80.8009 41.3578C79.3671 42.2313 77.6785 42.5941 76.104 42.3261L76.0198 42.3112L75.9514 42.298L75.9426 42.3517C74.347 51.7526 71.0943 60.9273 66.3418 69.4349L66.1973 69.6925L66.0489 69.955L65.9638 70.1039L65.8768 70.2532C65.4358 71.0028 65.1163 71.4172 64.6389 71.7976C63.9714 72.3293 63.1253 72.6257 62.0811 72.7462C61.3419 72.8316 60.6463 72.8308 59.4719 72.7708L59.2658 72.7599C54.5521 72.5044 49.8193 72.506 45.1027 72.7642L44.6606 72.7892L44.2954 72.8107L44.242 72.8159C43.5284 72.8836 42.8812 72.9322 42.262 72.9625L42.1077 72.9697L41.935 72.9766L41.9035 72.979C41.1689 73.0375 40.435 73.1021 39.7021 73.173L38.4524 73.2993L37.4004 73.407L36.9375 73.4521C36.7944 73.4657 36.6605 73.4779 36.5299 73.4894L36.035 73.5305L36.0001 73.554C35.9826 73.5652 35.9648 73.5762 35.9468 73.587L35.8915 73.6186L35.8338 73.6489L35.6473 73.7392L35.5223 73.6558L35.4864 73.6304L35.4521 73.6032L35.4199 73.5747L35.3371 73.5801C33.5393 73.6915 32.0461 73.6506 30.6376 73.4099L30.5098 73.3875L30.3861 73.3646C27.1944 72.7609 24.5473 70.8895 23.854 68.4486C21.2413 59.2508 17.5863 50.2897 12.9632 41.7464L12.9004 41.6307L12.8698 41.6469C11.7734 42.2019 10.3958 42.0658 9.18241 41.3624L9.1198 41.3255L9.05622 41.2867L9.04153 41.2811C8.66102 41.1304 8.32309 40.8597 8.08212 40.5194L8.04836 40.4704L8.02448 40.4232L8.01548 40.4266C7.62266 39.9959 7.33192 39.5126 7.16939 39.0094L7.14597 38.9338L7.1245 38.8578C6.60412 36.9271 7.27348 34.9376 8.91205 32.4136C9.38819 31.6802 12.2824 27.3555 16.1639 25.3031C20.4337 23.0454 19.6387 23.2453 20.5559 22.5418C21.2661 21.7427 18.4154 17.1543 15.8981 14.8393C13.3807 12.5244 23.2894 10.1693 24.0598 10.4238C24.2616 10.4905 24.448 10.5731 24.6202 10.6716L24.6932 10.7148L24.7012 10.7198L24.7207 10.675L24.7781 10.7692L24.8064 10.788C25.1549 11.0253 25.4407 11.3363 25.6784 11.7209L25.7224 11.7939L25.7589 11.8573C26.0268 12.332 26.5481 12.5724 26.7967 13.4587L26.9656 14.0719L27.0138 14.2445L27.061 14.409C27.2558 15.0783 27.6102 15.5516 27.8278 15.954L27.8541 16.002L27.8674 16.0258L27.9283 15.9539C31.5223 11.727 35.6656 8.45914 40.9537 6.04175L40.9152 6.04252C40.3307 6.04252 41.8591 5.42721 45.7259 4.20456L45.9454 4.13582L46.1721 4.0662C49.0288 3.198 52.4108 3.7192 55.4107 5.30098Z" fill="white"/>
<path d="M76.7327 41.963L76.6485 41.948L76.5801 41.9348L76.5713 41.9886C74.9757 51.3895 71.723 60.5642 66.9705 69.0718L66.826 69.3294L66.6776 69.5918L66.5925 69.7407C66.1051 70.586 65.7759 71.0295 65.2676 71.4344C64.6 71.9661 63.754 72.2626 62.7098 72.3831C61.9706 72.4684 61.455 72.1997 59.5696 72.0473C65.9842 68.9211 66.9782 63.0105 69.2217 59.166C75.7385 47.9992 71.6946 44.9605 76.7327 41.963Z" fill="#EDFFFC"/>
<path d="M48.0418 83.104C47.9579 83.282 47.687 83.3496 47.5217 83.2338C47.6222 83.1085 47.7274 82.9792 47.8744 82.9059C48.0213 82.8326 48.2226 82.8323 48.3351 82.9482C48.2484 83.0051 48.1617 83.062 48.075 83.1189L48.0418 83.104Z" fill="#111111"/>
<path d="M48.1012 83.6809C47.908 83.6963 47.7149 83.7118 47.5217 83.7272C47.6063 83.631 47.6908 83.5348 47.7753 83.4386C47.8863 83.4342 48.0071 83.432 48.0966 83.4828C48.1861 83.5335 48.2053 83.659 48.1053 83.6964L48.1012 83.6809Z" fill="#111111"/>
<path d="M54.4226 76.6059C54.3336 76.5685 54.339 76.4633 54.3929 76.3965C54.4468 76.3298 54.5333 76.2815 54.5834 76.2129C54.6369 76.1397 54.6431 76.0519 54.6479 75.9677C54.6636 75.696 54.6793 75.4243 54.695 75.1526C54.8496 75.3766 54.8798 75.6508 54.7765 75.8922C54.9331 75.8711 55.1024 75.9416 55.1671 76.0549C54.9352 76.2514 54.6863 76.4356 54.4226 76.6059Z" fill="#111111"/>
<path d="M54.1707 76.4605C53.9199 76.4156 53.7178 76.2086 53.7029 75.9814C53.8754 76.0393 54.07 75.9251 54.1534 75.7787C54.2368 75.6324 54.2423 75.4624 54.2674 75.2999C54.3246 74.93 54.4941 74.5743 54.753 74.2805C54.912 74.5084 54.8508 74.8375 54.6178 75.0077C54.2596 75.2694 54.5808 75.848 54.2963 76.1736C54.2193 76.2616 54.0958 76.371 54.1707 76.4605Z" fill="#111111"/>
<path d="M25.8871 21.7125C24.8033 22.7571 22.906 23.211 21.5488 22.4611C20.4383 21.8476 19.9585 20.6571 19.4323 19.5919C18.8918 18.4979 18.227 17.4526 17.4512 16.4772C16.9352 15.8284 16.1982 15.1443 15.3137 15.2536C15.4809 14.9944 15.8903 14.9284 16.2059 15.0303C16.5215 15.1323 16.7624 15.3596 16.9829 15.585C18.0931 16.7204 19.0061 18.0083 19.6796 19.3891C20.0109 20.0683 20.2887 20.7764 20.7573 21.3882C21.2259 22 21.9307 22.5183 22.7579 22.5954C23.4768 22.6624 24.1757 22.3937 24.8356 22.131C25.1861 21.9915 25.5366 21.852 25.8871 21.7125Z" fill="#111111"/>
<path d="M38.0023 81.8442C39.103 81.3721 40.358 81.3274 41.5738 81.2908C43.1673 81.2429 44.7811 81.1966 46.3369 81.514C46.872 81.6232 47.5008 81.8901 47.5194 82.3895C47.5381 82.8889 47.4445 83.3915 47.2461 83.8573C47.0062 83.4611 46.3868 83.476 45.8952 83.5398C43.2759 83.8797 40.5819 84.0789 38.0046 83.5343C37.701 83.4701 37.3712 83.3772 37.207 83.1359C37.0451 82.8981 37.1015 82.5755 37.2766 82.3455C37.4517 82.1156 37.7244 81.9634 38.0023 81.8442ZM41.0724 83.4348C40.2375 83.3776 39.4043 83.2997 38.574 83.2014C38.3302 83.1725 38.0777 83.139 37.8716 83.0168C37.6654 82.8947 37.5199 82.6576 37.5963 82.4447C37.3546 82.4887 37.294 82.811 37.4395 82.9924C37.585 83.1737 37.8425 83.2431 38.0826 83.2941C40.6779 83.8457 43.3882 83.578 46.0361 83.3031C46.5668 83.248 47.2349 83.0727 47.283 82.5879C47.3328 82.0854 46.6624 81.8087 46.1177 81.7175C43.904 81.3468 41.6271 81.4911 39.3908 81.7234C39.0488 81.7589 38.6987 81.7987 38.3922 81.9415C38.0856 82.0843 37.8266 82.3532 37.8105 82.6665C38.5914 83.2058 39.6903 83.0177 40.6547 83.1757C40.8312 83.2047 41.0372 83.2745 41.0724 83.4348Z" fill="#111111"/>
<path d="M38.5331 62.3935C38.7107 62.5603 38.7877 62.8056 38.7032 63.0177C38.6188 63.2298 38.363 63.392 38.0968 63.3798C37.8305 63.3676 37.5889 63.1649 37.5992 62.9415C37.6127 62.6492 37.7017 62.2783 38.0444 62.2235C38.2256 62.1946 38.4103 62.2781 38.5331 62.3935ZM37.9549 62.8156C37.8202 62.971 38.0917 63.2006 38.3044 63.1291C38.5171 63.0577 38.5789 62.8107 38.4822 62.6365C38.4516 62.5815 38.4077 62.5301 38.3466 62.4977C38.1475 62.392 37.8489 62.6047 37.9412 62.7865L37.9549 62.8156Z" fill="#111111"/>
<path d="M46.93 78.9346C46.8561 78.8896 46.7822 78.8445 46.7083 78.7995C46.9255 78.3395 46.9595 77.8119 46.803 77.3325C47.48 77.5964 46.812 78.8051 47.4783 79.09C47.5185 78.5368 48.0063 78.0744 48.5695 77.8452C49.1327 77.6159 49.7654 77.5756 50.3826 77.5388C52.7409 77.3979 55.1554 77.262 57.4268 77.8473C57.8633 77.9597 58.363 78.1737 58.4159 78.5779C58.4686 78.9804 58.0337 79.2968 57.6151 79.45C56.9422 79.6962 56.2022 79.7451 55.4761 79.7726C53.4338 79.8499 51.3846 79.7805 49.3547 79.5654C48.7895 79.5055 48.1739 79.4102 47.8012 79.0247C47.5375 79.2851 47.0657 79.3519 46.7252 79.177C46.7934 79.0962 46.8617 79.0154 46.93 78.9346ZM48.9006 77.997C48.7376 78.0255 48.5586 78.065 48.465 78.1878C48.3394 78.3527 48.4413 78.5933 48.622 78.71C48.8028 78.8267 49.0353 78.8521 49.2567 78.8739C50.8948 79.0347 52.5329 79.1956 54.1709 79.3565C52.61 79.4684 51.032 79.388 49.4953 79.1184C49.0191 79.0349 48.5232 78.9223 48.1696 78.6247C48.0414 78.7329 48.0874 78.9375 48.2173 79.0441C48.3472 79.1507 48.5298 79.1847 48.703 79.2129C51.3681 79.6476 54.1076 79.7134 56.7948 79.4073C57.1975 79.3614 57.6342 79.2909 57.9031 79.0184C58.172 78.7458 58.1086 78.2101 57.7129 78.1287C54.8286 77.5353 51.8054 77.4902 48.9006 77.997Z" fill="#111111"/>
<path d="M37.7351 57.627C37.6447 57.7178 37.7078 57.8614 37.7546 57.9774C37.8537 58.2235 37.8549 58.493 37.8549 58.7559C37.8549 59.4315 37.8548 60.1071 37.8547 60.7827C37.8547 60.9065 37.8156 61.071 37.6828 61.076C37.6781 60.2594 37.6734 59.4428 37.6688 58.6261C37.667 58.3142 37.6581 57.9804 37.4654 57.7252C37.3468 57.5681 37.6163 57.3623 37.8058 57.4381C37.9953 57.5138 38.0726 57.723 38.1124 57.9114C38.1977 58.3154 38.2069 58.7295 38.2159 59.1411C38.227 59.6549 38.2382 60.1687 38.2493 60.6826C38.2538 60.8905 38.2087 61.16 37.9896 61.2005C38.0929 60.5254 38.089 59.8406 38.085 59.1587C38.0818 58.6279 38.0662 58.0591 37.7351 57.627Z" fill="#111111"/>
<path d="M37.1995 73.8642C37.3393 74.0663 37.4791 74.2684 37.6189 74.4705C37.6111 74.0773 37.8039 73.6842 38.1345 73.4194C37.9748 73.7384 37.9273 74.1001 38.0001 74.4427C38.2121 74.1248 38.3564 73.7722 38.4235 73.4084C38.4516 73.6753 38.4797 73.9422 38.5077 74.2091C39.2086 73.9086 40.0101 73.8615 40.7884 73.8195C41.5309 73.7794 42.2733 73.7393 43.0158 73.6992C45.3121 73.5753 47.6176 73.4514 49.911 73.613C50.6053 73.6619 51.327 73.7462 51.9053 74.0877C52.3164 74.3304 52.6468 74.7551 52.5462 75.1814C52.4051 75.7796 51.5789 75.9981 50.8931 76.0957C48.8546 76.3859 46.8041 76.6114 44.747 76.7716C42.2556 76.9657 39.643 77.0467 37.364 76.1405C37.0158 76.002 36.6541 75.8185 36.5072 75.5083C36.3603 75.198 36.5734 74.7517 36.9556 74.7526C36.8854 74.5295 36.6999 74.3367 36.4615 74.2387C36.7461 74.0947 37.1669 74.2791 37.2076 74.5657C37.2049 74.3318 37.2022 74.098 37.1995 73.8642ZM38.3616 75.885C39.5603 76.0368 40.7591 76.1885 41.9578 76.3403C40.4373 76.4333 38.898 76.2831 37.4377 75.8992C38.244 76.2699 39.1291 76.5077 40.0333 76.5965C40.712 76.6632 41.3974 76.6466 42.0797 76.6215C45.2715 76.5042 48.4546 76.2036 51.6019 75.7222C52.2044 75.63 52.3269 74.8297 51.9219 74.4267C51.5169 74.0237 50.853 73.93 50.244 73.8805C47.3361 73.6443 44.4077 73.845 41.4963 74.0456C40.3366 74.1256 39.1633 74.2079 38.0602 74.5324C37.6873 74.6421 37.2644 74.8519 37.2572 75.1976C37.2483 75.6332 37.8711 75.8229 38.3616 75.885ZM36.9113 74.978C36.6769 75.055 36.6637 75.3664 36.8208 75.5377C36.9285 75.6553 37.0925 75.7317 37.2636 75.7441C37.0309 75.5831 36.9358 75.285 37.0392 75.041C37.0222 74.9963 36.9635 74.9674 36.9113 74.978H36.9113Z" fill="#111111"/>
<path d="M45.1392 52.048C45.1925 52.0284 45.2461 52.0929 45.2443 52.1534C45.2425 52.2139 45.2056 52.2658 45.1704 52.3131C45.0614 52.4591 44.9304 52.6178 44.7563 52.6258C44.7557 52.3734 44.9171 52.1299 45.1392 52.048Z" fill="#111111"/>
<path d="M53.6376 56.05C50.4149 57.7233 47.184 59.4004 43.773 60.7424C43.2229 60.9589 42.6015 61.1691 42.0371 60.9843C41.6407 60.8546 41.3508 60.5518 41.0943 60.2519C40.2031 59.21 39.4842 58.0503 38.9682 56.8222C38.8386 56.5139 38.7202 56.1918 38.7397 55.8628C38.7591 55.5338 38.9449 55.1935 39.28 55.0568C40.1559 54.6992 41.0319 54.3416 41.9078 53.984C42.0493 53.9263 42.1963 53.8647 42.2922 53.7552C42.4051 53.6264 42.428 53.4539 42.4467 53.2911C42.5869 52.0685 42.7272 50.846 42.8674 49.6234C42.902 49.3222 42.9547 48.9891 43.215 48.7956C43.4752 48.602 43.9938 48.7229 43.9733 49.0252C43.9599 49.2227 44.1805 49.3606 44.3739 49.4567C45.4039 49.9689 46.434 50.4811 47.4641 50.9933C47.6573 51.0894 47.8918 51.1869 48.0887 51.097C48.963 50.6974 49.8549 50.3283 50.7614 49.9909C51.0674 49.8769 51.4081 49.7653 51.7221 49.8602C51.9753 49.9368 52.1564 50.1327 52.3185 50.3228C53.2533 51.4192 54.0247 52.6269 54.6059 53.904C54.7619 54.2467 54.9064 54.62 54.811 54.98C54.6782 55.4807 54.1351 55.7917 53.6376 56.05ZM39.1209 56.1912C39.4426 57.207 40.0144 58.1589 40.7841 58.9593C41.1828 59.374 41.6608 59.7621 42.2529 59.8987C42.9954 60.0699 43.7706 59.8182 44.4771 59.5516C46.591 58.754 48.6198 57.7887 50.6453 56.8249C51.821 56.2654 52.9967 55.7059 54.1724 55.1464C54.3333 55.0698 54.5083 54.9786 54.5633 54.8231C54.6077 54.6974 54.5609 54.5619 54.5124 54.4374C53.971 53.0502 53.1705 51.7441 52.154 50.5899C51.9707 50.3817 51.7589 50.1661 51.4698 50.1079C51.1707 50.0477 50.8677 50.1712 50.5923 50.2917C46.897 51.9084 43.2299 53.5767 39.5928 55.2958C39.3896 55.3918 39.1703 55.504 39.0905 55.6968C39.0254 55.8543 39.0698 56.0296 39.1209 56.1912ZM54.1487 55.4229C53.4868 55.7409 52.825 56.0589 52.1631 56.3769C49.6182 57.5995 47.0692 58.8238 44.4126 59.8387C43.5086 60.184 42.3961 60.4866 41.6057 59.9638C41.1924 59.6905 40.956 59.2339 40.5172 58.9946C40.9908 59.8234 41.6771 60.7732 42.7175 60.7549C43.0886 60.7484 43.4393 60.611 43.7775 60.474C47.3662 59.0199 50.8357 57.3301 54.1487 55.4229ZM43.9696 49.6446C43.8528 49.6646 43.7919 49.7759 43.7162 49.8579C43.6406 49.9399 43.4765 49.9905 43.417 49.8985C43.4406 49.805 43.4641 49.7115 43.4877 49.6181C43.4497 49.5611 43.3473 49.5682 43.2948 49.615C43.2423 49.6619 43.2266 49.7315 43.2135 49.7968C42.9768 50.9824 42.8083 52.1789 42.7088 53.3799C42.7018 53.4643 42.7064 53.5681 42.79 53.6077C43.0631 53.4985 43.0337 53.1519 43.0009 52.8859C42.9249 52.2678 43.0913 51.617 43.5178 51.1259C43.9443 50.6349 44.6408 50.3238 45.3337 50.3736C45.4112 50.3161 45.321 50.209 45.2359 50.1607C44.8952 49.9678 44.5333 49.8048 44.1572 49.6748C44.0971 49.654 44.0328 49.6338 43.9696 49.6446ZM43.9827 52.2077C43.9422 52.4311 43.9128 52.7268 43.6656 52.7748C43.6175 52.9281 43.9156 52.9978 44.0342 52.879C44.1528 52.7603 44.1414 52.5825 44.1569 52.4238C44.1993 51.9905 44.5125 51.5865 44.9512 51.3992C45.39 51.2118 45.9381 51.2481 46.3413 51.4911C46.5533 51.6189 46.8361 51.8009 47.0242 51.6459C47.1384 51.5518 47.1198 51.3757 47.0223 51.2676C46.9248 51.1595 46.772 51.1051 46.6232 51.0654C46.0927 50.9239 45.5055 50.9155 44.9964 51.1101C44.4873 51.3047 44.0715 51.7189 43.9827 52.2077ZM46.3276 50.686C45.6194 50.4305 44.7692 50.5185 44.1448 50.9118C43.5204 51.3052 43.1413 51.9915 43.1715 52.6742C43.1784 52.8318 43.2056 52.9881 43.2328 53.1439C43.2472 53.2268 43.2875 53.331 43.3812 53.3318C43.5052 53.3329 43.5155 53.1701 43.4915 53.0612C43.3618 52.4716 43.5631 51.8312 44.0172 51.3883C44.4714 50.9454 45.1673 50.711 45.8352 50.7758C46.0107 50.7928 46.2257 50.8149 46.3276 50.686ZM44.4034 52.7737C44.9824 52.769 45.3707 52.2689 45.7582 51.8841C45.7894 51.8531 45.8237 51.8212 45.8688 51.8108C45.9319 51.7962 46.004 51.8351 46.0192 51.8917C45.9535 51.9588 45.8878 52.026 45.8222 52.0931C46.0576 52.1366 46.3181 52.0152 46.4131 51.8176C46.0577 51.4928 45.4569 51.4095 45.0083 51.6229C44.5596 51.8363 44.3009 52.3285 44.4034 52.7737ZM43.3835 49.2878C43.5557 49.3237 43.7496 49.2342 43.8168 49.088C43.6383 48.9384 43.2987 49.006 43.208 49.2092C43.2636 49.2404 43.3193 49.2716 43.3749 49.3028L43.3835 49.2878ZM47.2779 51.2749C47.2244 51.3915 47.4512 51.4959 47.5348 51.3946C47.6185 51.2932 47.4691 51.1303 47.337 51.174C47.2917 51.189 47.2554 51.2197 47.2206 51.2496L47.2779 51.2749Z" fill="#111111"/>
<path d="M63.1908 58.8669C62.4798 58.4456 62.2499 57.6193 62.1206 56.866C61.774 54.8469 61.7442 52.7847 62.0325 50.7583C62.0754 50.4567 62.1332 50.1393 62.3492 49.9044C62.7458 49.4731 63.4756 49.4958 64.0997 49.5219C65.7482 49.5909 67.4091 49.4167 68.9948 49.0084C69.2595 48.9403 69.5436 49.1024 69.6768 49.3178C69.81 49.5332 69.8283 49.7883 69.8437 50.034C69.927 51.3659 70.0103 52.6979 70.0936 54.0299C70.1646 55.164 70.2127 56.3821 69.5333 57.3424C68.6526 58.5874 66.8463 58.9941 65.2049 59.133C64.5154 59.1913 63.7679 59.2088 63.1908 58.8669ZM63.3903 49.7453C63.2071 49.7567 63.0185 49.7775 62.8595 49.8598C62.5639 50.0128 62.4436 50.3346 62.3638 50.6314C62.0703 51.7221 62.0014 52.8606 62.1615 53.9732C63.4144 54.0269 64.6725 53.9816 65.9164 53.838C65.9857 53.83 66.0585 53.8204 66.1141 53.7826C66.2155 53.7135 66.2215 53.5815 66.2175 53.4676C66.1869 52.5999 66.1087 51.7336 65.9834 50.8727C65.9444 50.6053 65.8913 50.3199 65.6836 50.1242C65.4978 49.9492 65.2218 49.879 64.9569 49.8324C64.4421 49.7418 63.9138 49.7124 63.3903 49.7453ZM64.7685 58.4324C65.1232 58.4098 65.5405 58.3517 65.6997 58.0677C65.7558 57.9677 65.7692 57.8535 65.7816 57.7422C65.8729 56.9263 65.9642 56.1104 66.0555 55.2946C66.0701 55.1644 66.0816 55.0224 66.001 54.9132C65.8468 54.7042 65.4946 54.7578 65.2254 54.8272C64.2718 55.0733 63.2827 55.2098 62.2904 55.2323C62.0261 55.8298 62.4043 56.4838 62.4997 57.1206C62.5306 57.3266 62.5322 57.5396 62.6152 57.7338C62.7616 58.0767 63.1439 58.3039 63.5422 58.394C63.9405 58.4841 64.3586 58.4586 64.7685 58.4324ZM68.0275 57.3796C67.5242 57.9038 66.6316 58.1158 66.3217 58.7484C68.2945 58.6143 69.9661 56.9192 69.8659 55.1543C69.7675 53.4182 69.669 51.6821 69.5705 49.946C69.5629 49.8107 69.5535 49.6699 69.4792 49.5518C69.3156 49.2915 68.9099 49.2475 68.5844 49.3148C68.2588 49.3821 67.9503 49.5285 67.6163 49.5358C68.5772 50.0384 68.6861 51.2185 68.6832 52.2131C68.6819 52.6644 68.6806 53.1157 68.6792 53.567C68.9248 53.354 69.3988 53.5154 69.4832 53.8118C69.5675 54.1081 69.3176 54.4252 68.9921 54.5198C68.4981 54.6632 68.4995 55.2733 68.5244 55.7367C68.5557 56.3173 68.4512 56.9384 68.0275 57.3796ZM67.123 49.6526C66.9547 49.6337 66.7845 49.6558 66.6167 49.6779C66.4413 49.701 66.2658 49.7242 66.0904 49.7473C66.6456 50.2013 66.9328 50.866 67.0558 51.5294C67.1788 52.1927 67.1557 52.8697 67.192 53.5413C67.1952 53.5999 67.204 53.6671 67.2584 53.6998C67.3009 53.7253 67.3568 53.7205 67.4075 53.7146C67.6361 53.6884 67.8646 53.6622 68.0932 53.6359C68.1492 53.6295 68.2088 53.6217 68.2511 53.5883C68.3041 53.5466 68.3149 53.4778 68.3223 53.4151C68.4292 52.5115 68.5332 51.5785 68.2341 50.71C68.0657 50.221 67.6912 49.7168 67.123 49.6526ZM65.7175 58.7353C66.0325 58.6159 66.3367 58.432 66.4838 58.1561C66.5897 57.9576 66.6044 57.7315 66.6172 57.512C66.6915 56.2461 66.7658 54.9802 66.8401 53.7142C66.9178 52.3904 66.943 50.9211 65.9729 49.9177C66.7418 52.2945 66.4413 54.8289 66.1344 57.2876C66.0609 57.8762 65.839 58.6105 65.1825 58.6937C64.5404 58.6751 63.8983 58.6565 63.2562 58.6379C64.0054 58.9948 64.9359 59.0316 65.7175 58.7353ZM68.2907 55.5361C68.3006 55.2923 68.3104 55.0485 68.3203 54.8047C67.8896 54.7852 67.4553 54.8312 67.0415 54.9399C66.9449 55.8536 66.8975 56.7715 66.8995 57.6893C66.8996 57.7081 66.8998 57.7276 66.9089 57.7447C66.944 57.8106 67.0553 57.7794 67.1235 57.7392C67.354 57.6034 67.5876 57.4652 67.7687 57.2789C68.2192 56.8154 68.266 56.1496 68.2907 55.5361ZM62.3601 55.0692C63.3616 54.9054 64.3631 54.7416 65.3645 54.5779C65.6074 54.5381 65.888 54.5069 66.0743 54.6516C66.1262 54.5323 66.179 54.4059 66.1559 54.2796C66.1327 54.1533 66.0026 54.0332 65.8619 54.0572C64.8312 54.2333 63.7725 54.2775 62.728 54.1879C62.4912 54.1676 62.2484 54.3033 62.1652 54.5024C62.0821 54.7015 62.1662 54.9461 62.3601 55.0692ZM68.741 53.7347C68.2785 53.8243 67.8159 53.9138 67.3533 54.0034C67.2843 54.0168 67.2104 54.0325 67.1633 54.0795C67.1045 54.1382 67.1057 54.2258 67.1103 54.3044C67.1181 54.4384 67.1259 54.5725 67.1337 54.7066C67.6153 54.6116 68.0969 54.5166 68.5785 54.4217C68.7737 54.3832 68.9816 54.3385 69.1179 54.2078C69.2542 54.0772 69.2672 53.8306 69.0929 53.7432C68.9881 53.6907 68.8584 53.712 68.741 53.7347Z" fill="#111111"/>
<path d="M56.0614 5.01021L56.2165 5.09285C58.4545 6.2971 60.1895 7.76615 63.1017 10.6607C69.2645 16.7862 75.157 23.1421 80.761 29.7076L81.2028 30.2263L81.3311 30.3777C83.4168 32.8437 84.3344 34.4286 84.3859 36.3303C84.424 37.7367 83.7621 39.1176 82.5906 40.2071L82.5274 40.2652L82.5212 40.2701L82.5017 40.2892C82.2232 40.5565 81.9112 40.794 81.5711 40.9964L81.4799 41.0491L81.4516 41.067C80.0177 41.9405 78.3292 42.3033 76.7547 42.0354L76.6704 42.0204L76.6021 42.0072L76.5932 42.061C74.9976 51.4618 71.7449 60.6366 66.9924 69.1442L66.8479 69.4018L66.6996 69.6642L66.6144 69.8131C66.127 70.6584 65.7978 71.1019 65.2895 71.5068C64.622 72.0385 63.7759 72.3349 62.7318 72.4555C61.9925 72.5408 61.2969 72.54 60.1225 72.48L59.9164 72.4691C55.2028 72.2137 50.47 72.2152 45.7534 72.4735L45.3112 72.4984L44.946 72.5199L44.8926 72.5251C44.179 72.5928 43.5319 72.6414 42.9126 72.6717L42.7584 72.6789L42.5857 72.6858L42.5541 72.6882C41.8195 72.7467 41.0857 72.8113 40.3527 72.8822L39.103 73.0085L38.051 73.1162C37.7161 73.1496 37.4417 73.1757 37.1805 73.1986C34.1913 73.3061 32.2272 73.2796 31.2883 73.1192L31.1604 73.0967L31.0367 73.0739C27.845 72.4701 25.198 70.5987 24.5046 68.1578C21.892 58.9601 18.237 49.9989 13.6139 41.4556L13.551 41.34L13.5204 41.3562C12.424 41.9112 11.0464 41.7751 9.83305 41.0716L9.77044 41.0348L9.70685 40.996L9.69217 40.9904C9.31165 40.8396 8.97373 40.5689 8.73276 40.2287L8.699 40.1796L8.68091 40.1519L8.66612 40.1359C8.27329 39.7051 7.98255 39.2219 7.82002 38.7186L7.79661 38.643L7.77514 38.5671C7.25476 36.6363 7.92412 34.6468 9.56269 32.1228C12.5453 27.5284 16.2106 24.0778 20.5812 22.1444L20.7139 22.0863L20.9523 22.4658C17.0926 24.6792 13.7468 27.6052 11.1875 31.0055C9.43262 33.3369 8.46782 35.4795 8.4648 37.5179L8.46533 37.6105L8.46668 37.6872L8.47107 37.6797C9.57186 35.7454 11.4114 34.1318 14.348 32.2175L14.4745 32.1353L14.5924 32.0592C17.8013 29.9915 21.2966 28.0414 25.336 26.0253L25.8779 25.7561C28.8644 24.2788 31.4051 23.1012 36.3585 20.8735L41.5281 18.5484C42.9475 17.9061 44.0112 17.4182 45.2029 16.8633L45.503 16.7226C47.9301 15.576 49.771 14.497 51.2254 13.2763C53.0983 11.7042 54.1659 10.0005 54.3241 8.09113C54.4518 6.54866 53.8124 5.08728 52.5903 4.40362C51.4026 3.73918 49.8769 3.7881 47.7524 4.34721C40.093 6.36291 33.2333 10.7279 28.5973 16.5359C28.312 16.8934 28.5063 17.2179 28.5973 17.4113C29.1926 18.6764 28.8285 20.0983 28.1251 21.3176L28.0861 21.3839L27.5343 22.3022L27.9797 20.1047C27.94 16.5359 27.1916 14.5696 25.5368 11.5943L25.4673 11.4706L25.4265 11.3995L25.3995 11.4471C24.6299 12.7688 23.1516 13.799 21.3481 14.3656L21.2545 14.3945L21.1649 14.4213C19.6693 14.8599 18.379 14.9889 15.7597 15.0523L15.14 15.0657L15.0659 14.9638C14.6165 14.3455 15.0548 13.5754 15.8944 12.9677C17.6785 11.6763 19.769 10.725 21.9873 10.1951C23.107 9.92757 23.94 9.87855 24.7104 10.1331C24.9123 10.1998 25.0986 10.2823 25.2709 10.3809L25.3438 10.424L25.3518 10.429L25.3713 10.3842L25.4288 10.4784L25.4571 10.4972C25.8056 10.7345 26.0914 11.0455 26.329 11.4302L26.373 11.5031L26.4095 11.5665C26.6774 12.0413 26.8418 12.4961 27.0904 13.3824L27.2592 13.9956L27.3075 14.1682C27.5221 14.9263 27.705 15.4399 27.94 15.8745L27.9663 15.9225L27.9797 15.9463L28.0406 15.8744C32.6833 10.4141 39.1411 6.20159 46.3765 3.91379L46.596 3.84505L46.8228 3.77543C49.6794 2.90723 53.0615 3.42843 56.0614 5.01021ZM43.7235 42.0899C40.7185 42.2316 37.7728 43.4332 35.6253 45.3775C34.6525 46.2583 34.0263 47.1373 33.7956 48.0652L33.7753 48.1501C33.6404 48.7422 33.6499 49.2852 33.7651 50.3526L36.2337 72.4231C36.253 72.595 36.276 72.7161 36.311 72.8077L36.3199 72.8298L36.4912 72.817L36.5148 72.7976C36.808 72.5441 37.0033 72.157 37.0626 71.7329L37.0712 71.6626L37.0729 71.6454C37.113 71.234 37.0664 70.8874 36.9042 70.159L36.8583 69.9544L36.7896 69.6405C36.2969 67.3485 36.0608 65.2443 35.7681 61.3078L35.6761 60.0638C35.2971 55.0315 34.9853 52.6922 34.1751 49.8694C33.8095 48.5953 34.2335 47.1502 35.2261 46.0029C36.0672 45.0309 37.2615 44.2684 38.8085 43.6254C40.6853 42.8452 42.6389 42.4115 44.5496 42.383C46.0921 42.36 47.6224 42.5765 49.7487 43.048L49.9538 43.0942C51.7037 43.4934 52.7383 43.8825 53.6168 44.598C54.4998 45.3171 55.0702 46.2817 55.5968 47.7106C56.7629 50.8747 57.2102 54.3623 57.1452 58.5638L57.1356 59.0508C57.1042 60.3976 57.0342 61.655 56.8876 63.6888L56.6757 66.5668C56.5753 67.9714 56.5243 68.8358 56.4829 69.8535L56.4785 69.9767C56.4614 70.5328 56.4963 70.8293 56.6412 71.1241C56.7842 71.4149 57.0636 71.6311 57.3503 71.6876L57.39 71.6943L57.5641 61.144C57.6281 56.8495 57.5852 54.7762 57.3089 52.2802L57.3 52.2004C57.1508 50.8721 56.9548 49.7775 56.6608 48.7533C56.5118 48.2344 56.3336 47.7222 56.1269 47.2192C55.5427 45.7974 54.8286 44.7527 53.8458 44.0436C52.7395 43.2453 51.5453 42.9098 49.0865 42.5416L48.8662 42.509C46.3114 42.1354 45.151 42.0226 43.7235 42.0899ZM37.4753 72.1196L37.4738 72.1251C37.406 72.3542 37.3031 72.57 37.1674 72.7618L37.6875 72.7134C37.8373 72.6989 37.9985 72.6829 38.177 72.6648L39.0494 72.5752C38.9841 72.5677 38.919 72.5598 38.854 72.5516L38.6969 72.531L38.4937 72.5035L38.4891 72.3045L38.467 72.316C38.272 72.4126 38.0563 72.4758 37.8344 72.4994L37.7788 72.5044L37.5587 72.5211L37.4753 72.1196ZM30.1755 72.2936L30.1597 72.3131C30.1347 72.342 30.1066 72.3682 30.0757 72.3916C30.4205 72.4931 30.7753 72.5788 31.1378 72.6473C31.2545 72.6694 31.3717 72.69 31.4897 72.7092C31.0639 72.6053 30.6461 72.475 30.2406 72.319L30.1755 72.2936ZM43.8106 32.3544C33.655 32.8532 23.2399 35.2502 12.7101 39.3073L12.3463 39.4482L12.7194 39.6049C13.5709 39.9624 14.0532 40.5738 14.6878 41.8172L15.6891 43.8017C17.5388 47.4805 18.6191 49.7192 19.7258 52.2161C21.287 55.7386 22.4879 58.9377 23.3818 62.0656L23.8675 63.7983C23.9291 64.0153 23.9855 64.211 24.0415 64.4014L24.1157 64.6509C24.6333 66.375 25.1247 67.6305 25.7666 68.7421C26.5882 70.1652 27.613 71.2322 28.9368 71.9587C29.3036 72.1599 29.7515 72.1479 29.7963 71.9898L29.7992 71.9755L29.8369 71.6717L30.1461 71.8025C31.7614 72.486 33.6075 72.7274 35.3748 72.4909L35.4713 72.4773L33.0447 50.9028L33.0217 50.6964C32.8666 49.2898 32.8682 48.4909 33.1206 47.6386C33.4548 46.5104 34.2594 45.4757 35.4442 44.5067C37.5089 42.8182 40.1839 41.7366 42.9665 41.4654C44.8302 41.2837 46.7136 41.4276 49.3279 41.8571L49.556 41.8951C51.5794 42.2383 52.826 42.602 53.9594 43.2935C55.4087 44.1777 56.4074 45.5062 57.0552 47.2474C57.5698 48.6309 57.8449 50.1808 58.0099 52.2016C58.5195 58.4457 58.5195 64.723 58.0099 70.9671C57.9617 71.5574 58.832 71.9557 59.9955 72.0042L60.0539 72.0064L60.2177 72.0113L60.4157 72.0163C62.4333 72.0611 63.5873 71.8759 64.509 71.1919C65.0135 70.8176 65.3502 70.3729 65.871 69.4865L65.9125 69.4156C70.6144 61.3541 73.8473 52.6105 75.4463 43.6332L75.4942 43.3611C75.6684 42.3618 75.856 41.6595 76.1617 41.0334C76.5542 40.2298 77.1099 39.6674 77.8806 39.3833L77.9435 39.3609L78.0179 39.3352L77.9852 39.3127C77.3453 38.8773 76.5808 38.47 75.5822 38.0064L75.3603 37.9043C66.0635 33.6566 55.1077 31.7996 43.8106 32.3544ZM44.2757 43.0709C42.6492 43.1283 40.9718 43.5235 39.2691 44.2114C36.8161 45.2025 35.1622 46.6523 34.9156 48.3781C34.8997 48.4891 34.8896 48.6022 34.8849 48.718L34.8822 48.8027C34.8712 49.2935 34.9418 49.7371 35.1363 50.5456L35.287 51.1572C35.7821 53.189 36.0486 55.173 36.3133 58.2853L36.5151 60.7358C36.9453 65.8793 37.2918 68.7818 37.9337 71.9351L37.9541 72.0349L37.9873 72.0268C38.1827 71.9736 38.3639 71.8773 38.5076 71.7482L38.5427 71.7152L38.9545 71.3117L38.973 72.1261L39.0764 72.1387C40.1023 72.2593 41.1761 72.2952 42.3479 72.2581L42.5433 72.2514L42.906 72.2231C43.4 72.1854 43.8942 72.1504 44.3883 72.1183L44.8934 72.0865L45.2936 72.0472C45.8171 71.9942 46.318 71.938 47.2749 71.8273L48.1066 71.732C50.7559 71.4334 52.1349 71.3319 53.7321 71.3616L53.9481 71.3664L54.5591 71.3849L54.7233 71.3879C55.1478 71.393 55.4674 71.3731 55.758 71.3146L55.7851 71.3089L55.7804 71.0004C55.7623 69.5013 55.8174 67.9859 55.9487 65.8812L56.0607 64.1892L56.1666 62.6137C56.2485 61.3601 56.2901 60.5888 56.3241 59.6811C56.4998 54.9932 56.1261 51.3823 54.909 48.0898C54.3556 46.5927 53.725 45.5827 52.7796 44.9014C51.961 44.3114 51.0328 44.008 49.2957 43.6509L49.0423 43.5993C47.0016 43.1877 45.6643 43.0218 44.2757 43.0709ZM57.8765 71.7906L57.874 71.9382L58.078 71.9461C58.0043 71.8978 57.937 71.8459 57.8765 71.7906ZM56.276 71.4438L56.2802 71.6345L56.1046 71.683C55.6978 71.7952 55.2882 71.8308 54.7143 71.8239L54.4987 71.8196L54.0061 71.8041L53.9342 71.8022C53.1111 71.7812 52.3608 71.7941 51.4791 71.8502C53.229 71.8314 54.9791 71.8478 56.7276 71.8994C56.5481 71.7814 56.3923 71.625 56.276 71.4438ZM78.3838 39.6L78.1779 39.7385C77.6315 40.1059 77.1929 40.6005 76.9141 41.1583L76.8934 41.2009L76.9024 41.2027C77.6222 41.3376 78.0417 41.3463 78.4397 41.1996L78.4769 41.1854C78.9967 40.9807 79.2465 40.3442 78.9242 40.0506C78.7703 39.9105 78.6111 39.7764 78.444 39.6463L78.3838 39.6ZM12.6275 41.1063L12.3786 41.183C12.2744 41.2143 12.1796 41.2407 12.0923 41.2617C12.496 41.2538 12.884 41.1675 13.2361 40.9982C13.0951 40.9845 12.9143 41.0199 12.6275 41.1063ZM54.3128 4.99064L54.3189 5.003C55.31 7.07533 55.1973 9.55453 53.9821 11.5347C52.8108 13.4434 51.0096 14.7268 47.6572 16.4091L47.0692 16.7013C44.5723 17.9355 42.3206 18.9803 38.2655 20.805L34.1499 22.6537C29.8991 24.5695 27.6128 25.6402 24.9245 26.9903C20.8081 29.0577 17.3051 31.0678 14.1346 33.2349L13.9068 33.3915C11.9601 34.7368 10.7175 35.7963 9.74772 37.0523C9.09031 37.9037 8.77825 38.6581 8.88389 39.3684C8.90725 39.5254 8.96203 39.6838 9.04353 39.8333L9.07533 39.8889L9.084 39.903L9.09026 39.9099C9.31392 40.1473 9.56953 40.363 9.84548 40.548L9.92887 40.6025L9.94288 40.6113L9.97013 40.6208C10.1124 40.6676 10.2562 40.6897 10.3985 40.6861L10.407 40.6855L10.4037 40.6528C10.3332 39.8374 11.1657 39.1335 12.4185 38.6439L12.4785 38.6207C23.6949 34.3433 34.7387 31.9098 45.4605 31.6011C57.345 31.2589 68.8001 33.6094 78.2426 38.5691C78.5308 38.7205 78.7766 38.8621 78.9849 39.0028L79.1253 39.1018C79.5152 39.3892 79.754 39.6821 79.884 40.057C80.0175 40.4419 79.9099 40.8774 79.6578 41.1981L79.6421 41.2173C80.1394 41.1528 80.6328 40.9932 81.0963 40.7483L81.1692 40.7089L81.2067 40.688L81.2665 40.6511C81.5273 40.4866 81.7751 40.3056 82.0057 40.1113L82.1034 40.0273L82.1617 39.9753L82.1856 39.9523C82.5276 39.6158 82.8064 39.2345 83.0041 38.8308C83.7061 37.3972 83.6033 35.6182 82.8232 33.9072L82.7666 33.785C82.1668 32.5096 81.3839 31.4747 79.7136 29.562C75.1494 24.3356 70.3278 19.1015 65.2237 13.8189L64.7288 13.3075C62.581 11.0911 61.228 9.78093 59.7111 8.51939L59.6388 8.45935C57.893 7.01413 56.1795 5.879 54.3856 5.02506L54.3128 4.99064ZM12.0579 39.5669L12.0161 39.5856C11.6916 39.7314 11.508 39.8577 11.3682 40.0361C11.1605 40.3013 11.1937 40.6866 11.4305 40.8174C11.6068 40.9148 11.7957 40.8992 12.2459 40.7628L12.3632 40.7265C12.6142 40.6477 12.814 40.594 12.9861 40.5694L13.0023 40.5672L12.9063 40.4558C12.7922 40.3253 12.6748 40.1972 12.5543 40.0714L12.4327 39.9464L12.0579 39.5669ZM22.3225 10.8988L22.2642 10.9096L22.2707 10.9675C22.3196 11.4116 22.0109 11.7806 21.4759 12.1118L21.4281 12.1409C20.6467 12.6099 19.7768 12.9607 18.8662 13.1739C18.124 13.3478 17.5375 13.3553 17.0373 13.1129C16.9832 13.0867 16.8584 13.1277 16.7013 13.2443C16.3412 13.5115 16.0253 13.8263 15.7669 14.175L15.7136 14.2485L17.565 14.2384C18.1877 14.2324 18.5358 14.2187 18.9328 14.1809L18.9772 14.1765C21.1401 13.9624 23.1954 12.9653 24.5742 11.461L24.6321 11.3962C24.7577 11.2514 24.8163 11.1505 24.8299 11.0484C24.8438 10.9439 24.7749 10.8412 24.7096 10.8329C23.9177 10.732 23.1068 10.7568 22.3225 10.8988ZM21.986 10.9859C19.9885 11.1394 18.128 12.0417 17.3051 12.9597C17.3051 13.0256 17.3705 13.0668 17.4856 13.0856C17.7538 12.7915 18.128 12.4996 18.5785 12.2339C18.7337 12.645 19.6998 12.4713 20.3717 12.318C21.2708 11.8807 21.986 11.3421 21.986 10.9859ZM53.3277 4.35524L53.3457 4.36935C53.3967 4.41048 53.4466 4.45293 53.4952 4.49662L53.4281 4.38663L53.3457 4.36074L53.3277 4.35524Z" fill="#111111"/>
<path d="M52.4738 40.2967C56.3711 42.1449 58.423 45.3212 57.9735 45.5045C57.524 45.6878 53.8685 39.9561 44.8289 40.6257C33.1704 40.9865 31.7283 48.1875 31.2604 48.0456C30.7925 47.9037 32.607 43.3158 36.9361 40.8676C41.2653 38.4194 48.5765 38.4485 52.4738 40.2967Z" fill="#EDFFFC"/>
<path d="M50.0402 55.3354C50.0014 55.2231 49.9429 55.1164 49.867 55.0196C49.7546 54.8917 49.6337 54.7701 49.5051 54.6555C49.3409 54.4995 48.7023 54.0018 48.6665 53.8741C48.6546 53.8526 48.6362 53.8344 48.6135 53.8219C48.5795 53.7973 48.5422 53.7766 48.5073 53.7529C48.4223 53.6954 48.3396 53.6347 48.2524 53.5805C48.2203 53.5606 48.1692 53.5645 48.1417 53.542C48.0311 53.4512 47.9318 53.3482 47.818 53.2613C47.6809 53.1566 47.5297 53.0678 47.3915 52.9643C47.2646 52.8792 47.121 52.8184 46.9702 52.786C46.7792 52.7288 46.5772 52.7235 46.3893 52.7707C46.2171 52.8158 46.1142 52.9224 46.008 53.03C45.9071 53.1321 45.8635 53.2725 45.8888 53.4133C45.8733 53.4116 45.8579 53.409 45.8426 53.4056C45.6008 53.3364 45.3981 53.4107 45.2154 53.5312C45.0975 53.6077 45.0027 53.7099 44.9389 53.8292C44.8781 53.9325 44.8486 54.0501 44.8534 54.1703C44.8524 54.2153 44.8486 54.2601 44.8422 54.3045C44.8344 54.426 44.8274 54.5477 44.8209 54.6694C44.8175 54.7352 44.8363 54.81 44.8102 54.8654C44.7531 54.9762 44.7348 55.102 44.7577 55.2265C44.7704 55.291 44.7792 55.3561 44.8511 55.373C44.8354 55.3989 44.8234 55.4268 44.8154 55.456C44.8081 55.5142 44.8089 55.5738 44.8065 55.6328C44.7988 55.8164 44.7882 55.9998 44.7849 56.1837C44.7833 56.2776 44.7994 56.3725 44.7997 56.4666C44.79 56.6942 44.8431 56.9235 44.954 57.1336C45.0253 57.2694 45.1271 57.3909 45.2524 57.4897C45.3693 57.5763 45.4908 57.658 45.6413 57.6822C45.7264 57.6959 45.8125 57.7027 45.8982 57.7119C45.9623 57.7188 46.0926 57.7294 46.1407 57.7359C46.2041 57.7216 46.2812 57.7287 46.342 57.7173C46.3633 57.7133 46.3847 57.7093 46.406 57.7053C46.5351 57.6636 46.683 57.6035 46.7707 57.5679C46.9635 57.4879 47.1317 57.3681 47.2629 57.2173C47.3543 57.1252 47.4151 57.0104 47.4386 56.8854C47.4615 56.7211 47.4381 56.5518 47.3707 56.3935C47.2891 56.2067 47.1974 56.0233 47.1128 55.8375C47.0259 55.6468 46.9382 55.4562 46.8594 55.263C46.8238 55.1967 46.8099 55.1232 46.8194 55.0519C46.8252 54.971 46.8128 54.8889 46.7829 54.8107C46.75 54.6894 46.7073 54.5698 46.6687 54.4495L46.6999 54.4389C46.7211 54.4682 46.7411 54.4984 46.7639 54.5266C46.8187 54.6082 46.8834 54.6841 46.9566 54.7528C47.0285 54.8128 47.083 54.8884 47.1143 54.9718C47.1651 55.0851 47.1994 55.2042 47.2548 55.3156C47.3644 55.5362 47.4797 55.7546 47.6007 55.9708C47.6469 56.0555 47.7064 56.134 47.7773 56.2037C48.0019 56.4207 48.292 56.5705 48.6057 56.6315C48.7897 56.6649 48.9772 56.6628 49.156 56.6253C49.3906 56.5871 49.6028 56.4833 49.7642 56.3279C49.8177 56.2729 49.8642 56.2124 49.9029 56.1475C49.9704 56.0488 50.0283 55.9444 50.076 55.8357C50.1391 55.6721 50.1002 55.4992 50.0402 55.3354ZM47.6641 53.2144C47.8023 53.3299 47.9382 53.4478 48.0834 53.572C48.0268 53.5869 47.9918 53.6091 47.9479 53.5525C47.9019 53.5073 47.8517 53.4658 47.798 53.4286C47.7801 53.4052 47.766 53.3797 47.7561 53.3529C47.7214 53.3503 47.6597 53.3526 47.6709 53.2825C47.6281 53.2703 47.5885 53.2589 47.5383 53.2446C47.5826 53.187 47.6231 53.1802 47.6641 53.2144ZM47.5888 53.1644L47.4596 53.1996L47.4861 53.1117L47.3998 53.1342C47.3642 53.1062 47.3344 53.0749 47.3654 53.0287C47.4347 53.0707 47.5038 53.1128 47.5888 53.1644ZM47.2072 52.9468L47.3642 53.028C47.2892 53.0543 47.2385 53.0222 47.1975 52.9664L47.2072 52.9468ZM46.1236 53.7112L46.1947 53.798L46.1695 53.8165L46.1011 53.7259L46.1236 53.7112ZM44.9763 54.7677C44.9904 54.5476 44.9977 54.3265 45.0244 54.1083C45.0324 54.007 45.0674 53.9104 45.1264 53.827C45.2311 53.6982 45.3496 53.5755 45.5501 53.5499C45.6656 53.5256 45.7888 53.5364 45.9014 53.5806C45.9214 53.5878 45.9389 53.6004 45.9514 53.6167C46.0357 53.7652 46.1451 53.9015 46.2754 54.0201C46.3763 54.1224 46.4479 54.2455 46.4834 54.3774C46.5111 54.4665 46.5265 54.5583 46.5464 54.6491C46.5496 54.671 46.5516 54.693 46.5524 54.715C46.2811 54.6407 46.0164 54.6567 45.7575 54.6802C45.499 54.7037 45.2468 54.7643 44.985 54.8098C44.9797 54.7962 44.9768 54.7819 44.9763 54.7677ZM46.2097 53.8439L46.235 53.8348L46.303 53.8892C46.2768 53.8955 46.2505 53.9077 46.2444 53.902C46.2298 53.8842 46.2181 53.8646 46.2097 53.8439ZM46.3206 53.941C46.3349 53.942 46.3558 53.9379 46.3623 53.9449C46.3838 53.968 46.4225 53.9933 46.3578 54.0352L46.3206 53.941ZM44.8392 55.0871C44.8409 55.0141 44.8522 54.9551 44.9516 54.9327C45.0527 54.9099 45.141 54.8492 45.2413 54.8223C45.3668 54.7884 45.4958 54.7646 45.627 54.7511C45.7865 54.7328 45.9479 54.7259 46.1099 54.7306C46.2661 54.7408 46.4218 54.7617 46.5758 54.793C46.664 54.8202 46.7314 54.889 46.7511 54.9719C46.628 55.0032 46.3474 54.9999 46.3291 55.0021C46.1649 55.0214 45.9998 55.0366 45.8356 55.0565C45.7591 55.0657 45.6845 55.0843 45.6082 55.095C45.583 55.0985 45.3814 55.1343 45.3187 55.1477C45.1657 55.1804 45.0106 55.206 44.8442 55.2367C44.8424 55.189 44.838 55.1379 44.8392 55.0871ZM45.2427 57.398L45.0488 57.1654L45.0609 57.1551C45.0768 57.171 45.0928 57.1867 45.1084 57.2028C45.1495 57.2449 45.192 57.286 45.2303 57.33C45.243 57.3493 45.2528 57.3699 45.2594 57.3913L45.2427 57.398ZM45.4766 57.5357L45.4633 57.5459L45.3636 57.4828L45.4543 57.4553L45.4766 57.5357ZM45.6232 57.6005C45.5743 57.6039 45.5381 57.5857 45.5317 57.5409C45.5299 57.5282 45.5625 57.5109 45.5826 57.5007C45.5978 57.5093 45.6099 57.5219 45.6172 57.5367C45.6221 57.5578 45.6241 57.5792 45.6232 57.6005ZM45.8917 57.6388L45.8729 57.6524C45.8359 57.6228 45.7989 57.5931 45.7592 57.5613L45.7294 57.6347L45.6631 57.549L45.6805 57.5225C45.7476 57.5345 45.8146 57.5464 45.889 57.5597L45.8917 57.6388ZM46.0452 57.6526C45.9667 57.6606 45.9651 57.6591 45.9454 57.5634C45.9611 57.5618 45.9766 57.5599 45.9922 57.5588C46.0079 57.5576 46.0237 57.5571 46.0404 57.5563L46.0452 57.6526ZM46.1946 57.6558C46.1172 57.6704 46.1027 57.6563 46.0979 57.564C46.1224 57.5645 46.1468 57.5649 46.1696 57.5653L46.1946 57.6558ZM46.4551 57.6005C46.4553 57.6093 46.4386 57.626 46.4335 57.6246C46.4197 57.6199 46.4076 57.6115 46.3988 57.6006C46.3852 57.5809 46.3684 57.5631 46.3491 57.5478C46.3342 57.5938 46.3738 57.6613 46.2941 57.659C46.2688 57.6582 46.242 57.6015 46.2084 57.5613L46.4447 57.5016C46.4487 57.5357 46.4543 57.5682 46.4551 57.6005L46.4551 57.6005ZM46.6003 57.5812L46.5249 57.5992L46.4959 57.4943C46.5243 57.4819 46.5484 57.4713 46.5761 57.4592L46.6003 57.5812ZM46.6558 57.541L46.6328 57.439L46.7165 57.4011C46.7453 57.519 46.7417 57.527 46.6558 57.541ZM46.9293 57.4091L46.8758 57.3289L46.851 57.333C46.8504 57.3546 46.8534 57.3763 46.8599 57.3973C46.8749 57.4278 46.8832 57.4509 46.8403 57.4615C46.8013 57.4711 46.7835 57.4522 46.7753 57.4195C46.7706 57.4007 46.765 57.3819 46.7602 57.3644C46.82 57.3249 46.8767 57.2875 46.936 57.2483L47.0116 57.3607C46.9869 57.3752 46.9579 57.3923 46.9293 57.4091L46.9293 57.4091ZM47.2277 56.2651C47.2606 56.3311 47.2885 56.3988 47.3111 56.4679C47.3172 56.486 47.3238 56.504 47.3313 56.5216C47.3823 56.6416 47.3932 56.771 47.3628 56.8927C47.3621 56.8958 47.3556 56.8975 47.3518 56.8999C47.3543 56.9791 47.3183 57.0532 47.2537 57.1024L47.1553 57.0539L47.1379 57.0708L47.2252 57.1523C47.2059 57.1724 47.1801 57.1993 47.1543 57.2261L47.0884 57.151C47.0417 57.1953 47.0577 57.2224 47.1387 57.249L47.0419 57.3292L46.9834 57.2122C47.0635 57.0973 47.1351 56.9774 47.198 56.8533C47.2074 56.7944 47.2203 56.7361 47.2366 56.6788C47.2406 56.6653 47.2633 56.6553 47.2799 56.6481C47.296 56.643 47.3128 56.6396 47.33 56.638L47.3312 56.6192L47.2541 56.596L47.2277 56.2651ZM47.1672 56.3582C47.2039 56.5149 47.1923 56.6754 47.1336 56.8215C47.0731 57.0305 46.9242 57.2048 46.7188 57.3069C46.6044 57.3671 46.4846 57.4188 46.3604 57.4615C46.2635 57.4908 46.1603 57.5021 46.0566 57.4947C45.8843 57.4868 45.7125 57.46 45.5449 57.4149C45.4165 57.3757 45.1728 57.1587 45.1604 57.1421C45.1215 57.09 45.0829 57.0374 45.0496 56.9823C44.9698 56.8613 44.9152 56.7286 44.889 56.5915C44.8709 56.4669 44.862 56.3417 44.8623 56.2169C44.8622 56.082 44.8764 55.9477 44.8849 55.8133C44.893 55.6863 44.8997 55.5592 44.9122 55.4329C44.9183 55.4087 44.9361 55.3889 44.9606 55.3789C45.0291 55.355 45.0994 55.3354 45.1712 55.3201C45.2227 55.3089 45.2783 55.3109 45.3299 55.2999C45.5472 55.2534 45.7607 55.1915 45.9812 55.16C46.1678 55.1333 46.3636 55.149 46.5525 55.1304C46.6937 55.1165 46.7444 55.1773 46.7788 55.2889C46.8168 55.4122 46.8704 55.5322 46.916 55.6539C46.9215 55.6685 46.9841 55.8014 47.0037 55.8691C47.0512 56.0335 47.1198 56.1938 47.1672 56.3582L47.1672 56.3582ZM46.5852 54.1999C46.5676 54.2005 46.5361 54.2047 46.5348 54.201C46.5279 54.1774 46.5232 54.1535 46.5209 54.1294L46.5644 54.1249L46.5852 54.1999ZM46.4489 54.1266L46.4223 54.0308L46.4461 54.0235L46.5233 54.0979L46.4489 54.1266ZM46.4476 53.9516C46.3226 53.8323 46.1899 53.7192 46.1107 53.5655C45.9915 53.3661 46.0584 53.1246 46.2631 53.0158C46.3976 52.9341 46.5592 52.8949 46.7249 52.904C46.914 52.9097 47.0984 52.9771 47.2448 53.0941C47.4045 53.2187 47.5649 53.3424 47.7226 53.4691C47.78 53.5152 47.8302 53.5689 47.8908 53.6258C47.8085 53.6599 47.7296 53.6907 47.6526 53.725C47.4295 53.8228 47.2216 53.9455 47.0333 54.0904C46.9759 54.1384 46.9246 54.1922 46.8802 54.2507C46.847 54.2915 46.8233 54.303 46.7772 54.2586C46.6693 54.1546 46.556 54.0552 46.4476 53.9516ZM46.636 54.2923C46.6248 54.2718 46.6177 54.2497 46.6152 54.2272L46.634 54.2205L46.6945 54.2673L46.6949 54.2896C46.6745 54.291 46.6423 54.3001 46.636 54.2923L46.636 54.2923ZM46.7499 54.4308L46.708 54.3363C46.725 54.3358 46.7448 54.3297 46.7584 54.3359C46.8052 54.3576 46.7927 54.3846 46.7499 54.4308ZM46.9875 54.6591C46.9329 54.6212 46.8848 54.5759 46.8451 54.5249C46.8288 54.5029 46.8378 54.4572 46.8503 54.4283C46.921 54.2783 47.0367 54.1514 47.1846 54.0618C47.3986 53.9148 47.6351 53.7966 47.8876 53.7103C47.9284 53.697 47.9692 53.6832 48.0086 53.6671C48.1805 53.597 48.3659 53.6878 48.4692 53.8454C48.4119 53.856 48.3573 53.8644 48.3039 53.8762C47.8019 53.9658 47.3635 54.2232 47.0717 54.5997C47.0518 54.6266 46.9951 54.6646 46.9875 54.6591ZM47.2936 55.1728C47.2447 55.0587 47.1889 54.9469 47.1266 54.8379C47.1014 54.8073 47.1049 54.7654 47.1347 54.7415C47.1697 54.7084 47.2022 54.6728 47.2387 54.641C47.4696 54.4405 47.7096 54.2502 47.9983 54.1185C48.086 54.0775 48.1766 54.0414 48.2695 54.0105C48.3571 53.98 48.4487 53.9591 48.5427 53.9482C48.5803 53.9448 48.6311 53.9847 48.6673 54.0139C48.7538 54.0838 48.8364 54.158 48.9185 54.2325C49.0727 54.3724 49.2284 54.511 49.3778 54.6551C49.5456 54.8168 49.6555 55.009 49.746 55.2631C49.7623 55.3909 49.7698 55.5191 49.7684 55.6468C49.7534 55.7937 49.6728 55.9251 49.5456 56.0104C49.4216 56.1059 49.2882 56.1909 49.147 56.2645C48.9 56.3895 48.5984 56.4023 48.3262 56.2994C48.1661 56.2385 48.0174 56.1527 47.8871 56.046C47.7825 55.9539 47.6892 55.8516 47.609 55.7412C47.474 55.5658 47.3677 55.3742 47.2936 55.1728L47.2936 55.1728ZM47.9568 56.2898C47.9275 56.2383 47.9062 56.2009 47.8825 56.1592C47.8408 56.1827 47.8117 56.151 47.7839 56.1128C47.7336 56.0438 47.682 55.9757 47.6309 55.9072L47.6466 55.8962C47.7617 56.004 47.8474 56.1419 48.0161 56.1932C47.9952 56.2273 47.982 56.2488 47.9568 56.2898L47.9568 56.2898ZM48.1633 56.3761C48.076 56.3724 48.0386 56.3288 48.051 56.2388C48.1656 56.2942 48.1656 56.2942 48.1633 56.3761L48.1633 56.3761ZM50.0179 55.5222C50.0075 55.5561 50.0656 55.6244 49.9603 55.6116C49.9481 55.6143 49.9387 55.6228 49.9356 55.634C49.939 55.6456 49.9485 55.6552 49.9609 55.6595C49.9872 55.6632 50.0138 55.6648 50.0401 55.6642C50.0334 55.7106 50.0234 55.7563 50.0103 55.8012C50.0081 55.8077 49.9635 55.8037 49.9397 55.7984C49.9098 55.7901 49.8805 55.7801 49.8518 55.7683L49.8383 55.7979C49.8854 55.8213 49.9326 55.8447 49.9873 55.8719C49.9708 55.9126 49.9506 55.9519 49.9268 55.9892C49.8829 56.0476 49.8491 55.9527 49.7901 55.9785L49.8739 56.0715L49.8032 56.1508C49.7313 56.291 49.6057 56.4003 49.4491 56.4592C49.4093 56.4754 49.3921 56.4723 49.3709 56.4375C49.353 56.4124 49.3329 56.3885 49.311 56.3662L49.2848 56.381L49.3514 56.5035C49.3094 56.5299 49.269 56.5651 49.2205 56.5185C49.1914 56.4852 49.1656 56.4495 49.1436 56.4121L49.1215 56.4187L49.1747 56.5663C49.1354 56.5641 49.0832 56.5746 49.0502 56.5555C49.0175 56.5366 49.0043 56.4879 48.9775 56.444C48.9319 56.4929 48.9771 56.5308 48.9898 56.5717C48.9012 56.642 48.8901 56.5405 48.8424 56.4974C48.8363 56.5268 48.8389 56.55 48.8276 56.5609C48.8103 56.5771 48.7876 56.5876 48.7626 56.5908C48.7527 56.5918 48.7332 56.5655 48.7262 56.549C48.7159 56.5207 48.7076 56.492 48.7012 56.4629L48.6751 56.4649L48.6655 56.5854C48.6265 56.57 48.5802 56.5645 48.5626 56.5414C48.5428 56.5155 48.5489 56.4736 48.5438 56.4387L48.5136 56.4355L48.4947 56.5334C48.3854 56.5395 48.4166 56.4428 48.3678 56.3832C48.3558 56.4221 48.3468 56.4511 48.3379 56.4802C48.2341 56.4451 48.2077 56.4081 48.2373 56.3347C48.4021 56.4005 48.5787 56.4331 48.7547 56.4301C48.9172 56.4272 49.0736 56.385 49.2082 56.3078C49.3333 56.2381 49.454 56.1625 49.57 56.0812C49.6755 56.0039 49.7567 55.9026 49.8064 55.7865C49.8624 55.6459 49.8666 55.4901 49.8184 55.3419C49.786 55.2306 49.7563 55.1186 49.7234 54.9998C49.7979 55.0447 49.8565 55.109 49.8911 55.1838C49.9237 55.2467 49.9525 55.3111 49.9774 55.3766C49.9974 55.409 49.9928 55.4484 49.9662 55.474C49.9202 55.523 49.9903 55.5079 50.0179 55.5222Z" fill="#F28A0C"/>
<path d="M49.6727 55.9647C49.6939 56.0497 49.7269 56.0737 49.8038 56.0693C49.8065 56.0635 49.8114 56.0547 49.8102 56.054C49.7672 56.0252 49.7235 55.9973 49.6727 55.9647Z" fill="#F28A0C"/>
<path d="M49.8045 56.0668L49.8036 56.0668L49.8024 56.069L49.8045 56.0668Z" fill="#F28A0C"/>
<path d="M49.383 56.2285C49.4159 56.2649 49.4488 56.3012 49.4817 56.3375L49.5091 56.3131L49.408 56.2085L49.383 56.2285Z" fill="#F28A0C"/>
<path d="M49.5201 56.1271L49.6256 56.2148L49.6482 56.1897L49.5409 56.1041L49.5201 56.1271Z" fill="#F28A0C"/>
</svg>
