<svg width="111" height="89" viewBox="0 0 111 89" fill="none" xmlns="http://www.w3.org/2000/svg">
<path fill-rule="evenodd" clip-rule="evenodd" d="M28.4537 81.9363C28.4537 81.9363 2.15332 76.5287 0.370664 69.3922C-1.41199 62.2557 19.712 58.8176 19.712 58.8176C19.712 58.8176 29.8415 56.9376 31.3926 55.4144C32.9437 53.8912 63.8216 54.4787 78.7407 42.3326C93.6598 30.1865 98.5875 24.0273 105.963 30.9265C113.338 37.8256 111.552 58.2816 103.421 70.109C95.2898 81.9363 62.9422 83.9076 62.9422 83.9076L28.4537 81.9363Z" fill="#2EC4B6"/>
<path fill-rule="evenodd" clip-rule="evenodd" d="M76.1424 74.5151C76.1424 74.5151 75.4466 75.0432 75.1166 74.0465C74.7866 73.0498 74.5792 72.3465 74.5792 72.3465C74.5792 72.3465 73.8695 71.5644 73.4988 71.5644C73.1281 71.5644 71.9136 70.643 72.0382 69.9188C72.1629 69.1946 73.5988 69.2769 74.0069 69.2769C74.4151 69.2769 74.1057 68.1753 74.1057 67.8409C74.1057 67.5065 74.5851 64.6663 75.7247 65.0913C76.8642 65.5164 77.4823 66.2635 77.0285 67.5591C78.2165 67.4965 79.2981 66.8957 79.4368 69.4471C79.3419 70.3846 79.3643 70.6006 79.8855 71.2953C80.4068 71.9901 80.619 73.0357 80.1854 73.3913C79.7519 73.747 79.047 73.8835 78.8117 74.0465C78.5764 74.2096 78.4512 74.5647 78.4512 75.1508C78.4512 75.737 77.6328 74.7159 77.6328 74.7159L76.8642 73.816L76.1424 74.5151Z" fill="white"/>
<path d="M66.4493 41.9878C67.24 51.2605 67.8988 60.5467 68.4254 69.8419C68.4876 70.9401 68.5256 72.132 67.9531 73.0364C67.569 73.6432 66.9609 74.0298 66.3541 74.3517C64.1338 75.5298 61.6867 76.0981 59.2469 76.5006C52.5955 77.5978 45.7852 77.5317 39.1527 76.3054C37.8402 76.0628 36.5086 75.7648 35.3514 75.0447C34.1943 74.3246 33.2221 73.109 33.0487 71.6642C31.6049 59.6332 30.7967 47.5107 30.6295 35.3776C30.6174 34.4986 30.5893 33.5538 30.1083 32.8498C29.5872 32.0873 28.6562 31.7929 28.0676 31.0917C27.0523 29.8821 27.4342 27.8165 28.4995 26.6596C29.5647 25.5026 31.0933 25.0434 32.5618 24.7056C36.8518 23.7185 41.2674 23.388 45.6402 23.7267C45.7693 24.1128 45.2387 24.3294 44.8631 24.3299C40.755 24.3353 36.6473 24.7035 32.5931 25.4299C31.1074 25.696 29.4877 26.1027 28.5877 27.4239C32.6815 28.9011 37.0706 28.9853 41.3809 29.0215C49.0856 29.0861 56.8454 29.0355 64.4101 27.4338C65.0836 27.2912 65.8137 27.0976 66.2314 26.5019C66.649 25.9062 66.4522 24.8029 65.7709 24.7159C59.9415 23.9715 54.0518 23.7923 48.1936 24.1813C47.7412 24.2113 47.075 23.9133 47.2964 23.4804C52.6701 23.2009 58.0614 23.3306 63.4187 23.8683C64.8573 24.0127 66.3724 24.2194 67.5234 25.175C68.745 26.1893 69.3538 28.014 69.0168 29.6514C68.6798 31.2889 67.4152 32.6514 65.9143 32.9941" fill="white"/>
<path fill-rule="evenodd" clip-rule="evenodd" d="M46.1401 23.2927C46.3338 17.4496 47.1233 11.5557 46.2294 5.79169C46.1313 5.15855 46.0115 4.52392 45.7803 3.93403C45.3897 2.93755 44.6778 2.0973 43.801 1.59784C43.5319 1.4445 43.2323 1.30773 43.0681 1.0277C42.9039 0.747669 42.9868 0.273409 43.286 0.219971C44.5125 0.435413 45.5128 1.48776 46.0661 2.70936C46.6193 3.93096 46.7934 5.31273 46.9207 6.66998C47.3672 11.4331 47.3305 16.2507 46.8115 21.005C46.6349 22.6228 46.4087 24.3086 46.9002 25.8459C46.752 25.8069 46.6037 25.768 46.4555 25.729C46.1054 24.9934 46.1125 24.1222 46.1401 23.2927H46.1401Z" fill="#E7EAEE"/>
<path d="M32.2086 81.8722C31.8976 82.2484 31.4134 82.4484 30.9495 82.3923C30.7161 82.3641 30.5903 82.7378 30.724 82.9465C30.8577 83.1553 31.1184 83.2132 31.3532 83.221C31.588 83.2288 31.8347 83.2064 32.0462 83.3167C31.2526 83.7096 30.459 84.1025 29.6654 84.4954C27.3811 86.3423 30.8392 85.6121 31.4099 85.4688C30.7736 86.1622 30.3342 86.9125 30.8231 86.935C30.3845 87.1474 31.4753 86.6167 31.1716 87.0194C30.8679 87.4221 30.7702 88.0574 31.0847 88.4502C31.6113 88.4435 32.0818 87.9095 32.0622 87.3407C33.0698 87.5526 34.104 87.6163 35.1274 87.5295C35.7218 87.4791 36.1745 86.7619 36.0268 86.1375C35.8792 85.5132 35.1952 85.1178 34.624 85.3028C35.3584 84.9421 36.0543 84.4899 36.6934 83.958C36.5199 83.6724 36.3464 83.3868 36.1729 83.1012C35.9084 82.6658 35.6366 82.2219 35.2546 81.9043C34.8726 81.5867 34.3531 81.4134 33.8998 81.5901C33.4465 81.7669 33.1364 82.3702 33.3441 82.8401C33.2027 83.0315 32.8942 83.0332 32.7509 82.8434C32.6077 82.6537 32.6713 82.3274 32.8731 82.2161C33.0536 82.1166 33.0751 81.8277 32.9694 81.6409C32.8637 81.4542 32.6743 81.3457 32.494 81.2461C32.0112 80.9794 31.3915 80.7235 30.9673 81.0884C31.1402 81.2004 31.3429 81.2577 31.5444 81.2515C31.271 81.428 30.9976 81.6044 30.7242 81.7809C30.6277 81.8784 30.8228 81.9985 30.9544 81.9865C31.3725 81.9484 31.7905 81.9103 32.2086 81.8722Z" fill="white"/>
<path fill-rule="evenodd" clip-rule="evenodd" d="M30.9545 81.9867C31.3725 81.9486 31.7906 81.9105 32.2086 81.8724C31.8976 82.2485 31.4134 82.4485 30.9496 82.3924C30.7161 82.3642 30.5903 82.7379 30.724 82.9467C30.8577 83.1554 31.1184 83.2133 31.3532 83.2211C31.588 83.229 31.8347 83.2065 32.0463 83.3168C31.2527 83.7097 30.4591 84.1027 29.6655 84.4956C30.2471 84.5717 30.841 84.5371 31.4116 84.3937C30.7753 85.0872 29.4567 84.7028 28.9982 85.5443C29.9125 85.6627 30.8527 85.5398 31.7145 85.1891C31.7097 85.5245 31.347 85.7059 31.0394 85.7509C30.7319 85.796 30.3766 85.8085 30.1839 86.0714C30.0588 86.2421 29.8117 86.1896 29.6205 86.1211C29.3032 86.0073 28.9748 85.8865 28.733 85.6371C28.4912 85.3876 28.3631 84.9702 28.5282 84.6561C28.8905 83.9669 30.1739 84.3745 30.3904 83.6171C30.4446 83.4276 30.4011 83.2235 30.3583 83.0306C30.2588 82.5816 30.163 82.1196 30.2197 81.662C30.2765 81.2044 30.5178 80.7455 30.9154 80.5766C31.5834 80.293 32.2672 80.9049 32.9675 81.0748C33.4947 81.2027 34.0537 81.0741 34.5805 81.2041C35.3388 81.3913 35.8952 82.0699 36.3975 82.7117C36.6252 83.0027 36.861 83.3112 36.9291 83.6851C36.9972 84.059 36.8299 84.5125 36.4876 84.6039C36.1763 84.687 36.053 85.1136 36.1137 85.4538C36.1745 85.7939 36.3577 86.0946 36.4424 86.4287C36.5271 86.7629 36.4729 87.1899 36.1874 87.3475C35.5853 87.6798 34.9543 88.0201 34.2783 88.0205C33.8254 88.0208 33.3828 87.867 32.9302 87.8516C32.4776 87.8362 31.967 88.0101 31.7764 88.454C31.5846 88.9005 30.9065 88.7999 30.6556 88.389C30.4048 87.9781 30.452 87.4421 30.5086 86.9537C30.5253 86.8103 30.5458 86.6572 30.6353 86.5497C30.7084 86.4617 30.8163 86.4188 30.9208 86.3835C31.3879 86.2258 31.8804 86.1561 32.3693 86.1786C31.9306 86.391 31.4754 86.6169 31.1717 87.0195C30.868 87.4222 30.7702 88.0575 31.0847 88.4504C31.6114 88.4436 32.0818 87.9096 32.0623 87.3408C33.0699 87.5527 34.1041 87.6165 35.1274 87.5297C35.7219 87.4792 36.1746 86.7621 36.0269 86.1377C35.8792 85.5133 35.1952 85.1179 34.624 85.303C35.3584 84.9423 36.0543 84.4901 36.6935 83.9582C36.52 83.6726 36.3465 83.387 36.1729 83.1014C35.9084 82.666 35.6367 82.2221 35.2547 81.9045C34.8727 81.5869 34.3532 81.4135 33.8999 81.5903C33.4465 81.7671 33.1364 82.3703 33.3442 82.8403C33.2028 83.0316 32.8942 83.0333 32.751 82.8436C32.6078 82.6538 32.6713 82.3275 32.8732 82.2163C33.0536 82.1168 33.0752 81.8279 32.9695 81.6411C32.8638 81.4543 32.6744 81.3459 32.494 81.2463C32.0113 80.9796 31.3915 80.7237 30.9674 81.0886C31.1402 81.2005 31.343 81.2578 31.5444 81.2516C31.271 81.4281 30.9976 81.6046 30.7242 81.7811C30.6277 81.8785 30.8229 81.9987 30.9545 81.9867V81.9867Z" fill="#FFB61D"/>
<path fill-rule="evenodd" clip-rule="evenodd" d="M44.7939 22.2001C44.752 22.0223 44.8131 21.809 44.9621 21.7244C45.0106 21.8351 45.0591 21.9458 45.1076 22.0565C45.0063 22.125 44.905 22.1935 44.8036 22.262L44.7939 22.2001Z" fill="#E7EAEE"/>
<path d="M32.6637 84.2659C32.7282 84.6156 32.6906 84.9845 32.557 85.3129C32.9296 85.3555 33.3074 85.3493 33.6784 85.2945C33.421 85.7248 32.761 85.8452 32.4074 85.4943C32.0539 85.1434 32.1931 84.4114 32.6637 84.2659L32.6637 84.2659Z" fill="white"/>
<path fill-rule="evenodd" clip-rule="evenodd" d="M45.2351 13.8438C45.0917 15.8414 45.0321 17.8451 45.0564 19.8478C45.0612 20.2399 45.0734 20.6491 45.2588 20.9939C45.3133 21.0954 45.1734 21.2126 45.063 21.1816C44.9526 21.1506 44.8862 21.0396 44.8366 20.9355C44.1653 19.525 44.5894 17.8644 44.5593 16.3003C44.5398 15.2824 44.3246 14.2334 44.639 13.2658C44.7026 13.0703 45.0134 13.085 45.1366 13.249C45.2598 13.413 45.2498 13.6386 45.2351 13.8438L45.2351 13.8438Z" fill="#E7EAEE"/>
<path d="M23.6264 63.7771C23.7481 64.0089 23.7498 64.3201 23.6307 64.5537C23.5009 63.9768 22.8163 63.6957 22.4079 64.0518C22.258 64.1824 22.0958 64.3899 21.9229 64.307C22.0031 64.2722 22.0151 64.1179 21.9415 64.0666C22.2838 63.4252 23.1415 63.2778 23.6264 63.7771H23.6264Z" fill="black"/>
<path fill-rule="evenodd" clip-rule="evenodd" d="M24.9671 63.1971C24.9832 63.1176 24.9993 63.0386 25.0133 62.9604C25.0951 62.5037 25.0465 61.9232 24.6631 61.7264C24.3975 61.59 24.1095 61.7031 23.8218 61.8162C23.7141 61.8585 23.6064 61.9008 23.5 61.9299C22.9017 62.094 22.2219 61.7856 21.9026 61.2053C21.6606 60.7655 20.9906 60.9954 20.7684 61.4476C20.6281 61.7331 20.5908 62.0568 20.5534 62.382C20.5315 62.572 20.5095 62.7624 20.467 62.9461C20.3516 63.4443 19.9397 63.9569 19.4917 63.8108C19.1349 63.6945 18.7187 63.8496 18.4996 64.1805C18.2805 64.5115 18.274 64.9949 18.4841 65.3328C18.7393 65.7434 19.2004 65.8692 19.6542 65.993C19.7838 66.0283 19.9128 66.0635 20.0362 66.1051C20.2488 66.1768 20.4663 66.2849 20.5881 66.4895C20.7099 66.694 20.6886 67.0158 20.4945 67.1349C20.1765 67.3299 20.2026 67.9052 20.4907 68.1501C20.7787 68.395 21.2049 68.3492 21.5195 68.1477C21.8341 67.9462 22.0624 67.6187 22.2823 67.2995C22.6207 66.8084 23.3338 66.699 23.7814 67.0695C23.779 66.6409 24.0008 66.2194 24.3397 66.0081C24.6786 65.7969 25.1212 65.8043 25.4542 66.0268C25.7457 65.8972 25.7264 65.4143 25.5458 65.1311C25.4723 65.016 25.3819 64.9142 25.2918 64.8127C25.1602 64.6644 25.0292 64.5169 24.9525 64.3297C24.8084 63.9779 24.8888 63.5823 24.9671 63.1971ZM23.8694 65.6864C23.9257 65.8995 23.8947 66.1386 23.7865 66.3259L23.8178 66.3608C23.6308 66.4686 23.3916 66.4573 23.2136 66.3324L23.4024 65.7984C23.5444 65.7139 23.7083 65.6745 23.8694 65.6864Z" fill="white"/>
<path fill-rule="evenodd" clip-rule="evenodd" d="M75.824 41.2843C75.6329 41.0361 75.4418 40.7878 75.2418 40.5495C74.6247 39.8141 73.8683 39.1436 72.9681 38.9943C72.8732 38.9786 72.7772 38.9688 72.6812 38.9589C72.4876 38.9391 72.2944 38.9193 72.111 38.8512C71.8658 38.7601 71.6527 38.5876 71.4555 38.4035C71.1882 38.1541 70.9307 37.8728 70.6727 37.5908C69.9135 36.7614 69.1494 35.9267 68.1187 35.8828C67.0332 35.8365 66.014 36.9065 66.0066 38.1C66.0005 39.1013 66.5908 39.9731 67.1536 40.7607L76.9419 54.459L83.0107 62.9521C83.7943 64.0487 84.8241 65.2625 86.081 65.0713C87.2106 64.8995 87.9694 63.443 87.6474 62.241C87.5237 61.7791 87.28 61.3759 87.0358 60.9719C86.8228 60.6196 86.6095 60.2666 86.475 59.8735C86.2608 59.2473 86.2627 58.5748 86.2647 57.8992C86.2661 57.3822 86.2676 56.8635 86.1722 56.3623C85.9609 55.2521 85.2949 54.3198 84.6173 53.4641C84.2507 53.001 83.8621 52.3152 84.2126 51.8373C84.6297 51.2687 84.4215 50.429 84.1581 49.7585C83.3125 47.6058 82.0848 45.6353 80.5643 43.9903C79.9133 43.286 78.9659 42.6004 78.1514 43.0552C77.8081 43.2469 77.3976 43.0116 77.0984 42.745C76.6205 42.3191 76.2224 41.8019 75.824 41.2843ZM82.9933 50.2006C83.0582 50.5647 82.9962 50.9764 82.755 51.236C82.6956 51.2999 82.6217 51.3552 82.5388 51.3589C82.3971 51.3652 82.2899 51.226 82.2063 51.1002L78.4139 45.389C78.268 45.1693 78.3698 44.8276 78.5822 44.6881C78.7947 44.5486 79.0727 44.5816 79.2932 44.7051C79.5137 44.8285 79.6885 45.03 79.8557 45.2305C80.8748 46.4521 81.7877 47.7806 82.5779 49.1922C82.7548 49.5082 82.9284 49.8364 82.9933 50.2006Z" fill="white"/>
<path fill-rule="evenodd" clip-rule="evenodd" d="M67.7961 71.376C67.9304 70.8864 67.8984 70.3633 67.8651 69.8535L65.9301 40.2137C66.3221 40.6788 66.3955 41.3577 66.4492 41.9878C67.24 51.2605 67.8988 60.5467 68.4254 69.8419C68.4876 70.9401 68.5256 72.132 67.9531 73.0364C67.569 73.6432 66.9609 74.0298 66.3541 74.3517C64.1338 75.5298 61.6867 76.0981 59.2469 76.5006C52.5955 77.5978 45.7852 77.5317 39.1527 76.3054C37.8402 76.0628 36.5086 75.7648 35.3514 75.0447C34.1943 74.3246 33.2221 73.109 33.0487 71.6642C31.6049 59.6332 30.7967 47.5107 30.6295 35.3776C30.6174 34.4986 30.5893 33.5538 30.1082 32.8498C29.8276 32.4391 29.4279 32.1641 29.0269 31.8883L29.0269 31.8883C28.6835 31.652 28.3391 31.4151 28.0676 31.0917C27.0523 29.8821 27.4342 27.8165 28.4995 26.6596C29.5647 25.5026 31.0933 25.0434 32.5618 24.7056C36.8518 23.7185 41.2674 23.388 45.6402 23.7267C45.7693 24.1128 45.2387 24.3294 44.8631 24.3299C40.755 24.3353 36.6473 24.7035 32.5931 25.4299C31.1074 25.696 29.4877 26.1027 28.5877 27.4239C32.6815 28.9011 37.0706 28.9853 41.3809 29.0215C49.0856 29.0861 56.8454 29.0355 64.4101 27.4338C65.0836 27.2912 65.8137 27.0976 66.2314 26.5019C66.649 25.9062 66.4522 24.8029 65.7709 24.7159C59.9414 23.9715 54.0518 23.7923 48.1936 24.1813C47.7412 24.2113 47.075 23.9133 47.2964 23.4804C52.6701 23.2009 58.0614 23.3306 63.4187 23.8683C64.8573 24.0127 66.3724 24.2194 67.5234 25.175C68.745 26.1893 69.3537 28.014 69.0168 29.6514C68.6798 31.2889 67.4151 32.6514 65.9143 32.9941L65.8514 37.0237C65.4422 36.5617 65.4972 35.8637 65.5497 35.1971C65.5605 35.0611 65.5711 34.9265 65.5776 34.7955C65.6163 34.0218 65.1979 33.0131 64.5051 33.1711C53.5406 35.6726 42.1162 35.7318 31.1306 33.344C31.1424 44.8602 32.1352 56.3451 33.127 67.81C33.2453 69.1774 33.3692 70.5698 33.8594 71.8342C34.3495 73.0985 35.2731 74.2376 36.4891 74.5755C42.2686 76.1816 48.2673 76.8388 54.2229 76.5183C58.2926 76.2993 62.4462 75.5873 65.9919 73.3896C66.7586 72.9145 67.5427 72.2997 67.7961 71.376ZM28.1992 27.9168C27.8379 29.3193 28.5827 30.8413 29.6602 31.6969C30.7376 32.5524 32.0827 32.8791 33.3916 33.1437C43.9229 35.2725 54.8133 34.6664 65.3231 32.4139C66.1241 32.2422 66.9639 32.0395 67.5722 31.4438C68.2465 30.7836 68.5156 29.7314 68.4613 28.7428C68.4069 27.7542 68.0676 26.8123 67.6877 25.9135C67.1441 27.3713 65.5105 27.856 64.0926 28.1201C54.6865 29.8722 45.0884 30.1576 35.5597 29.6212C34.4763 29.5602 33.3911 29.4884 32.3205 29.297C30.8983 29.0427 29.5079 28.5771 28.1992 27.9168ZM34.052 67.0396L34.052 67.0395C33.845 66.8411 33.6067 66.6128 33.3458 66.6883C33.2452 67.4282 34.0385 67.887 34.6883 68.0932C35.5479 68.3659 36.4488 68.6158 37.3279 68.4344C37.6451 68.369 37.9608 68.2425 38.2011 68.0041C38.7405 67.4692 38.758 66.557 38.7333 65.7559C38.5123 58.5707 38.1506 51.3908 37.6486 44.223C37.5684 43.0771 37.4215 41.7949 36.6055 41.0843C36.2697 40.7918 35.8564 40.6344 35.4518 40.4822L32.6333 39.4214C32.2525 39.2781 31.7557 39.1699 31.5121 39.5241C31.3608 39.7443 31.3848 40.0505 31.4156 40.3251C32.32 48.4032 32.8243 56.5363 32.9255 64.6754C32.9395 65.7982 33.8322 66.7006 34.7908 67.0678C35.8323 67.4667 36.9658 67.4012 38.066 67.331C36.8793 68.2146 35.1631 68.1008 34.0803 67.0666L34.052 67.0396ZM38.0026 66.3721C37.2585 66.938 36.269 66.8639 35.3805 66.6864C34.8543 66.5813 34.2927 66.422 33.9518 65.966C33.6001 65.4957 33.5734 64.8339 33.5611 64.2236C33.3959 56.0599 32.8603 47.9054 31.9568 39.8012L34.858 40.9001C35.5467 41.161 36.2814 41.4588 36.7003 42.1178C37.0631 42.6887 37.1186 43.4238 37.1622 44.1201L37.723 53.0747C38.0002 57.5015 38.2775 61.9451 38.0026 66.3721ZM50.3506 68.9274C49.4662 68.6671 48.5574 68.5065 47.6432 68.4487L47.5965 68.4458C46.9285 68.4039 46.175 68.3566 45.7627 67.7863C45.5676 67.5164 45.4868 67.171 45.4143 66.8362C43.9765 60.1975 43.8397 53.316 43.7097 46.4951L43.6471 43.2101C43.6428 42.9826 43.6348 42.7416 43.521 42.551C43.4072 42.3605 43.1468 42.2561 42.9851 42.3994L43.2465 53.6633C43.2648 54.4513 43.283 55.2395 43.3251 56.0265C43.5183 59.646 44.2111 63.2085 44.9018 66.7546C45.0775 67.6566 45.4341 68.7496 46.2719 68.8557L50.4731 69.3876C50.5079 69.392 50.5438 69.3963 50.5772 69.385C50.7834 69.3155 50.5589 68.9887 50.3506 68.9274ZM65.569 63.514C65.6106 64.7973 65.6208 66.195 64.9115 67.2165C65.9608 66.4671 66.0366 64.8431 65.9996 63.4703L65.6758 51.4452C65.5911 48.3 65.5011 45.1159 64.7092 42.0916C64.565 41.5407 64.3846 40.9734 64.0057 40.5787C63.6268 40.184 62.9932 40.0267 62.578 40.3747C61.7492 41.0693 60.648 41.0931 59.586 41.1159L59.5859 41.1159L59.5857 41.116L59.5856 41.116L59.5854 41.116L59.5853 41.116L59.5851 41.116C59.4209 41.1195 59.2575 41.123 59.0963 41.129C57.8924 41.1737 56.4921 41.558 56.0347 42.7804C55.7533 43.5324 55.9223 44.3818 56.0809 45.1785L56.0917 45.2328C56.9591 49.598 57.0768 54.0727 57.1946 58.5501V58.5502C57.2483 60.593 57.3021 62.6363 57.427 64.67C57.5013 65.8782 57.6179 67.1409 58.2247 68.1527C58.3447 68.3529 58.4883 68.5456 58.6817 68.6573C58.865 68.7632 59.0772 68.7876 59.2837 68.8061C60.3985 68.9055 61.548 68.8808 62.5968 68.4542C63.6455 68.0275 64.5858 67.1442 64.9112 65.9704C65.1098 65.2539 65.071 64.4883 65.0331 63.7402L65.0319 63.7164C64.8263 59.6594 64.7763 55.593 64.882 51.5313C64.8859 51.3787 64.8901 51.2257 64.8942 51.0724C64.9767 48.0211 65.062 44.8657 63.9051 42.1023C63.7504 41.7328 63.562 41.3584 63.2519 41.1359C63.2358 41.1243 63.2192 41.1128 63.2023 41.1011L63.2021 41.101C63.0812 41.0172 62.95 40.9262 62.9399 40.7752C63.1845 40.5816 63.546 40.6745 63.7676 40.899C63.9893 41.1235 64.1024 41.4458 64.1999 41.759C64.5808 42.9834 64.8322 44.2563 64.9474 45.5438C65.0097 46.2392 65.0323 46.938 65.0549 47.6362L65.569 63.514ZM56.6686 42.2873C57.1035 41.7354 57.8426 41.6521 58.5065 41.6076L62.018 41.3725C62.3702 41.3489 62.7538 41.3347 63.0406 41.56C63.2371 41.7143 63.3562 41.9586 63.4576 42.1992C64.2708 44.1301 64.3585 46.3214 64.3986 48.448C64.5104 54.3772 64.3579 60.3125 63.942 66.2254C63.8972 66.8628 63.4393 67.3933 62.9104 67.6618C62.3815 67.9303 61.7866 67.9853 61.2056 68.0364L59.5835 68.1791C59.383 68.1967 59.1712 68.2121 58.9909 68.1143C58.7269 67.9709 58.6105 67.633 58.5257 67.3235C57.6489 64.1258 57.6453 60.7735 57.6417 57.4132C57.6399 55.6546 57.638 53.8939 57.5109 52.1519C57.3284 49.6488 56.8856 47.1786 56.444 44.7147L56.4367 44.674C56.2908 43.8595 56.1737 42.9152 56.6686 42.2873ZM72.5877 70.7609C72.8916 71.092 73.2815 71.3296 73.7007 71.4388C74.0595 71.5323 74.2901 72.0002 74.1619 72.3747C74.172 72.4286 74.0942 72.4574 74.0532 72.4249C74.0179 72.3969 74.0039 72.3493 73.9905 72.3033L73.9839 72.2811C73.8824 71.9514 73.5513 71.7862 73.2565 71.6484C72.8388 71.4534 72.4123 71.2269 72.1343 70.8373C71.8563 70.4476 71.7763 69.8497 72.0704 69.4741C72.263 69.2282 72.5663 69.1268 72.8525 69.037C73.2338 68.9173 73.634 68.7967 74.0226 68.8849L74.1111 69.0761C74.2951 69.1993 74.5535 69.1732 74.7132 69.0153C74.8909 68.8397 75.1618 68.853 75.4014 68.8769L76.6953 69.0061C76.7584 69.0124 76.8249 69.02 76.8765 69.0601C77.0296 69.179 76.9071 69.4667 76.7261 69.5235C76.5958 69.5643 76.4605 69.5364 76.3251 69.5083L76.3251 69.5083C76.2724 69.4974 76.2197 69.4865 76.1673 69.4797C76.1023 69.4712 76.0343 69.4694 75.9738 69.4966C75.7929 69.5779 75.7814 69.8532 75.8378 70.0562C75.8475 70.0912 75.8583 70.1265 75.8692 70.1621L75.8693 70.1624C75.9217 70.3334 75.9757 70.5098 75.9155 70.6727C75.7474 70.755 75.5517 70.5874 75.5012 70.3954C75.4627 70.2495 75.4788 70.0968 75.4948 69.9445L75.4948 69.9444C75.4998 69.8963 75.5049 69.8483 75.5082 69.8006C75.522 69.6015 75.4927 69.3741 75.344 69.256C74.743 69.5666 74.0644 69.699 73.4011 69.6351C73.3489 69.6301 73.2966 69.6238 73.2443 69.6176L73.244 69.6176L73.2438 69.6175L73.2436 69.6175L73.2433 69.6175H73.2433H73.2433H73.2432H73.2432H73.2431C73.0753 69.5975 72.9072 69.5775 72.7398 69.5965C72.5198 69.6216 72.2936 69.7278 72.1817 69.9342C72.2679 69.994 72.3318 70.0902 72.3568 70.1977L74.4735 70.6459C74.3165 70.8333 74.0499 70.8354 73.8164 70.8235L72.5877 70.7609ZM53.524 64.6284C53.0958 59.003 52.9599 53.351 53.1169 47.7088L53.1205 47.5811C53.1553 46.3448 53.1907 45.0899 52.8957 43.8971C52.5907 42.6632 51.867 41.4816 50.7773 41.0155C50.1444 40.7447 49.4471 40.7342 48.7674 40.7272C46.9979 40.7092 45.2128 40.6927 43.4791 41.08C42.9047 41.2083 42.2765 41.4319 42.0005 41.9968C41.8094 42.388 41.8328 42.8574 41.8611 43.2997L43.4044 67.3615C43.4341 67.8235 43.4721 68.312 43.7195 68.6882C43.9765 69.0789 44.4111 69.2741 44.8293 69.4254C46.6029 70.0672 48.5108 70.2616 50.3626 69.9894C50.194 69.7273 49.8678 69.6668 49.5767 69.6282L45.9592 69.1484C45.5948 69.1001 45.2193 69.0478 44.9009 68.8482C44.1304 68.3653 43.9744 67.2459 43.9023 66.2789C43.325 58.5259 42.7474 50.7707 42.4434 42.9992C42.4269 42.5783 42.4456 42.0791 42.7675 41.8469C42.9305 41.7293 43.1355 41.7123 43.3305 41.6988L48.6493 41.3304C49.2499 41.2888 49.8708 41.2501 50.4363 41.4751C51.2193 41.7865 51.78 42.5672 52.0996 43.4077C52.5873 44.6904 52.5973 46.1218 52.5811 47.5106C52.5694 48.5103 52.5479 49.5111 52.5264 50.5122C52.4443 54.3389 52.3621 58.1694 52.8256 61.9574C52.8481 62.1411 52.8716 62.3262 52.8952 62.5124C53.171 64.6872 53.4654 67.0087 52.3945 68.8295L52.3765 68.86C52.2963 68.9953 52.2128 69.1364 52.2089 69.2962C52.2046 69.4681 52.3455 69.6544 52.4972 69.6087C52.5568 69.5908 52.604 69.5424 52.647 69.494C53.7377 68.2698 53.6535 66.3306 53.524 64.6284ZM45.28 26.7472C45.9731 26.7768 46.7094 26.9602 47.1867 27.5305C47.2795 27.6414 47.3624 27.7664 47.445 27.8911L47.445 27.8911C47.6172 28.1508 47.7884 28.409 48.0465 28.5351C47.6512 28.3794 47.2195 28.3438 46.8084 28.4331C46.6657 28.4641 46.5254 28.5098 46.3852 28.5555C46.1638 28.6276 45.9428 28.6996 45.7136 28.7132L46.1713 28.2724C46.3349 28.1148 46.5201 27.9482 46.7348 27.9561C46.77 27.5558 46.4879 27.175 46.1452 27.0701C45.8024 26.9653 45.4277 27.0981 45.1457 27.3426C44.8638 27.587 44.6624 27.9314 44.4953 28.2863C44.4288 28.4275 44.3381 28.5924 44.1968 28.5906C44.0799 28.5257 44.0845 28.3306 44.1414 28.1979C44.1578 28.1596 44.1772 28.1222 44.1966 28.0848L44.1966 28.0848L44.1966 28.0847L44.1966 28.0847L44.1966 28.0847C44.2444 27.9926 44.292 27.9006 44.2951 27.7958C44.3029 27.528 44.0342 27.3755 43.8099 27.2908C43.5863 27.2064 43.3154 27.1308 43.1352 27.303C43.0042 27.4281 42.9739 27.6394 42.9522 27.832L42.8784 28.4863C42.494 28.6343 42.07 28.6477 41.6789 28.524C42.1417 28.2075 42.6506 27.8171 42.7364 27.2125C43.5462 26.8695 44.4162 26.7104 45.28 26.7472ZM25.0133 62.9606C25.0951 62.5038 25.0465 61.9233 24.6631 61.7265C24.3975 61.5902 24.1095 61.7033 23.8218 61.8163C23.7141 61.8586 23.6064 61.9009 23.5 61.9301C22.9017 62.0942 22.2219 61.7858 21.9026 61.2055C21.6606 60.7657 20.9906 60.9956 20.7684 61.4478C20.6281 61.7333 20.5908 62.057 20.5534 62.3822C20.5315 62.5722 20.5095 62.7626 20.467 62.9463C20.3516 63.4445 19.9397 63.9571 19.4917 63.811C19.1349 63.6946 18.7187 63.8497 18.4996 64.1807C18.2805 64.5117 18.274 64.9951 18.4841 65.333C18.7393 65.7436 19.2004 65.8694 19.6542 65.9931L19.6543 65.9932L19.6544 65.9932C19.7839 66.0285 19.9128 66.0637 20.0362 66.1053C20.2488 66.1769 20.4663 66.2851 20.5881 66.4896C20.7099 66.6942 20.6886 67.016 20.4945 67.1351C20.1765 67.3301 20.2026 67.9053 20.4907 68.1502C20.7787 68.3951 21.2049 68.3494 21.5195 68.1479C21.8341 67.9464 22.0624 67.6189 22.2823 67.2997C22.6207 66.8086 23.3338 66.6991 23.7814 67.0697C23.779 66.6411 24.0008 66.2196 24.3397 66.0083C24.6786 65.797 25.1212 65.8044 25.4542 66.027C25.7457 65.8974 25.7264 65.4145 25.5458 65.1313C25.4723 65.0162 25.3819 64.9143 25.2918 64.8128C25.1602 64.6646 25.0292 64.5171 24.9525 64.3298C24.8084 63.978 24.8888 63.5825 24.9671 63.1973C24.9832 63.1178 24.9993 63.0387 25.0133 62.9606ZM23.9986 62.172C24.232 62.1131 24.5106 62.1428 24.6605 62.3484C24.8553 62.6156 24.727 62.9405 24.593 63.28C24.4836 63.557 24.3705 63.8437 24.4259 64.1164C24.4699 64.3323 24.6153 64.5031 24.755 64.6623L25.4163 65.4162C25.1362 65.7018 24.7492 65.585 24.352 65.465C23.9948 65.3571 23.6294 65.2468 23.3263 65.4246C23.1045 65.5548 22.977 65.8095 22.8542 66.0549L22.8541 66.055C22.8396 66.084 22.8252 66.1128 22.8107 66.1413C22.4282 66.8919 21.868 67.5317 21.2006 67.9801C21.1156 68.0373 21.0215 68.0933 20.9223 68.0827C20.6801 68.0568 20.6191 67.6901 20.68 67.4309C20.7517 67.1256 20.8979 66.8424 21.0428 66.5616C21.252 66.1562 21.4587 65.7559 21.4348 65.3012C21.1803 65.7645 20.6267 65.9412 20.1395 65.8654C19.6523 65.7897 19.2137 65.5107 18.7891 65.2373C18.4959 65.0485 18.6008 64.5055 18.8932 64.3151C19.1856 64.1248 19.5524 64.1762 19.8887 64.2296C20.2249 64.2831 20.5952 64.3247 20.8796 64.1203C20.7395 63.4348 20.7712 62.7078 20.9703 62.0402C21.0422 61.7993 21.1469 61.551 21.3444 61.4204C21.5419 61.2897 21.8509 61.343 21.9329 61.5799C22.1364 62.1675 22.7552 62.5405 23.3148 62.4129C23.4364 62.3852 23.5529 62.3373 23.6694 62.2894C23.7777 62.2449 23.8861 62.2004 23.9986 62.172ZM23.8694 65.6866C23.9257 65.8997 23.8947 66.1388 23.7865 66.326L23.8178 66.361C23.6308 66.4688 23.3916 66.4575 23.2136 66.3326L23.4024 65.7986C23.5444 65.714 23.7083 65.6747 23.8694 65.6866ZM75.3759 74.9289C74.772 73.862 74.3782 72.6571 74.2282 71.4172C74.6428 71.5333 74.8569 72.0323 74.9253 72.489C74.9445 72.6168 74.9571 72.7469 74.9697 72.877C75.0021 73.2119 75.0345 73.5467 75.1788 73.8413C75.3791 74.2502 75.92 74.5162 76.2407 74.2096C76.3203 74.1334 76.3805 74.0291 76.4397 73.9264C76.5362 73.759 76.6301 73.5962 76.8018 73.5678C77.0146 73.5327 77.1881 73.7405 77.3168 73.927L78.1068 75.0717C78.3137 75.004 78.3272 74.7629 78.3416 74.5075C78.3505 74.3503 78.3596 74.1877 78.4144 74.0567C78.5408 73.7542 78.8524 73.7054 79.1771 73.6545C79.405 73.6188 79.6394 73.5821 79.8207 73.456C80.1464 73.2294 80.2337 72.7307 80.1126 72.3332C79.9915 71.9357 79.7084 71.6222 79.4152 71.3486C78.9904 70.9521 79.0651 70.3081 79.1406 69.6566C79.213 69.0319 79.2863 68.4004 78.9207 67.9735C78.4105 67.3776 77.5024 67.6948 76.8273 68.0511L76.54 67.6902C77.0909 67.4696 77.1906 66.5867 76.8316 66.0843C76.4726 65.5819 75.8374 65.4097 75.2499 65.4068C75.1647 65.4064 75.0724 65.4116 75.0068 65.4703C74.803 65.6527 75.0906 65.9732 75.3365 66.0791L76.5374 66.5965C76.2599 66.803 75.8935 66.6807 75.5379 66.562C75.152 66.4333 74.7788 66.3088 74.5457 66.6129C74.2837 66.9546 74.56 67.4868 74.9152 67.7095C75.0525 67.7955 75.2017 67.8603 75.3505 67.9249C75.5866 68.0274 75.8216 68.1293 76.0057 68.3151C75.7666 68.4467 75.495 68.3506 75.2303 68.2571L75.2302 68.257C75.1631 68.2333 75.0964 68.2098 75.0309 68.1901C74.7068 68.093 74.2373 68.2141 74.2414 68.5774C73.9084 68.1737 73.9962 67.5538 74.1048 67.0259C74.2263 66.4345 74.3579 65.8213 74.7043 65.3448C75.0507 64.8683 75.6784 64.5723 76.188 64.8257C76.6224 65.0417 76.8258 65.5516 77.0196 66.0377L77.0198 66.0381C77.0496 66.1129 77.0792 66.1871 77.1094 66.2596C77.3358 66.8034 77.7868 67.3792 78.327 67.2563C78.8173 67.1447 79.3077 67.5453 79.5127 68.0391C79.7176 68.5329 79.7059 69.0954 79.6904 69.6363C79.6749 70.1783 79.8992 70.6752 80.1227 71.1706L80.1227 71.1706C80.1979 71.3371 80.2729 71.5035 80.3388 71.6713C80.6005 72.3384 80.6698 73.2349 80.1366 73.6745C79.956 73.8235 79.736 73.8922 79.5154 73.9611C79.4139 73.9928 79.3123 74.0245 79.2143 74.0641C78.9035 74.1898 78.5895 74.4703 78.6157 74.8276C78.6191 74.8745 78.6285 74.9212 78.6378 74.9677C78.6536 75.0465 78.6693 75.1249 78.656 75.2033C78.6186 75.4247 78.3585 75.5299 78.1583 75.4671C77.9582 75.4043 77.8083 75.2292 77.6692 75.0615L76.7865 73.9976C76.54 74.5694 75.9594 74.9527 75.3759 74.9289ZM75.2419 40.5495C74.6248 39.814 73.8684 39.1436 72.9682 38.9943C72.8732 38.9786 72.7772 38.9687 72.6812 38.9589C72.4877 38.9391 72.2944 38.9193 72.111 38.8511C71.8658 38.7601 71.6528 38.5876 71.4555 38.4035C71.1883 38.154 70.9308 37.8727 70.6727 37.5908C69.9135 36.7614 69.1495 35.9267 68.1187 35.8828C67.0332 35.8365 66.014 36.9065 66.0067 38.1C66.0005 39.1013 66.5909 39.9731 67.1537 40.7607L76.9419 54.459L83.0107 62.9521C83.7943 64.0487 84.8241 65.2625 86.0811 65.0713C87.2107 64.8995 87.9694 63.443 87.6475 62.241C87.5238 61.7791 87.2801 61.3759 87.0359 60.9719C86.8229 60.6195 86.6095 60.2666 86.4751 59.8735C86.2609 59.2473 86.2628 58.5748 86.2647 57.8992C86.2662 57.3822 86.2677 56.8635 86.1723 56.3623C85.9609 55.2521 85.2949 54.3198 84.6174 53.464C84.2508 53.001 83.8621 52.3152 84.2126 51.8373C84.6298 51.2687 84.4216 50.429 84.1581 49.7584C83.3126 47.6058 82.0848 45.6353 80.5643 43.9903C79.9133 43.286 78.966 42.6004 78.1515 43.0552C77.8081 43.2469 77.3976 43.0115 77.0985 42.745C76.6206 42.3191 76.2224 41.8018 75.824 41.2842C75.633 41.0361 75.4419 40.7878 75.2419 40.5495ZM66.9809 36.945C67.3835 36.5125 67.9919 36.3256 68.5403 36.466C69.1671 36.6264 69.6524 37.1595 70.0761 37.6917C71.1942 39.0959 72.1373 40.6536 73.0784 42.208C73.1835 42.3816 73.2885 42.5551 73.3938 42.7283C77.3519 49.243 81.681 55.4856 86.3473 61.4075C86.8038 61.9869 87.2961 62.7014 87.1177 63.4423C86.9157 64.2811 85.9091 64.6065 85.1671 64.3095C84.4252 64.0125 83.8977 63.2996 83.4088 62.6182L67.2667 40.1199C66.946 39.6729 66.6158 39.2042 66.5097 38.6472C66.3944 38.0416 66.5783 37.3775 66.9809 36.945ZM80.0659 50.0794C79.7409 49.6183 79.3928 49.1646 78.9512 48.8409C78.7381 48.6847 78.4977 48.55 78.2575 48.4154C77.6426 48.0708 77.0292 47.7271 76.879 47.0258C76.8313 46.8031 76.842 46.5739 76.8528 46.344C76.8612 46.1647 76.8696 45.985 76.8503 45.8078C76.8186 45.5166 76.7131 45.2418 76.5982 44.9772C75.7267 42.9695 74.2294 41.2977 72.4164 40.3079C72.1159 40.1439 72.3022 39.5717 72.6315 39.5006C72.9608 39.4295 73.2747 39.664 73.5369 39.8941C76.1291 42.1699 78.0237 45.1771 79.924 48.1934C81.0837 50.0341 82.2455 51.8782 83.5693 53.5616C83.6965 53.7234 83.8257 53.8844 83.9551 54.0457C84.6753 54.9433 85.4011 55.848 85.8334 56.9398C85.2654 57.0512 84.7734 57.5412 84.6169 58.1513C83.6707 57.1724 83.0989 55.8674 82.5304 54.5699C82.3846 54.237 82.239 53.9047 82.0873 53.5785C81.5145 52.3464 80.8368 51.1733 80.0659 50.0794ZM82.755 51.236C82.6957 51.2998 82.6218 51.3552 82.5388 51.3589C82.3972 51.3652 82.2899 51.226 82.2064 51.1002L78.414 45.3889C78.2681 45.1693 78.3698 44.8276 78.5823 44.6881C78.7948 44.5486 79.0727 44.5816 79.2933 44.705C79.5138 44.8285 79.6885 45.03 79.8558 45.2305C80.8749 46.4521 81.7878 47.7806 82.5779 49.1921C82.7549 49.5082 82.9285 49.8364 82.9934 50.2006C83.0583 50.5647 82.9963 50.9763 82.755 51.236ZM83.3103 50.6763C83.3783 50.383 83.263 50.0793 83.1437 49.8064C82.2854 47.843 81.0806 46.0633 79.616 44.5953C79.379 44.3578 79.0703 44.112 78.7656 44.222C78.653 44.2626 78.5615 44.3465 78.4696 44.4307C78.4161 44.4798 78.3624 44.5291 78.3042 44.57C78.1464 44.6811 77.8955 44.7039 77.8058 44.523C77.7364 44.3832 77.8089 44.2077 77.9056 44.089C78.239 43.6798 78.8258 43.6236 79.2948 43.8137C79.7638 44.0037 80.1406 44.392 80.4945 44.78C81.7693 46.1773 82.9583 47.7512 83.5153 49.6326C83.764 50.4725 83.8428 51.5032 83.2838 52.138C83.2374 52.1908 83.1855 52.2408 83.1224 52.2651C82.9228 52.3418 82.7143 52.108 82.7095 51.8757C82.7047 51.6434 82.8352 51.4359 82.9708 51.2576C82.9853 51.2386 83 51.2196 83.0147 51.2005C83.1377 51.0408 83.2636 50.8775 83.3103 50.6763ZM75.0801 42.9043C75.5962 43.729 76.0449 44.6046 76.419 45.5172C76.4703 45.6425 76.5176 45.7989 76.4413 45.9078C76.3858 45.9869 76.2706 46.0045 76.1975 45.9452C75.1216 44.5096 74.152 42.9779 73.3016 41.37C73.3778 41.4002 73.4897 41.3557 73.4826 41.267C74.167 41.5732 74.6613 42.2353 75.0801 42.9043ZM78.8506 49.865C78.7559 49.7142 78.6756 49.4733 78.8186 49.3793C79.4492 49.6926 79.8808 50.3389 80.2739 50.9647C80.8471 51.8772 81.4011 52.8043 81.9352 53.7449C82.0631 53.9702 82.1734 54.3079 81.9771 54.4627C81.6421 54.2961 81.4169 53.9484 81.2079 53.6159L78.8506 49.865ZM85.1183 58.4184C85.068 58.3944 85.0327 58.3427 85.009 58.2882C84.866 57.9597 85.1783 57.5202 85.5031 57.5932C85.5171 57.9131 85.436 58.2372 85.275 58.5043C85.2585 58.4619 85.216 58.4497 85.173 58.4373C85.1542 58.4319 85.1352 58.4264 85.1183 58.4184ZM85.8535 59.189C85.7542 59.3075 85.5614 59.3072 85.4624 59.1885C85.3577 58.8873 85.4842 58.5114 85.742 58.3575L85.8535 59.189Z" fill="#00160A"/>
</svg>
