<svg width="116" height="102" viewBox="0 0 116 102" fill="none" xmlns="http://www.w3.org/2000/svg">
<path fill-rule="evenodd" clip-rule="evenodd" d="M15.9507 80.7001C-0.56475 69.4917 19.215 54.6394 14.3832 36.8796C9.55145 19.1199 -2.15269 -7.36026 44.0213 2.07531C90.8051 11.6355 120.477 23.9458 113.465 62.077C106.453 100.208 32.4662 91.9084 15.9507 80.7001Z" fill="#2EC4B6"/>
<path fill-rule="evenodd" clip-rule="evenodd" d="M87.6341 96.053C86.5986 95.043 86.1081 93.6308 85.6504 92.2721C84.4513 93.9707 81.7745 94.0254 79.9362 93.0119C78.0979 91.9983 76.8574 90.2285 75.5374 88.6179C73.1741 85.7343 63.0509 78.6133 62.8845 76.4649C62.7963 75.3255 66.1835 73.2512 66.1835 73.2512L60.0968 69.7479C60.0968 69.7479 56.94 72.1168 55.1251 72.3984C50.0758 73.1818 46.5045 72.7154 46.5002 73.6045C46.4848 76.821 66.3783 93.1399 60.0345 93.0119C50.5138 92.8198 33.1249 74.6917 27.4921 73.2512C25.1332 72.6479 8.9541 73.6045 8.9541 69.7734C8.9541 64.6279 23.4053 61.0877 23.4053 61.0877C23.4053 61.0877 19.6389 48.663 24.1975 38.5027C25.2416 36.1758 26.5342 33.4722 26.6602 31.1859C26.6947 30.5587 44.9199 13.6709 47.2612 12.8272C52.7204 10.8601 58.5273 9.82055 64.3447 9.76886C65.1202 9.76197 87.2323 12.8272 97.1757 28.8831C98.9726 31.7847 107.136 53.3334 98.8478 66.8506C97.5402 68.9832 97.7005 71.6299 98.6045 73.9777C99.5085 76.3254 100.62 78.9369 99.5955 81.2368C99.0361 77.5519 98.0537 73.9286 96.6725 70.457C94.7466 71.8268 95.7217 74.7741 96.8699 76.8147C98.3168 79.3864 99.7638 81.958 101.211 84.5297C101.812 85.5992 102.435 86.7777 102.218 87.9801C101.971 89.3549 100.718 90.306 99.5583 91.1192C96.9101 92.9757 94.2619 94.8322 91.6136 96.6887C90.425 97.5219 88.6697 97.063 87.6341 96.053Z" fill="white"/>
<path fill-rule="evenodd" clip-rule="evenodd" d="M51.8604 39.1494C52.0632 38.6123 52.7934 38.3905 53.3321 38.6143C53.8708 38.8382 54.2052 39.3978 54.2896 39.9644C54.374 40.531 54.2458 41.1068 54.081 41.6562C53.9307 42.1572 53.7493 42.6492 53.538 43.1287C53.5184 43.1732 53.4921 43.2231 53.4437 43.2337C53.3922 43.2451 53.3447 43.2058 53.3076 43.1691C52.3922 42.2618 51.8403 41.0124 51.7924 39.7385C51.7849 39.5397 51.79 39.336 51.8604 39.1494ZM53.4429 39.2805C53.2927 39.1545 53.0988 39.072 52.901 39.0779C52.4394 39.0916 52.1172 39.5842 52.1275 40.0359C52.1378 40.4875 52.3838 40.8976 52.6225 41.2844C52.7934 41.5614 52.9644 41.8384 53.1354 42.1153C53.1936 42.2097 53.3083 42.3174 53.399 42.252C53.4356 42.2257 53.4498 42.1795 53.4617 42.1366C53.5317 41.885 53.6017 41.6333 53.6716 41.3817C53.7717 41.0219 53.8725 40.6563 53.8663 40.2835C53.8601 39.9107 53.7322 39.5231 53.4429 39.2805L53.4429 39.2805Z" fill="#FFB61D"/>
<path fill-rule="evenodd" clip-rule="evenodd" d="M53.1409 40.7263C53.0284 40.7572 52.9057 40.7514 52.7968 40.7099C52.5856 40.6294 52.4398 40.408 52.452 40.1866C52.4642 39.9651 52.6336 39.7605 52.8525 39.7027C53.1841 39.6151 53.5575 39.914 53.5355 40.2493C53.5211 40.4669 53.3555 40.6672 53.1409 40.7263Z" fill="#FFB61D"/>
<path fill-rule="evenodd" clip-rule="evenodd" d="M59.1846 93.3741C59.5633 93.423 59.4236 93.998 59.1779 94.2841C56.8312 97.0171 53.7673 99.1556 50.3622 100.437C49.5986 100.725 48.8086 100.972 47.9924 101.027C46.4787 101.129 44.9707 100.55 43.7737 99.6383C42.5767 98.7262 41.6645 97.5002 40.9212 96.2062C38.8884 92.6675 38.0362 88.4917 38.5242 84.4607C38.5701 84.0815 38.8346 83.5783 39.1919 83.7323C39.0884 85.08 39.0723 86.4341 39.1439 87.7838C39.2141 89.1094 39.3706 90.4388 39.7597 91.7105C40.12 92.8878 40.6743 93.9987 41.2523 95.0899C41.8464 96.2116 42.4759 97.3301 43.3338 98.2743C44.1918 99.2186 45.3053 99.9859 46.5722 100.231C48.1604 100.538 49.7905 100.002 51.2548 99.3269C54.2916 97.9263 57.0158 95.8813 59.1846 93.3741Z" fill="#00160A"/>
<path fill-rule="evenodd" clip-rule="evenodd" d="M70.1716 78.0145C72.9295 75.36 75.6875 72.7056 78.4454 70.0512C78.5999 69.9026 78.8284 69.744 79.0111 69.858C79.2546 70.01 79.0598 70.3757 78.8544 70.5744C75.886 73.4464 72.9176 76.3183 69.9492 79.1902C69.7354 79.0841 69.6731 78.7978 69.7485 78.5751C69.8239 78.3524 70.0006 78.179 70.1716 78.0145H70.1716Z" fill="#00160A"/>
<path fill-rule="evenodd" clip-rule="evenodd" d="M49.0583 62.7481C48.8901 62.7766 48.722 62.805 48.5538 62.8334C48.2275 62.3543 47.8935 61.8572 47.7911 61.2902C47.6886 60.7233 47.8804 60.0634 48.3948 59.7837C48.9769 59.4673 49.1524 58.689 48.9669 58.0633C48.7815 57.4376 48.3221 56.9306 47.8722 56.4504C47.4152 55.9626 46.6823 55.4448 46.1398 55.8399C45.7862 56.0975 45.2568 55.9518 44.9403 55.6516C44.6237 55.3514 44.4563 54.9365 44.2516 54.5545C43.8643 53.8318 43.2995 53.1798 42.5608 52.8009C41.8221 52.422 40.8974 52.347 40.1538 52.7167C39.4162 53.0836 38.951 53.8135 38.3222 54.3397C37.6934 54.866 36.6551 55.1454 36.0885 54.5554C35.9445 54.4054 35.8478 54.1828 35.9297 53.9932C36.0116 53.8037 36.3295 53.7385 36.431 53.9188C36.6896 54.3783 37.4041 54.3717 37.851 54.0818C38.2979 53.7919 38.5775 53.3179 38.9441 52.9351C39.6612 52.1864 40.7511 51.7966 41.7928 51.9164C42.8344 52.0361 43.8023 52.6624 44.3224 53.5533C44.5731 53.9826 44.7276 54.4709 45.0548 54.8476C45.382 55.2243 45.9767 55.4551 46.3965 55.1798C46.8707 54.8689 47.4891 55.2553 47.9053 55.6376C48.4684 56.1549 49.0171 56.7141 49.3342 57.4032C49.6514 58.0922 49.7016 58.9402 49.2872 59.5779C48.9422 60.1088 48.282 60.5389 48.3393 61.1655C48.3926 61.7498 49.0799 62.1619 49.0583 62.7481Z" fill="#00160A"/>
<path fill-rule="evenodd" clip-rule="evenodd" d="M56.3386 36.438C57.3483 36.9005 58.2466 37.6401 58.7656 38.6053C59.2847 39.5705 59.3903 40.7692 58.9249 41.7603C57.9623 43.8105 54.9011 44.6086 54.5636 46.8405C54.4776 47.409 54.5946 48 54.451 48.5572C54.3518 48.9422 54.1343 49.286 53.9604 49.6448C53.5874 50.4147 53.4112 51.2749 53.4523 52.126C53.0632 52.332 52.6057 51.8932 52.556 51.4632C52.5063 51.0331 52.6823 50.6061 52.6729 50.1733C52.6552 49.3599 52.012 48.7125 51.4634 48.1011C50.6404 47.184 49.9253 46.1042 49.7917 44.891C49.7486 44.5 49.7668 44.1013 49.6769 43.718C49.5803 43.3059 49.3637 42.9322 49.1724 42.553C48.6563 41.5303 48.307 40.35 48.6248 39.2527C48.9425 38.1553 50.1268 37.2475 51.251 37.5495C51.5704 37.6353 51.8828 37.8106 52.2104 37.7628C52.7857 37.6788 53.0178 37.0075 53.4188 36.5953C54.1375 35.8564 55.3943 36.0055 56.3386 36.438M51.4495 47.1015C52.087 47.922 52.7245 48.7425 53.362 49.563C54.0932 48.8098 53.7907 47.5914 54.013 46.5757C54.3159 45.192 55.5809 44.2528 56.6771 43.3296C57.7733 42.4064 58.8618 41.1433 58.6155 39.7489C58.4176 38.6285 57.4183 37.8323 56.46 37.189C55.9197 36.8262 55.2961 36.4614 54.6517 36.578C54.0002 36.6959 53.5539 37.261 53.0845 37.7184C52.6151 38.1758 51.9073 38.5732 51.3198 38.2734C50.4931 37.8516 49.4405 38.5712 49.2072 39.4544C48.974 40.3375 49.3094 41.2614 49.6776 42.0994C50.0458 42.9375 50.4613 43.806 50.3913 44.7156C50.3233 45.6006 50.9005 46.395 51.4495 47.1015Z" fill="#00160A"/>
<path fill-rule="evenodd" clip-rule="evenodd" d="M0.597678 28.2553C0.556289 28.1456 0.752894 28.1147 0.858305 28.1698C0.853766 28.2839 0.674491 28.3416 0.601632 28.2524L0.597678 28.2553Z" fill="#00160A"/>
<path fill-rule="evenodd" clip-rule="evenodd" d="M77.0613 73.1899C77.2777 73.2195 77.3927 73.48 77.3435 73.6883C77.2943 73.8966 77.1341 74.0598 76.9804 74.2118C75.7379 75.4403 74.4954 76.6688 73.253 77.8974C73.1612 77.9881 73.0534 78.0854 72.923 78.0814C72.7477 78.076 72.633 77.8776 72.6544 77.7073C72.6758 77.537 72.7902 77.3937 72.9012 77.2609C74.0437 75.8934 75.2836 74.6037 76.6089 73.4044C76.7362 73.2891 76.8894 73.1665 77.0613 73.1899V73.1899Z" fill="#00160A"/>
<path fill-rule="evenodd" clip-rule="evenodd" d="M40.5283 55.4225C41.2129 55.4831 41.7393 56.1125 41.8568 56.775C41.9743 57.4375 41.7631 58.1148 41.4768 58.7261C41.319 59.0629 41.1376 59.3891 40.9344 59.7018C40.7882 59.9267 40.6021 60.1632 40.3332 60.2068C39.8844 60.2796 39.5693 59.7963 39.3961 59.3848C39.1524 58.8056 38.9287 58.2183 38.7257 57.6242C38.626 57.3325 38.5301 57.0256 38.5811 56.7221C38.659 56.2582 39.062 55.9111 39.4843 55.6866C39.8048 55.5163 40.165 55.3903 40.5283 55.4225M39.8852 58.834C39.9378 58.9141 39.9937 58.9962 40.076 59.047C40.1435 59.0887 40.2262 59.1062 40.3053 59.0955C40.5088 59.0678 40.6397 58.876 40.7437 58.7025C41.0158 58.2486 41.2951 57.7723 41.3258 57.2469C41.3564 56.7215 41.0512 56.137 40.5248 56.0287C39.9089 55.902 39.335 56.5057 39.2828 57.1193C39.2306 57.7329 39.5455 58.3157 39.8852 58.834Z" fill="#FFB61D"/>
<path fill-rule="evenodd" clip-rule="evenodd" d="M40.4988 56.6676C40.6678 56.721 40.8135 56.8417 40.8952 56.9959C40.9679 57.1332 40.9898 57.2956 40.9559 57.4466C40.8777 57.7953 40.4747 58.0388 40.121 57.9511C39.7672 57.8633 39.5314 57.4615 39.6324 57.1184C39.7334 56.7754 40.1516 56.5578 40.4988 56.6676ZM40.4205 57.3914C40.5493 57.3251 40.4342 57.0835 40.2995 57.1374C40.195 57.1509 40.1258 57.2795 40.1736 57.3714C40.2213 57.4633 40.3682 57.4844 40.441 57.4099L40.4205 57.3914Z" fill="#FFB61D"/>
<path fill-rule="evenodd" clip-rule="evenodd" d="M76.729 63.2687C76.3473 62.8655 76.0043 62.4274 75.7058 61.9619C75.6104 61.8131 75.8081 61.6194 75.9861 61.6425C76.1641 61.6657 76.295 61.8117 76.4084 61.9479C76.8039 62.4223 77.1993 62.8967 77.5947 63.3712C77.5493 63.5405 77.3308 63.6171 77.1579 63.5722C76.9849 63.5272 76.8505 63.3971 76.729 63.2687L76.729 63.2687Z" fill="#00160A"/>
<path fill-rule="evenodd" clip-rule="evenodd" d="M89.7576 85.2517C89.762 85.307 89.7411 85.361 89.7195 85.4124C89.5023 85.9296 89.1791 86.4039 88.7746 86.799C88.1311 87.4276 87.259 87.8933 86.9144 88.7165C86.8328 88.9115 86.5283 88.9397 86.3701 88.7968C86.2119 88.6538 86.1901 88.4085 86.2602 88.2093C86.3303 88.0101 86.4751 87.8459 86.6167 87.6871C87.0779 87.1697 87.5392 86.6523 88.0004 86.1349C88.3539 85.7384 88.7229 85.3303 89.2127 85.1129C89.4142 85.0234 89.7406 85.0358 89.7576 85.2517V85.2517Z" fill="#00160A"/>
<path fill-rule="evenodd" clip-rule="evenodd" d="M77.1991 61.1141C77.6544 61.6374 78.1096 62.1608 78.5649 62.6841C78.6414 62.772 78.7224 62.8719 78.7171 62.9873C78.709 63.1665 78.4839 63.2734 78.3056 63.2316C78.1272 63.1899 77.9923 63.0505 77.8726 62.9146C77.4869 62.4768 77.1413 62.0052 76.8416 61.5071C76.7247 61.313 76.6792 60.9734 76.9077 60.9444C77.0248 60.9295 77.1225 61.0261 77.1991 61.1141L77.1991 61.1141Z" fill="#00160A"/>
<path fill-rule="evenodd" clip-rule="evenodd" d="M71.9554 64.0311C71.8862 63.9359 71.8147 63.812 71.8732 63.7102C71.9698 63.5422 72.2321 63.6725 72.3629 63.8168C72.8255 64.3271 73.2192 64.8971 73.5307 65.5074C73.234 65.6543 72.9186 65.3553 72.7258 65.0902C72.469 64.7372 72.2122 64.3841 71.9554 64.0311Z" fill="#00160A"/>
<path fill-rule="evenodd" clip-rule="evenodd" d="M72.3657 65.5336C72.5509 65.7221 72.7383 66.0319 72.5454 66.2129C72.3491 66.3969 72.0352 66.1893 71.8618 65.9845C71.4422 65.489 71.0774 64.9492 70.7756 64.3776C70.9693 64.215 71.2561 64.4041 71.4329 64.5841C71.7439 64.9006 72.0548 65.2171 72.3657 65.5336Z" fill="#00160A"/>
<path fill-rule="evenodd" clip-rule="evenodd" d="M72.8704 63.6785C72.7866 63.5579 72.7079 63.3923 72.7987 63.2767C72.9284 63.1117 73.1921 63.2632 73.3373 63.4154C73.7586 63.8571 74.1798 64.2988 74.6011 64.7406C74.5823 64.9002 74.391 64.9957 74.2285 64.9721C74.066 64.9486 73.9307 64.8414 73.8089 64.7335C73.4548 64.4199 73.139 64.0649 72.8704 63.6785L72.8704 63.6785Z" fill="#00160A"/>
<path fill-rule="evenodd" clip-rule="evenodd" d="M75.526 62.6989C75.7883 63.0264 76.0507 63.3538 76.313 63.6812C76.417 63.811 76.5268 63.9776 76.459 64.1287C76.3936 64.2742 76.187 64.3125 76.0375 64.25C75.8881 64.1875 75.7835 64.0551 75.686 63.9278C75.4122 63.5703 75.1409 63.2109 74.8722 62.8497C74.8129 62.7699 74.7508 62.6804 74.7598 62.5821C74.7747 62.4184 74.9889 62.3334 75.149 62.3834C75.3091 62.4334 75.4224 62.5696 75.526 62.6989H75.526Z" fill="#00160A"/>
<path fill-rule="evenodd" clip-rule="evenodd" d="M75.3284 64.2088C75.3828 64.2668 75.4409 64.3344 75.435 64.4128C75.4272 64.5174 75.3018 64.5823 75.1957 64.5667C75.0897 64.5512 75.002 64.4803 74.9223 64.4101C74.3987 63.9496 73.9575 63.3997 73.6244 62.7929C73.6899 62.6262 73.9476 62.7394 74.0712 62.871C74.4903 63.3169 74.9093 63.7629 75.3284 64.2088Z" fill="#00160A"/>
<path fill-rule="evenodd" clip-rule="evenodd" d="M80.4127 61.2563C80.4536 61.3022 80.4966 61.3548 80.4941 61.4156C80.4904 61.5075 80.3787 61.5651 80.2861 61.5496C80.1934 61.534 80.1185 61.4693 80.0495 61.4069C79.5566 60.9614 79.0851 60.4932 78.6372 60.0043C78.7955 59.7961 79.1301 59.9631 79.3224 60.1419C79.7036 60.4962 80.0676 60.8682 80.4127 61.2563Z" fill="#00160A"/>
<path fill-rule="evenodd" clip-rule="evenodd" d="M78.851 61.7014C78.5753 61.3321 78.2997 60.9628 78.024 60.5935C77.9735 60.5258 77.9203 60.4434 77.9474 60.3639C78.0008 60.2074 78.2437 60.2771 78.3744 60.3814C78.7889 60.7123 79.1408 61.118 79.4069 61.5721C79.4585 61.6602 79.5082 61.7645 79.4717 61.8595C79.4251 61.9805 79.2557 62.016 79.1342 61.9654C79.0126 61.9148 78.9289 61.8058 78.851 61.7014L78.851 61.7014Z" fill="#00160A"/>
<path fill-rule="evenodd" clip-rule="evenodd" d="M81.0506 60.3444C80.7783 60.0579 80.506 59.7714 80.2338 59.485C80.1367 59.3829 80.2541 59.2018 80.3958 59.187C80.5374 59.1721 80.6671 59.2596 80.7793 59.3455C80.9858 59.5034 81.185 59.6705 81.3761 59.846C81.4818 59.9431 81.5891 60.0492 81.6289 60.1856C81.6686 60.322 81.614 60.4953 81.477 60.5415C81.3192 60.5948 81.1642 60.4639 81.0506 60.3444L81.0506 60.3444Z" fill="#00160A"/>
<path fill-rule="evenodd" clip-rule="evenodd" d="M80.5222 60.9113C80.1453 60.5332 79.7844 60.14 79.4405 59.7329C79.3806 59.662 79.3175 59.5747 79.343 59.4862C79.3718 59.3863 79.5055 59.3472 79.6059 59.3806C79.7064 59.414 79.78 59.4968 79.8484 59.5761C80.1634 59.9407 80.4784 60.3053 80.7934 60.67C80.8786 60.7686 80.9625 60.9238 80.8658 61.0116C80.7682 61.1003 80.6151 61.0046 80.5222 60.9113V60.9113Z" fill="#00160A"/>
<path fill-rule="evenodd" clip-rule="evenodd" d="M98.4504 84.2841C98.8758 84.1558 99.9528 83.8699 100.378 83.7415C100.569 83.684 100.852 83.6765 100.888 83.8686C100.917 84.0266 100.732 84.1341 100.576 84.1853C100.146 84.3265 99.0504 84.5821 98.6005 84.6352C98.4404 84.6541 98.2076 84.5957 98.2401 84.4412C98.2588 84.3522 98.3617 84.3109 98.4504 84.2841Z" fill="#00160A"/>
<path fill-rule="evenodd" clip-rule="evenodd" d="M50.9202 66.8812C51.5937 66.8908 52.3899 67.0442 52.6586 67.6484C52.9109 68.2159 52.5142 68.8981 51.9577 69.1927C51.4013 69.4872 50.7386 69.4945 50.1059 69.4937C41.4745 69.4829 32.8433 69.2791 24.2214 68.8825C23.6841 68.8578 23.6332 68.0994 23.756 67.5871C23.8293 67.2813 23.9116 66.9591 24.1371 66.7355C24.4614 66.4138 24.9759 66.3919 25.4378 66.3905C31.636 66.3709 37.8455 66.3518 44.0175 66.9097C44.9951 66.9981 45.9738 67.101 46.9555 67.0917C48.2794 67.0791 49.5964 66.8623 50.9202 66.8812M51.8868 68.414C52.0314 68.1378 51.8186 67.7867 51.5291 67.6599C51.2396 67.533 50.9069 67.566 50.5912 67.5964C46.5451 67.9858 42.4714 67.5364 38.4127 67.3043C35.4626 67.1356 32.5071 67.0819 29.5525 67.0282C28.3208 67.0059 27.0892 66.9835 25.8575 66.9611C25.4645 66.954 25.0341 66.959 24.7322 67.2052C24.4303 67.4513 24.4202 68.0316 24.7949 68.1476C24.8626 68.1686 24.9345 68.1722 25.0055 68.1755C33.677 68.588 42.3599 68.7731 51.0416 68.7305C51.3598 68.7289 51.7417 68.691 51.8868 68.414Z" fill="#00160A"/>
<path fill-rule="evenodd" clip-rule="evenodd" d="M45.4099 73.7064C46.1796 75.3546 47.8378 76.5748 49.67 76.8413C50.5321 76.9666 51.1206 77.7336 51.6115 78.4381C52.1218 79.1703 52.496 80.4113 51.6526 80.7346C54.9261 84.266 58.1996 87.7973 61.4731 91.3287C61.8534 91.7389 62.2229 92.4236 61.7819 92.771C61.6182 92.8999 61.3938 92.9202 61.1837 92.9271C58.4867 93.0155 55.9418 91.7806 53.6078 90.4557C50.2467 88.5477 47.0365 86.3854 44.0155 83.9944C41.8083 82.2476 38.6376 81.7478 35.9813 82.7282C34.6033 83.2368 32.8757 82.2 32.7149 80.7678C32.5541 79.3356 34.0103 77.9566 35.4684 78.1604C33.2763 74.9786 29.3559 73.0122 25.4354 73.1281C20.7036 73.268 15.9528 72.7823 11.3527 71.6884C10.9486 71.5924 10.5148 71.4724 10.2614 71.1499C9.75606 70.5069 10.2862 69.5927 10.8416 68.9906C14.9338 64.554 21.2306 62.1605 27.3113 62.7302C27.5705 62.7544 27.7114 62.4466 27.7721 62.199C29.3179 55.8971 30.8637 49.5952 32.4094 43.2932C32.5958 42.5333 33.7781 42.4282 34.3639 42.9595C34.9498 43.4908 35.0785 44.3378 35.1461 45.1165C35.6495 50.9212 34.7703 57.1705 37.7201 62.2312C37.8575 62.4669 38.0128 62.7084 38.2541 62.8421C38.4919 62.974 38.7782 62.982 39.0515 62.9868C44.513 63.0814 49.9745 63.1761 55.436 63.2707C56.1165 63.2825 56.9519 63.2034 57.2268 62.5943C57.9313 61.0336 58.6357 59.473 59.3402 57.9123C59.5643 57.4158 59.8733 56.8525 60.4218 56.7706C61.2074 56.6535 61.7044 57.6188 61.679 58.3958C61.6536 59.1728 61.3864 59.9983 61.7363 60.6963C63.0194 59.3622 64.3243 58.0108 65.9287 57.0664C67.5331 56.122 69.5038 55.6202 71.3029 56.1277C69.7123 58.6017 68.1217 61.0756 66.5311 63.5496C67.8597 64.4096 67.9644 66.5845 66.7244 67.5628C66.195 67.9805 66.6151 68.8048 67.0537 69.3134C68.4277 70.9066 69.8017 72.4999 71.1758 74.0931C70.003 74.6251 68.637 74.0776 67.4839 73.506C65.423 72.4845 63.4112 71.3681 61.4574 70.1618C60.5093 69.5764 59.4643 70.6739 58.6038 71.377C57.2378 72.493 55.3517 72.7153 53.5811 72.8918C50.8573 73.1633 48.1336 73.4349 45.4099 73.7064ZM50.1609 70.2431C51.8342 70.3327 53.5393 70.4461 55.163 70.0404C56.8255 69.6249 58.3385 68.6576 59.3949 67.3348C59.6514 67.0135 60.1008 66.9226 60.5115 66.8535C61.9292 66.6148 63.4222 66.3817 64.7765 66.8561C65.3875 67.0701 66.133 66.8251 66.4879 66.2935C66.8429 65.7619 66.7727 64.9957 66.3267 64.5344C65.8442 64.5214 65.7562 65.1914 65.5002 65.5918C65.1639 66.1179 64.4304 66.2036 63.7969 66.2347C61.4729 66.349 59.1489 66.4634 56.8249 66.5777C56.2607 66.6054 55.4835 66.4448 55.5004 65.8924C55.5078 65.6493 55.6893 65.4486 55.8672 65.2787C56.4912 64.6828 57.2034 64.1755 57.9747 63.7775C48.5383 63.8475 39.1005 63.7438 29.6681 63.4663C25.0298 63.3299 20.0838 63.2266 16.1315 65.6053C15.7626 65.8274 15.4741 66.4823 15.9022 66.5469C17.1629 66.7372 18.4237 66.9274 19.6844 67.1177C19.8346 67.1404 19.9952 67.168 20.1039 67.2718C20.4297 67.5831 19.9733 68.0837 19.5535 68.2566C17.8217 68.9699 15.758 68.861 14.1146 67.9698C13.7421 67.7678 13.3003 67.5222 12.9208 67.7112C12.4624 67.9396 12.5254 68.6606 12.9142 68.9901C13.3031 69.3197 13.8569 69.3661 14.3704 69.3971C18.9832 69.6755 23.596 69.954 28.2089 70.2324C29.5055 70.3107 30.8061 70.389 32.1026 70.3099C38.1139 69.9434 44.147 69.9211 50.1609 70.2431ZM56.8944 87.7367C55.2799 85.5637 53.4409 83.5505 51.4144 81.7376C50.751 81.144 50.1665 80.4721 49.584 79.8022C47.037 76.8729 44.4899 73.9436 41.9429 71.0143C41.6887 70.722 41.249 70.6835 40.8568 70.6713C37.5115 70.5676 34.1551 70.8108 30.8619 71.3955C30.6184 71.4388 30.3557 71.4945 30.1949 71.6786C29.822 72.1053 30.288 72.729 30.725 73.0929C35.0976 76.7351 39.6309 80.1925 44.308 83.4525C45.1688 84.0525 46.0425 84.6502 47.0145 85.0563C48.8484 85.8224 50.6823 86.5886 52.5162 87.3547C53.9193 87.9409 55.5919 88.514 56.8944 87.7367ZM34.9946 55.3954C34.9273 54.5396 34.9269 53.669 34.6865 52.8435C34.2535 51.3566 33.0986 50.189 31.9492 49.1279C31.86 49.0455 31.7423 48.957 31.6271 48.9982C31.5223 49.0356 31.4844 49.1587 31.4605 49.2652C30.6038 53.0818 29.7471 56.8983 28.8904 60.7148C28.7287 61.4351 28.5661 62.1655 28.6011 62.9022C31.6045 62.9392 34.608 62.9763 37.6115 63.0133C36.1151 60.737 35.2071 58.0938 34.9946 55.3954ZM70.2845 56.6628C68.4189 56.5068 66.4973 57.1776 65.1541 58.4538C62.6938 60.7913 60.0665 62.9606 57.2978 64.9407C56.9188 65.2118 56.5126 65.5122 56.384 65.954C58.7036 65.8516 61.0233 65.7493 63.343 65.6469C63.9547 65.6199 64.6749 65.5302 64.9674 65.0038C66.5681 62.1233 68.3447 59.3364 70.2845 56.6628ZM10.7447 70.1753C10.6815 70.3076 10.6255 70.4548 10.6606 70.5968C10.7226 70.8476 11.0222 70.952 11.2786 71.0129C16.465 72.244 21.8458 72.4025 27.1804 72.5553C27.7113 72.5705 28.262 72.5821 28.7494 72.3759C29.2369 72.1697 29.6419 71.6793 29.5627 71.1656C26.095 70.6955 22.5949 70.4547 19.0942 70.4452C16.997 70.4396 14.8401 70.5075 12.874 69.7935C12.3997 69.6212 11.863 69.2759 11.9234 68.7845C11.4183 69.1401 11.0083 69.6239 10.7447 70.1753ZM60.2008 69.2591C60.0146 68.8642 59.4904 68.718 59.0557 68.8092C58.621 68.9004 58.2519 69.1697 57.8874 69.4187C57.046 69.9934 56.136 70.5004 55.1375 70.732C54.267 70.9338 53.3613 70.9194 52.4667 70.9039C49.2011 70.8473 45.9355 70.7907 42.6699 70.7341C43.3971 71.7956 44.3938 72.9882 45.6923 72.8487C48.2324 72.5757 50.8055 72.6409 53.3335 72.276C55.8616 71.9111 58.423 71.0548 60.2008 69.2591ZM67.7563 71.9919C67.8751 71.9762 68.0137 71.9373 68.051 71.8259C68.0824 71.7323 68.025 71.6344 67.9693 71.5524C67.0287 70.168 65.8702 68.9403 64.7172 67.7193C64.5413 67.5331 64.3578 67.3415 64.1189 67.2431C63.8715 67.1413 63.5928 67.151 63.3252 67.1706C62.2314 67.2508 61.1482 67.469 60.1109 67.8181C60.0262 67.8466 59.9278 67.8924 59.9182 67.9795C59.9107 68.0473 59.9626 68.1061 60.0114 68.1547C61.1012 69.2385 62.4645 70.0129 63.8099 70.7738C65.0273 71.4624 66.3626 72.1757 67.7563 71.9919ZM36.7451 78.9539C36.6435 78.8769 36.5353 78.7972 36.4079 78.781C36.3044 78.7679 36.201 78.7985 36.1014 78.8288C35.8709 78.8988 35.6404 78.9687 35.41 79.0387C35.1841 79.1073 34.902 79.3105 35.0323 79.5036C35.4387 80.1056 35.6037 80.8593 35.4849 81.5714C35.4464 81.8025 35.7861 81.8851 36.0248 81.8686C37.2586 81.7834 38.4924 81.6982 39.7262 81.613C39.8549 81.6041 40.0286 81.5403 39.9985 81.4175C38.9141 80.5963 37.8296 79.7751 36.7451 78.9539ZM57.8864 62.6303C57.7996 62.8521 58.0307 63.093 58.2721 63.1174C58.5136 63.1419 58.7432 63.0226 58.9553 62.9072C59.7199 62.4909 60.5443 62.0075 60.8331 61.1995C60.9272 60.9362 60.9563 60.6556 60.9846 60.3781C61.0333 59.9019 61.082 59.4257 61.1307 58.9495C61.1415 58.8437 61.1503 58.7292 61.0931 58.6389C61.0359 58.5486 60.884 58.512 60.8206 58.5982C60.5641 58.9467 60.1876 59.2091 59.7671 59.3323C59.5851 59.3856 59.3896 59.4162 59.2363 59.5259C59.0537 59.6564 58.9641 59.8746 58.8833 60.0812C58.551 60.9309 58.2187 61.7806 57.8864 62.6303ZM50.2839 77.891C49.9509 77.2832 49.0331 77.079 48.4641 77.4861C49.1977 78.0469 49.6114 78.9121 50.2341 79.5892C50.4484 79.8223 50.727 80.0476 51.0467 80.0271C51.3665 80.0065 51.6307 79.5885 51.4042 79.3668C50.9597 78.9319 50.581 78.4329 50.2839 77.891ZM33.9734 79.5486C33.4783 80.0216 33.647 80.8225 33.8513 81.4694C33.9202 81.6875 34.1398 81.9588 34.3221 81.8162C34.384 81.7678 34.4061 81.6867 34.4247 81.6114C34.516 81.2397 34.608 80.8593 34.5672 80.4792C34.5264 80.0991 34.3263 79.7127 33.9734 79.5486Z" fill="#00160A"/>
<path fill-rule="evenodd" clip-rule="evenodd" d="M88.7383 96.953C87.7027 95.943 87.2122 94.5308 86.7545 93.1722C85.5555 94.8708 84.0002 96.0766 82.1619 95.063C80.3237 94.0494 77.9615 91.1285 76.6415 89.518C74.2783 86.6343 71.4708 84.0997 68.3433 82.0262C70.0136 83.8188 71.0125 86.1975 71.1126 88.6211C72.3796 88.6082 73.6466 88.5953 74.9136 88.5824C70.6539 90.0024 66.0905 90.5436 61.6073 90.1603C64.0434 88.1563 65.9483 85.5397 67.0877 82.6324C66.8335 81.8457 65.6252 82.0279 64.9196 82.4798C64.214 82.9316 63.3011 83.5052 62.6214 83.0168C61.7847 82.4156 61.8423 80.5321 60.8488 80.8266C58.2693 81.5913 55.2113 80.0723 54.3202 77.5839C53.7118 77.9559 53.1033 78.3279 52.4949 78.7C52.202 77.7781 53.5585 77.0658 54.4727 77.4293C55.3869 77.7929 55.9226 78.6975 56.5566 79.4374C57.1905 80.1773 58.2077 80.8305 59.1125 80.4449C60.7984 79.7265 63.0161 81.024 63.1666 82.8169C64.474 81.7905 66.2673 81.3836 67.9031 81.7422C66.8596 80.2635 65.695 78.8665 64.4243 77.569C65.3904 76.3096 66.585 75.2185 67.9355 74.3619C67.2726 75.5877 66.3539 76.6804 65.2522 77.5531C70.9025 82.9723 76.5528 88.3915 82.2031 93.8106C82.5588 94.1518 82.9666 94.5152 83.4647 94.522C84.0104 94.5294 84.4505 94.1088 84.8226 93.7182C87.4745 90.9343 90.1264 88.1504 92.7783 85.3664C93.4692 84.6411 94.1961 83.8414 94.2998 82.8552C94.4301 81.6166 93.5461 80.5183 92.7022 79.5863C89.3065 75.8362 85.6937 72.2743 81.8867 68.9235C80.2169 67.4538 78.0156 65.9255 75.915 66.7038C73.3804 67.6428 72.7772 71.3743 70.1737 72.1114C70.9522 71.0647 71.7306 70.018 72.509 68.9713C70.9656 67.8791 69.0351 65.4415 68.9347 63.5807C70.1737 62.4765 71.7011 61.6405 72.968 60.9995C71.7011 58.0813 71.8516 57.4745 73.5459 57.0761C75.2402 56.6776 76.708 56.2826 78.2651 55.7732C82.5821 54.3608 84.6425 47.6641 81.0189 44.8825C79.0254 43.3522 64.0851 28.3315 57.6702 22.7934C58.1561 24.913 55.3017 26.9116 53.4074 25.778C53.7708 26.9998 52.8972 28.4785 51.6069 28.6397C50.3166 28.8009 49.0578 27.4012 49.5095 26.2079C49.8983 25.1807 51.1421 24.7558 51.8643 23.9189C52.5866 23.0819 51.9566 21.2425 50.975 21.7693C50.4566 23.8106 47.4051 24.6802 45.8471 23.2307C45.2987 22.7205 44.5803 22.595 43.8456 22.7156C42.9456 22.8633 41.3889 23.2051 40.7232 23.8364C39.6802 24.8253 39.4449 26.2701 38.2032 26.9414C38.0052 27.0484 37.7978 27.1402 37.5787 27.2133C35.9847 27.7447 33.7528 26.2015 34.5804 24.7668C30.0449 28.8578 26.9314 34.4312 25.861 40.3747C28.2283 41.035 28.6778 44.0762 28.6711 46.4843C26.0005 47.1472 28.5128 52.1339 26.2031 53.6034C23.5702 55.2785 24.3022 59.1739 25.3448 62.0721C22.6759 56.4532 22.3548 49.807 24.47 43.9668C24.261 47.672 24.0519 51.3771 23.8429 55.0822C25.6337 54.8259 26.3571 52.6909 26.5051 50.9263C26.6532 49.1617 26.7659 47.0854 28.2824 46.1191C27.7163 44.7072 27.484 43.1685 27.6088 41.6568C26.9497 41.4487 26.2906 41.2405 25.6315 41.0324C25.2356 43.7604 22.1382 45.1023 19.5841 46.2638C16.8267 47.5178 14.2326 49.1148 11.884 51.0042C9.3649 53.0308 6.96597 55.8169 7.24497 58.9958C7.51322 62.0524 10.2057 64.3896 13.0323 65.7181C10.0054 65.7116 7.40741 63.0774 6.91948 60.155C6.43155 57.2326 7.73318 54.2263 9.7682 52.0343C11.8032 49.8422 14.5017 48.3521 17.2381 47.0862C20.8215 45.4285 25.1679 43.2783 25.3017 39.4028C25.4131 36.1722 29.0352 33.0059 27.3001 30.255C24.8628 26.391 23.5033 21.8834 23.4061 17.344C23.3582 15.1045 23.776 12.5694 25.6526 11.2859C26.5869 10.6469 27.7493 10.4238 28.8818 10.2966C33.0819 9.82474 37.4088 10.4831 41.264 12.1806C43.5393 13.1824 46.024 14.571 48.3654 13.7273C53.8245 11.7602 59.6314 10.7206 65.4488 10.6689C66.2244 10.662 66.868 10.105 67.408 9.56039C69.5327 7.41745 71.3058 4.93779 73.618 2.98946C75.9303 1.04114 79.0062 -0.361502 81.9951 0.241477C85.124 0.872721 87.4598 3.59854 88.482 6.5596C89.5041 9.52067 89.4461 12.7196 89.3771 15.8442C89.2536 21.44 96.4281 24.4873 98.2798 29.7831C99.3715 32.9055 102.973 34.3524 106.213 35.2736C109.452 36.1948 113.08 37.2154 114.75 40.083C116.305 42.7538 115.536 46.2527 113.7 48.7471C111.864 51.2416 109.146 52.9509 106.495 54.5998C102.202 57.2697 103.407 64.0982 99.9519 67.7507C98.2101 69.592 98.8046 72.53 99.7086 74.8777C100.613 77.2255 101.724 79.8369 100.7 82.1368C100.14 78.4519 99.1578 74.8287 97.7766 71.3571C95.8507 72.7268 96.8259 75.6741 97.974 77.7148C99.421 80.2864 100.868 82.8581 102.315 85.4297C102.917 86.4993 103.539 87.6778 103.322 88.8801C103.075 90.2549 101.822 91.2061 100.662 92.0192C98.0142 93.8757 95.366 95.7322 92.7178 97.5887C91.5292 98.422 89.7738 97.9631 88.7383 96.953ZM94.3902 73.2506C94.1579 72.995 93.7329 73.1197 93.4155 73.2631C93.0974 73.4069 92.7792 73.5506 92.4611 73.6943C92.3915 73.7258 92.3145 73.758 92.2404 73.7383C92.1008 73.7012 92.0773 73.4989 92.165 73.3864C92.2527 73.2738 92.4013 73.2286 92.5388 73.1849C92.8319 73.0919 93.118 72.9776 93.3938 72.8432C93.5515 72.7664 93.7209 72.665 93.7638 72.4978C93.8066 72.3306 93.6105 72.1275 93.4654 72.2253C93.0385 72.5132 92.5581 72.725 92.0549 72.8474C91.904 72.8841 91.6687 72.8379 91.7042 72.6898C91.7178 72.633 91.7718 72.5958 91.8222 72.5647C92.2712 72.2885 92.7612 72.0763 93.2719 71.9367C93.4559 71.8864 93.4102 71.5836 93.2349 71.5093C93.0596 71.435 92.8593 71.5102 92.6842 71.5849C92.2609 71.7655 91.8375 71.946 91.4141 72.1266C91.3231 72.1654 91.2213 72.2161 91.1969 72.3103C91.1751 72.3946 91.2251 72.4791 91.2729 72.5524C91.5807 73.0238 91.8885 73.4952 92.1962 73.9666C92.2431 74.0384 92.2964 74.1152 92.3792 74.1415C92.4692 74.1701 92.5654 74.1304 92.6511 74.0913C93.2371 73.8237 93.817 73.5434 94.3902 73.2506ZM65.4627 21.9756C64.4661 21.9922 63.7176 20.8838 63.9031 19.9258C64.0886 18.9677 64.969 18.2508 65.9225 17.9668C67.2182 17.5808 68.7653 17.8066 69.7981 16.9494C70.262 16.5643 70.5452 16.0112 70.9677 15.5829C71.8886 14.6494 73.4907 14.4519 74.6196 15.1327C74.8731 14.4821 74.1231 13.8529 73.4212 13.7371C72.7193 13.6212 71.9625 13.7596 71.316 13.4684C70.1802 12.9568 68.8427 13.614 67.9337 14.4539C67.0246 15.2938 66.2793 16.3519 65.1589 16.895C64.0386 17.4381 62.3434 17.1352 62.0353 15.9497C61.9393 15.5803 61.9274 15.0908 61.5592 14.9663C60.9783 14.7698 60.6762 14.1064 60.7107 13.5062C60.7451 12.9059 61.0393 12.3533 61.3272 11.8221C60.1889 11.766 59.0459 11.8006 57.9134 11.9254C57.6417 11.9553 57.2963 12.0675 57.2969 12.3349C57.2981 12.8877 56.7736 13.2842 56.3022 13.589C55.3046 14.2341 54.3069 14.8792 53.3092 15.5243C53.3406 16.1686 54.3117 16.3227 54.8805 15.9964C55.4493 15.6701 55.85 15.0868 56.4632 14.8496C56.7907 14.7229 57.1504 14.7074 57.5023 14.6934C58.1033 14.6695 58.7044 14.6455 59.3054 14.6216C60.0756 14.591 61.1146 14.7823 61.1554 15.5353C61.1888 16.1528 60.4879 16.5137 60.0391 16.9493C59.0177 17.9408 59.0214 19.86 57.6809 20.3718C57.2046 20.5537 57.0765 21.1992 57.2855 21.6557C57.4944 22.1123 57.9302 22.4226 58.3424 22.7185C65.5383 27.8837 78.0739 41.2 78.3482 41.2356C78.6225 41.2712 78.9442 41.0786 78.9289 40.8084C78.8892 40.1096 78.8507 39.3981 79.0255 38.7195C79.2002 38.0409 79.6243 37.3876 80.2782 37.1039C80.8809 36.8423 81.7578 36.7832 81.8883 36.1509C82.1803 34.7366 83.6276 33.6429 85.1003 33.7238C85.8238 33.7635 86.6221 34.0336 87.2243 33.6392C86.7387 33.1886 86.0211 33.0956 85.419 32.8096C84.8169 32.5235 84.2874 31.7993 84.6471 31.2471C85.1783 30.4316 84.4045 29.3653 84.5636 28.4109C84.6311 28.0059 84.8649 27.6473 85.1122 27.3158C85.9504 26.1919 87.0091 25.2261 88.2136 24.4865C88.4936 24.3145 88.5638 23.9525 88.6079 23.6319C88.7143 22.858 88.8208 22.084 88.9273 21.3101C89.0016 20.7701 89.0519 20.1505 88.6732 19.7511C87.4405 18.4512 85.3884 18.4087 83.577 18.4665C81.7655 18.5243 79.7187 18.5015 78.4638 17.2222C78.0743 16.8252 77.363 16.9602 76.9406 17.3236C76.5181 17.6869 76.2846 18.2102 75.9702 18.6665C74.9879 20.092 73.0859 20.8475 71.3659 20.4955C70.4445 20.307 69.5157 19.8321 68.611 20.0864C67.4052 20.4255 66.7172 21.9546 65.4627 21.9756ZM100.082 57.0602C100.137 57.2569 100.218 57.4815 100.416 57.5477C100.574 57.6008 100.744 57.5283 100.895 57.4573C101.396 57.2215 101.896 56.9858 102.396 56.75C102.653 56.629 102.942 56.4684 102.988 56.1931C103.914 50.6105 103.646 44.8408 102.205 39.3636C101.864 38.0683 101.457 36.7867 100.916 35.5586C100.224 33.9899 99.3174 32.5215 98.3868 31.0758C97.0473 28.9947 95.6515 26.9484 94.2013 24.9396C93.9323 25.3501 93.8521 25.8473 93.7153 26.3162C93.5785 26.7851 93.349 27.2711 92.9087 27.4997C92.4685 27.7283 91.7922 27.5343 91.7141 27.0527C91.5454 26.0116 90.4033 25.2244 89.3443 25.4192C89.1165 25.4611 89.0413 25.7382 89.0129 25.9632C88.7551 28.0082 88.4974 30.0533 88.2396 32.0984C88.2209 32.2471 88.2131 32.424 88.3326 32.5176C88.4321 32.5956 88.5741 32.5782 88.7015 32.5763C89.4223 32.5657 90.0509 33.3022 89.9116 33.9941C89.7724 34.6859 88.9053 35.1343 88.2425 34.8573C87.9564 34.7377 87.7323 35.1171 87.6606 35.4133C87.2277 37.201 86.7947 38.9888 86.3618 40.7766C86.2341 41.3038 86.6995 41.8015 87.2002 42.0332C87.7009 42.265 88.2731 42.3488 88.7325 42.6515C89.8834 43.4097 89.8338 45.134 90.7644 46.1408C91.5224 46.9609 92.9253 47.1101 93.8457 46.4685C94.6693 45.8944 95.0273 44.846 95.0277 43.8567C95.028 43.1821 95.4564 42.5252 96.0816 42.2406C96.7067 41.956 97.4963 42.0584 98.024 42.4926C98.5381 42.9155 98.771 43.5728 98.9816 44.1967C99.0744 44.4719 99.1674 44.7721 99.0677 45.045C98.9047 45.4912 98.3441 45.6234 97.8857 45.7766C97.0439 46.058 96.306 46.6279 95.8308 47.3636C95.5989 47.7228 95.4417 48.2263 95.7288 48.545C96.4303 49.3236 97.1318 50.1023 97.8334 50.881C98.2002 51.2882 98.5781 51.7148 98.7253 52.2381C99.1776 53.8455 99.6299 55.4529 100.082 57.0602ZM28.6213 31.4626C29.7207 29.4554 30.8308 27.4324 32.3243 25.6857C33.6322 24.156 35.2075 22.8698 36.7806 21.6013C38.8531 19.9301 40.9382 18.274 43.0357 16.6329C43.9088 15.9499 44.7955 15.2625 45.8133 14.8101C42.7617 13.4946 39.6906 12.1726 36.4508 11.3999C33.211 10.6271 29.7601 10.4257 26.5633 11.3542C26.2553 11.4437 25.9459 11.5454 25.6801 11.7219C25.2311 12.0198 24.9475 12.5025 24.7348 12.9908C23.8987 14.9097 23.9456 17.0838 24.2176 19.1527C24.7886 23.496 26.2992 27.7189 28.6213 31.4626ZM97.5224 91.031C97.4937 91.3226 97.1722 91.5967 96.9023 91.47C96.7748 91.4102 96.6972 91.2833 96.6269 91.1632C95.5506 89.325 94.4742 87.4867 93.3979 85.6484C92.7034 85.904 92.3696 86.7232 92.4477 87.4451C92.5257 88.167 92.9191 88.8143 93.3032 89.4355C93.8907 90.3855 94.4782 91.3355 95.0657 92.2855C94.7568 92.5966 94.2595 92.183 94.0308 91.8115C93.2155 90.4875 92.4002 89.1635 91.5849 87.8394C90.0278 89.4062 88.4707 90.973 86.9137 92.5397C87.9277 94.0903 88.9417 95.6409 89.9558 97.1915C90.1947 97.5569 90.7064 97.6736 91.1398 97.5818C91.5732 97.4899 91.9478 97.2327 92.3091 96.9813C95.0267 95.0905 97.7443 93.1997 100.462 91.3089C100.668 91.1652 100.89 91.0012 100.95 90.7603C101.014 90.5085 100.882 90.2531 100.754 90.0258C94.6069 79.0857 88.0459 68.368 81.0893 57.902C80.8846 57.5939 80.6256 57.2536 80.2508 57.2293C80.0009 57.213 79.7693 57.3461 79.556 57.4745C76.797 59.1355 74.0379 60.7964 71.2789 62.4574C70.7681 62.7649 70.2572 63.0724 69.7464 63.3799C69.6134 63.46 69.4702 63.5526 69.4257 63.699C69.3731 63.872 69.4775 64.0497 69.5782 64.201C70.5832 65.7115 71.6441 67.1863 72.7583 68.6215C74.0749 67.2353 75.6415 65.7422 77.5752 65.7891C79.2447 65.8297 80.6221 67.0176 81.8382 68.1374C82.5495 68.7924 83.2608 69.4474 83.9722 70.1024C82.8479 68.0421 81.5187 66.0888 80.0093 64.2793C79.9442 63.9746 80.4927 64.0579 80.7041 64.2905C82.8104 66.6082 83.9698 69.6543 86.1878 71.87C88.4544 74.1343 90.7209 76.3986 92.9875 78.6629C93.9502 79.6246 94.9718 80.7112 95.0478 82.0552C95.1171 83.2827 94.3732 84.3992 93.6253 85.3871C94.9438 86.9096 96.1497 88.5253 97.2306 90.2175C97.3893 90.4659 97.5512 90.7395 97.5224 91.031ZM73.5181 12.0747C74.4725 12.2598 75.4282 12.4451 76.3646 12.7038C78.7765 13.37 81.0189 14.51 83.2418 15.6424C85.1818 16.6306 87.1325 17.6255 88.8737 18.9204C89.063 14.2912 88.8755 9.69483 87.3009 5.32553C86.8469 4.06556 85.7503 2.70689 84.6836 1.87279C83.431 0.893437 81.6922 0.721092 80.1049 0.943229C77.3321 1.33127 74.8065 2.78401 72.7264 4.61916C70.6464 6.45431 68.9597 8.66848 67.2876 10.8668C69.3644 11.2695 71.4413 11.6721 73.5181 12.0747ZM101.373 34.5439C104.052 41.2305 104.927 48.6 103.886 55.7093C107.286 53.8032 110.325 51.2829 112.803 48.3136C114.038 46.8339 115.183 45.0924 115.103 43.1837C115.036 41.6152 114.124 40.1672 112.92 39.1297C111.715 38.0922 110.236 37.4139 108.75 36.8225C106.358 35.8714 103.889 35.1086 101.373 34.5439ZM96.119 45.9766C96.7486 45.5248 97.4222 45.1317 98.1279 44.8047C98.126 44.3642 98.1212 43.9093 97.9405 43.5059C97.7598 43.1025 97.3543 42.761 96.9051 42.7913C96.433 42.8231 96.0767 43.245 95.9269 43.6841C95.777 44.1233 95.7744 44.5969 95.6707 45.0486C95.3839 46.298 94.2521 47.3178 92.9558 47.495C91.6595 47.6721 90.2853 46.9947 89.6596 45.87C89.1553 44.9637 89.0797 43.7908 88.2762 43.1221C87.8311 42.7517 87.2388 42.6095 86.6699 42.4787C86.5378 42.4483 86.3973 42.4182 86.269 42.4611C86.0626 42.5302 85.9657 42.7557 85.893 42.9569C85.406 44.3041 84.9189 45.6513 84.4318 46.9985C84.2516 47.4968 84.1035 48.1339 84.5061 48.4864C88.2242 51.7415 89.7376 56.9189 93.5189 60.1036C93.6309 60.1979 93.7689 60.2964 93.9127 60.263C95.7165 59.8442 97.4652 59.199 99.1025 58.3483C99.2328 58.2806 99.3687 58.2058 99.4435 58.0813C99.5193 57.9551 99.5189 57.7999 99.5111 57.6537C99.4572 56.647 99.1513 55.6542 98.6276 54.7861C98.3798 54.3756 98.076 53.9702 98.0287 53.4957C97.9883 53.0906 98.1423 52.6751 98.0439 52.2796C97.9636 51.9566 97.727 51.6961 97.4985 51.4501C96.8529 50.7549 96.2072 50.0597 95.5615 49.3645C95.2422 49.0206 94.9104 48.6538 94.8126 48.1992C94.6218 47.3134 95.3729 46.5121 96.119 45.9766ZM55.6512 25.509C56.4128 25.0607 56.8744 24.1666 56.7911 23.3008C56.6696 22.0375 55.5574 21.1169 54.5307 20.3413C52.8486 19.0707 49.002 15.9832 47.3107 15.3196C45.6195 14.656 38.1369 21.1854 35.5368 23.6889C35.4054 23.8154 35.2685 23.9532 35.2319 24.1299C35.1953 24.3065 34.4007 26.2076 36.0005 26.6696C37.6003 27.1317 37.7718 26.7756 38.4254 26.2076C39.079 25.6395 39.4595 24.8336 39.7665 24.0328C40.0288 23.3489 40.8218 23.0216 41.5535 22.8758C42.2851 22.73 43.0735 22.6757 43.6787 22.2479C44.309 21.8023 45.1892 21.8282 45.9076 22.1195C46.626 22.4108 47.2192 22.929 47.7974 23.4378C48.2804 23.8628 49.0613 23.3876 49.359 22.8227C49.6568 22.2577 49.7818 21.5608 50.3026 21.1808C51.0472 20.6374 52.1899 21.1237 52.6484 21.9141C53.3004 23.0381 52.8395 24.643 51.6844 25.2702C51.0151 25.6337 50.0356 25.8773 50.0089 26.6257C49.9956 26.9979 50.2612 27.3252 50.5571 27.5594C51.0879 27.9795 51.9524 28.1788 52.4046 27.6784C53.0491 26.9653 52.3294 25.4583 53.222 25.0795C54.0104 24.7449 54.9148 25.9424 55.6512 25.509ZM76.0058 17.5312C76.2728 17.126 76.5405 16.682 76.9858 16.4755C77.5551 16.2115 78.2387 16.4212 78.7787 16.7386C79.3186 17.056 79.8008 17.4807 80.3931 17.6906C80.996 17.9043 81.6565 17.8754 82.2969 17.8438C83.3619 17.7912 84.427 17.7387 85.492 17.6861C79.0541 14.037 71.8126 11.4779 64.3725 11.406C63.7453 11.3999 63.1037 11.4139 62.5153 11.6261C61.9268 11.8384 61.3923 12.2851 61.2415 12.8807C61.0117 13.7876 61.8551 14.757 62.8098 14.7859C62.3111 15.1431 62.388 15.9725 62.863 16.3592C63.3381 16.7459 64.049 16.7429 64.6194 16.5101C65.1897 16.2772 65.6518 15.8526 66.1004 15.4367C66.9353 14.6628 67.7702 13.8888 68.6051 13.1149C69.1298 12.6284 69.9469 12.6078 70.6561 12.7451C71.3653 12.8824 72.0594 13.1481 72.7822 13.1309C74.2997 13.0948 75.6438 14.6189 75.385 16.0821C74.7039 15.4538 73.7131 15.1625 72.7908 15.3196C71.8685 15.4766 71.0366 16.0782 70.6126 16.8948C70.2688 17.5567 69.5015 17.9066 68.7554 18.0428C68.0093 18.179 67.2385 18.1505 66.4952 18.3007C65.7519 18.451 64.9941 18.8337 64.69 19.514C64.386 20.1944 64.7832 21.1646 65.539 21.2332C66.4193 21.3131 66.9332 20.3019 67.6737 19.8294C68.3784 19.3798 69.2982 19.4386 70.1204 19.6134C70.9425 19.7882 71.7645 20.0639 72.6028 19.9929C74.0595 19.8697 75.2136 18.7334 76.0058 17.5312ZM99.5819 58.9988C97.895 59.6351 96.2081 60.2713 94.5212 60.9076C94.2865 60.9962 94.0009 61.2223 94.1419 61.426C95.751 63.7492 96.9896 66.3173 97.7992 69.0094C97.8781 69.2715 98.2846 69.0754 98.4435 68.8507C99.9188 66.7641 101.095 64.4753 101.927 62.0723C102.078 61.6374 102.218 61.1675 102.089 60.726C101.886 60.0323 101.124 59.6825 100.562 59.2148C100.407 59.0856 100.25 58.9361 100.048 58.9074C99.8896 58.8848 99.7316 58.9423 99.5819 58.9988ZM80.1216 38.364C79.3467 39.169 79.9977 40.5325 79.5996 41.5673C79.5113 41.7967 79.3688 42.0387 79.4501 42.2706C79.4906 42.386 79.5815 42.4767 79.6697 42.5631C79.9452 42.8332 80.2207 43.1033 80.4963 43.3734C80.7125 43.5853 81.0635 43.805 81.2889 43.6023C82.2156 42.7685 83.3382 42.1444 84.5447 41.7922C84.8922 41.6908 85.2681 41.5991 85.5106 41.3354C85.7245 41.1029 85.7935 40.7794 85.8543 40.4723C86.195 38.753 86.5333 37.0333 86.8693 35.3131C86.8955 35.1789 86.9208 35.0349 86.8649 34.9097C86.8056 34.7769 86.6684 34.6955 86.5347 34.6332C85.1776 34.0008 83.3524 34.6488 82.7258 35.9855C82.5132 36.4393 82.415 36.9646 82.0578 37.321C81.5374 37.8405 80.6314 37.8345 80.1216 38.364ZM53.0616 16.3716C52.7993 16.1386 52.5279 15.8462 52.5537 15.5006C52.5813 15.1321 52.9302 14.878 53.2462 14.6758C54.3661 13.9592 55.486 13.2427 56.6058 12.5262C56.5786 12.3134 56.2737 12.2909 56.058 12.3293C53.1582 12.8451 50.3172 13.6766 47.6043 14.8035C50.6298 16.628 53.5323 18.6476 56.2867 20.8449C56.6209 20.1026 57.4813 19.7372 57.9906 19.0971C58.634 18.2885 58.6822 17.0877 59.4735 16.4163C59.8618 16.0868 60.4385 15.8584 60.5163 15.3614C59.8369 15.366 59.1576 15.3707 58.4783 15.3753C57.652 15.381 56.7722 15.4019 56.0856 15.8517C55.4863 16.2443 55.0258 16.9583 54.3049 16.9785C53.8299 16.9918 53.4134 16.684 53.0616 16.3716ZM86.9287 60.5815C87.4559 61.5063 87.9832 62.4311 88.5105 63.3559C87.5446 60.3495 86.3928 57.4003 85.0634 54.5297C85.0162 54.4277 84.9621 54.3188 84.8609 54.2664C84.7362 54.2018 84.5842 54.2445 84.4504 54.2883C80.7052 55.5132 76.96 56.7382 73.2148 57.9632C73.101 58.0004 72.9777 58.0449 72.9166 58.1459C72.8432 58.2672 72.8872 58.4215 72.9362 58.554C73.1557 59.1465 73.4429 59.7149 73.7909 60.2452C76.1397 58.9082 78.4886 57.5712 80.8374 56.2343C81.199 56.0284 81.5796 55.817 81.9976 55.8015C82.3435 55.7887 82.6797 55.9128 82.9887 56.0653C84.8238 56.9707 85.9275 58.8256 86.9287 60.5815ZM69.9243 85.6003C69.4522 84.6138 68.6421 83.8063 67.7121 83.2075C66.57 85.283 65.2594 87.2698 63.7966 89.143C63.6847 89.2863 63.6435 89.5794 63.8274 89.5668C65.611 89.4441 67.3945 89.3214 69.178 89.1988C69.536 89.1741 69.9663 89.1005 70.0978 88.7739C70.5059 87.7605 70.3964 86.5867 69.9243 85.6003ZM96.8521 71.048C96.9965 70.8316 97.1435 70.6092 97.202 70.3572C97.2795 70.0238 97.194 69.6769 97.102 69.3471C96.3947 66.8112 95.2818 64.3907 93.8927 62.1406C93.731 61.8786 93.557 61.6102 93.2937 61.445C93.0304 61.2798 92.6518 61.2495 92.4221 61.4571C92.1153 61.7346 92.2318 62.2246 92.3715 62.6098C93.4788 65.6617 94.5862 68.7137 95.6935 71.7656C95.7595 71.9475 95.9098 72.1712 96.0938 72.1014C96.1654 72.0743 96.2119 72.0076 96.2539 71.9447C96.4533 71.6458 96.6527 71.3469 96.8521 71.048ZM85.7384 32.2311C86.059 32.4955 86.4844 32.5957 86.893 32.6878C87.2207 32.7617 87.4145 32.3436 87.4712 32.0194C87.85 29.8539 88.0934 27.6683 88.3364 25.4842C88.1506 25.407 87.9533 25.5556 87.8084 25.6931C87.2874 26.1876 86.7664 26.682 86.2454 27.1765C85.8828 27.5206 85.5036 27.8924 85.3886 28.3737C85.1697 29.2899 85.9679 30.3339 85.4633 31.1349C85.2434 31.4841 85.4179 31.9666 85.7384 32.2311ZM84.6038 49.5537C84.4788 49.4161 84.3437 49.2744 84.1646 49.2176C83.9856 49.1608 83.7521 49.2251 83.69 49.3989C83.1353 50.951 82.5807 52.5031 82.0261 54.0552C81.9734 54.2027 82.0088 54.4511 82.1619 54.4069C83.0974 54.1368 83.9604 53.6589 84.8998 53.4023C85.8392 53.1457 86.9377 53.1489 87.6882 53.7581C86.813 52.257 85.7774 50.8454 84.6038 49.5537ZM92.6162 26.8574C92.8975 26.1108 93.1789 25.3642 93.4602 24.6175C93.5148 24.4728 93.4067 24.3222 93.3054 24.204C92.3009 23.0335 91.288 21.8549 90.0719 20.8956C90.0201 20.8547 89.9613 20.8121 89.8949 20.8155C89.7685 20.8222 89.7181 20.9759 89.7002 21.0985C89.5488 22.1396 89.3973 23.1806 89.2459 24.2217C89.2018 24.5251 89.4875 24.7887 89.787 24.8785C90.0866 24.9682 90.409 24.9432 90.717 24.9993C91.2849 25.1027 91.7878 25.5003 92.0102 26.0219C92.1513 26.3528 92.2557 26.7928 92.6162 26.8574ZM83.6357 46.9675C84.1676 45.6369 84.6554 44.2894 85.0981 42.9279C85.1279 42.8362 85.1576 42.7367 85.126 42.6456C85.0416 42.4024 84.6736 42.4654 84.4389 42.5804C83.5167 43.0323 82.6298 43.5534 81.7886 44.1374C81.6842 44.2099 81.5701 44.3013 81.5661 44.4266C81.5631 44.5214 81.6255 44.6047 81.6851 44.6795C82.3099 45.4624 82.9606 46.2256 83.6357 46.9675ZM91.4377 68.8995C91.338 68.7932 91.1743 68.7767 91.0268 68.7791C90.6934 68.7845 90.3611 68.851 90.0523 68.9741C89.9004 69.0347 89.7493 69.11 89.5854 69.1182C89.4216 69.1264 89.2378 69.0429 89.1974 68.8873C89.6306 68.5843 90.1558 68.4091 90.688 68.3901C90.9247 68.3816 90.9315 67.9886 90.7237 67.8773C90.516 67.766 90.2599 67.8475 90.0388 67.9306C89.6734 68.0679 89.308 68.2053 88.9425 68.3426C88.8362 68.3826 88.7267 68.2568 88.7421 68.1463C88.7575 68.0359 88.8492 67.952 88.9397 67.8843C89.2684 67.6387 89.6607 67.4752 90.0695 67.4135C90.2643 67.3841 90.2957 67.0883 90.1534 66.9549C90.011 66.8215 89.792 66.8129 89.5951 66.8229C89.0227 66.8522 88.4552 66.9736 87.9225 67.1806C88.3767 67.978 88.8405 68.7702 89.3139 69.5569C89.4364 69.7605 89.5694 69.9734 89.7817 70.0862C90.1629 69.6151 90.7427 69.3027 91.3535 69.2395C91.5002 69.2243 91.5374 69.0058 91.4377 68.8995ZM99.2617 83.2852C98.9117 83.3726 98.5648 83.4723 98.2221 83.584C98.1282 83.6146 98.0198 83.6625 98.0039 83.758C97.9944 83.8148 98.0224 83.8705 98.0496 83.9216C98.2509 84.3001 98.4523 84.6786 98.6536 85.0571C98.7353 85.2107 98.8997 85.3909 99.0522 85.3032C99.5544 85.0143 100.115 84.8237 100.692 84.7456C100.851 84.7242 100.955 84.5576 100.959 84.4008C100.962 84.2441 100.891 84.096 100.822 83.9546C100.703 83.7122 100.573 83.4569 100.339 83.3156C100.024 83.1256 99.6198 83.1958 99.2617 83.2852ZM100.613 87.4451C100.476 87.4696 100.318 87.51 100.264 87.6356C100.22 87.738 100.266 87.854 100.312 87.9555C100.487 88.3432 100.662 88.7309 100.836 89.1185C100.891 89.2396 100.963 89.3755 101.095 89.4043C101.189 89.4248 101.284 89.3831 101.371 89.3424C101.64 89.2162 101.909 89.0901 102.179 88.9639C102.33 88.8929 102.491 88.8139 102.574 88.6711C102.657 88.5283 102.613 88.3047 102.451 88.2612C102.364 88.2379 102.273 88.2711 102.192 88.3094C101.951 88.424 101.734 88.5907 101.477 88.6638C101.219 88.737 100.892 88.6808 100.77 88.4474C101.404 88.2271 102.01 87.93 102.57 87.565C102.52 87.2226 102.029 87.1923 101.681 87.2544C101.325 87.318 100.969 87.3815 100.613 87.4451ZM95.4324 78.5444C95.5355 78.4347 95.685 78.381 95.8286 78.3311C96.2235 78.1938 96.6185 78.0564 97.0135 77.9191C97.2188 77.8477 97.1684 77.5139 96.9747 77.4162C96.781 77.3185 96.547 77.3795 96.3388 77.4422C95.8871 77.5783 95.4354 77.7144 94.9837 77.8505C94.9247 77.8683 94.8627 77.8879 94.8214 77.9327C94.727 78.0351 94.7905 78.1964 94.8576 78.3176C95.0366 78.6411 95.2156 78.9646 95.3945 79.2881C95.4155 79.3259 95.4389 79.3661 95.4787 79.3843C95.5267 79.4062 95.583 79.3895 95.6331 79.3725C96.1828 79.1867 96.7325 79.0008 97.2822 78.8149C97.4133 78.7706 97.5708 78.6893 97.5598 78.5541C97.5447 78.3695 97.2681 78.368 97.0877 78.4241C96.5222 78.5996 95.9568 78.7751 95.3914 78.9507C95.2916 78.8381 95.3293 78.6541 95.4324 78.5444ZM102.46 57.4423C101.973 57.7114 101.486 57.9805 101 58.2496C100.941 58.2819 100.88 58.3171 100.847 58.3749C100.763 58.5278 100.93 58.6938 101.078 58.7906C101.381 58.9891 101.684 59.1875 101.986 59.386C102.046 59.4251 102.11 59.4656 102.182 59.4662C102.345 59.4677 102.429 59.28 102.471 59.1259C102.605 58.6309 102.739 58.136 102.874 57.6411C102.891 57.579 102.907 57.5109 102.88 57.4524C102.814 57.3112 102.598 57.366 102.46 57.4423ZM96.0515 79.6528C95.9339 79.6824 95.8 79.7255 95.756 79.8362C95.7232 79.9185 95.753 80.0115 95.7913 80.0915C95.8898 80.2975 96.0458 80.4768 96.2379 80.6049C96.7486 80.4142 97.2593 80.2235 97.7699 80.0328C97.9894 79.9509 98.2492 79.8129 98.2399 79.5833C98.2332 79.419 98.0745 79.2915 97.9096 79.2598C97.7447 79.2282 97.5752 79.2694 97.4125 79.3103C96.9588 79.4245 96.5051 79.5387 96.0515 79.6528ZM88.6525 61.6818C88.831 62.023 89.2731 62.1219 89.6599 62.1832C90.2767 62.281 90.8936 62.3787 91.5104 62.4765C91.5212 62.1341 91.16 61.9063 90.8392 61.7688C90.2511 61.5168 89.6373 61.3222 89.0099 61.1888C88.9422 61.1744 88.8717 61.1608 88.8044 61.1766C88.6034 61.224 88.5583 61.5018 88.6525 61.6818ZM86.3657 61.4236C86.4139 61.4057 86.4629 61.3874 86.5045 61.3575C86.6886 61.2252 86.6326 60.9143 86.4447 60.7871C86.2569 60.6598 86.0027 60.6769 85.7847 60.7439C85.5668 60.8109 85.3635 60.9219 85.1406 60.9711C84.8396 61.0377 84.4458 61.0346 84.3305 61.3146C84.232 61.5537 84.4578 61.8246 84.7152 61.88C84.9726 61.9354 85.2364 61.8425 85.4828 61.7511C85.7771 61.6419 86.0714 61.5328 86.3657 61.4236ZM87.5498 63.5807C87.7984 63.422 87.6834 63.0042 87.4191 62.8721C87.1548 62.74 86.8371 62.8018 86.5477 62.8665C86.2425 62.9348 85.9167 63.0147 85.7088 63.2437C85.501 63.4728 85.5011 63.9019 85.7848 64.0315C86.1702 64.2077 86.5317 63.7102 86.9525 63.6486C87.1535 63.6192 87.3796 63.6893 87.5498 63.5807ZM96.2762 76.9669C96.3596 76.9396 96.4478 76.9089 96.5014 76.8408C96.5612 76.765 96.5634 76.6569 96.5295 76.567C96.4503 76.3567 96.2026 76.2448 95.9735 76.2488C95.7445 76.2529 95.5287 76.3482 95.3205 76.4417C95.0554 76.5607 94.7904 76.6797 94.5253 76.7987C94.3796 76.8641 94.2148 76.9531 94.1907 77.1082C94.1662 77.2658 94.3142 77.4091 94.4736 77.4424C94.633 77.4757 94.7973 77.429 94.9532 77.382C95.3958 77.2487 95.8369 77.1103 96.2762 76.9669ZM97.4707 82.4576C98.0415 82.2228 98.6124 81.988 99.1833 81.7532C99.2372 81.731 99.293 81.7076 99.3323 81.6651C99.4483 81.5395 99.3424 81.3205 99.1808 81.2601C99.0193 81.1998 98.8388 81.2465 98.6727 81.2935C98.2869 81.4028 97.9011 81.5121 97.5153 81.6214C97.3019 81.6819 97.0631 81.7632 96.9732 81.962C96.8504 82.2337 97.1907 82.5728 97.4707 82.4576ZM101.324 85.7133C101.552 85.6272 101.469 85.2513 101.243 85.1612C101.016 85.0711 100.762 85.1637 100.533 85.2463C100.083 85.4082 99.6198 85.5336 99.1491 85.6206C98.985 85.8366 99.185 86.1677 99.4497 86.2411C99.7145 86.3145 99.9937 86.2161 100.25 86.1191C100.608 85.9839 100.966 85.8486 101.324 85.7133ZM89.171 60.6863C89.6311 60.8043 90.0911 60.9222 90.5511 61.0401C90.7262 61.085 90.9961 61.0599 90.9832 60.8833C90.1889 60.3459 89.2748 59.9789 88.3236 59.8153C88.2732 59.8066 88.22 59.7987 88.1719 59.8158C88.0069 59.8745 88.0698 60.1245 88.1941 60.2458C88.4511 60.4967 88.8198 60.5963 89.171 60.6863ZM90.9091 58.9479C91.0718 59.3306 91.2345 59.7133 91.3972 60.096C91.4951 60.3264 91.6053 60.5713 91.8214 60.7039C92.0375 60.8365 92.3893 60.7803 92.4601 60.5406C92.514 60.3578 92.3878 60.1752 92.2678 60.0256C91.8097 59.4542 91.338 58.8934 90.8532 58.3436C90.7458 58.5255 90.8267 58.754 90.9091 58.9479ZM90.1213 59.667C90.2076 59.6962 90.3127 59.7223 90.3825 59.6647C90.4641 59.5972 90.4347 59.4667 90.3792 59.3773C90.1777 59.0526 89.7696 58.9241 89.3961 58.8203C88.894 58.6807 88.3918 58.5412 87.8896 58.4016C87.7336 58.3583 87.6161 58.581 87.6891 58.7227C87.7622 58.8644 87.9302 58.9281 88.0835 58.9799C88.7628 59.2089 89.442 59.438 90.1213 59.667ZM96.8359 80.7655C96.6947 80.8073 96.5413 80.858 96.4641 80.981C96.3268 81.1996 96.5274 81.4848 96.7634 81.597C97.2959 81.1731 97.9745 80.9281 98.6609 80.9119C98.8945 80.9064 98.9149 80.5233 98.7168 80.4021C98.5187 80.2808 98.2618 80.3434 98.0381 80.4096C97.6374 80.5282 97.2366 80.6469 96.8359 80.7655ZM94.6054 74.7845C94.2816 74.8683 93.9577 74.9521 93.6339 75.0358C93.337 75.1126 92.9648 75.3027 93.0361 75.5949C93.0967 75.8437 93.452 75.9002 93.6905 75.7954C93.929 75.6907 94.1108 75.4875 94.3483 75.3803C94.7363 75.2052 95.2826 75.2691 95.5002 74.9093C95.3148 74.6518 94.9166 74.704 94.6054 74.7845ZM82.4702 58.0344C82.4079 58.0607 82.3439 58.0906 82.3029 58.1434C82.1971 58.2795 82.3125 58.4912 82.4763 58.5509C82.64 58.6107 82.8219 58.5678 82.9919 58.528C83.5632 58.3941 84.1446 58.3015 84.7297 58.251C84.7866 57.9369 84.367 57.7609 84.0412 57.7483C83.5045 57.7275 82.9633 57.826 82.4702 58.0344ZM91.9387 70.2115C92.1066 70.0376 92.0116 69.65 91.7717 69.6959C91.1355 69.8174 90.5222 70.0528 89.9712 70.3869C89.8424 70.6433 90.1987 70.9095 90.4873 70.8649C90.7758 70.8204 91.0076 70.6133 91.2779 70.505C91.5042 70.4144 91.7709 70.3854 91.9387 70.2115ZM92.2872 64.5876C92.2119 64.4945 92.0913 64.4503 91.9769 64.4103C91.4209 64.2158 90.8648 64.0213 90.3088 63.8268C90.1566 63.7735 89.9862 63.7206 89.8382 63.7841C89.6901 63.8475 89.6311 64.0875 89.776 64.1575C90.4884 64.502 91.2457 64.7576 92.0237 64.916C92.1046 64.9325 92.1951 64.9464 92.2648 64.903C92.3673 64.8391 92.3626 64.6808 92.2872 64.5876ZM89.6693 58.188C89.7486 58.2339 89.8529 58.147 89.8549 58.0568C89.857 57.9667 89.795 57.8883 89.7327 57.8218C89.1353 57.1843 88.2588 56.8865 87.4203 56.6123C87.2077 56.5428 86.8965 56.5192 86.8345 56.73C87.8039 57.1687 88.7504 57.6555 89.6693 58.188ZM102.036 86.4708C101.986 86.2999 101.802 86.1935 101.621 86.1757C101.44 86.1579 101.261 86.2105 101.087 86.2625C100.784 86.3532 100.48 86.4439 100.177 86.5346C99.9675 86.5973 99.7127 86.7206 99.7303 86.9343C99.7446 87.1082 99.9518 87.2123 100.129 87.1956C100.307 87.179 100.463 87.0808 100.624 87.0055C100.975 86.8411 101.376 86.7796 101.761 86.8309C101.941 86.8549 102.087 86.6417 102.036 86.4708ZM83.0119 59.3345C83.0094 59.4951 83.1377 59.6483 83.2992 59.6774C83.4036 59.6962 83.5102 59.6681 83.6125 59.6402C84.2029 59.4792 84.7934 59.3182 85.3839 59.1572C85.3932 58.9949 85.2498 58.8546 85.0907 58.8075C84.9316 58.7605 84.7608 58.7846 84.5964 58.809C84.1676 58.8729 83.7388 58.9367 83.3099 59.0005C83.1476 59.0247 83.0145 59.1739 83.0119 59.3345ZM92.7649 70.8885C92.7884 70.7376 92.6368 70.6045 92.482 70.5855C92.3272 70.5665 92.1753 70.6283 92.0321 70.6888C91.5764 70.8812 91.1207 71.0737 90.6651 71.2662C90.5295 71.4345 90.6964 71.7014 90.91 71.7487C91.1236 71.796 91.3402 71.7005 91.5375 71.6075C91.8488 71.4606 92.1601 71.3138 92.4714 71.167C92.5994 71.1066 92.7435 71.026 92.7649 70.8885ZM86.2481 55.4532C86.3006 55.5448 86.405 55.5933 86.5029 55.6363C87.3149 55.9921 88.1268 56.348 88.9387 56.7038C89.0829 56.767 89.2931 56.8099 89.3642 56.672C89.4405 56.5239 89.2523 56.3824 89.0963 56.3176C88.2228 55.9546 87.3493 55.5915 86.4758 55.2285C86.4319 55.2103 86.385 55.1917 86.338 55.1993C86.2322 55.2167 86.1956 55.3616 86.2481 55.4532ZM90.4529 65.7001C90.4257 65.6889 90.3965 65.6774 90.3675 65.683C90.3373 65.6887 90.3123 65.7145 90.3079 65.7442C90.3788 66.2196 90.9241 66.4539 91.3912 66.6022C92.0017 66.7961 92.6123 66.9899 93.2227 67.1838C93.3694 67.025 93.1299 66.8051 92.9283 66.7219C92.1032 66.3813 91.2781 66.0407 90.4529 65.7001ZM85.9386 60.1292C86.0067 60.0037 85.9042 59.8467 85.775 59.7817C85.5493 59.6681 85.277 59.7315 85.0322 59.7973C84.7534 59.8721 84.4746 59.9469 84.1958 60.0218C83.9949 60.0757 83.7527 60.1777 83.7452 60.3813C83.7396 60.5337 83.8867 60.6584 84.0399 60.6863C84.1932 60.7142 84.3495 60.6701 84.4989 60.6265C84.8966 60.5104 85.2943 60.3943 85.6919 60.2781C85.7872 60.2503 85.8921 60.2151 85.9386 60.1292ZM99.7609 82.2464C99.5951 82.1525 99.3866 82.2074 99.2042 82.2644C98.6239 82.446 98.0436 82.6275 97.4633 82.809C97.335 83.01 97.5685 83.2774 97.8104 83.2915C98.0522 83.3056 98.2715 83.1675 98.4851 83.0556C98.8736 82.852 99.3017 82.721 99.7396 82.6718C99.9299 82.6504 99.9267 82.3403 99.7609 82.2464ZM88.6784 65.0125C88.4925 64.9638 88.2956 64.9977 88.1063 65.0319C87.8722 65.0741 87.6381 65.1163 87.404 65.1586C87.1385 65.2065 86.8018 65.341 86.8299 65.6036C86.8465 65.7586 87.0029 65.8705 87.1605 65.893C87.3182 65.9155 87.4767 65.8696 87.6291 65.8242C88.0964 65.685 88.5636 65.5458 89.0309 65.4066C89.0355 65.2184 88.8643 65.0612 88.6784 65.0125ZM87.0846 61.9332C86.9547 61.8034 86.7406 61.7941 86.5621 61.8445C86.3837 61.8949 86.2238 61.9942 86.0495 62.0568C85.8439 62.1306 85.6217 62.1525 85.4169 62.2282C85.2121 62.3039 85.0141 62.4553 84.9787 62.6667C85.0556 62.8426 85.3138 62.823 85.5026 62.7732C86.0031 62.6414 86.5035 62.5096 87.0039 62.3777C87.1833 62.3305 87.2146 62.063 87.0846 61.9332ZM86.3882 64.3287C86.1797 64.388 86.2156 64.725 86.4058 64.8275C86.5959 64.93 86.8307 64.8734 87.0393 64.8145C87.4767 64.6909 87.9142 64.5672 88.3517 64.4436C88.3837 64.2298 88.1838 64.0363 87.9681 63.9898C87.7524 63.9433 87.5293 64.0041 87.3172 64.0644C87.0075 64.1525 86.6979 64.2406 86.3882 64.3287ZM88.8704 34.2185C89.1486 34.0226 89.1058 33.618 89.114 33.2828C88.7515 33.2395 88.3543 33.2035 88.0486 33.3991C87.7429 33.5946 87.6609 34.1225 87.9882 34.2812C88.1007 34.3357 88.2318 34.3343 88.3573 34.3316C88.5354 34.3279 88.7258 34.3203 88.8704 34.2185ZM89.5715 62.7248C89.3963 62.7072 89.141 62.7829 89.1909 62.9482C89.2149 63.0275 89.3039 63.0665 89.3834 63.0946C90.1458 63.3643 90.9419 63.5428 91.7482 63.625C91.8481 63.6025 91.8774 63.4643 91.8252 63.378C91.7729 63.2917 91.6723 63.2472 91.5772 63.2098C90.9361 62.9577 90.2588 62.7939 89.5715 62.7248ZM86.0232 54.4454C86.6827 54.7769 87.3548 55.0843 88.0377 55.3668C88.1704 55.4217 88.3209 55.476 88.4542 55.4225C88.5875 55.369 88.6384 55.1506 88.5064 55.0941C87.73 54.7617 86.9535 54.4293 86.1771 54.0969C86.0538 54.0441 85.878 54.0064 85.8113 54.1208C85.7382 54.2462 85.8919 54.3794 86.0232 54.4454ZM92.5503 65.5646C92.4379 65.4648 92.2869 65.4201 92.1413 65.3782C91.5288 65.2022 90.9162 65.0261 90.3036 64.8501C90.2189 64.8257 90.1245 64.802 90.0453 64.8401C89.966 64.8783 89.9373 65.0088 90.0166 65.0468C90.8547 65.4487 91.7395 65.7574 92.6484 65.9651C92.7237 65.8362 92.6627 65.6643 92.5503 65.5646ZM93.0308 74.8128C93.4676 74.6617 93.9044 74.5105 94.3412 74.3594C94.5335 74.2929 94.7396 74.2159 94.8498 74.048C94.8216 73.8976 94.6552 73.8028 94.4988 73.7998C94.3425 73.7968 94.1945 73.863 94.0528 73.9277C93.67 74.1027 93.2872 74.2777 92.9043 74.4527C92.766 74.5159 92.6068 74.6089 92.6043 74.7582C92.6762 74.8951 92.8825 74.8641 93.0308 74.8128ZM89.5599 66.2665C89.6619 66.1554 89.5702 65.9624 89.4284 65.9071C89.2866 65.8517 89.1267 65.8898 88.9792 65.9284C88.4779 66.0596 87.9765 66.1909 87.4752 66.3221C87.3842 66.4252 87.4659 66.5994 87.5938 66.6534C87.7217 66.7072 87.8684 66.6786 88.0043 66.649C88.4567 66.5508 88.909 66.4526 89.3613 66.3544C89.4335 66.3387 89.5106 66.3203 89.5599 66.2665ZM95.6859 75.4578C95.5825 75.4356 95.4769 75.4755 95.3789 75.5147C94.8445 75.7283 94.3101 75.942 93.7757 76.1556C93.6208 76.2175 93.6833 76.4746 93.8404 76.5307C93.9975 76.5869 94.1691 76.5142 94.3197 76.4429C94.7789 76.2254 95.2382 76.008 95.6974 75.7905C95.7496 75.7658 95.8054 75.7377 95.831 75.6869C95.8778 75.5941 95.7892 75.48 95.6859 75.4578ZM91.7618 67.1548C91.5561 67.0803 91.2593 67.0413 91.1772 67.2403C91.9015 67.6052 92.6698 67.8865 93.461 68.0765C93.6226 67.981 93.4207 67.7556 93.2437 67.6915C92.7497 67.5126 92.2558 67.3337 91.7618 67.1548ZM81.7978 57.363C81.6595 57.5168 81.7957 57.8081 82.005 57.8064C82.4835 57.5009 83.0421 57.3167 83.612 57.2766C83.4314 57.0555 83.1184 56.9717 82.83 56.9938C82.5416 57.0158 82.2696 57.1283 82.0034 57.2393C81.9287 57.2704 81.8514 57.3034 81.7978 57.363ZM93.5028 68.8449C93.6594 68.8819 93.9061 68.8388 93.8671 68.6858C93.2128 68.397 92.5232 68.1846 91.8178 68.0545C91.7399 68.1573 91.7866 68.3127 91.8841 68.398C91.9815 68.4834 92.1142 68.5163 92.2414 68.5463C92.6618 68.6458 93.0823 68.7454 93.5028 68.8449ZM93.0079 69.6467C93.3743 69.7576 93.7536 69.8274 94.1361 69.8545C94.2127 69.7554 94.1689 69.6041 94.0753 69.5202C93.9816 69.4363 93.8531 69.4029 93.73 69.3723C93.3398 69.2752 92.9496 69.1782 92.5594 69.0811C92.4176 69.3196 92.7385 69.5651 93.0079 69.6467ZM101.351 89.9965C101.263 90.2064 101.377 90.5001 101.607 90.5292C101.893 90.2606 102.138 89.9509 102.333 89.6131C102.222 89.4958 102.027 89.5241 101.873 89.5793C101.656 89.6576 101.438 89.7866 101.351 89.9965ZM95.2401 72.5639C95.054 72.3942 94.824 72.2709 94.5777 72.2086C94.5381 72.55 94.7384 72.9057 95.0546 73.0555C95.1303 73.0914 95.2201 73.116 95.2976 73.0838C95.4932 73.0024 95.3957 72.7057 95.2401 72.5639ZM94.3244 70.4185C94.1964 70.3281 94.0308 70.3109 93.8737 70.2965C93.68 70.2789 93.4863 70.2613 93.2927 70.2436C93.1989 70.4646 93.4646 70.6797 93.7066 70.7143C93.9486 70.7489 94.2136 70.7017 94.4251 70.8219C94.5208 70.6992 94.4523 70.5089 94.3244 70.4185ZM95.825 74.5819C95.901 74.6453 95.9945 74.7019 96.0937 74.6913C96.1286 74.2263 95.8077 73.7938 95.4079 73.5399C95.361 73.9257 95.5228 74.3299 95.825 74.5819ZM94.5846 71.4483C94.3604 71.3273 94.0966 71.2778 93.8424 71.3088C93.9346 71.551 94.154 71.7431 94.4103 71.8058C94.5475 71.8394 94.7187 71.8245 94.7935 71.707C94.8682 71.5896 94.7207 71.3952 94.6049 71.4748M82.0273 56.3866C81.8148 56.4235 81.6153 56.5291 81.4677 56.6831C81.7318 56.7558 82.0328 56.6823 82.231 56.4967C82.1821 56.4325 82.1063 56.3886 82.0252 56.3776" fill="#00160A"/>
<path fill-rule="evenodd" clip-rule="evenodd" d="M77.4673 77.0673C79.6355 75.0298 82.6789 75.3172 84.8075 77.5528C86.6586 79.498 86.2186 82.0675 84.1165 84.2226C83.3234 85.0275 81.7313 85.5614 80.5792 85.4307C79.6039 85.3358 78.0851 84.6327 77.1832 83.9844C76.7656 83.6843 76.3837 83.0656 76.0235 82.1259L75.9703 81.9854C75.3305 80.2498 75.7626 78.4152 77.2123 77.264L77.2801 77.2111L77.2954 77.1905C77.308 77.1753 77.3225 77.1609 77.339 77.1473L77.3654 77.1276L77.3949 77.1091L77.4566 77.0786L77.4673 77.0673ZM81.2365 84.0658L80.5807 84.752L80.653 84.758C81.3252 84.8057 81.983 84.7028 82.581 84.4541L82.6143 84.4397L82.5679 84.4371C82.1547 84.4082 81.718 84.2848 81.2643 84.0787L81.2365 84.0658ZM79.3232 82.7771L79.2618 82.7221L79.1971 82.7837C78.9429 83.026 78.6845 83.2744 78.4202 83.5303L78.1209 83.821C78.2056 83.8814 78.2938 83.9403 78.3856 83.9979C78.8003 84.2623 79.2482 84.4628 79.7116 84.5931L79.8112 84.6199L80.2906 84.1259L80.6493 83.7546L80.6258 83.7409C80.175 83.4701 79.7319 83.1376 79.3232 82.7771ZM82.4512 82.7943L81.6696 83.6126L81.7091 83.6293C82.3172 83.8787 82.8581 83.926 83.3235 83.7422L83.3725 83.7217L83.3255 83.6696C83.0903 83.4122 82.8374 83.1571 82.5607 82.8965L82.4512 82.7943ZM77.7418 81.0678L77.6031 81.2011C77.4033 81.3913 77.2017 81.5802 76.9982 81.7679L76.6782 82.0605L76.7051 82.1231C76.9218 82.6115 77.2236 83.0366 77.6167 83.4084L77.6308 83.4214L77.6754 83.3772C77.9601 83.0946 78.2542 82.8083 78.5606 82.5152L78.7988 82.288L78.7341 82.2242C78.3777 81.8696 78.0727 81.5224 77.8162 81.1716L77.7418 81.0678ZM83.728 81.4578L82.875 82.3508L82.8836 82.3587C83.2109 82.6643 83.5101 82.964 83.7878 83.2668L83.8721 83.3597L83.8747 83.3568C84.1658 82.97 84.1158 82.3396 83.766 81.5425L83.728 81.4578ZM80.7434 81.3369L80.6801 81.3949C80.3884 81.6627 80.0927 81.9376 79.7911 82.2211L79.706 82.3011L79.7854 82.3697C80.2024 82.7262 80.602 83.0257 81.0013 83.2671L81.0768 83.3116L81.6123 82.7557L81.9808 82.3715L81.859 82.2658C81.6379 82.0749 81.3991 81.8748 81.0988 81.6279L80.7434 81.3369ZM85.3009 79.8121L84.1205 81.0471L84.1589 81.1196C84.2239 81.2448 84.2876 81.372 84.3502 81.5012L84.4432 81.6966L84.5297 81.8846C84.6179 82.0666 84.6787 82.2479 84.7112 82.4264L84.7161 82.4566L84.7513 82.3947C85.2289 81.5382 85.4247 80.6566 85.3049 79.8374L85.3009 79.8121ZM82.7047 79.7985L82.6441 79.7199L82.4288 79.8967L81.8291 80.3819L81.7218 80.47C81.6114 80.5611 81.5124 80.6446 81.4209 80.7238L81.3146 80.8172L81.2048 80.9164L81.4521 81.1183C81.7281 81.3447 81.9683 81.5459 82.1929 81.74L82.4065 81.9264L83.0925 81.2075L83.4187 80.864L83.4163 80.8593C83.2112 80.5055 82.9674 80.144 82.7047 79.7985ZM79.051 79.8709L78.9996 79.8216L78.9833 79.8385C78.7828 80.044 78.5804 80.2479 78.3763 80.4502L78.1727 80.6503L78.2152 80.7139C78.4632 81.0775 78.7699 81.4324 79.1278 81.7765L79.2184 81.8623L79.2347 81.8774L79.2626 81.8513C79.4694 81.6581 79.6814 81.4617 79.9006 81.2603L80.2537 80.9369L80.205 80.8971C79.8076 80.5659 79.4239 80.2247 79.051 79.8709ZM76.8696 78.5605L76.85 78.5923C76.3645 79.391 76.2147 80.3837 76.4401 81.3294L76.4603 81.4103L76.4705 81.4488L76.5724 81.3559C76.7852 81.1598 76.9964 80.9619 77.2061 80.7621L77.4194 80.5569L77.3991 80.5206C77.0498 79.8846 76.8669 79.2387 76.8696 78.5753L76.8696 78.5605ZM80.7266 77.9628L80.4734 78.2473C80.186 78.5673 79.8946 78.8839 79.5991 79.197L79.425 79.3799L79.4684 79.4212C79.8126 79.7467 80.1691 80.0637 80.5414 80.3752L80.7145 80.5186L80.8798 80.3697C80.9859 80.2754 81.0996 80.1782 81.2282 80.0715L81.439 79.8985L81.9346 79.4992C82.0241 79.4268 82.104 79.3617 82.1782 79.3004L82.2509 79.24L82.2157 79.1999C82.0457 79.0068 81.8856 78.841 81.7526 78.7193L81.7136 78.6841C81.4434 78.4458 81.1482 78.2276 80.8192 78.0202L80.7266 77.9628ZM84.3047 77.928L84.2781 77.9735C84.0046 78.4273 83.6275 78.8523 83.1146 79.3149L83.0717 79.3531L83.0871 79.3739C83.3112 79.6818 83.5236 80.004 83.725 80.3403L83.7979 80.464L84.3718 79.8578L85.0977 79.087L85.0809 79.0467C84.914 78.6587 84.666 78.2944 84.3363 77.9593L84.3047 77.928ZM77.5125 78.2731L77.5097 78.2992C77.4507 78.9112 77.5732 79.5131 77.8603 80.1052L77.8676 80.1199L77.9441 80.0449C78.1133 79.8773 78.2815 79.7083 78.4487 79.5381L78.5762 79.4073L78.5244 79.3556C78.2304 79.0593 77.9418 78.7532 77.6568 78.4357L77.5125 78.2731ZM77.7977 77.5963L77.7539 77.617L77.7652 77.6302C78.1535 78.0834 78.5493 78.5127 78.9587 78.9244L79.0007 78.9663L79.1716 78.7869C79.4714 78.4691 79.7672 78.1476 80.0587 77.8224L80.2007 77.6627L80.1855 77.6546C80.1133 77.6162 80.0394 77.5779 79.9636 77.5394L79.8483 77.4817C79.1724 77.157 78.6733 77.1931 77.8657 77.5645L77.7977 77.5963ZM82.0244 76.4385L81.7754 76.7406C81.6073 76.9428 81.4377 77.1437 81.2665 77.3434L81.1465 77.4823L81.177 77.5012C81.6298 77.7869 82.0155 78.097 82.3327 78.4406L82.4046 78.5205C82.4748 78.6002 82.5441 78.6811 82.6124 78.7632L82.6908 78.8588L82.7016 78.8492C83.2067 78.3887 83.5635 77.969 83.8082 77.5183L83.8152 77.5045L83.7505 77.4544C83.0957 76.951 82.616 76.6518 82.1085 76.4678L82.0244 76.4385ZM81.023 76.2653C80.3816 76.2608 79.7975 76.373 79.2584 76.6034L79.2276 76.6167L79.2812 76.6236C79.3994 76.6406 79.5152 76.6698 79.6292 76.712L79.686 76.7342C79.9915 76.8657 80.2723 76.9974 80.5357 77.1345L80.6238 77.181L80.7963 76.9819C80.9721 76.7772 81.1462 76.5711 81.3186 76.3638L81.3804 76.2888L81.3053 76.2804C81.2428 76.2742 81.1802 76.2699 81.1173 76.2675L81.023 76.2653Z" fill="#FFB61D"/>
<path fill-rule="evenodd" clip-rule="evenodd" d="M91.9266 33.3015C92.1294 32.7644 92.8596 32.5426 93.3983 32.7664C93.937 32.9903 94.2713 33.5499 94.3558 34.1165C94.4402 34.6831 94.312 35.2589 94.1472 35.8083C93.9969 36.3093 93.8154 36.8013 93.6042 37.2808C93.5846 37.3253 93.5583 37.3752 93.5099 37.3858C93.4584 37.3972 93.4108 37.3579 93.3737 37.3212C92.4584 36.4139 91.9065 35.1645 91.8585 33.8906C91.851 33.6918 91.8561 33.4881 91.9266 33.3015ZM93.5091 33.4326C93.3588 33.3066 93.1649 33.2241 92.9672 33.23C92.5055 33.2437 92.1834 33.7363 92.1937 34.188C92.204 34.6396 92.4499 35.0497 92.6887 35.4365C92.8596 35.7135 93.0306 35.9905 93.2015 36.2674C93.2598 36.3618 93.3745 36.4695 93.4652 36.4041C93.5018 36.3778 93.5159 36.3316 93.5279 36.2887C93.5978 36.0371 93.6678 35.7854 93.7378 35.5338C93.8379 35.174 93.9387 34.8084 93.9325 34.4356C93.9263 34.0628 93.7984 33.6752 93.5091 33.4326L93.5091 33.4326Z" fill="#FFB61D"/>
<path fill-rule="evenodd" clip-rule="evenodd" d="M93.2071 34.8784C93.0946 34.9093 92.9719 34.9035 92.863 34.862C92.6518 34.7815 92.5059 34.5601 92.5182 34.3387C92.5304 34.1172 92.6998 33.9126 92.9187 33.8548C93.2502 33.7672 93.6237 34.0661 93.6016 34.4014C93.5873 34.619 93.4217 34.8193 93.2071 34.8784Z" fill="#FFB61D"/>
</svg>
