<svg width="98" height="95" viewBox="0 0 98 95" fill="none" xmlns="http://www.w3.org/2000/svg">
<path fill-rule="evenodd" clip-rule="evenodd" d="M0.976263 74.6132C-2.80062 66.9 13.6308 55.6676 12.3152 36.1654C10.9996 16.6632 20.1028 -6.84491 45.204 2.74914C70.3045 12.3434 101.78 23.5298 97.1283 55.1434C92.4766 86.7563 82.369 88.7443 58.6354 93.5403C34.9011 98.3354 7.25764 87.4407 0.976413 74.613L0.976263 74.6132Z" fill="#2EC4B6"/>
<path fill-rule="evenodd" clip-rule="evenodd" d="M25.8051 58.3433C24.2232 62.8209 25.5181 67.2439 26.3326 69.3057C25.3359 67.6639 23.3032 65.5697 22.5689 64.8592C21.6353 63.9558 19.6714 62.9529 19.1121 63.9536C18.7873 64.5347 19.3797 64.776 20.3357 65.1654C21.026 65.4466 21.9059 65.805 22.7668 66.4243C24.8201 67.9013 25.5509 69.9265 25.5509 69.9265C25.5509 69.9265 20.9485 67.8881 19.2271 67.2164C17.5057 66.5449 14.4457 66.0247 13.5211 67.5366C12.5964 69.0486 18.642 70.4664 18.642 70.4664C18.642 70.4664 24.9114 71.1664 29.1867 73.7236C33.462 76.2808 32.8894 80.679 32.8894 80.679L32.4644 81.1006C24.935 81.4834 24.0033 83.0929 24.0033 83.0929C23.0048 85.5864 30.1565 87.0269 30.1565 87.0269C37.7864 88.0681 44.9544 88.7461 46.5601 85.0485C47.4273 83.5594 45.5046 82.7614 43.1263 82.0765L42.5802 81.136C43.447 81.0773 44.1656 81.4529 44.7969 82.0845L44.0938 80.0292C45.058 80.6874 45.7062 81.4726 46.0665 82.3733C46.0816 82.3998 46.0896 82.4142 46.0896 82.4142C46.1357 82.3918 46.18 82.3625 46.2225 82.3277L47.0502 80.1681L48.1292 81.9489C48.2479 81.7508 48.7078 81.2742 48.794 81.1855C48.8439 81.2141 49.0108 81.2774 49.1748 81.3396C49.2391 81.364 49.303 81.3882 49.3591 81.4101C49.3891 81.448 49.4086 81.477 49.423 81.4994C49.4034 81.5151 49.3838 81.5307 49.363 81.5458C49.363 81.5458 49.4907 81.6155 49.423 81.4994C49.4829 81.4495 49.5402 81.3966 49.5923 81.3419L50.1278 81.1854C50.1383 81.3397 50.1617 81.3903 50.1617 81.3903C50.1773 81.2983 50.2008 81.2206 50.2307 81.1551L50.9708 80.9386C50.4379 82.4503 51.2444 82.296 51.2444 82.296C51.8098 80.4586 52.3467 81.9962 52.3467 81.9962C52.662 81.5857 52.645 80.8386 52.6111 80.4589L52.7714 80.4119L52.7727 80.4118C53.2404 80.9767 53.2404 81.8498 53.2404 81.8498C53.3264 81.2815 53.63 80.6569 53.63 80.6569C53.5544 81.22 54.2854 81.8858 54.2854 81.8858C54.4287 81.0488 55.3043 80.2327 55.3043 80.2327L52.7727 80.4118L54.4951 79.9078C54.8 79.177 54.9485 78.7873 54.9485 78.7873C55.1853 78.1602 55.1805 77.6461 55.1719 76.724C55.1659 76.0784 55.1581 75.2328 55.2299 74.0084C55.4045 71.0352 57.6664 67.2725 57.6664 67.2725C59.979 63.9626 59.8501 61.6671 59.8501 61.6671C59.7393 60.579 57.7837 59.8634 57.7837 59.8634C58.7257 59.3625 58.3569 58.1246 58.3569 58.1246L59.2664 57.3586L61.235 58.6284C65.9763 62.3393 59.9738 70.4875 59.9738 70.4875C55.5088 77.3328 60.9653 81.3972 60.9653 81.3972C67.0994 88.0321 71.7233 82.7611 72.2849 82.0559C72.8464 81.3509 75.5943 76.5534 71.6113 76.9509C67.6283 77.3485 65.1659 76.0496 65.2506 73.8928C65.2919 72.8549 65.7567 71.9643 66.4643 70.6082C67.2271 69.1466 68.2719 67.1443 69.3729 63.8342C71.4953 57.4529 60.8389 55.3494 60.8389 55.3494C60.8389 55.3494 62.4337 53.4305 62.2135 50.1608C61.9933 46.8913 56.3804 39.4654 56.3804 39.4654C54.486 36.5059 55.5857 30.0238 55.5857 30.0238C55.798 24.2088 54.3075 23.4277 54.3075 23.4277C54.0743 23.0466 55.2625 21.9624 55.2625 21.9624C58.4585 20.4993 57.3954 19.9625 57.3954 19.9625C56.8195 19.308 54.7271 19.8524 54.7271 19.8524C57.0709 15.9657 55.4515 12.6533 55.4515 12.6533C56.0404 8.53713 54.5759 8.97017 54.5759 8.97017C52.8925 10.9475 51.4411 11.2444 51.4411 11.2444C49.4581 10.8161 48.2208 9.63873 48.2208 9.63873C47.572 9.95723 46.7907 9.69066 46.7907 9.69066C45.2557 8.68212 44.406 7.46643 44.406 7.46643C43.0032 8.30156 43.8925 10.1538 43.8925 10.1538C43.7707 10.9642 43.5522 11.1702 43.5522 11.1702C43.0808 12.1316 44.1682 12.7349 44.1682 12.7349C44.1758 13.5084 43.5522 14.3569 43.5522 14.3569C42.8845 14.6021 42.7214 15.1351 42.7214 15.1351C42.2965 16.3475 43.2178 16.5083 43.2178 16.5083L43.166 16.8342C41.8282 18.9316 43.408 20.3014 43.408 20.3014C43.2224 20.6919 43.5522 21.3169 43.5522 21.3169C43.4636 21.6311 43.061 21.8228 43.061 21.8228C40.8878 22.4025 41.4263 23.233 41.4263 23.233C41.8988 23.9 42.5802 23.4983 42.5802 23.4983C42.338 24.0268 43.092 24.5599 43.092 24.5599C41.9521 25.0364 41.2534 26.6692 41.0044 27.8282C40.7553 28.987 40.9102 30.8933 40.9102 30.8933C40.8269 31.0263 40.6391 31.046 40.4186 31.069C40.0793 31.1045 39.6623 31.148 39.4284 31.6252C39.0426 32.4126 40.0268 32.8627 40.0268 32.8627C40.015 32.8825 40 32.9066 39.9828 32.9344C39.792 33.2415 39.3217 33.9988 39.7792 34.303C40.2782 34.6346 41.1116 33.9641 41.1116 33.9641L41.3352 34.303C43.0839 34.9447 40.69 39.4974 40.69 39.4974C37.4332 45.7717 40.0138 50.1062 40.0138 50.1062C42.1084 55.3522 47.5068 58.5215 47.5068 58.5215C45.9881 59.3537 43.5522 59.2331 43.5522 59.2331C41.5947 59.3512 41.0044 60.216 41.0044 60.216C39.5745 61.969 41.8173 63.8619 41.8173 63.8619C43.9203 66.7928 43.5522 67.4892 43.5522 67.4892C32.6138 65.6855 31.5903 69.9632 31.5903 69.9632C30.1977 68.4591 29.6855 59.6465 29.6855 59.6465C31.4583 51.9577 29.7034 52.4909 29.7034 52.4909C27.4653 53.7259 25.8051 58.3433 25.8051 58.3433ZM26.8687 70.5068C26.7977 70.1644 26.6033 69.7518 26.3326 69.3057C26.6334 70.0675 26.8687 70.5068 26.8687 70.5068Z" fill="white"/>
<path fill-rule="evenodd" clip-rule="evenodd" d="M39.7232 42.031C39.7232 42.031 40.6022 42.073 40.583 45.9764C40.5637 49.8798 42.9097 49.0421 44.4437 52.4116C45.9776 55.7813 45.898 56.7179 44.5525 56.1415C44.5525 56.1415 41.3924 53.9355 39.7759 49.8442C38.2112 45.8844 39.7232 42.031 39.7232 42.031Z" fill="#E7EAEE"/>
<path fill-rule="evenodd" clip-rule="evenodd" d="M51.676 59.3173C51.676 59.3173 47.8199 61.5252 46.8829 61.2376C46.8829 61.2376 46.2608 60.9341 46.3089 60.461C46.3089 60.461 45.3304 61.5371 45.111 60.6945C45.111 60.6945 43.8886 61.3395 43.5781 60.2767C43.5781 60.2767 44.1662 59.4442 45.578 59.1304C44.6048 59.6009 42.22 59.8319 43.1497 58.9905C43.1497 58.9905 42.9254 59.0478 47.3616 58.5087C47.3616 58.5087 46.5013 59.9754 48.781 59.511C51.0598 59.0467 52.2376 59.0592 51.676 59.3173V59.3173Z" fill="#E7EAEE"/>
<path fill-rule="evenodd" clip-rule="evenodd" d="M51.3488 59.4571C51.3488 59.4571 48.8498 60.9615 51.109 61.2636C51.109 61.2636 51.8113 61.1709 51.9781 60.6946C51.9781 60.6946 51.8217 61.5157 52.7728 61.4228C52.7728 61.4228 53.5012 61.3647 53.4725 60.6946C53.4725 60.6946 53.4985 61.814 54.4784 61.833C54.4784 61.833 57.8737 60.7746 58.516 58.1258C58.516 58.1258 59.1166 57.4649 59.3838 57.2205C59.3838 57.2205 60.0978 56.5156 58.9069 55.8869C57.7147 55.2581 55.9194 55.7827 55.7213 57.7311C55.5246 59.6794 55.2653 60.4487 52.4458 60.1337C51.3201 60.008 51.2589 59.7907 51.3488 59.4571Z" fill="#E7EAEE"/>
<path fill-rule="evenodd" clip-rule="evenodd" d="M42.0517 35.2621C42.0517 35.2621 43.4692 36.5349 42.9383 39.1969C42.4074 41.8589 44.921 42.4982 44.921 42.4982L44.8614 44.1362C44.8614 44.1362 42.0556 44.0985 40.4357 40.18C40.4357 40.18 41.8564 37.5385 42.0517 35.2621V35.2621Z" fill="#E7EAEE"/>
<path fill-rule="evenodd" clip-rule="evenodd" d="M40.9924 28.6414C40.9924 28.6414 42.4204 29.2202 42.6781 27.3924C42.936 25.5647 42.9457 25.157 43.2179 24.8375C43.2179 24.8375 41.6871 24.8368 40.9924 28.6414V28.6414Z" fill="#E7EAEE"/>
<path fill-rule="evenodd" clip-rule="evenodd" d="M60.2985 70.155C60.2985 70.155 62.4626 70.7014 60.8002 76.1613C59.1389 81.6212 67.1674 80.5619 69.4996 79.1313C71.8318 77.7009 74.2383 79.8787 71.9373 82.3726C69.6364 84.8664 67.385 84.5609 65.6222 84.1691C63.8606 83.7774 60.167 81.5472 59.1259 79.1231C58.0849 76.699 57.5273 74.1743 60.2985 70.155V70.155Z" fill="#E7EAEE"/>
<path fill-rule="evenodd" clip-rule="evenodd" d="M40.4356 60.6948C40.4356 60.6948 42.3588 61.6811 43.5778 61.9471C44.7968 62.2128 46.52 62.3894 45.3009 66.9615L45.371 68.0591L43.5778 67.6589C43.5778 67.6589 43.7094 66.7389 42.6782 64.8643C41.647 62.9896 40.3138 62.9084 40.4356 60.6948V60.6948Z" fill="#E7EAEE"/>
<path fill-rule="evenodd" clip-rule="evenodd" d="M31.8222 69.7026C31.8222 69.7026 31.0875 72.6439 36.6823 73.5013C42.2769 74.3588 39.0095 76.7606 38.1048 79.1191C38.1048 79.1191 38.2843 80.3992 37.9734 81.0588H35.9772C35.9772 81.0588 36.5853 79.378 35.0509 76.5743C33.5165 73.7706 30.4979 71.6663 31.8222 69.7026V69.7026Z" fill="#E7EAEE"/>
<path fill-rule="evenodd" clip-rule="evenodd" d="M42.6785 78.031C42.6785 78.031 44.0883 79.3411 47.6098 79.6015C47.6098 79.6015 49.2409 79.6719 48.0608 81.8352C48.0608 81.8352 47.6245 80.439 46.8754 79.9938C46.8754 79.9938 47.2222 80.7592 46.2514 82.211C46.2514 82.211 45.5187 80.8625 44.1315 79.9597C42.7444 79.0569 42.9848 78.5369 42.6785 78.031V78.031Z" fill="#E7EAEE"/>
<path fill-rule="evenodd" clip-rule="evenodd" d="M26.9277 55.6903C26.9277 55.6903 28.1473 54.9702 27.3023 60.0815C26.4574 65.1929 26.0846 68.0456 27.3174 70.1547H26.7844C26.7844 70.1547 23.0513 62.0859 26.9277 55.6903Z" fill="#E7EAEE"/>
<path fill-rule="evenodd" clip-rule="evenodd" d="M13.6096 68.3476C13.6917 68.5813 14.9101 69.9706 20.9361 71.0077C26.9622 72.0448 29.2323 73.5406 30.2969 74.4682C30.2969 74.4682 28.7611 71.7248 20.9173 69.7032C20.9173 69.7032 16.5756 68.2907 15.7591 66.5031C15.7591 66.5031 12.9523 66.4754 13.6096 68.3476V68.3476Z" fill="#E7EAEE"/>
<path fill-rule="evenodd" clip-rule="evenodd" d="M30.3932 86.8428C30.3932 86.8428 27.9754 86.2637 26.1648 85.381C25.5878 85.0997 25.0732 84.7897 24.7316 84.4525C24.4778 84.2021 24.3186 83.9458 24.3739 83.6671C24.4275 83.3932 24.6908 83.1829 25.0556 82.9832C25.4995 82.7401 26.0966 82.5403 26.7727 82.3695C29.316 81.7267 32.9536 81.5311 34.0847 81.4875C35.1929 81.4427 40.717 81.6218 44.0643 82.6341C44.8543 82.8731 45.5213 83.1564 45.9713 83.4987C46.2662 83.723 46.4655 83.9689 46.5257 84.2482C46.583 84.5149 46.5099 84.8061 46.2939 85.1284C45.5349 86.2411 44.4891 86.8566 43.3878 87.186C41.1005 87.87 38.5852 87.3559 37.7872 87.4876C37.6576 87.5101 37.5707 87.6327 37.5933 87.7613C37.6159 87.8899 37.7396 87.9761 37.8692 87.9537C38.6703 87.8085 41.207 88.2682 43.5017 87.5533C44.6756 87.1875 45.7896 86.5239 46.5929 85.3276C47.5381 83.9476 46.3068 82.9206 44.186 82.248C40.7995 81.1739 35.1925 80.9031 34.0662 80.9318C32.9146 80.9631 29.2066 81.1065 26.615 81.7481C25.713 81.9713 24.9435 82.2605 24.4443 82.6113C24.055 82.8848 23.8189 83.2041 23.7548 83.5511C23.6863 83.9266 23.8007 84.2918 24.072 84.6335C24.3286 84.957 24.7319 85.2654 25.2216 85.5428C27.1089 86.611 30.2943 87.2783 30.2943 87.2783C30.4154 87.3053 30.5359 87.2297 30.5632 87.1096C30.5904 86.9894 30.5142 86.8698 30.3932 86.8428V86.8428Z" fill="#00160A"/>
<path fill-rule="evenodd" clip-rule="evenodd" d="M24.3707 83.4839C24.3707 83.4839 24.5847 83.6822 24.9998 83.9672C25.1828 84.0928 25.404 84.2361 25.6667 84.3794C25.8767 84.4941 26.1138 84.607 26.3731 84.7175C26.5998 84.8143 26.845 84.9049 27.1051 84.9944C27.8875 85.2637 28.81 85.4813 29.8346 85.6337C30.0162 85.6607 30.2007 85.6885 30.3881 85.7159C30.8067 85.7772 31.2391 85.8355 31.6892 85.8641C31.8208 85.8669 31.93 85.7632 31.9329 85.6328C31.9359 85.5022 31.8313 85.3939 31.6997 85.391C31.1772 85.3992 30.6728 85.3913 30.1936 85.3246C29.6711 85.252 29.1831 85.1175 28.725 84.9796C28.0634 84.7805 27.4757 84.5341 26.9593 84.2988C26.6967 84.1792 26.4557 84.0575 26.2315 83.9483C25.9942 83.8327 25.7781 83.7283 25.5872 83.633C24.9878 83.334 24.6444 83.1294 24.6444 83.1294C24.5457 83.0546 24.4045 83.0731 24.3289 83.171C24.2535 83.2688 24.2721 83.4091 24.3707 83.4839V83.4839Z" fill="#00160A"/>
<path fill-rule="evenodd" clip-rule="evenodd" d="M25.7632 68.2496C25.2523 66.5833 24.7721 64.1886 25.021 61.5085C25.2757 58.7646 26.2914 55.7201 28.8288 52.8511C28.8364 52.8424 28.8448 52.8345 28.8541 52.8274C28.8541 52.8274 29.2158 52.5503 29.613 52.474C29.9177 52.4153 30.2385 52.4674 30.4688 52.7819C30.7759 53.2013 30.9145 54.2056 30.4234 56.3791C29.8723 58.8265 29.8157 61.2286 30.0748 63.4725C30.3694 66.0242 31.072 68.3711 31.9143 70.3481C31.9652 70.4685 31.9078 70.6072 31.7864 70.6576C31.665 70.708 31.5253 70.6512 31.4745 70.5307C30.6319 68.5121 29.9361 66.1182 29.6536 63.5189C29.405 61.2316 29.4761 58.7854 30.0524 56.2956C30.3934 54.8182 30.4427 53.9198 30.3303 53.3887C30.2672 53.0901 30.1584 52.9251 30.0137 52.8549C29.8701 52.7851 29.7042 52.8112 29.5561 52.8588C29.3294 52.9316 29.1382 53.0637 29.0878 53.1004C26.6299 55.9032 25.6453 58.8696 25.4095 61.543C25.0791 65.2883 26.2127 68.4559 26.7904 69.7896C26.9146 70.0764 27.0129 70.2777 27.0653 70.3808C27.0895 70.429 27.1103 70.4759 27.1276 70.521C27.2121 70.7185 27.2213 70.8481 27.1867 70.9159C27.1546 71.0438 27.038 71.0543 26.8575 70.8487C26.7949 70.7878 26.7325 70.7053 26.6786 70.6031C26.6588 70.5718 26.6386 70.5387 26.618 70.5034C25.4355 68.4784 24.5281 67.2196 23.6783 66.3114C22.8117 65.3854 22.0059 64.8268 21.0314 64.1851C20.5179 63.8469 20.1025 63.7746 19.8017 63.8593C19.5611 63.9269 19.408 64.0976 19.3823 64.2705C19.3683 64.3643 19.4031 64.4563 19.4991 64.5031L21.7743 65.5649C22.8465 66.0758 23.7105 66.7665 24.3826 67.4537C25.67 68.7699 26.253 70.0739 26.253 70.0739C26.303 70.1863 26.2756 70.3178 26.1848 70.4011C26.094 70.4846 25.9598 70.5017 25.8508 70.4437C25.2381 70.1196 21.8131 68.2364 18.6994 67.3317C17.6147 67.0165 16.5694 66.8193 15.7012 66.8606C14.9989 66.8941 14.4179 67.08 14.0651 67.53C13.9488 67.6784 13.8863 67.8154 13.8903 67.9503C13.8943 68.0909 13.9713 68.2197 14.0906 68.3479C14.4061 68.6869 14.9917 68.9884 15.7488 69.2851C17.4143 69.9377 19.882 70.5196 22.3336 71.1458C24.8271 71.7827 27.3028 72.4676 28.9297 73.2961C30.6451 74.1727 31.6738 75.3908 32.2842 76.6116C33.4387 78.9209 33.0903 81.2375 33.0903 81.2375C33.0728 81.3595 32.9588 81.4444 32.836 81.4271C32.713 81.4098 32.6274 81.2967 32.6448 81.1746C32.6448 81.1746 32.9402 78.9955 31.8292 76.8391C31.2481 75.7111 30.2789 74.5903 28.6751 73.7935C27.0713 72.9937 24.6323 72.3529 22.1808 71.7425C19.6964 71.124 17.1982 70.5392 15.5118 69.882C14.6399 69.5421 13.9779 69.1733 13.6155 68.7824C13.376 68.5243 13.2537 68.2503 13.2462 67.9676C13.2395 67.7049 13.3315 67.4264 13.5588 67.1381C13.9213 66.6784 14.4532 66.4049 15.1083 66.29C15.8097 66.1669 16.6597 66.2261 17.5757 66.4111C20.305 66.9625 23.6473 68.6237 25.2602 69.4734C24.9746 69.02 24.5518 68.4317 23.9796 67.8394C23.3516 67.1892 22.5441 66.5338 21.539 66.0471L19.2666 64.9691C18.7018 64.6895 18.7262 63.9205 19.3098 63.5283C19.712 63.2583 20.4101 63.1665 21.3119 63.7687C22.3151 64.4388 23.143 65.0238 24.0327 65.9871C24.5692 66.5682 25.1287 67.2876 25.7632 68.2496V68.2496Z" fill="#00160A"/>
<path fill-rule="evenodd" clip-rule="evenodd" d="M41.4439 70.9515C42.1253 70.8029 42.5952 70.632 42.88 70.4471C43.0625 70.3286 43.1662 70.2249 43.1485 70.104C43.1368 70.0245 43.0769 69.9517 42.9892 69.8777C42.8678 69.7755 42.6957 69.6805 42.4812 69.5936C41.6142 69.242 40.0963 69.0373 38.2922 69.1755C36.4637 69.3222 35.4715 69.7779 35.2108 70.37C35.0925 70.6384 35.1532 70.9276 35.3549 71.2089C35.69 71.6765 36.3928 72.1133 37.3927 72.4294C39.0578 72.9533 42.3005 73.2395 44.7514 72.8583C45.6652 72.7163 46.4671 72.4828 47.0249 72.1261C47.3643 71.9092 47.609 71.6477 47.712 71.326C47.807 71.0292 47.7765 70.6855 47.6088 70.2879C47.0614 68.9896 45.4593 68.3223 43.6505 67.9626C40.552 67.3463 36.8179 67.6849 36.2231 67.771C35.862 67.8225 34.7419 68.0774 33.7255 68.6138C33.2163 68.8825 32.7319 69.2213 32.3928 69.649C31.7175 70.501 31.6843 71.6907 33.1375 73.3466C34.6032 75.0301 35.4215 76.5388 35.8685 77.7731C36.6473 79.9239 36.3161 81.2557 36.3161 81.2557C36.2884 81.3759 36.1676 81.4511 36.0466 81.4236C35.9256 81.3961 35.8499 81.2763 35.8775 81.1562C35.8775 81.1562 36.1364 79.9246 35.3805 77.9523C34.9289 76.7739 34.1184 75.3375 32.683 73.7428C31.3745 72.2788 31.132 71.0914 31.4053 70.1645C31.6819 69.2271 32.5073 68.5269 33.4216 68.0459C34.5242 67.4658 35.7425 67.201 36.1343 67.147C36.7462 67.064 40.587 66.7463 43.7651 67.4096C45.7656 67.8271 47.4951 68.6473 48.087 70.0923C48.3563 70.7503 48.3215 71.2979 48.0743 71.749C47.7501 72.3414 47.0318 72.7752 46.0778 73.0506C43.5322 73.7852 39.2799 73.4499 37.2734 72.7966C36.1761 72.4409 35.4176 71.9375 35.0526 71.4207C34.7692 71.0194 34.7092 70.6057 34.878 70.2253C35.169 69.5688 36.233 68.9769 38.2622 68.8113C40.3662 68.6319 42.0995 68.9192 42.9342 69.3569C43.4366 69.6205 43.6324 69.9638 43.5468 70.2801C43.5071 70.4273 43.4031 70.5805 43.2151 70.7266C42.9142 70.9605 42.3678 71.1921 41.526 71.3851C41.5166 71.3872 41.5072 71.3886 41.4978 71.3895C41.4978 71.3895 40.5934 71.4774 39.8082 71.3515C39.3298 71.275 38.8997 71.1078 38.6846 70.8344C38.6042 70.731 38.6236 70.5823 38.7278 70.5027C38.8321 70.4229 38.9819 70.4422 39.0622 70.5456C39.2154 70.7452 39.5395 70.8381 39.8848 70.8976C40.5616 71.0144 41.3359 70.9599 41.4439 70.9515V70.9515Z" fill="#00160A"/>
<path fill-rule="evenodd" clip-rule="evenodd" d="M47.8384 71.5495C47.8384 71.5495 47.6337 71.7505 47.375 72.1008C47.2892 72.217 47.1991 72.35 47.1133 72.4988C47.0287 72.6459 46.9513 72.8093 46.8753 72.98C46.7099 73.352 46.5684 73.7629 46.4678 74.1719C46.3834 74.5157 46.3446 74.8566 46.3339 75.1779C46.3211 75.5606 46.3592 75.9169 46.5241 76.2305C46.5918 76.3425 46.7385 76.3788 46.8512 76.3116C46.9641 76.2443 47.0007 76.0988 46.9328 75.987C46.7905 75.7826 46.7048 75.5418 46.6959 75.2767C46.6902 75.1032 46.7186 74.9225 46.7611 74.7406C46.9057 74.1206 47.2781 73.5021 47.5816 72.9767C47.6758 72.8137 47.7634 72.6596 47.8384 72.5183C48.0604 72.1005 48.2007 71.8143 48.2007 71.8143C48.2743 71.715 48.2529 71.5752 48.1529 71.5022C48.053 71.4291 47.912 71.4504 47.8384 71.5495V71.5495Z" fill="#00160A"/>
<path fill-rule="evenodd" clip-rule="evenodd" d="M35.503 74.3579C35.503 74.3579 35.6853 74.8198 35.9765 75.4976C36.0752 75.7271 36.1901 75.9793 36.3145 76.2463C36.7175 77.1113 37.2171 78.1328 37.4976 79.0777C37.5846 79.3707 37.6558 79.6546 37.6916 79.9214C37.7566 80.4059 37.7221 80.8234 37.5753 81.107C37.5201 81.2256 37.5723 81.3662 37.6918 81.421C37.8111 81.4758 37.953 81.4241 38.0081 81.3056C38.1694 80.9204 38.1412 80.3662 38.0264 79.719C37.9463 79.2661 37.839 78.7625 37.6906 78.2494C37.5161 77.6465 37.3103 77.0276 37.0891 76.4603C36.9869 76.1984 36.8857 75.9465 36.7788 75.7151C36.6702 75.4799 36.5591 75.2653 36.4548 75.075C36.141 74.5023 35.9002 74.1484 35.9002 74.1484C35.842 74.0395 35.7057 73.9982 35.596 74.056C35.4864 74.114 35.4447 74.2492 35.503 74.3579Z" fill="#00160A"/>
<path fill-rule="evenodd" clip-rule="evenodd" d="M38.8779 78.8916C38.8779 78.8916 38.8783 79.0484 38.9228 79.291C38.9372 79.3694 38.9595 79.4554 38.988 79.5458C39.0775 79.8305 39.2278 80.1542 39.2686 80.4886C39.28 80.5809 39.2884 80.673 39.278 80.7615C39.2621 80.8962 39.2046 81.0132 39.146 81.1199C39.0981 81.2416 39.1585 81.3789 39.281 81.4266C39.4036 81.4741 39.542 81.4142 39.59 81.2927C39.6272 81.1456 39.6378 80.9896 39.6418 80.8217C39.6433 80.7591 39.6455 80.6954 39.65 80.6309C39.6716 80.3218 39.6798 79.9963 39.6497 79.6914C39.6409 79.6023 39.632 79.5168 39.6159 79.4349C39.5986 79.3457 39.578 79.2615 39.5504 79.1866C39.5166 79.0946 39.4764 79.0181 39.4397 78.9527C39.3567 78.8052 39.2966 78.7285 39.2966 78.7285C39.2513 78.6138 39.1206 78.5573 39.0051 78.6023C38.8895 78.6472 38.8324 78.7769 38.8779 78.8916V78.8916Z" fill="#00160A"/>
<path fill-rule="evenodd" clip-rule="evenodd" d="M43.9519 80.4182C43.8079 80.3248 43.7178 80.2717 43.7178 80.2717C43.5915 80.1949 43.5372 80.0405 43.5877 79.9025C43.6384 79.7644 43.7799 79.6808 43.9265 79.7024C44.1036 79.7268 44.2706 79.8309 44.4145 79.9954C44.7535 80.2355 45.2628 80.6255 45.6741 81.0634C45.9072 81.3117 46.1069 81.5764 46.2379 81.8388C46.3952 81.6071 46.5753 81.2956 46.6737 80.967C46.7598 80.6792 46.7879 80.3768 46.6479 80.1139C46.5962 80.0205 46.6195 79.9038 46.7031 79.8369C46.7868 79.7701 46.9066 79.7726 46.9875 79.8426C46.9875 79.8426 47.6236 80.4107 47.9834 81.0501C48.094 81.2467 48.1777 81.4501 48.216 81.6479C48.2702 81.5919 48.3262 81.532 48.3799 81.471C48.4863 81.3505 48.5838 81.2265 48.6345 81.1264C48.6716 81.0525 48.7548 81.0136 48.8359 81.0321C48.8359 81.0321 49.1016 81.0954 49.2447 81.2893C49.2653 81.3172 49.2839 81.3477 49.2992 81.3809C49.3429 81.3342 49.3932 81.2759 49.4497 81.2034C49.5851 81.0295 49.7466 80.7818 49.9303 80.4318C49.9714 80.356 50.0558 80.3137 50.1416 80.3261C50.2273 80.3386 50.2962 80.4026 50.3139 80.487C50.3139 80.487 50.441 81.0472 50.4179 81.6184C50.4067 81.8988 50.3564 82.1805 50.2484 82.4093C50.1905 82.5264 50.0475 82.5749 49.9294 82.5174C49.8112 82.46 49.7623 82.3181 49.8203 82.2009C49.9102 82.0269 49.9512 81.8092 49.9676 81.5927C49.9793 81.4393 49.9789 81.2864 49.9724 81.1473C49.8931 81.2629 49.8196 81.3602 49.7523 81.4421C49.397 81.8741 49.1838 81.9162 49.1838 81.9162C49.1178 81.9345 49.0471 81.9151 48.9999 81.8658C48.9527 81.8167 48.9368 81.7457 48.9585 81.6812C48.9857 81.6021 48.9797 81.543 48.9495 81.5006C48.9275 81.47 48.8988 81.4465 48.8701 81.4287C48.8097 81.5169 48.7333 81.6121 48.6525 81.7055C48.4186 81.9761 48.1466 82.2336 48.1466 82.2336C48.0846 82.2908 47.992 82.2996 47.9204 82.2552C47.8487 82.211 47.8159 82.1245 47.8402 82.0442C47.9123 81.7965 47.7985 81.5149 47.6383 81.2474C47.5131 81.0381 47.354 80.8388 47.2024 80.67C47.1944 80.8113 47.1696 80.9539 47.1323 81.0944C46.9276 81.8658 46.3373 82.5705 46.3373 82.5705C46.2684 82.6503 46.158 82.6813 46.0572 82.6491C45.9563 82.6168 45.8848 82.5277 45.8757 82.423C45.8426 82.1 45.576 81.7659 45.2647 81.4532C45.1506 81.3385 45.0291 81.2278 44.9061 81.1233C45.0291 81.6319 45.0751 82.0984 45.0751 82.0984C45.0899 82.2506 44.9935 82.3916 44.8457 82.4343C44.6978 82.4769 44.5401 82.4091 44.4705 82.2728C44.3541 82.0374 44.0856 81.8899 43.7956 81.777C43.6099 81.7046 43.4131 81.649 43.225 81.6065C43.3484 81.8867 43.373 82.1531 43.373 82.1531C43.3862 82.2757 43.2967 82.3856 43.1732 82.3987C43.0497 82.4118 42.9388 82.323 42.9256 82.2004C42.9256 82.2004 42.88 81.8955 42.7008 81.6662C42.6318 81.5779 42.5372 81.505 42.4087 81.4804C42.333 81.4737 42.2892 81.4717 42.2892 81.4717C42.1427 81.4684 42.026 81.3489 42.0276 81.2036C42.029 81.0582 42.1481 80.9411 42.2947 80.9408L42.3009 80.9411V80.941C42.3009 80.941 43.234 80.9398 44.0081 81.2089C44.108 81.2438 44.2048 81.2834 44.2972 81.328C44.2591 81.1633 44.2123 80.9921 44.1554 80.833C44.0985 80.6735 44.0338 80.526 43.9519 80.4182V80.4182Z" fill="#00160A"/>
<path fill-rule="evenodd" clip-rule="evenodd" d="M52.2277 81.3239C52.2505 81.2414 52.2724 81.151 52.2918 81.0543C52.3421 80.8034 52.378 80.511 52.3657 80.1986C52.3588 80.0993 52.4169 80.0069 52.5099 79.9693C52.6028 79.9317 52.7095 79.9578 52.7744 80.0336C52.7744 80.0336 53.0525 80.3766 53.2563 80.8508C53.2801 80.9063 53.3031 80.9635 53.3244 81.0224C53.3367 80.9935 53.3495 80.9644 53.363 80.9354C53.4435 80.7611 53.5445 80.5829 53.6761 80.4272C53.7281 80.3683 53.8106 80.3464 53.8853 80.3716C53.96 80.3969 54.012 80.4644 54.0168 80.5425C54.0168 80.5425 54.0557 80.9644 54.1994 81.318C54.2575 81.4614 54.3313 81.5947 54.4396 81.6574C54.5509 81.7267 54.5847 81.8729 54.5147 81.9834C54.4448 82.0941 54.2975 82.1274 54.186 82.058C54.008 81.9389 53.8717 81.7194 53.7872 81.4684C53.7456 81.3444 53.7146 81.2141 53.6918 81.0923C53.6732 81.1299 53.6561 81.1676 53.6405 81.2049C53.5048 81.529 53.4719 81.8164 53.4719 81.8164C53.4587 81.9118 53.3738 81.9811 53.277 81.9755C53.1801 81.9699 53.1039 81.8914 53.1019 81.7951C53.0899 81.5197 52.9945 81.2512 52.8811 81.0211C52.864 80.9864 52.8464 80.9525 52.8286 80.9197C52.8216 80.9957 52.8127 81.0694 52.8028 81.1403C52.7225 81.7082 52.556 82.0947 52.556 82.0947C52.5069 82.203 52.3949 82.2694 52.2755 82.2608C52.1562 82.2524 52.0548 82.1708 52.0217 82.0568C51.9911 81.9613 51.9508 81.8911 51.9081 81.8388C51.9028 81.8322 51.8973 81.8261 51.8918 81.8204C51.8629 81.9081 51.8324 81.9892 51.8018 82.063C51.6618 82.4004 51.5191 82.5904 51.5191 82.5904C51.4616 82.668 51.372 82.7161 51.2748 82.7212C51.1777 82.7261 51.0835 82.6875 51.0183 82.6159C50.8396 82.4149 50.7341 82.148 50.6939 81.8703C50.6639 81.6632 50.6667 81.4529 50.681 81.2743C50.5021 81.3945 50.38 81.5339 50.38 81.5339C50.3067 81.6333 50.1657 81.6548 50.0656 81.5818C49.9654 81.5091 49.9438 81.3692 50.0173 81.2699C50.0173 81.2699 50.2135 80.9784 50.5107 80.7751C50.654 80.677 50.8218 80.6078 50.9994 80.5819C51.0877 80.5735 51.1749 80.6073 51.2342 80.6728C51.2936 80.7382 51.318 80.8278 51.3004 80.914C51.3004 80.914 51.2503 81.2601 51.2934 81.6286C51.3242 81.548 51.3539 81.4604 51.3801 81.3658C51.4106 81.247 51.5094 81.1578 51.6314 81.139C51.6314 81.139 51.9146 81.0866 52.191 81.2946C52.2032 81.3038 52.2154 81.3136 52.2277 81.3239V81.3239Z" fill="#00160A"/>
<path fill-rule="evenodd" clip-rule="evenodd" d="M44.5132 80.0111C44.5132 80.0111 43.762 79.363 43.3224 78.7027C43.2149 78.5412 43.1275 78.3792 43.0799 78.2272C43.0414 78.1037 43.026 77.9897 43.0954 77.9027C43.2613 77.6931 43.6653 77.4475 44.2906 77.2135C44.8503 77.0038 45.5814 76.8189 46.4851 76.6948C47.9441 76.4946 49.8478 76.4549 52.2118 76.814C53.2245 76.9653 53.8257 77.1879 54.0878 77.4675C54.2405 77.6306 54.2139 77.8109 54.0693 77.9828C53.432 78.741 51.1788 79.3639 48.7119 78.9732C48.2529 78.9006 47.7873 78.7882 47.3226 78.6376C47.0434 78.5451 46.8439 78.4549 46.7132 78.3652C46.6436 78.3175 46.5971 78.2764 46.5812 78.2316C46.57 78.1998 46.6047 78.1812 46.6368 78.1539C46.7203 78.0833 46.8513 78.0229 47.0125 77.9682C47.8051 77.6996 49.2854 77.6237 50.113 77.9503C50.2358 77.9971 50.3738 77.9362 50.421 77.8143C50.4681 77.6924 50.4068 77.5553 50.2839 77.5086C49.2427 77.126 47.2965 77.3259 46.5683 77.7355C46.2971 77.8881 46.1771 78.0838 46.2004 78.2682C46.2124 78.3628 46.2594 78.4645 46.3634 78.5637C46.5041 78.6979 46.7724 78.8439 47.2095 78.9819C47.6922 79.1379 48.1768 79.2495 48.6529 79.3294C50.5132 79.6415 52.2594 79.4125 53.3671 78.9687C53.8516 78.7746 54.2176 78.5368 54.4336 78.2909C54.7666 77.9121 54.792 77.5072 54.4577 77.1339C54.1588 76.8001 53.4794 76.4797 52.2993 76.2769C49.8686 75.8654 47.9022 75.8553 46.3972 76.0579C45.4338 76.1877 44.6576 76.4046 44.0657 76.6399C43.3025 76.9432 42.834 77.2926 42.6372 77.5562C42.4108 77.8625 42.4534 78.286 42.7042 78.7213C43.1542 79.5026 44.2257 80.3544 44.2257 80.3544C44.3213 80.4332 44.4632 80.4202 44.5425 80.3255C44.6219 80.2306 44.6087 80.0898 44.5132 80.0111Z" fill="#00160A"/>
<path fill-rule="evenodd" clip-rule="evenodd" d="M54.2369 77.6419C54.2369 77.6419 54.173 77.7272 54.0776 77.884C54.0348 77.9544 53.985 78.0357 53.9389 78.1338C53.8899 78.2377 53.8439 78.3571 53.8025 78.4863C53.685 78.8532 53.6048 79.2916 53.5275 79.6988C53.5075 79.8041 53.4933 79.9077 53.4695 80.0058C53.4058 80.2689 53.3338 80.4991 53.3174 80.6902C53.3181 80.8208 53.4253 80.9263 53.5569 80.9258C53.6885 80.9253 53.7949 80.8187 53.7943 80.6882C53.7788 80.5306 53.7696 80.3308 53.8141 80.114C53.8401 79.9867 53.8903 79.8586 53.9394 79.7268C54.0516 79.4266 54.203 79.1287 54.33 78.8488C54.3797 78.7393 54.4299 78.6356 54.4679 78.5348C54.5054 78.4347 54.5329 78.3397 54.5555 78.2537C54.6258 77.9879 54.6504 77.8177 54.6504 77.8177C54.6994 77.7044 54.6465 77.5731 54.5323 77.5246C54.4182 77.476 54.2859 77.5286 54.2369 77.6419V77.6419Z" fill="#00160A"/>
<path fill-rule="evenodd" clip-rule="evenodd" d="M53.9771 80.0825C53.8774 80.1397 53.8165 80.1781 53.8165 80.1781C53.7218 80.2578 53.5798 80.2462 53.4994 80.1522C53.4191 80.0582 53.4307 79.9173 53.5254 79.8375C53.5254 79.8375 53.8149 79.5362 54.2035 79.3001C54.3793 79.1932 54.5782 79.1106 54.771 79.058C54.9095 79.0263 55.0525 79.0884 55.1231 79.2108C55.1938 79.3331 55.1755 79.487 55.0781 79.5896C55.0781 79.5896 54.8607 79.8115 54.6593 80.097C54.7495 80.0824 54.8426 80.0727 54.9346 80.0712C55.2035 80.0663 55.4611 80.122 55.632 80.2935C55.6784 80.3354 55.702 80.3966 55.6957 80.4584C55.6896 80.5204 55.6543 80.5757 55.6006 80.6078C55.6006 80.6078 55.3877 80.7155 55.1514 80.8971C55.0626 80.9655 54.9722 81.0464 54.8873 81.1328C54.6938 81.3293 54.5178 81.5524 54.55 81.7516C54.5638 81.8816 54.4688 81.9981 54.3379 82.0117C54.2071 82.0254 54.0896 81.9311 54.0757 81.8013C54.0659 81.587 54.1647 81.3577 54.3435 81.1468C54.4873 80.977 54.6773 80.8177 54.8538 80.6762C54.9265 80.6178 54.997 80.563 55.062 80.5138C55.0303 80.5155 54.9983 80.5187 54.9664 80.5226C54.6026 80.5665 54.2326 80.7743 54.2326 80.7743C54.1365 80.8201 54.0222 80.8064 53.9398 80.739C53.8574 80.6716 53.822 80.563 53.8489 80.4605C53.875 80.3366 53.9202 80.2083 53.9771 80.0825V80.0825Z" fill="#00160A"/>
<path fill-rule="evenodd" clip-rule="evenodd" d="M43.5079 59.0327C43.5079 59.0327 42.6277 59.1408 41.8486 59.3765C41.3963 59.5134 40.9814 59.7021 40.7538 59.9203C40.6072 60.0609 40.5294 60.2203 40.5139 60.3845C40.4948 60.5845 40.572 60.8137 40.8294 61.05C41.1169 61.3137 41.6878 61.6161 42.6671 61.9439C43.3538 62.1633 44.12 62.3536 44.9362 62.5075C46.6141 62.8239 48.5005 63.0004 50.3121 63.0861C52.3333 63.1818 54.2615 63.1495 55.7072 63.0555C56.8236 62.9829 57.658 62.8702 58.0367 62.7248C58.6623 62.4931 59.3037 62.2935 59.6547 62.0538C59.8541 61.9177 59.9688 61.7599 59.997 61.594C60.0245 61.4317 59.9739 61.2461 59.7881 61.0412C59.5605 60.7899 59.0882 60.4822 58.2712 60.103C58.1512 60.0494 58.01 60.1025 57.9559 60.2215C57.9019 60.3405 57.9554 60.4808 58.0754 60.5343C58.6839 60.796 59.0907 61.0153 59.3377 61.2086C59.4386 61.2876 59.5105 61.358 59.5525 61.4264C59.5759 61.4644 59.5911 61.4977 59.5864 61.5309C59.5696 61.6487 59.4337 61.7297 59.2607 61.8249C58.9143 62.0153 58.4025 62.1865 57.9039 62.3831C57.4606 62.5511 56.3655 62.6736 54.9228 62.7127C53.606 62.7484 52.0048 62.7069 50.342 62.5886C48.559 62.462 46.707 62.233 45.0583 61.896C44.271 61.735 43.5297 61.5525 42.867 61.3354C42.0041 61.066 41.4923 60.8277 41.2346 60.6036C41.156 60.5353 41.0976 60.4889 41.1012 60.4292C41.1035 60.3909 41.1301 60.3583 41.1629 60.3244C41.3353 60.1456 41.6639 60.0001 42.0149 59.8764C42.7443 59.6193 43.5741 59.4744 43.5741 59.4744C43.697 59.4563 43.7818 59.3426 43.7635 59.2207C43.7453 59.0989 43.6308 59.0146 43.5079 59.0327V59.0327Z" fill="#00160A"/>
<path fill-rule="evenodd" clip-rule="evenodd" d="M40.6208 60.1926C40.6208 60.1926 40.3626 60.5093 40.3078 61.1279C40.2916 61.3123 40.297 61.5242 40.3369 61.7619C40.3713 61.9673 40.4324 62.1929 40.5336 62.4336C40.7012 62.8316 40.9795 63.2721 41.3913 63.757C42.0746 64.5517 42.5988 65.3338 42.9461 66.0035C43.0363 66.1772 43.1111 66.3449 43.1767 66.501C43.4805 67.2218 43.5819 67.6982 43.5819 67.6982C43.6172 67.824 43.7486 67.8978 43.8754 67.8627C44.0022 67.8277 44.0766 67.6973 44.0413 67.5715C44.0413 67.5715 43.8127 66.947 43.3521 66.0119C43.2025 65.7085 43.0399 65.3667 42.8416 65.0063C42.5653 64.504 42.2343 63.9611 41.8289 63.4123C41.4876 62.959 41.2766 62.5477 41.1323 62.1904C41.0514 61.9903 40.9924 61.8079 40.9521 61.6405C40.769 60.8813 40.9923 60.4447 40.9923 60.4447C41.0623 60.3429 41.036 60.2038 40.9335 60.1344C40.831 60.0649 40.6909 60.091 40.6208 60.1926V60.1926Z" fill="#00160A"/>
<path fill-rule="evenodd" clip-rule="evenodd" d="M43.6051 64.066C43.6051 64.066 43.6506 64.2812 43.754 64.6106C43.7879 64.7183 43.8283 64.8374 43.8797 64.9626C43.9318 65.0895 43.9974 65.2205 44.0635 65.3578C44.234 65.7119 44.4342 66.0893 44.597 66.4569C44.6704 66.6231 44.744 66.7827 44.794 66.9386C44.8879 67.2318 44.9215 67.4943 44.9372 67.6728C44.9584 67.8017 45.0808 67.8894 45.2107 67.8684C45.3406 67.8474 45.4289 67.726 45.4078 67.597C45.3608 67.3991 45.2396 67.1221 45.123 66.7887C45.0821 66.6718 45.0504 66.5459 45.0127 66.4173C44.8704 65.9308 44.7287 65.3907 44.5616 64.9381C44.5031 64.7796 44.4417 64.6323 44.379 64.5033C44.3205 64.3823 44.2594 64.2799 44.2075 64.1918C44.0934 63.9974 44.0176 63.8877 44.0176 63.8877C43.9679 63.7747 43.8353 63.723 43.7214 63.7721C43.6077 63.8213 43.5554 63.9531 43.6051 64.066V64.066Z" fill="#00160A"/>
<path fill-rule="evenodd" clip-rule="evenodd" d="M59.6482 61.7451C59.5644 61.6738 59.5443 61.5501 59.6057 61.4553C59.6728 61.3516 59.8122 61.3216 59.9166 61.3882C59.9166 61.3882 60.1634 61.4966 60.1735 62.0766C60.1783 62.3498 60.1272 62.7592 59.9361 63.3655C59.7794 63.8623 59.5307 64.4993 59.127 65.3046C58.8615 65.834 58.522 66.4333 58.1112 67.1212C57.0296 68.8768 56.3419 70.8424 55.9092 72.645C55.6526 73.7128 55.4753 74.7219 55.3764 75.5993C55.1941 77.2164 55.2377 78.3747 55.2499 78.588C55.2639 78.8028 55.1634 78.9731 55.0029 79.1047C54.6699 79.3778 54.0178 79.4453 54.0178 79.4453C53.8866 79.4553 53.772 79.3578 53.7618 79.2276C53.7516 79.0974 53.8499 78.9835 53.9811 78.9736C53.9811 78.9736 54.2885 78.9574 54.5499 78.8545C54.6831 78.8021 54.8262 78.7443 54.8225 78.6073C54.8149 78.3894 54.8359 77.2111 55.0181 75.5599C55.1165 74.6697 55.2495 73.6397 55.478 72.5495C55.8691 70.6837 56.5124 68.6418 57.5677 66.8028C57.9019 66.236 58.1793 65.7261 58.421 65.274C58.7499 64.6593 59.0034 64.1476 59.1908 63.717C59.5706 62.844 59.6865 62.3275 59.6894 62.0195C59.6905 61.9067 59.6862 61.8038 59.6711 61.7624L59.6693 61.7612C59.6693 61.7612 59.6686 61.7609 59.6676 61.7602C59.6661 61.759 59.6625 61.757 59.658 61.7532C59.6563 61.7517 59.6419 61.7494 59.6473 61.7457L59.6482 61.7451ZM59.7462 61.8346C59.7283 61.7828 59.7047 61.7618 59.6749 61.7807L59.6949 61.7973C59.7042 61.8046 59.7141 61.812 59.7234 61.8188L59.7462 61.8346H59.7467L59.7536 61.839L59.7462 61.8346Z" fill="#00160A"/>
<path fill-rule="evenodd" clip-rule="evenodd" d="M57.4125 59.7905C57.4593 59.7339 57.7122 59.4225 57.8872 59.0717C57.9702 58.9055 58.0363 58.7302 58.0434 58.5726C58.051 58.4042 58.1337 58.2291 58.3173 58.0141C58.4903 57.8116 58.7645 57.5574 59.146 57.1927C59.2419 57.1032 59.3929 57.1079 59.4831 57.203C59.5732 57.2981 59.5685 57.4481 59.4726 57.5374C59.0977 57.8789 58.8273 58.1156 58.6564 58.3063C58.5532 58.4215 58.4864 58.5053 58.48 58.5973C58.4654 58.8075 58.3796 59.0422 58.2636 59.2619C58.0386 59.6887 57.71 60.0607 57.71 60.0607L57.6901 60.0807C56.6736 60.9503 55.9212 61.4161 55.3851 61.6678C54.6399 62.0177 54.2607 61.966 54.1401 61.9319C53.8832 61.9209 53.7054 61.7962 53.5821 61.629C53.5185 61.5428 53.4715 61.4436 53.4368 61.3441C53.1605 61.5728 52.7517 61.6517 52.7517 61.6517L52.7371 61.6538C52.3836 61.6947 52.1555 61.5866 52.0038 61.443C51.9409 61.3834 51.8916 61.3155 51.8535 61.2461C51.7741 61.3168 51.6864 61.3709 51.5949 61.412C51.1029 61.6329 50.473 61.4356 50.473 61.4356L50.4497 61.4265C50.1734 61.304 50.0198 61.1554 49.943 61.0103C49.8563 60.847 49.855 60.676 49.9199 60.5033C49.4428 60.7556 49.0027 61.0012 48.5346 61.2028C48.2482 61.3261 47.9516 61.4329 47.6321 61.5176C47.053 61.6709 46.6874 61.582 46.4561 61.4304C46.3656 61.3713 46.2925 61.3003 46.2339 61.2223C46.0971 61.3203 45.9227 61.3891 45.7014 61.4017C45.4216 61.4169 45.2064 61.3093 45.0447 61.1489C44.9883 61.0929 44.9394 61.0296 44.8976 60.9637C44.7563 61.0359 44.5883 61.0809 44.4155 61.0807C44.043 61.0807 43.6544 60.9 43.508 60.4075C43.4587 60.2417 43.4866 60.068 43.6154 59.899C43.7263 59.754 43.9301 59.5996 44.203 59.4592C45.3027 58.8932 47.5977 58.4129 47.5977 58.4129C47.7187 58.3853 47.8397 58.4603 47.8674 58.5804C47.8953 58.7005 47.8196 58.8203 47.6986 58.848C47.6986 58.848 46.3282 59.1922 45.2371 59.6222C44.8239 59.7851 44.4518 59.9582 44.2239 60.1329C44.1824 60.1647 44.1188 60.2058 44.0906 60.2363C44.1337 60.3638 44.2208 60.4305 44.3181 60.4514C44.4139 60.472 44.516 60.4532 44.5963 60.4146C44.6194 60.4035 44.6484 60.3791 44.664 60.3652C44.6393 60.2001 44.748 60.0437 44.9132 60.0085C45.0807 59.973 45.2466 60.0747 45.2896 60.2392C45.2931 60.2532 45.2961 60.2672 45.2985 60.281C45.3096 60.3333 45.3528 60.5078 45.4567 60.6451C45.5039 60.7079 45.5678 60.7663 45.6651 60.7608C45.7853 60.7542 45.8686 60.7048 45.9225 60.6389C45.9704 60.5802 46.0012 60.5128 46.0175 60.4558C46.0205 60.3397 46.0348 60.2624 46.0348 60.2624C46.063 60.1071 46.2017 59.9961 46.3606 60.0014C46.5194 60.0068 46.6502 60.1269 46.6677 60.2838C46.674 60.3369 46.6717 60.4193 46.6549 60.516C46.6551 60.5545 46.6579 60.5983 46.6653 60.644C46.6801 60.7368 46.7096 60.8457 46.8066 60.9111C46.9373 60.9993 47.1471 61.0092 47.4785 60.9272C47.7694 60.8553 48.0395 60.7621 48.3013 60.6552C49.3276 60.2358 50.23 59.6143 51.6488 59.1686C51.7814 59.1254 51.9249 59.1931 51.9748 59.3224C52.0247 59.4518 51.9634 59.5973 51.8356 59.653C51.8356 59.653 50.8935 60.0443 50.4883 60.4967C50.4021 60.5928 50.326 60.6813 50.3568 60.7768C50.3844 60.8625 50.4776 60.9309 50.6329 61.0047C50.6999 61.0261 51.0081 61.115 51.2992 61.0483C51.4745 61.0081 51.6436 60.905 51.7298 60.6738C51.765 60.5765 51.8656 60.5185 51.9681 60.5365C52.0706 60.5543 52.1453 60.643 52.1448 60.7463C52.1448 60.7463 52.1358 60.9938 52.2928 61.1484C52.3731 61.2275 52.4988 61.2739 52.6884 61.2566C52.7349 61.2476 52.9519 61.2018 53.1311 61.0854C53.2358 61.0173 53.3341 60.9254 53.3379 60.7858C53.3399 60.6815 53.4264 60.5983 53.5317 60.5996C53.6368 60.601 53.7212 60.6864 53.7205 60.7908C53.7205 60.7908 53.7143 61.0886 53.8333 61.3282C53.896 61.4545 53.9973 61.5664 54.1753 61.5702C54.2005 61.5706 54.2256 61.5763 54.2486 61.5868C54.2486 61.5868 54.5999 61.7178 55.5672 61.1679C56.0429 60.8974 56.6485 60.4646 57.4125 59.7905ZM44.1529 60.2494C44.1029 60.3031 44.0891 60.3458 44.1448 60.3664C44.1855 60.3814 44.168 60.3003 44.1529 60.2494Z" fill="#00160A"/>
<path fill-rule="evenodd" clip-rule="evenodd" d="M61.3206 55.4515C62.1231 55.6762 64.5607 56.4049 66.5241 57.4778C67.9377 58.25 69.0933 59.2147 69.3057 60.2763C69.6184 61.8423 69.9701 63.1024 69.5624 65.0167C69.2327 66.5669 68.4002 68.5512 66.6206 71.4853C65.4493 73.4165 65.3855 74.6053 65.9639 75.361C66.5345 76.105 67.6745 76.3999 68.8132 76.5649C70.2555 76.7737 71.7094 76.769 72.2358 76.9943C73.0891 77.3604 73.923 78.159 73.9438 79.3524C73.9608 80.3116 73.4383 81.5595 71.8567 83.0558C70.0235 84.7889 67.698 85.2006 65.3867 84.5341C63.4377 83.9721 61.4965 82.6346 59.8849 80.673C58.5106 78.9936 57.9781 77.4419 57.9763 75.9274C57.9735 73.6066 59.2425 71.3644 60.6824 68.8501C61.8652 66.7909 62.6651 64.6579 62.6911 62.7289C62.7107 61.2789 62.2886 59.9469 61.249 58.8603C60.9532 58.5508 60.6229 58.3026 60.317 58.1101C59.7336 57.7429 59.2394 57.5771 59.2394 57.5771C59.1215 57.5386 59.0573 57.4122 59.0961 57.2951C59.1349 57.1781 59.2622 57.1144 59.3801 57.1529C59.3801 57.1529 59.9223 57.326 60.5636 57.7194C60.9016 57.9267 61.2663 58.1954 61.5955 58.5313C62.7407 59.7047 63.2214 61.1513 63.2162 62.7333C63.2097 64.7441 62.4071 66.9787 61.1934 69.1362C59.8279 71.5551 58.597 73.7003 58.6095 75.9252C58.6172 77.3144 59.1215 78.7309 60.3862 80.2683C61.9042 82.1212 63.7269 83.3929 65.5639 83.9281C67.6576 84.5381 69.7682 84.1812 71.4372 82.6165C72.8494 81.2937 73.3641 80.2135 73.3536 79.361C73.3419 78.4252 72.6735 77.8082 72.0052 77.5175C71.5036 77.2992 70.1095 77.3183 68.7312 77.111C67.4426 76.9173 66.1763 76.5285 65.5353 75.6828C64.876 74.8125 64.8252 73.429 66.1815 71.2215C67.9364 68.3635 68.7689 66.4318 69.0999 64.9185C69.5024 63.0805 69.1598 61.8681 68.8679 60.3611C68.6816 59.3965 67.5976 58.5535 66.3182 57.8458C63.981 56.552 60.9499 55.7567 60.9499 55.7567C60.8876 55.7405 60.8372 55.6952 60.8149 55.6352C60.7925 55.5752 60.8011 55.5083 60.838 55.4556C61.0802 55.1114 61.3349 54.7671 61.5942 54.1318C61.7453 53.7592 61.8977 53.2876 62.0515 52.6599C62.4045 51.202 62.1296 49.7826 61.5446 48.3615C60.7521 46.4336 59.3939 44.5049 58.2274 42.4734C57.1404 40.5887 56.4413 39.5933 55.9884 38.6865C55.5718 37.8523 55.3577 37.0917 55.2446 35.8068C55.094 34.1057 55.5241 31.2724 55.3546 28.3235C55.2619 26.709 54.9878 25.0591 54.3294 23.5468C54.2775 23.4267 54.3337 23.2876 54.4546 23.2361C54.5756 23.1848 54.7158 23.2405 54.7676 23.3605C55.4377 24.9267 55.7134 26.6318 55.7989 28.2997C55.9498 31.246 55.5033 34.0734 55.6437 35.7732C55.7453 36.9962 55.9419 37.7217 56.3347 38.5172C56.7811 39.4212 57.4732 40.4138 58.5465 42.2931C59.7201 44.339 61.0812 46.2844 61.8821 48.2246C62.4996 49.7192 62.7876 51.212 62.4201 52.7474C62.2651 53.3987 62.1088 53.8879 61.9538 54.2748C61.7387 54.8096 61.5264 55.1506 61.3206 55.4515V55.4515Z" fill="#00160A"/>
<path fill-rule="evenodd" clip-rule="evenodd" d="M41.7414 34.9932C41.6485 34.9228 41.6196 34.7933 41.6786 34.6894C41.7432 34.5756 41.8886 34.5352 42.0033 34.5992C42.0033 34.5992 42.5308 34.8345 42.1236 36.4268C41.9277 37.1937 41.5163 38.3239 40.6984 39.981C40.0143 41.4285 39.6575 42.7657 39.4954 43.9178C39.1504 46.3691 39.676 47.9671 39.676 47.9671L39.6789 47.9765C40.3639 50.3907 41.5508 52.3269 42.7864 53.857C43.5694 54.8266 44.3723 55.6342 45.1053 56.28C46.614 57.609 47.8119 58.2602 47.8119 58.2602C47.9225 58.316 47.9666 58.4505 47.9103 58.5603C47.8541 58.6701 47.7186 58.7139 47.6078 58.6581C47.6078 58.6581 46.3225 58.0555 44.7198 56.7236C43.9429 56.0779 43.0892 55.2618 42.2806 54.2587C41.0028 52.6732 39.8394 50.624 39.1771 48.1116L39.1799 48.1212C39.1799 48.1212 38.6661 46.4289 39.0784 43.8562C39.2675 42.675 39.6483 41.3046 40.3733 39.8267C40.984 38.5285 41.3543 37.5601 41.5675 36.8374C41.8152 35.9974 41.8485 35.5069 41.8129 35.2237C41.7974 35.1005 41.7514 35.0113 41.7414 34.9932V34.9932Z" fill="#00160A"/>
<path fill-rule="evenodd" clip-rule="evenodd" d="M42.1799 44.6815C42.1799 44.6815 42.1855 45.2659 42.3287 46.1746C42.3957 46.6008 42.4915 47.099 42.6387 47.6372C42.8749 48.4999 43.2401 49.4633 43.7228 50.4269C44.0888 51.1573 44.5355 51.8804 45.0615 52.5601C45.2808 52.8437 45.5167 53.1169 45.7613 53.3856C46.2951 53.972 46.8881 54.5208 47.5845 54.9705C47.6964 55.039 47.8435 55.0045 47.9125 54.8933C47.9816 54.7821 47.9466 54.6363 47.8346 54.5678C47.1514 54.1725 46.54 53.6984 46.027 53.1444C45.4938 52.5684 45.0676 51.9136 44.7011 51.2495C44.2083 50.3565 43.8535 49.4264 43.5778 48.5601C43.4444 48.1414 43.3348 47.7364 43.2336 47.3578C43.1293 46.9677 43.0372 46.6052 42.9596 46.2794C42.7252 45.2939 42.6286 44.6469 42.6286 44.6469C42.619 44.5241 42.5105 44.4322 42.3868 44.4417C42.263 44.4512 42.1704 44.5587 42.1799 44.6815V44.6815Z" fill="#00160A"/>
<path fill-rule="evenodd" clip-rule="evenodd" d="M52.0555 44.5418C52.0555 44.5418 51.796 44.8884 51.474 45.5543C51.3322 45.8476 51.1765 46.2026 51.0337 46.6197C50.8859 47.0507 50.7502 47.5472 50.6445 48.1025C50.4422 49.1661 50.3548 50.4454 50.4724 51.9019C50.5378 52.768 50.2386 53.523 49.8106 54.1119C49.0691 55.1321 47.9919 55.6673 47.9919 55.6673C47.8769 55.7308 47.8356 55.875 47.8996 55.989C47.9636 56.1031 48.1088 56.1442 48.2237 56.0808C48.2237 56.0808 49.1042 55.5545 49.8517 54.6484C50.0423 54.4173 50.2258 54.1629 50.3866 53.886C50.7194 53.3128 50.9516 52.6427 50.925 51.8766C50.8792 50.469 51.0467 49.2466 51.2652 48.226C51.3782 47.699 51.5064 47.2266 51.6335 46.8113C51.7561 46.4105 51.8741 46.0624 51.9862 45.7737C52.2345 45.1342 52.4316 44.7867 52.4316 44.7867C52.4998 44.6836 52.4707 44.5452 52.367 44.4776C52.2632 44.4101 52.1235 44.4388 52.0555 44.5418V44.5418Z" fill="#00160A"/>
<path fill-rule="evenodd" clip-rule="evenodd" d="M52.9713 46.444C52.9713 46.444 52.7558 46.5335 52.4495 46.739C52.3073 46.8342 52.1455 46.9538 51.9859 47.1054C51.7278 47.3507 51.4769 47.6733 51.249 48.0317C51.0747 48.3061 50.9258 48.606 50.8058 48.9239C50.7557 49.0565 50.7141 49.1925 50.6701 49.3292C50.5735 49.6296 50.4905 49.9383 50.4712 50.2707C50.4721 50.4013 50.5798 50.5065 50.7113 50.5056C50.8428 50.5047 50.949 50.398 50.9481 50.2674C50.9275 49.9784 50.9365 49.6959 51.0149 49.4326C51.0976 49.1546 51.2485 48.9062 51.406 48.6731C51.6181 48.3595 51.8763 48.0947 52.1209 47.8578C52.2384 47.7441 52.3567 47.6418 52.4634 47.5415C52.5734 47.4382 52.6725 47.3401 52.7624 47.2526C53.0352 46.9871 53.2127 46.8207 53.2127 46.8207C53.3174 46.7546 53.3484 46.6164 53.2817 46.5124C53.2151 46.4085 53.076 46.3778 52.9713 46.444V46.444Z" fill="#00160A"/>
<path fill-rule="evenodd" clip-rule="evenodd" d="M46.0301 32.3821L46.0235 32.378C45.9489 32.3331 45.8714 32.292 45.7987 32.273C45.7672 32.2648 45.7381 32.2569 45.7142 32.2666C45.6516 32.2916 45.5803 32.28 45.5292 32.2364C45.4781 32.1929 45.4558 32.1246 45.4714 32.0596C45.4714 32.0596 45.5795 31.5005 46.3728 31.4513C46.699 31.4311 47.1595 31.5027 47.8095 31.776C47.929 31.8305 47.9815 31.971 47.9265 32.0897C47.8715 32.2083 47.7298 32.2604 47.6103 32.2058C47.0626 31.9356 46.671 31.837 46.3878 31.8409C46.1961 31.8436 46.0665 31.8945 45.9802 31.9538L46.0054 31.963C46.3093 32.079 46.6505 32.3642 46.6505 32.3642C46.714 32.4199 46.7341 32.5098 46.7003 32.5869C46.6665 32.6641 46.5864 32.7107 46.5021 32.7026C46.4036 32.6956 46.2415 32.7436 46.0721 32.7987C45.9614 32.8346 45.8487 32.8762 45.747 32.9161C45.7955 32.9428 45.8447 32.9684 45.8891 32.9888C46.1592 33.1128 46.4392 33.2127 46.4392 33.2127C46.5558 33.2584 46.6245 33.3785 46.6044 33.5012C46.5842 33.6239 46.4804 33.716 46.3553 33.7225C46.2686 33.7292 46.1415 33.7575 46.0112 33.7887L46.0029 33.7907L46.0426 33.8103C46.2448 33.9089 46.4324 33.9766 46.4324 33.9766C46.573 34.0304 46.6565 34.1746 46.6324 34.3221C46.6094 34.4634 46.494 34.5708 46.3523 34.5859C46.3537 34.5913 46.339 34.5871 46.3329 34.5875C46.3394 34.5872 46.3459 34.5867 46.3523 34.5859V34.5853C46.3322 34.5339 46.2602 34.664 46.2186 34.7147C46.1802 34.7616 46.1461 34.8096 46.1195 34.8503C46.1406 34.8886 46.1711 34.9215 46.2074 34.9505C46.2961 35.0213 46.4091 35.076 46.5331 35.1189C47.1004 35.3152 47.8538 35.3033 47.8538 35.3033C47.9776 35.2941 48.0857 35.3864 48.095 35.5092C48.1042 35.6322 48.0112 35.7393 47.8874 35.7485C47.8874 35.7485 47.3698 35.8157 46.8285 35.7644C46.5722 35.7402 46.3131 35.6849 46.0951 35.5931C45.7483 35.447 45.5118 35.1969 45.4515 34.8529C45.4413 34.7857 45.4529 34.7169 45.4848 34.6568C45.4848 34.6568 45.5735 34.4915 45.7045 34.3276C45.6086 34.2746 45.5123 34.2157 45.4293 34.1544C45.2432 34.0167 45.1208 33.8563 45.0945 33.7214C45.0606 33.5698 45.1523 33.4185 45.3032 33.3773C45.3032 33.3773 45.3792 33.3587 45.4917 33.3334L45.4392 33.3019C45.2355 33.1764 45.0935 33.0343 45.0627 32.9384C45.0222 32.824 45.0785 32.6981 45.1912 32.6511C45.1912 32.6511 45.6404 32.479 46.0301 32.3821ZM45.7327 33.6689C45.7295 33.6394 45.7355 33.5857 45.7137 33.6007C45.6863 33.6201 45.6998 33.6435 45.7327 33.6689Z" fill="#00160A"/>
<path fill-rule="evenodd" clip-rule="evenodd" d="M44.5117 31.6643C43.9101 31.4808 43.4663 31.314 43.1432 31.1631C42.3658 30.7997 42.2219 30.5462 42.2219 30.5462C42.1494 30.4462 42.1724 30.3066 42.2732 30.2346C42.3739 30.1627 42.5146 30.1854 42.5872 30.2854C42.5872 30.2854 42.7366 30.4286 43.3574 30.659C43.685 30.7805 44.1308 30.9225 44.7405 31.0657C44.7782 31.0759 44.8137 31.0927 44.8456 31.1155C44.8456 31.1155 45.0105 31.2331 45.1078 31.4097C45.1864 31.5521 45.2234 31.7254 45.1615 31.9074C45.1224 32.0224 45.0333 32.1602 44.8409 32.2888L44.8438 32.2916C44.9737 32.4208 45.0738 32.5687 45.1029 32.7056C45.135 32.8577 45.1208 33.0372 44.9591 33.1803C44.9855 33.2095 45.0107 33.24 45.034 33.2716C45.1461 33.4223 45.2156 33.591 45.2002 33.7455C45.1871 33.8776 45.1242 34.0268 44.9422 34.1424C45.0393 34.2718 45.1431 34.4327 45.2012 34.5905C45.3047 34.8713 45.2829 35.139 45.0225 35.3049C44.8188 35.4345 44.3942 35.5042 43.5994 35.3577C43.5988 35.3576 43.5985 35.3575 43.5979 35.3575C43.5979 35.3575 42.5017 35.181 41.7703 34.7773C41.458 34.605 41.2143 34.3857 41.105 34.1322C41.057 34.0107 41.1174 33.8732 41.2399 33.8256C41.3625 33.7781 41.5009 33.8381 41.5489 33.9596C41.6338 34.1956 41.9005 34.3816 42.2017 34.5329C42.8463 34.8566 43.6594 35.0044 43.6581 35.0041C44.2951 35.0956 44.6341 35.0758 44.7911 34.9651C44.864 34.9137 44.825 34.8316 44.7906 34.7521C44.6745 34.4833 44.3757 34.2154 44.3757 34.2154C44.3138 34.1552 44.2891 34.0666 44.3109 33.9832C44.3327 33.9 44.3978 33.8346 44.4815 33.8118C44.5911 33.7787 44.7384 33.7336 44.6927 33.7018C44.6914 33.7009 44.6894 33.7021 44.688 33.704C44.6894 33.7071 44.6893 33.7093 44.6861 33.7096C44.6841 33.7098 44.6857 33.7064 44.688 33.704C44.6854 33.6982 44.6777 33.6893 44.675 33.6835C44.6599 33.6501 44.6344 33.6191 44.6081 33.5884C44.4869 33.4461 44.309 33.3379 44.309 33.3379C44.2179 33.2774 44.1709 33.1696 44.189 33.0623C44.207 32.9551 44.2868 32.8682 44.3927 32.8403C44.4488 32.824 44.493 32.8063 44.5265 32.7865C44.4811 32.7405 44.3757 32.6798 44.323 32.6405C44.2019 32.5506 44.0867 32.4896 44.0867 32.4896C43.9789 32.4289 43.9175 32.3107 43.9302 32.1884C43.9429 32.066 44.0273 31.9629 44.1454 31.9253C44.2899 31.8768 44.3963 31.8265 44.4728 31.7753C44.4952 31.7603 44.5271 31.7423 44.5437 31.7276C44.5382 31.725 44.5417 31.7006 44.5494 31.7046C44.5593 31.7095 44.5549 31.7179 44.5437 31.7276C44.5441 31.7279 44.5445 31.7279 44.545 31.7279C44.5799 31.7228 44.5452 31.6897 44.5117 31.6643ZM44.595 32.8057C44.5578 32.8784 44.5261 32.9576 44.575 32.9387C44.6442 32.9115 44.6409 32.8642 44.595 32.8057Z" fill="#00160A"/>
<path fill-rule="evenodd" clip-rule="evenodd" d="M49.4493 34.9886C49.4404 35.1441 49.4718 35.2963 49.5156 35.4325C49.6175 35.7496 49.7999 35.9822 49.7999 35.9822C49.8408 36.0374 49.8566 36.1069 49.8436 36.1741C49.7924 36.4772 49.6337 36.6349 49.4478 36.7118C49.2138 36.8089 48.8879 36.7494 48.5827 36.59C48.2267 36.4041 47.9118 36.0844 47.8134 35.8477C47.7245 35.6339 47.772 35.4521 47.8984 35.3231C47.9527 35.2683 48.0069 35.1519 48.0679 35.004C48.1764 34.7404 48.274 34.3816 48.3277 34.0032C48.3618 33.7637 48.3787 33.5166 48.3625 33.2792C48.3465 33.0456 48.3044 32.8212 48.2054 32.6298C48.0048 32.229 48.0281 31.9236 48.1511 31.6928C48.2621 31.4846 48.4546 31.3289 48.6623 31.2308C48.9511 31.0943 49.2481 31.0572 49.2481 31.0572L49.2842 31.0408C49.7203 31.0507 49.9282 31.2625 50.0061 31.5588C50.1168 31.9799 49.8837 32.6395 49.7441 32.9761C49.8755 33.0238 49.9792 33.1012 50.0621 33.1926C50.3447 33.5038 50.3625 34.0041 50.3625 34.0041L50.3616 33.9888C50.3958 34.2824 50.2986 34.4922 50.156 34.6458C49.957 34.8598 49.6457 34.951 49.4493 34.9886ZM49.3306 36.1631C49.2428 36.0154 49.0971 35.7333 49.037 35.4061C48.9986 35.1982 48.992 34.9733 49.0519 34.7521C49.0746 34.6596 49.1566 34.5935 49.2523 34.5901C49.2523 34.5901 49.5672 34.5906 49.7952 34.4382C49.9149 34.3582 50.0068 34.2298 49.9904 34.0249C49.9898 34.0197 49.9896 34.0146 49.9894 34.0095C49.9894 34.0095 49.9923 33.7268 49.8525 33.5075C49.7793 33.3928 49.6605 33.3002 49.4746 33.2936C49.4123 33.2908 49.3556 33.2572 49.3237 33.2042C49.2916 33.1512 49.2887 33.0858 49.3156 33.0301C49.3156 33.0301 49.6347 32.3427 49.6105 31.8427C49.6052 31.7364 49.584 31.6406 49.5223 31.5762C49.473 31.5249 49.394 31.5107 49.2859 31.5139L49.322 31.4975C49.322 31.4975 48.9029 31.5852 48.6952 31.838C48.5981 31.9561 48.595 32.1195 48.7308 32.3469C49.0057 32.8314 49.0566 33.4855 48.9681 34.0949C48.868 34.7844 48.5918 35.405 48.388 35.6681C48.4461 35.7487 48.588 35.9352 48.7226 36.0324C48.8143 36.0986 48.9124 36.1573 49.0102 36.1955C49.112 36.235 49.2094 36.2749 49.2807 36.2257C49.3014 36.2112 49.3178 36.1904 49.3306 36.1631Z" fill="#00160A"/>
<path fill-rule="evenodd" clip-rule="evenodd" d="M40.8126 30.7362C40.8076 30.5664 40.7774 30.3557 40.7844 30.1588C40.7912 29.9645 40.8369 29.7832 40.9332 29.6383C41.0708 29.4312 41.3194 29.2774 41.7879 29.3004C42.3721 29.3308 42.6462 29.5274 42.78 29.7121C43.0571 30.095 42.7986 30.5734 42.7986 30.5734C42.7624 30.6359 42.7057 30.6843 42.6379 30.7103C42.6379 30.7103 42.4915 30.8017 42.2155 31.2317C42.097 31.4163 41.9587 31.6522 41.8107 31.9593C41.6365 32.306 41.5435 32.6148 41.4993 32.8784C41.4032 33.4507 41.5305 33.7946 41.5305 33.7946H41.5427C41.5974 33.9043 41.5487 34.0351 41.4327 34.089V34.101C40.4801 34.5413 39.9823 34.5708 39.76 34.4473C39.5595 34.3357 39.4851 34.1182 39.5262 33.837C39.5724 33.5196 39.7618 33.1063 39.8657 32.8179C39.8382 32.7979 39.7863 32.761 39.7454 32.7357C39.5778 32.6323 39.3865 32.4975 39.2978 32.2814C39.2269 32.1086 39.2164 31.8787 39.3545 31.5599C39.4604 31.313 39.6154 31.1522 39.7865 31.0398C40.0536 30.8645 40.3711 30.8221 40.6255 30.7814C40.6874 30.7716 40.7691 30.7491 40.8126 30.7362ZM42.2732 30.1934C42.2757 30.185 42.2779 30.1761 42.2796 30.1667C42.2874 30.1252 42.2923 30.068 42.2393 30.0249C42.1488 29.951 41.9936 29.9015 41.7456 29.8784C41.5095 29.8559 41.3909 29.9005 41.3496 30.024C41.2728 30.2531 41.3277 30.5606 41.3193 30.7775C41.3125 30.947 41.242 31.0598 41.1199 31.1364C40.9947 31.215 40.7762 31.2423 40.5245 31.2725C40.2495 31.3056 39.9135 31.3604 39.7332 31.7306C39.6461 31.9109 39.6265 32.0407 39.6635 32.1418C39.7009 32.2442 39.7846 32.3118 39.8646 32.3685C39.9581 32.4347 40.0508 32.4886 40.1121 32.5432C40.2293 32.6474 40.271 32.7604 40.2251 32.8904C40.1355 33.1622 39.9377 33.5727 39.901 33.8856C39.8899 33.9797 39.8777 34.0646 39.9462 34.0988C40.0133 34.1323 40.116 34.1191 40.2671 34.0821C40.4621 34.0343 40.7146 33.9333 41.041 33.7695C40.9822 33.5731 40.9196 33.2463 40.9577 32.8104C40.9854 32.4965 41.0721 32.1257 41.2499 31.7044C41.4442 31.2668 41.6204 30.9534 41.7731 30.7328C41.9857 30.4252 42.161 30.2701 42.2732 30.1934Z" fill="#00160A"/>
<path fill-rule="evenodd" clip-rule="evenodd" d="M43.1107 24.4594C43.1107 24.4594 42.8302 24.5247 42.4324 24.8352C42.2722 24.9603 42.0928 25.1279 41.9133 25.3541C41.7804 25.5217 41.65 25.7239 41.5257 25.9609C41.4251 26.1527 41.3321 26.3692 41.2432 26.6106C41.0136 27.2351 40.8456 28.0315 40.7235 29.0401C40.7043 29.1977 40.6835 29.3602 40.6613 29.5279C40.6142 29.8832 40.5613 30.2606 40.526 30.6677C40.5209 30.7981 40.6234 30.9081 40.755 30.9133C40.8865 30.9184 40.9974 30.8165 41.0024 30.686C41.0005 30.2054 41.0031 29.762 41.0484 29.3542C41.0715 29.1475 41.1093 28.9514 41.1475 28.7638C41.2512 28.2557 41.3888 27.817 41.5285 27.4312C41.7515 26.8156 42.0147 26.3569 42.249 25.9943C42.4163 25.7353 42.5682 25.5274 42.7106 25.3671C43.0282 25.0092 43.2587 24.881 43.2587 24.881C43.376 24.8405 43.438 24.7132 43.3972 24.5968C43.3563 24.4803 43.2279 24.4188 43.1107 24.4594V24.4594Z" fill="#00160A"/>
<path fill-rule="evenodd" clip-rule="evenodd" d="M45.7889 28.4678L47.9852 27.8089C48.0649 27.7832 48.1521 27.7968 48.2199 27.8458C48.2878 27.8947 48.3279 27.9728 48.3279 28.0561L48.2699 30.6769C48.2699 30.7688 48.2075 30.8492 48.1179 30.8726C48.1179 30.8726 47.3733 31.0472 46.7318 31.2109C46.2421 31.3358 45.8128 31.4557 45.8128 31.4557C45.7745 31.4656 45.7339 31.4632 45.6972 31.4488C45.6972 31.4488 43.483 30.6359 43.488 30.6359C43.4004 30.5996 43.3436 30.5096 43.3459 30.4106V30.4109L43.3146 28.0205C43.3169 27.9212 43.3671 27.8292 43.4496 27.7731C43.532 27.7168 43.6366 27.7034 43.7308 27.7369C43.7308 27.7369 44.273 27.9164 44.8109 28.108C45.2131 28.2513 45.6129 28.4012 45.7889 28.4678ZM47.812 28.4187L45.8732 29.0869C45.8078 29.1081 45.7371 29.1069 45.6722 29.0839C45.6722 29.0839 45.1301 28.9045 44.5921 28.713C44.3477 28.6262 44.1044 28.5367 43.9114 28.4649L43.8054 30.2575L45.7807 31.0839C45.9176 31.0501 46.2621 30.9643 46.6397 30.8634C47.0997 30.7406 47.609 30.5967 47.8586 30.5256L47.812 28.4187Z" fill="#FFB61D"/>
<path fill-rule="evenodd" clip-rule="evenodd" d="M44.3778 35.8439C44.3778 35.8439 44.4022 35.9351 44.4828 36.0641C44.521 36.1251 44.5757 36.1882 44.6468 36.2388C44.7889 36.3395 44.9727 36.3975 45.1563 36.3903C45.3099 36.3841 45.4593 36.3551 45.6046 36.2434C45.6495 36.2091 45.6926 36.1686 45.7437 36.127C45.8282 36.0581 45.9223 35.9857 46.0222 35.8744C46.0903 35.7627 46.0542 35.6171 45.9414 35.5496C45.8289 35.482 45.6822 35.518 45.6142 35.6297C45.578 35.7252 45.557 35.8094 45.5031 35.861C45.4679 35.8945 45.4227 35.9039 45.384 35.9147C45.3583 35.9218 45.3338 35.9127 45.3093 35.9121C45.2522 35.9107 45.2137 35.8669 45.166 35.8404C45.1079 35.8079 45.0705 35.7505 45.0196 35.7134C44.9754 35.6812 44.9279 35.6631 44.8886 35.6407C44.7993 35.5897 44.7375 35.5757 44.7375 35.5757C44.6629 35.4772 44.5217 35.4573 44.4225 35.5312C44.3232 35.6053 44.3032 35.7453 44.3778 35.8439V35.8439Z" fill="#00160A"/>
<path fill-rule="evenodd" clip-rule="evenodd" d="M50.3434 32.1039C50.3434 32.1039 50.527 31.9681 50.7839 31.7104C50.9034 31.5905 51.0392 31.4457 51.1711 31.2728C51.3855 30.9914 51.5891 30.6421 51.7842 30.276C51.939 29.9855 52.074 29.6802 52.1906 29.3758C52.2422 29.2413 52.2866 29.1063 52.3339 28.9751C52.4515 28.6485 52.5499 28.3348 52.5712 28.0288C52.5718 27.8982 52.4655 27.7917 52.3339 27.791C52.2023 27.7903 52.095 27.8958 52.0943 28.0264C52.1093 28.2643 52.093 28.5203 52.0175 28.7767C51.9695 28.9401 51.8961 29.101 51.8154 29.2603C51.529 29.8246 51.0893 30.3383 50.7404 30.7797C50.629 30.9208 50.5268 31.0541 50.4391 31.1771C50.1756 31.5464 50.0161 31.7975 50.0161 31.7975C49.9309 31.8871 49.935 32.0285 50.0254 32.113C50.1156 32.1976 50.2582 32.1935 50.3434 32.1039V32.1039Z" fill="#00160A"/>
<path fill-rule="evenodd" clip-rule="evenodd" d="M55.2019 30.616C55.2019 30.616 55.0701 30.9239 54.7944 31.381C54.6648 31.5962 54.4998 31.8403 54.3065 32.1073C54.0074 32.5202 53.6397 32.9855 53.1344 33.41C52.7811 33.7067 52.3746 33.9958 51.8904 34.2338C51.7031 34.3259 51.5063 34.4144 51.2951 34.485C50.8711 34.6264 50.399 34.709 49.8858 34.7633C49.7555 34.7823 49.6654 34.9025 49.6845 35.0317C49.7035 35.1608 49.8248 35.2505 49.955 35.2314C50.4899 35.132 50.9691 34.9801 51.4131 34.8227C51.6345 34.7441 51.8483 34.6681 52.0515 34.5836C52.5852 34.3614 53.0516 34.1027 53.4535 33.8147C54.0399 33.3944 54.5023 32.933 54.8313 32.4834C55.0449 32.1912 55.2009 31.9049 55.3172 31.6549C55.5693 31.1128 55.6349 30.7378 55.6349 30.7378C55.6688 30.6192 55.5992 30.4956 55.4797 30.4621C55.3602 30.4285 55.2358 30.4975 55.2019 30.616V30.616Z" fill="#00160A"/>
<path fill-rule="evenodd" clip-rule="evenodd" d="M42.4895 23.8954C42.4512 23.8946 42.4046 23.896 42.3621 23.8935C42.0489 23.8725 41.7073 23.8014 41.4726 23.6739C41.2862 23.5724 41.1551 23.4388 41.1009 23.2844C41.0448 23.1245 41.0448 22.9334 41.1872 22.7184C41.3401 22.4876 41.6949 22.1892 42.3807 21.8486C42.394 21.8414 42.4081 21.8356 42.4225 21.8311L43.3784 21.5689C43.4386 21.5503 43.5043 21.5606 43.5559 21.5968C43.6073 21.6329 43.6391 21.6908 43.6416 21.7534C43.6416 21.7534 43.6432 22.0813 43.8653 22.4039C43.9801 22.5707 44.1556 22.7321 44.4101 22.8506C44.8884 23.0573 45.1079 23.363 45.1916 23.6344C45.3108 24.0204 45.1362 24.359 44.9295 24.4768C44.9142 24.4856 44.8979 24.4925 44.8812 24.4974V24.4845C44.8812 24.4845 44.1238 24.7356 43.5172 24.7242C43.2309 24.7187 42.9791 24.6413 42.8096 24.5109C42.5183 24.2778 42.4976 24.0667 42.4895 23.8954ZM43.285 22.0272L42.5907 22.2653C42.0249 22.5933 41.7374 22.8367 41.6463 23.0344C41.6387 23.0507 41.6361 23.0663 41.6352 23.0804C41.6348 23.0867 41.6459 23.0848 41.6502 23.0893C41.6597 23.0993 41.6723 23.1065 41.685 23.1149C41.7435 23.1543 41.8214 23.1797 41.9061 23.2023C42.0562 23.2426 42.2287 23.2609 42.39 23.2642C42.8232 23.277 42.9767 23.4103 43.049 23.5166C43.1047 23.5984 43.1293 23.6937 43.133 23.8054C43.1348 23.8628 43.113 23.9425 43.2135 24.0275C43.3219 24.1235 43.516 24.1397 43.7173 24.1461C44.1217 24.1588 44.5608 24.0897 44.7077 24.0634V24.0615C44.7392 24.0458 44.7603 24.006 44.773 23.9585C44.7973 23.8671 44.7946 23.7517 44.7394 23.634C44.6647 23.475 44.5116 23.3152 44.2515 23.1842C43.9293 23.0323 43.7144 22.8212 43.5642 22.6128C43.4114 22.4007 43.329 22.1866 43.285 22.0272ZM42.5011 23.9044C42.5533 24.0087 42.6249 24.0858 42.6544 23.9937C42.6762 23.9258 42.6059 23.908 42.5011 23.9044ZM42.5576 23.9705L42.5499 23.8385C42.5491 23.8301 42.5564 23.8135 42.5471 23.8145C42.49 23.8221 42.5087 23.8962 42.5576 23.9705Z" fill="#00160A"/>
<path fill-rule="evenodd" clip-rule="evenodd" d="M51.6397 30.2063C51.6397 30.2063 51.8576 30.1997 52.1688 30.2168C52.3234 30.2252 52.4989 30.2461 52.685 30.2742C52.9898 30.3199 53.3244 30.3872 53.6075 30.6024C53.7831 30.7358 53.9489 30.9083 54.0683 31.1519C54.1368 31.2915 54.2003 31.4493 54.2313 31.6321C54.2738 31.8824 54.2569 32.1707 54.2181 32.4999C54.2111 32.6304 54.3122 32.7418 54.4435 32.7487C54.575 32.7557 54.6873 32.6554 54.6942 32.525C54.6906 32.1574 54.6404 31.8448 54.5858 31.5685C54.5552 31.414 54.5264 31.2708 54.4871 31.1385C54.3685 30.7394 54.1792 30.4411 53.9474 30.2147C53.6104 29.8854 53.188 29.703 52.7842 29.6394C52.5577 29.6036 52.3386 29.6089 52.1509 29.6305C51.7817 29.673 51.536 29.7718 51.536 29.7718C51.4151 29.8003 51.3403 29.9206 51.3688 30.0406C51.3975 30.1604 51.5188 30.2348 51.6397 30.2063V30.2063Z" fill="#00160A"/>
<path fill-rule="evenodd" clip-rule="evenodd" d="M47.5016 27.4753C47.5332 27.4562 47.56 27.4292 47.5795 27.3967H47.5908C47.5908 27.3967 47.7674 27.107 47.8603 26.6765C47.9082 26.4538 47.9366 26.1939 47.9051 25.9171C47.866 25.5497 47.7413 25.2489 47.5665 25.0005C47.3735 24.7265 47.1169 24.5176 46.8254 24.3659C46.2292 24.056 45.4921 23.9924 44.9387 24.1078C44.3193 24.2356 43.7382 24.7872 43.5348 25.5005C43.3673 26.0876 43.4585 26.7828 43.9889 27.4405C44.3816 27.902 44.8948 28.0908 45.4193 28.1042C45.8019 28.1141 46.1874 28.0316 46.5211 27.92C47.0878 27.7304 47.5016 27.4638 47.5016 27.4638V27.4753ZM47.2112 27.1071C47.2581 27.0301 47.3657 26.8363 47.438 26.5744C47.488 26.3931 47.5232 26.1802 47.5097 25.9508C47.4898 25.6548 47.4069 25.4053 47.2689 25.2043C47.1145 24.9795 46.8975 24.8148 46.6563 24.6993C46.1416 24.4524 45.5097 24.435 45.0451 24.5556C44.5952 24.6732 44.1999 25.1077 44.076 25.6385C43.9748 26.0719 44.0705 26.5723 44.478 27.0346C44.7414 27.3499 45.093 27.4611 45.4479 27.4844C45.7637 27.505 46.0843 27.4621 46.3671 27.3936C46.7586 27.2987 47.0785 27.1661 47.2112 27.1071Z" fill="#00160A"/>
<path fill-rule="evenodd" clip-rule="evenodd" d="M48.2773 23.7097C48.2162 23.7145 48.1593 23.741 48.1186 23.7839H48.1287C48.1287 23.7839 47.9997 23.9276 47.9581 24.0896C47.9181 24.245 47.948 24.4098 48.1201 24.5412C48.2418 24.6343 48.4935 24.715 48.9833 24.6886C49.5932 24.6536 50.1171 24.6136 50.6555 24.6546C51.1365 24.6911 51.6293 24.7956 52.2114 25.0414C52.7268 25.2524 53.1734 25.1478 53.5544 24.8675C53.8367 24.6598 54.0814 24.3458 54.2851 24.0023C54.5879 23.4922 54.8021 22.918 54.9492 22.6062C55.0145 22.467 55.145 22.3462 55.3067 22.2266C55.9356 21.7616 56.9798 21.3565 57.5867 20.7244C57.8192 20.4821 57.8497 20.2565 57.7816 20.0754C57.703 19.8664 57.4444 19.6755 57.055 19.5976C56.3307 19.4529 55.1403 19.6357 54.4732 20.3471C54.0789 20.7647 53.5605 21.3177 52.8916 21.8517C52.5358 22.1359 52.137 22.4142 51.6947 22.6653C50.7559 23.1984 49.6196 23.6065 48.2773 23.6965V23.7097ZM48.4152 24.1833C48.4537 24.1965 48.5508 24.1922 48.6312 24.1943C48.6721 24.1954 48.7169 24.1945 48.766 24.1923C48.8197 24.1899 48.8781 24.1851 48.9418 24.1784C49.7129 24.0997 50.3532 24.017 51.0523 24.0934C51.4845 24.1406 51.9374 24.2505 52.4543 24.4528C52.8354 24.6074 53.1385 24.4263 53.392 24.1514C53.8831 23.6196 54.2072 22.7484 54.4064 22.347C54.5138 22.1332 54.7071 21.9366 54.9639 21.7571C55.5863 21.3225 56.6167 20.9675 57.2224 20.3704C57.259 20.3343 57.2873 20.3017 57.3028 20.2686C57.3077 20.2583 57.3162 20.2502 57.3132 20.2414C57.3019 20.2088 57.2678 20.1864 57.2275 20.1627C57.0253 20.0444 56.6755 19.9923 56.2913 20.0162C55.7606 20.0488 55.1626 20.2276 54.7674 20.6263C54.3552 21.0452 53.8055 21.5905 53.1174 22.1323C52.7465 22.4242 52.336 22.7153 51.882 22.9837C50.9252 23.5493 49.7775 24.0126 48.4085 24.1586C48.4124 24.1639 48.4154 24.1756 48.4152 24.1833ZM48.4702 24.1808C48.4633 24.1711 48.4555 24.1686 48.4485 24.1791L48.4462 24.1836L48.4364 24.1844C48.416 24.2312 48.4205 24.2689 48.4772 24.2798C48.4865 24.2818 48.4905 24.2721 48.491 24.2579C48.4441 24.2429 48.4246 24.2192 48.4462 24.1836L48.4702 24.1808Z" fill="#00160A"/>
<path fill-rule="evenodd" clip-rule="evenodd" d="M44.6889 43.8989C44.688 43.3356 44.687 42.1803 44.6921 41.0249C44.6994 39.411 44.7185 37.7973 44.7185 37.7973C44.7185 37.7201 44.7497 37.6463 44.8049 37.5921C44.8601 37.5379 44.935 37.508 45.0127 37.5091L45.736 37.5254C45.8911 37.5275 46.0158 37.6527 46.0158 37.8067L45.954 44.0443C46.439 44.0711 47.7464 44.1011 49.3423 43.7968C50.0711 43.6578 50.8609 43.4509 51.6565 43.1372C53.3292 42.4776 55.0304 41.3573 56.2898 39.5169C56.3649 39.4096 56.5134 39.3828 56.6217 39.4572C56.7298 39.5315 56.7568 39.679 56.6819 39.7863C55.3339 41.6785 53.536 42.7966 51.7893 43.4719C50.9697 43.7888 50.1624 44.011 49.4152 44.1621C47.3261 44.585 45.7132 44.4646 45.7132 44.4646C45.5997 44.4549 45.5126 44.3605 45.5126 44.2474L45.4516 38.0869L45.3026 38.0864C45.3083 38.6218 45.3203 39.8233 45.3256 41.0249C45.3329 42.6388 45.3281 44.2527 45.3281 44.2527C45.3281 44.3408 45.2911 44.4249 45.2259 44.4849C45.1609 44.5448 45.0735 44.5751 44.9851 44.5685C43.9901 44.4841 43.16 44.0772 42.4917 43.5325C40.9442 42.2714 40.2698 40.2999 40.2698 40.2999C40.2277 40.1841 40.2885 40.0561 40.4053 40.0143C40.5221 39.9726 40.6511 40.0328 40.6931 40.1488C40.6931 40.1488 41.2455 41.5697 42.3987 42.6824C42.9929 43.2559 43.75 43.7502 44.6889 43.8989V43.8989Z" fill="#00160A"/>
<path fill-rule="evenodd" clip-rule="evenodd" d="M55.1994 12.474C55.1994 12.474 55.2615 12.9507 55.3277 13.6695C55.3502 13.9116 55.3731 14.1805 55.3986 14.4678C55.4238 14.7515 55.4544 15.0525 55.4737 15.364C55.5154 16.0396 55.5284 16.7624 55.4339 17.4494C55.3565 18.0126 55.2276 18.5572 54.9796 19.0129C54.7226 19.4853 54.3417 19.852 53.8504 20.078C53.733 20.137 53.6858 20.2794 53.7451 20.3959C53.8045 20.5124 53.9481 20.5592 54.0654 20.5002C54.6176 20.1994 55.002 19.7329 55.2971 19.1817C55.5613 18.6881 55.7591 18.1256 55.8813 17.5243C56.0264 16.8109 56.0869 16.0546 56.0835 15.344C56.0818 15.0195 56.0708 14.7047 56.0432 14.4099C56.0154 14.1127 55.9738 13.8358 55.9286 13.5884C55.7939 12.8516 55.6381 12.3748 55.6381 12.3748C55.6106 12.2548 55.49 12.1794 55.3688 12.2068C55.2478 12.2341 55.1718 12.3538 55.1994 12.474V12.474Z" fill="#00160A"/>
<path fill-rule="evenodd" clip-rule="evenodd" d="M43.0085 21.9059C43.0085 21.9059 43.2688 22.2724 43.8053 22.7076C44.0565 22.9114 44.3685 23.131 44.7432 23.3243C45.3231 23.6235 46.0496 23.8594 46.8886 23.962C47.4574 24.0317 48.0791 24.0283 48.7535 23.9366C49.0065 23.9021 49.2658 23.8518 49.5351 23.7966C50.0668 23.6878 50.6333 23.5448 51.2284 23.315C51.3494 23.2635 51.4055 23.1243 51.3536 23.0043C51.3018 22.8843 51.1614 22.8286 51.0405 22.8801C50.4888 23.1371 49.965 23.3351 49.4595 23.4472C49.204 23.5039 48.9533 23.5345 48.7111 23.5544C48.0764 23.6065 47.4957 23.5543 46.969 23.4545C46.2085 23.3102 45.5728 23.031 45.0429 22.755C44.7015 22.5772 44.4035 22.4015 44.1581 22.2371C43.6418 21.8911 43.3516 21.617 43.3516 21.617C43.2714 21.5231 43.1293 21.5114 43.0345 21.5912C42.9399 21.6708 42.9282 21.8118 43.0085 21.9059V21.9059Z" fill="#00160A"/>
<path fill-rule="evenodd" clip-rule="evenodd" d="M47.1149 20.3946C47.1149 20.3946 46.8064 20.4064 46.354 20.4103C46.1997 20.4117 46.0293 20.4112 45.8486 20.4139C45.6108 20.4174 45.3563 20.4271 45.0976 20.4138C44.7273 20.3945 44.3494 20.353 44.0108 20.2326C43.6933 20.1194 43.3981 19.9582 43.207 19.6932C43.0371 19.4578 42.9653 19.1474 42.9727 18.7727C42.9683 18.6423 42.8579 18.5399 42.7264 18.5443C42.595 18.5487 42.4918 18.6582 42.4962 18.7886C42.5373 19.2562 42.6966 19.6121 42.9151 19.9028C43.0128 20.0327 43.1189 20.1521 43.2393 20.2585C43.415 20.4138 43.616 20.5423 43.8363 20.6481C44.265 20.8537 44.7612 20.9701 45.2441 21.0233C45.4549 21.0465 45.6624 21.06 45.8592 21.056C46.0537 21.0523 46.2369 21.0343 46.401 21.0101C46.8827 20.9395 47.2002 20.833 47.2002 20.833C47.3221 20.8096 47.402 20.6925 47.3785 20.5715C47.355 20.4505 47.2369 20.3713 47.1149 20.3946V20.3946Z" fill="#00160A"/>
<path fill-rule="evenodd" clip-rule="evenodd" d="M42.9531 18.7292C42.9795 18.8382 42.9194 18.9517 42.8107 18.9908C42.694 19.0326 42.5649 18.9725 42.5227 18.8567C42.5227 18.8567 42.4572 18.7437 42.4485 18.3991C42.4459 18.2949 42.45 18.1671 42.475 18.0106C42.4973 17.8715 42.537 17.7099 42.5998 17.526C42.7277 17.1514 42.9616 16.6912 43.2777 16.0882C43.3359 15.9773 43.4016 15.8643 43.4584 15.7401C43.5663 15.5043 43.6572 15.2409 43.7759 14.9622C43.8354 14.8457 43.979 14.7992 44.0964 14.8583C44.2137 14.9174 44.2605 15.0598 44.201 15.1763C44.0686 15.3919 43.9378 15.588 43.8374 15.7858C43.7626 15.9333 43.7054 16.0799 43.6517 16.2188C43.4541 16.7294 43.3514 17.1541 43.2589 17.495C43.2021 17.7047 43.1634 17.8839 43.1228 18.0336C43.0709 18.2241 43.0219 18.364 42.9981 18.4747C42.9709 18.6019 42.9529 18.672 42.9536 18.7083C42.9539 18.7232 42.9534 18.7298 42.9534 18.7298L42.9531 18.7292V18.7292Z" fill="#00160A"/>
<path fill-rule="evenodd" clip-rule="evenodd" d="M47.3611 18.1575C47.3611 18.1575 47.5382 17.9183 47.7737 17.5425C47.8531 17.4159 47.9353 17.2721 48.0192 17.1178C48.2927 16.6141 48.5889 16.0029 48.945 15.5416C49.0266 15.4357 49.1068 15.3343 49.1956 15.2508C49.4274 15.0336 49.6696 14.9087 49.8779 14.9223C50.0095 14.9227 50.1166 14.8169 50.117 14.6863C50.1174 14.5557 50.0109 14.4495 49.8794 14.4491C49.592 14.4668 49.2944 14.6648 48.98 14.9614C48.7753 15.1544 48.5493 15.3764 48.3348 15.6294C48.088 15.9211 47.8433 16.2347 47.6337 16.544C47.5378 16.6855 47.4465 16.8233 47.3711 16.9589C47.2947 17.0962 47.2321 17.229 47.1803 17.3502C47.0232 17.7168 46.9538 17.9677 46.9538 17.9677C46.9011 18.0792 46.9494 18.2122 47.0618 18.2646C47.1743 18.3169 47.3084 18.269 47.3611 18.1575V18.1575Z" fill="#00160A"/>
<path fill-rule="evenodd" clip-rule="evenodd" d="M43.664 14.4726C43.997 14.5829 44.1278 15.0873 43.9558 15.5982C43.7839 16.109 43.3739 16.4342 43.0409 16.3239C42.7079 16.2135 42.5771 15.7092 42.749 15.1982C42.9209 14.6874 43.3309 14.3622 43.664 14.4726Z" fill="#00160A"/>
<path fill-rule="evenodd" clip-rule="evenodd" d="M43.7395 14.2481C43.5155 14.1904 43.2729 14.2419 43.0609 14.4135C42.9337 14.5164 42.8173 14.6578 42.72 14.8285C42.6655 14.9243 42.6131 15.0273 42.5735 15.1401C42.449 15.453 42.4385 15.7687 42.5005 16.0183C42.5679 16.2894 42.7383 16.4789 42.9589 16.5675C43.1877 16.659 43.4501 16.6099 43.6949 16.4528C43.927 16.3038 44.1334 16.035 44.2628 15.6999C44.3112 15.5431 44.3422 15.3881 44.3429 15.2407C44.3438 15.0642 44.3174 14.8997 44.2591 14.7612C44.1489 14.4994 43.9719 14.3103 43.7352 14.2608L43.7395 14.2481ZM43.5927 14.6843C43.6206 14.6977 43.6346 14.7263 43.6545 14.7502C43.7087 14.8151 43.7157 14.9115 43.7253 15.0164C43.7385 15.162 43.7136 15.3286 43.6488 15.4964C43.5985 15.6687 43.5186 15.8179 43.4175 15.9239C43.3236 16.0226 43.2279 16.1081 43.1229 16.0801C43.0086 16.05 42.9364 15.9364 42.9038 15.7925C42.8682 15.635 42.8712 15.4477 42.9245 15.2564C42.9477 15.1828 42.9741 15.1122 43.0094 15.0489C43.0659 14.9477 43.14 14.865 43.217 14.7994C43.3368 14.6974 43.4723 14.6499 43.5884 14.697L43.5927 14.6843Z" fill="#00160A"/>
<path fill-rule="evenodd" clip-rule="evenodd" d="M50.0917 14.7409C50.3971 14.9128 50.4277 15.4327 50.1599 15.9012C49.8921 16.3697 49.4267 16.6106 49.1213 16.4387C48.8159 16.2668 48.7854 15.7469 49.0531 15.2784C49.3209 14.8099 49.7863 14.569 50.0917 14.7409Z" fill="#00160A"/>
<path fill-rule="evenodd" clip-rule="evenodd" d="M50.2095 14.5352C50.0009 14.4358 49.7529 14.4399 49.5115 14.5679C49.3668 14.6446 49.2251 14.7611 49.0966 14.91C49.0245 14.9936 48.9531 15.0847 48.8923 15.1879C48.7095 15.4711 48.638 15.7789 48.6504 16.0357C48.664 16.3146 48.7945 16.5331 48.9937 16.6622C49.2005 16.7957 49.4675 16.7976 49.7382 16.6901C49.9949 16.5882 50.2496 16.3638 50.4415 16.0597C50.5194 15.9151 50.5799 15.7689 50.6092 15.6244C50.6442 15.4514 50.6503 15.2849 50.6199 15.1379C50.5625 14.8599 50.4255 14.6405 50.2028 14.5468L50.2095 14.5352ZM49.9808 14.9351C50.0057 14.9536 50.0139 14.9844 50.0288 15.0116C50.0694 15.0856 50.0575 15.1816 50.0466 15.2864C50.0313 15.4317 49.9746 15.5905 49.8784 15.7428C49.7957 15.9022 49.6883 16.0334 49.5686 16.1182C49.4573 16.1971 49.3468 16.2627 49.2492 16.2152C49.1429 16.1638 49.0941 16.0386 49.09 15.8911C49.0856 15.7297 49.1249 15.5465 49.2142 15.369C49.2513 15.3012 49.2909 15.2369 49.3378 15.1816C49.4128 15.0931 49.5016 15.026 49.5899 14.9764C49.7272 14.8991 49.8694 14.8784 49.9742 14.9467L49.9808 14.9351Z" fill="#00160A"/>
<path fill-rule="evenodd" clip-rule="evenodd" d="M43.8502 19.3209C43.9139 19.3731 43.9994 19.3854 44.0742 19.3529C44.2432 19.2676 44.384 19.1618 44.5057 19.0508C44.6074 18.9582 44.6936 18.8639 44.7689 18.7823C44.9227 18.6154 45.0185 18.4921 45.0185 18.4921C45.0634 18.417 45.0542 18.3216 44.9956 18.2566C44.9368 18.1914 44.8423 18.1716 44.7621 18.2077C44.7388 18.216 44.7076 18.21 44.6719 18.2093C44.5758 18.2069 44.4598 18.1812 44.338 18.1534C43.9761 18.0708 43.5875 17.9233 43.5875 17.9233C43.4366 17.8801 43.2764 17.9539 43.2122 18.0963C43.1498 18.2221 43.1339 18.3573 43.1569 18.4923C43.1742 18.5948 43.2135 18.6993 43.2749 18.794C43.3485 18.9075 43.4422 19.0132 43.5405 19.0952C43.703 19.2304 43.8502 19.3104 43.8502 19.3104V19.3209ZM43.8822 18.6038C43.8895 18.6171 43.8973 18.6302 43.9054 18.6429C43.9575 18.7263 44.0107 18.8026 44.0521 18.8591C44.1633 18.8118 44.2633 18.7535 44.3471 18.6873C44.3634 18.6744 44.3793 18.6613 44.3945 18.6482C44.2278 18.6447 44.0448 18.6258 43.8822 18.6038Z" fill="#00160A"/>
<path fill-rule="evenodd" clip-rule="evenodd" d="M43.7712 19.0763C43.7712 19.0763 43.7419 19.1011 43.6896 19.1715C43.6675 19.2016 43.6465 19.2333 43.6288 19.2792C43.6116 19.3241 43.6018 19.378 43.6005 19.4351C43.5969 19.5993 43.6431 19.7735 43.701 19.9585C43.7144 20.0013 43.7313 20.0419 43.738 20.0862C43.7537 20.1903 43.751 20.2871 43.7721 20.3886C43.8275 20.507 43.9693 20.5586 44.0887 20.5037C44.208 20.4488 44.26 20.308 44.2048 20.1896C44.1632 20.138 44.1077 20.0963 44.0938 20.0307C44.0495 19.8218 44.2126 19.6288 44.244 19.4633C44.251 19.4265 44.2457 19.3926 44.2428 19.3617C44.2326 19.2515 44.2029 19.2014 44.2029 19.2014C44.2403 19.0839 44.1745 18.9584 44.0561 18.9214C43.9377 18.8843 43.8112 18.9496 43.7739 19.0671L43.7712 19.0763V19.0763Z" fill="#00160A"/>
<path fill-rule="evenodd" clip-rule="evenodd" d="M42.715 17.8431C42.715 17.8431 42.5798 17.779 42.344 17.7265C42.2361 17.7025 42.1082 17.6815 41.9664 17.6808C41.7338 17.6797 41.473 17.7284 41.2092 17.7995C41.001 17.8556 40.7982 17.9342 40.6018 18.0329C40.518 18.075 40.4379 18.1223 40.3552 18.1663C40.1656 18.267 39.982 18.3734 39.8224 18.5272C39.7379 18.6271 39.7509 18.7766 39.8518 18.8605C39.9526 18.9444 40.1031 18.9313 40.1876 18.8314C40.2733 18.7046 40.3656 18.5863 40.4899 18.5052C40.5764 18.4489 40.6749 18.4124 40.7738 18.3817C41.1443 18.2662 41.5444 18.3081 41.8795 18.3187C41.987 18.3222 42.0878 18.3228 42.1785 18.319C42.4542 18.3073 42.6315 18.2818 42.6315 18.2818C42.7536 18.3047 42.8714 18.2249 42.8943 18.104C42.9173 17.9828 42.837 17.8659 42.715 17.8431V17.8431Z" fill="#00160A"/>
<path fill-rule="evenodd" clip-rule="evenodd" d="M42.6984 18.6672C42.6984 18.6672 42.6443 18.6323 42.5332 18.5897C42.4836 18.5706 42.4274 18.5515 42.3593 18.5408C42.3042 18.5321 42.2434 18.5321 42.1808 18.5358C42.1216 18.5392 42.0627 18.5494 42.001 18.5604C41.7731 18.6007 41.5501 18.6717 41.3547 18.7471C41.3081 18.7649 41.2627 18.7802 41.2188 18.7944C41.0697 18.8428 40.9603 18.9153 40.8729 19.0124C40.8051 19.1244 40.8416 19.2698 40.9544 19.337C41.0672 19.4042 41.2138 19.3679 41.2816 19.2561C41.2871 19.2398 41.2806 19.2201 41.2922 19.206C41.3171 19.1762 41.3412 19.1407 41.3819 19.1219C41.4298 19.0996 41.4873 19.0925 41.5462 19.087C41.7577 19.0673 41.9877 19.1467 42.1941 19.1677C42.2569 19.174 42.3168 19.1748 42.3702 19.1696C42.5421 19.1529 42.6412 19.1101 42.6412 19.1101C42.7641 19.1275 42.8782 19.0428 42.8958 18.9207C42.9134 18.7988 42.8279 18.6856 42.7049 18.6681L42.6984 18.6672V18.6672Z" fill="#00160A"/>
<path fill-rule="evenodd" clip-rule="evenodd" d="M42.6385 19.2484C42.6385 19.2484 42.5442 19.2252 42.3796 19.2272C42.3064 19.228 42.2215 19.2339 42.1319 19.2586C41.981 19.3003 41.8277 19.3859 41.6748 19.4752C41.544 19.5518 41.4254 19.6361 41.3159 19.7254C41.2637 19.768 41.2162 19.8115 41.1669 19.8502C41.0178 19.9668 40.906 20.0851 40.845 20.2359C40.8154 20.3632 40.8955 20.4902 41.0238 20.5196C41.1519 20.5489 41.2802 20.4696 41.3097 20.3422C41.3105 20.318 41.3025 20.294 41.3112 20.2707C41.3274 20.2275 41.3429 20.1805 41.3793 20.1443C41.4217 20.1022 41.4791 20.072 41.5388 20.0438C41.7528 19.9424 42.0238 19.9373 42.2484 19.8887C42.3172 19.8737 42.3813 19.8548 42.437 19.8325C42.6122 19.7617 42.708 19.6895 42.708 19.6895C42.8307 19.6705 42.9147 19.5562 42.8955 19.4344C42.8763 19.3127 42.7612 19.2294 42.6385 19.2484V19.2484Z" fill="#00160A"/>
<path fill-rule="evenodd" clip-rule="evenodd" d="M46.4227 18.5638C46.4227 18.5638 46.7269 18.619 47.1847 18.6726C47.3389 18.6906 47.5107 18.7044 47.6932 18.7159C48.2858 18.753 48.9912 18.7674 49.5814 18.923C49.7611 18.9704 49.9314 19.0255 50.0783 19.1012C50.3183 19.2249 50.4905 19.3921 50.5745 19.5794C50.6359 19.6948 50.7803 19.7392 50.8966 19.6781C51.013 19.6172 51.0576 19.474 50.9962 19.3586C50.8343 19.0956 50.5302 18.9045 50.1493 18.7362C49.8775 18.6162 49.5719 18.4937 49.242 18.3982C48.8577 18.2867 48.4535 18.192 48.0689 18.1299C47.8926 18.1016 47.7218 18.0764 47.56 18.065C47.3961 18.0533 47.2426 18.053 47.1049 18.0575C46.688 18.0711 46.4196 18.1173 46.4196 18.1173C46.2955 18.1181 46.1954 18.2188 46.1962 18.342C46.1971 18.4653 46.2986 18.5647 46.4227 18.5638V18.5638Z" fill="#00160A"/>
<path fill-rule="evenodd" clip-rule="evenodd" d="M46.384 19.2113C46.384 19.2113 46.6017 19.3058 46.9429 19.4092C47.057 19.4437 47.1856 19.4753 47.3228 19.5041C47.7718 19.5985 48.3096 19.6709 48.7467 19.826C48.847 19.8615 48.9438 19.8958 49.028 19.9428C49.24 20.0611 49.3836 20.2052 49.4099 20.3491C49.4432 20.4754 49.5735 20.551 49.7007 20.5179C49.8281 20.4849 49.9044 20.3555 49.871 20.2292C49.7999 20.0321 49.6062 19.8518 49.3181 19.6924C49.2395 19.6491 49.156 19.6035 49.0683 19.5562C48.8182 19.4213 48.5331 19.2784 48.2328 19.1587C47.9381 19.0413 47.6425 18.9246 47.3694 18.8589C47.2056 18.8195 47.0517 18.8006 46.9198 18.788C46.6374 18.7612 46.459 18.7711 46.459 18.7711C46.3365 18.7505 46.2204 18.8325 46.1996 18.9539C46.1789 19.0754 46.2615 19.1907 46.384 19.2113V19.2113Z" fill="#00160A"/>
<path fill-rule="evenodd" clip-rule="evenodd" d="M46.3739 19.9299C46.3739 19.9299 46.4625 19.9894 46.6177 20.0747C46.6894 20.1143 46.77 20.164 46.8649 20.21C46.9581 20.2553 47.0644 20.292 47.1706 20.3456C47.3131 20.4175 47.4645 20.491 47.5999 20.6032C47.7153 20.6989 47.8361 20.8016 47.9118 20.9432C47.9807 21.0718 47.9992 21.2247 48.015 21.3863C48.0423 21.5141 48.169 21.5958 48.2977 21.5688C48.4264 21.5416 48.5088 21.416 48.4815 21.2882C48.4253 21.1262 48.352 20.9857 48.2741 20.8504C48.2396 20.7904 48.2059 20.7315 48.1733 20.673C47.9939 20.3502 47.7736 20.0835 47.5245 19.8812C47.4148 19.7921 47.3041 19.7156 47.1938 19.6563C47.1417 19.6282 47.0894 19.6047 47.0381 19.5869C46.9364 19.5518 46.8437 19.5301 46.7621 19.5176C46.5782 19.4897 46.4687 19.4935 46.4687 19.4935C46.3473 19.4675 46.2276 19.5443 46.2014 19.6646C46.1752 19.7851 46.2526 19.9039 46.3739 19.9299V19.9299Z" fill="#00160A"/>
<path fill-rule="evenodd" clip-rule="evenodd" d="M43.7415 20.3855C43.6685 20.3422 43.5766 20.3393 43.5007 20.3776C43.4248 20.416 43.377 20.4898 43.3757 20.5705L43.389 20.5704C43.389 20.5704 43.3628 20.7235 43.3906 20.9197C43.4074 21.0372 43.4589 21.1602 43.5411 21.2716C43.641 21.4069 43.8025 21.5075 44.0187 21.5538C44.3474 21.5916 44.5484 21.5416 44.6774 21.4355C44.8377 21.3036 44.9166 21.1033 44.943 20.8664C44.9582 20.7982 44.94 20.7268 44.8942 20.6738C44.8482 20.6208 44.7798 20.5924 44.7095 20.5971C44.7095 20.5971 44.4681 20.659 44.1861 20.5996C44.0314 20.5669 43.8775 20.4799 43.7414 20.3742L43.7415 20.3855V20.3855Z" fill="#00160A"/>
<path fill-rule="evenodd" clip-rule="evenodd" d="M43.454 21.6724C43.454 21.6724 43.5602 21.8149 43.7676 21.9989C43.8647 22.085 43.9846 22.1765 44.1271 22.2629C44.2244 22.322 44.3331 22.3763 44.4507 22.4223C44.6122 22.4853 44.7902 22.5325 44.9796 22.5605C45.4963 22.637 46.0957 22.5822 46.7139 22.213C46.7159 22.212 46.8316 22.1422 46.9893 21.9961C47.0586 21.932 47.1378 21.8541 47.2187 21.7578C47.3403 21.6133 47.4619 21.4284 47.5613 21.1917C47.6027 21.0679 47.5349 20.9338 47.41 20.8927C47.2852 20.8516 47.1501 20.9188 47.1086 21.0428C47.0585 21.2411 46.9893 21.4039 46.907 21.5297C46.8518 21.6142 46.796 21.6845 46.7413 21.737C46.6312 21.8426 46.5402 21.8813 46.5402 21.8813C46.1207 22.0596 45.731 22.085 45.384 22.038C45.203 22.0134 45.0377 21.9601 44.8824 21.9045C44.7678 21.8636 44.6615 21.8157 44.5606 21.771C44.4437 21.719 44.3352 21.6708 44.239 21.6221C43.9546 21.478 43.7744 21.359 43.7744 21.359C43.6873 21.2712 43.5447 21.2702 43.4563 21.3567C43.3678 21.4433 43.3669 21.5847 43.454 21.6724V21.6724Z" fill="#00160A"/>
<path fill-rule="evenodd" clip-rule="evenodd" d="M44.2746 10.7155C44.3941 10.5951 44.5766 10.4329 44.8136 10.2854C45.0494 10.1385 45.3373 10.0028 45.6722 9.94008C46.0449 9.86045 46.2975 10.1063 46.4455 10.5221C46.6968 11.2279 46.656 12.4502 46.656 12.4502C46.6516 12.5104 46.6241 12.5666 46.5792 12.6071C46.5792 12.6071 46.3192 12.8558 45.8594 12.9998C45.6361 13.0699 45.3651 13.1114 45.0536 13.0895C44.7357 13.0672 44.4999 12.8796 44.3303 12.6102L44.3272 12.6049C44.2289 12.6083 44.0682 12.6036 43.903 12.5547C43.7283 12.5029 43.5575 12.3948 43.4308 12.2159C43.285 12.01 43.2063 11.6879 43.3141 11.184C43.3405 11.0826 43.4169 11.0014 43.5171 10.9687L44.2037 10.7301C44.227 10.7224 44.2508 10.7176 44.2746 10.7155ZM46.1968 12.3075C46.2171 12.0508 46.2541 11.3963 46.1564 10.8768C46.124 10.7046 46.079 10.5472 46.0077 10.4322C45.9467 10.3343 45.8652 10.2735 45.7507 10.2993C45.4725 10.3671 45.2363 10.4934 45.0459 10.6289C44.8599 10.7613 44.719 10.9034 44.627 11.0092C44.6281 11.0206 44.6283 11.0321 44.6281 11.0436C44.6281 11.0436 44.5985 11.6844 44.7772 12.1604C44.8454 12.3416 44.9272 12.5155 45.1098 12.5392C45.3428 12.5697 45.5485 12.5511 45.7196 12.5087C45.9454 12.4527 46.1109 12.3624 46.1968 12.3075ZM44.0003 11.4639L43.8703 11.5037C43.8297 11.6925 43.8381 11.8275 43.8935 11.9251C43.9477 12.0204 44.0328 12.076 44.1168 12.1085C44.089 12.0117 44.0666 11.9136 44.0487 11.8174C44.0255 11.6928 44.0101 11.572 44.0003 11.4639Z" fill="#FFB61D"/>
<path fill-rule="evenodd" clip-rule="evenodd" d="M42.5167 13.4119C42.5838 13.4274 42.7185 13.445 42.8949 13.4007C43.0245 13.3683 43.1757 13.3073 43.3315 13.1913C43.5436 13.0335 43.7549 12.7756 43.968 12.4001C44.0383 12.2897 44.1856 12.2568 44.2969 12.3264C44.4081 12.3963 44.4414 12.5425 44.3711 12.6529C44.1391 12.9776 43.9112 13.2062 43.6998 13.3724C43.5724 13.4728 43.4509 13.5496 43.3379 13.6121C42.7607 13.9313 42.3324 13.8004 42.3324 13.8004C42.304 13.7909 42.278 13.7756 42.2559 13.7555C41.9334 13.4898 41.4844 12.7643 41.3694 12.1704C41.2896 11.758 41.3923 11.4089 41.6397 11.2105C41.8383 11.0708 42.0863 10.978 42.3416 10.9458C42.8438 10.8824 43.3424 11.0017 43.3424 11.0017C43.4654 11.0187 43.5515 11.1316 43.5344 11.2536C43.5174 11.3756 43.4037 11.461 43.2807 11.444C43.2807 11.444 42.9475 11.444 42.5843 11.5114C42.3878 11.5478 42.1794 11.6024 42.0301 11.7231C41.9571 11.7744 41.955 11.8755 41.9583 11.9875C41.9627 12.1426 41.9947 12.3173 42.0491 12.4915C42.1631 12.8566 42.3483 13.2225 42.5167 13.4119V13.4119Z" fill="#FFB61D"/>
<path fill-rule="evenodd" clip-rule="evenodd" d="M44.4548 7.86945C44.2612 8.09559 44.1599 8.32233 44.1143 8.55166C44.0734 8.75797 44.0822 8.96597 44.1078 9.17968C44.1258 9.32979 44.1484 9.48244 44.1794 9.63735C44.2347 9.95006 44.2132 10.2107 44.146 10.4199C44.002 10.8688 43.7002 11.0852 43.7002 11.0852C43.6046 11.1637 43.4626 11.1504 43.3835 11.0554C43.3044 10.9604 43.3179 10.8196 43.4136 10.7411C43.4136 10.7411 43.565 10.5763 43.619 10.2885C43.6456 10.1464 43.6395 9.97513 43.5813 9.77422C43.5354 9.60168 43.4931 9.43154 43.4688 9.26245C43.4278 8.97582 43.4295 8.69298 43.4957 8.41799C43.5922 8.01751 43.822 7.62722 44.2868 7.25862C44.344 7.21001 44.4188 7.18688 44.4937 7.19438C44.5686 7.20187 44.6372 7.23939 44.6835 7.29833C44.6835 7.29833 45.1599 7.96126 45.7315 8.57884C45.9901 8.85808 46.2679 9.12732 46.5262 9.32179C46.7972 9.50562 47.0768 9.57621 47.3262 9.5864C47.7917 9.60553 48.1469 9.41561 48.1469 9.41561C48.2659 9.36006 48.4081 9.41086 48.4641 9.52885C48.5201 9.64704 48.4691 9.78806 48.3499 9.84366C48.3499 9.84366 47.8843 10.0416 47.2975 9.98188C46.9887 9.95046 46.6441 9.85505 46.3168 9.61292C46.0309 9.4225 45.7215 9.1524 45.4278 8.87446C45.0328 8.50071 44.6709 8.10992 44.4548 7.86945V7.86945Z" fill="#00160A"/>
<path fill-rule="evenodd" clip-rule="evenodd" d="M47.5227 9.04942C47.5227 9.04942 47.6212 9.19044 47.8123 9.40584C47.8987 9.5033 48.0023 9.61564 48.1286 9.73133C48.2322 9.82625 48.3517 9.92126 48.4811 10.0169C48.5982 10.1037 48.7256 10.1868 48.8581 10.2717C49.2986 10.5541 49.8074 10.8138 50.3143 11.0315C50.4164 11.0754 50.5173 11.12 50.6174 11.1637C50.8674 11.2734 51.1123 11.3719 51.3597 11.4329C51.4893 11.4553 51.6128 11.3691 51.6354 11.2404C51.6579 11.1118 51.5711 10.9892 51.4414 10.9668C51.2001 10.9422 50.9491 10.8986 50.7052 10.8056C50.547 10.7454 50.3947 10.6634 50.2449 10.5765C49.6981 10.2597 49.2214 9.81785 48.8107 9.47008C48.6773 9.35708 48.5512 9.25393 48.4347 9.16551C48.082 8.89736 47.8448 8.73761 47.8448 8.73761C47.758 8.64944 47.6154 8.6476 47.5266 8.73372C47.4377 8.81969 47.4359 8.96125 47.5227 9.04942V9.04942Z" fill="#00160A"/>
<path fill-rule="evenodd" clip-rule="evenodd" d="M54.5289 9.36631C54.1976 9.78232 53.9024 10.1303 53.6276 10.4114C53.3734 10.6713 53.1411 10.8785 52.9308 11.0406C52.6686 11.2428 52.4411 11.3779 52.2519 11.472C51.619 11.7871 51.3514 11.6847 51.3514 11.6847C51.2302 11.6578 51.1539 11.5383 51.1809 11.418C51.2081 11.2979 51.3286 11.2221 51.4218 11.2447C51.4218 11.2447 51.4272 11.2447 51.4383 11.2441C51.4681 11.2427 51.5254 11.224 51.6204 11.1858C51.8132 11.1081 52.098 10.9215 52.5302 10.5524C52.7186 10.3915 52.9358 10.2001 53.1822 9.9663C53.4581 9.70425 53.7762 9.39758 54.1254 9.01829C54.1313 9.01144 54.1375 9.00485 54.144 8.99866C54.144 8.99866 54.5878 8.62311 54.9868 8.78286C55.1662 8.85489 55.3637 9.02503 55.4755 9.4334C55.5495 9.70425 55.5844 10.0954 55.5841 10.6572C55.5839 10.8208 55.5847 10.9992 55.5818 11.1941C55.5766 11.5515 55.5653 11.9633 55.5317 12.4396C55.5171 12.5694 55.3992 12.663 55.2684 12.6486C55.1376 12.6342 55.0433 12.5172 55.0577 12.3874C55.1461 11.801 55.2101 11.3136 55.2217 10.9064C55.2331 10.5046 55.2001 10.1853 55.1572 9.93398C55.0831 9.49934 54.976 9.30052 54.8378 9.23948C54.7892 9.21815 54.7409 9.23843 54.6985 9.25487C54.619 9.28579 54.5562 9.34004 54.5289 9.36631V9.36631Z" fill="#00160A"/>
<path fill-rule="evenodd" clip-rule="evenodd" d="M54.5238 9.24847C54.4993 9.15915 54.5328 9.06039 54.6142 9.00544C54.7169 8.93601 54.8569 8.96238 54.9268 9.06424C54.9268 9.06424 55.1881 9.34997 54.9061 10.1583C54.8315 10.3719 54.7135 10.6275 54.5307 10.9291C54.4434 11.0732 54.3378 11.2259 54.2176 11.3915C53.9453 11.7415 53.6969 12.0496 53.481 12.3205C53.192 12.6833 52.9639 12.9735 52.8541 13.231C52.7651 13.4395 52.7707 13.6143 52.9181 13.7793C53.0453 13.74 53.2526 13.6615 53.4415 13.5255C53.6112 13.4034 53.7697 13.2363 53.827 13.0045C53.8384 12.9532 53.8715 12.9091 53.918 12.8838C53.9645 12.8583 54.0197 12.8542 54.0696 12.8722C54.0696 12.8722 54.5018 13.0399 54.6772 13.2682C54.697 13.2941 54.7142 13.3205 54.7282 13.3476C54.7991 13.2961 54.8813 13.2177 54.9579 13.0991C55.0477 12.9602 55.123 12.7691 55.172 12.5113C55.2011 12.384 55.3291 12.3042 55.4574 12.3333C55.5856 12.3623 55.6661 12.4892 55.6368 12.6165C55.5259 13.0272 55.3617 13.2924 55.1989 13.4652C54.8922 13.791 54.5874 13.8137 54.5874 13.8137C54.5184 13.8215 54.4506 13.7914 54.4107 13.7351C54.3707 13.6787 54.3651 13.6052 54.3961 13.5435C54.4072 13.5227 54.3965 13.5035 54.3835 13.4854C54.3602 13.453 54.3284 13.4226 54.2928 13.3956C54.239 13.3547 54.1784 13.3198 54.1231 13.2919C54.0536 13.4603 53.9468 13.6037 53.8251 13.7257C53.4481 14.1037 52.9089 14.2551 52.9089 14.2551C52.8392 14.2726 52.7654 14.2568 52.7091 14.2122C52.2635 13.8832 52.1959 13.5131 52.3608 13.0425C52.4661 12.7424 52.6899 12.388 52.9974 11.9601C53.199 11.6794 53.4399 11.3665 53.699 11.0082C53.8476 10.8179 53.9691 10.6435 54.0724 10.4868C54.2097 10.2785 54.313 10.1021 54.3853 9.94876C54.5139 9.67587 54.5547 9.49658 54.5513 9.38294C54.55 9.34013 54.5441 9.30831 54.538 9.28648C54.532 9.27409 54.5272 9.2614 54.5238 9.24847L54.5237 9.24837L54.5238 9.24847L54.5293 9.26036L54.5276 9.25636L54.5238 9.24847V9.24847Z" fill="#00160A"/>
</svg>
