<?xml version="1.0" encoding="UTF-8"?>
<!DOCTYPE svg PUBLIC "-//W3C//DTD SVG 1.1//EN" "http://www.w3.org/Graphics/SVG/1.1/DTD/svg11.dtd">
<svg xmlns="http://www.w3.org/2000/svg" version="1.1" width="107px" height="95px" style="shape-rendering:geometricPrecision; text-rendering:geometricPrecision; image-rendering:optimizeQuality; fill-rule:evenodd; clip-rule:evenodd" xmlns:xlink="http://www.w3.org/1999/xlink">
<g><path style="opacity:0.992" fill="#2dc2b4" d="M 56.5,-0.5 C 65.8333,-0.5 75.1667,-0.5 84.5,-0.5C 104.167,3.83517 109.667,15.1685 101,33.5C 96.2584,46.0883 98.0917,57.4216 106.5,67.5C 106.5,70.8333 106.5,74.1667 106.5,77.5C 102.278,86.0561 95.6115,91.7227 86.5,94.5C 81.1667,94.5 75.8333,94.5 70.5,94.5C 58.7135,91.1363 46.7135,88.1363 34.5,85.5C 20.1096,90.6609 8.44296,87.3276 -0.5,75.5C -0.5,72.1667 -0.5,68.8333 -0.5,65.5C 3.37755,59.2283 6.04422,52.395 7.5,45C 7.1758,40.692 5.6758,36.8586 3,33.5C 2.1834,30.0357 2.51674,26.7024 4,23.5C 9.6538,17.5107 16.1538,12.6774 23.5,9C 34.3089,4.71892 45.3089,1.55225 56.5,-0.5 Z"/></g>
<g><path style="opacity:1" fill="#141919" d="M 38.5,21.5 C 48.1724,21.3335 57.8391,21.5002 67.5,22C 75.8675,23.0874 82.0342,27.2541 86,34.5C 87.1244,40.2085 88.4577,45.8752 90,51.5C 90.816,58.0344 88.316,62.8677 82.5,66C 77.3557,68.2703 72.0223,69.937 66.5,71C 57.1667,71.6667 47.8333,71.6667 38.5,71C 32.1175,69.6503 26.1175,67.3169 20.5,64C 17.7807,61.227 16.4473,57.8937 16.5,54C 18.0751,46.8638 19.5751,39.6971 21,32.5C 22.1217,30.3762 23.6217,28.5429 25.5,27C 29.7415,24.6512 34.0748,22.8179 38.5,21.5 Z"/></g>
<g><path style="opacity:1" fill="#f3f3f3" d="M 39.5,23.5 C 48.1731,23.3336 56.8397,23.5002 65.5,24C 72.3397,24.8369 78.173,27.6702 83,32.5C 84.1196,37.8822 85.453,43.2156 87,48.5C 89.474,56.3796 86.974,61.8796 79.5,65C 60.1728,72.7995 41.1728,72.1329 22.5,63C 20.2241,60.6146 18.8908,57.7813 18.5,54.5C 19.998,47.5025 21.498,40.5025 23,33.5C 23.7845,31.714 24.9512,30.214 26.5,29C 30.7415,26.6512 35.0748,24.8179 39.5,23.5 Z"/></g>
<g><path style="opacity:1" fill="#1d1d1d" d="M 45.5,26.5 C 50.1785,26.3342 54.8452,26.5008 59.5,27C 62.6996,27.1015 65.6996,27.7681 68.5,29C 60.1828,28.649 51.8495,28.649 43.5,29C 38.1755,29.6619 33.3421,31.4952 29,34.5C 28.3333,35.8333 28.3333,37.1667 29,38.5C 32.2367,34.1497 36.4034,32.4831 41.5,33.5C 37.5049,34.4934 34.1716,36.4934 31.5,39.5C 45.2841,45.8147 59.2841,46.1481 73.5,40.5C 74.8333,39.5 74.8333,38.5 73.5,37.5C 69.6932,35.7145 65.6932,34.5478 61.5,34C 56.1358,33.8295 50.8025,33.3295 45.5,32.5C 53.1851,31.2924 60.8518,31.459 68.5,33C 71.7789,33.9728 74.7789,35.4728 77.5,37.5C 78.521,36.9984 78.6877,36.3317 78,35.5C 76.1038,33.4701 73.9371,31.8034 71.5,30.5C 74.804,30.2269 77.6373,31.5602 80,34.5C 80.6667,35.8333 80.6667,37.1667 80,38.5C 75.0793,43.0416 69.2459,45.5416 62.5,46C 53.0369,47.0109 43.7035,46.3442 34.5,44C 23.8333,39 23.8333,34 34.5,29C 38.3474,28.3666 42.014,27.5333 45.5,26.5 Z"/></g>
<g><path style="opacity:1" fill="#262626" d="M 40.5,37.5 C 49.1931,36.9639 57.8598,37.6306 66.5,39.5C 57.8525,40.6652 49.1858,40.8319 40.5,40C 39.4019,39.2303 39.4019,38.397 40.5,37.5 Z"/></g>
<g><path style="opacity:1" fill="#1a1a1a" d="M 51.5,49.5 C 56.1063,50.6375 58.9396,53.6375 60,58.5C 59.254,67.9184 54.9207,69.9184 47,64.5C 45.6236,58.5983 47.1236,53.5983 51.5,49.5 Z"/></g>
<g><path style="opacity:1" fill="#eeeeee" d="M 52.5,51.5 C 55.2603,53.939 57.2603,56.939 58.5,60.5C 56.6239,65.7065 53.4572,66.7065 49,63.5C 48.8333,62.5 48.6667,61.5 48.5,60.5C 49.0297,57.1101 50.363,54.1101 52.5,51.5 Z"/></g>
</svg>
