<svg width="116" height="97" viewBox="0 0 116 97" fill="none" xmlns="http://www.w3.org/2000/svg">
<path fill-rule="evenodd" clip-rule="evenodd" d="M26.8791 53.1106C27.0199 53.7203 26.8624 54.357 26.6049 54.9352C26.6694 54.9903 26.7339 55.0455 26.7984 55.1006C28.0869 54.2005 29.3956 53.2818 30.3324 52.0818C30.7271 51.5762 30.2609 50.8381 29.6288 50.5945C28.9967 50.3509 28.2779 50.426 27.5906 50.3999C26.7636 50.3685 25.9443 50.1818 25.2008 49.8553C24.1213 49.3813 23.1307 48.5994 21.9291 48.5833C21.7965 48.5815 21.6544 48.5924 21.5502 48.6661C21.296 48.8456 21.4513 49.2112 21.6422 49.4456C22.5895 50.6087 24.0097 51.4544 25.5722 51.7859C26.2475 51.9292 26.7383 52.5009 26.8791 53.1106Z" fill="#2EC4B6"/>
<path fill-rule="evenodd" clip-rule="evenodd" d="M47.6082 70.8748L30.526 74.2956C27.0347 74.9947 23.5727 73.022 22.7935 69.8893C22.4179 68.3794 22.7288 66.7974 23.6573 65.4938L33.0822 52.2609C35.9837 48.1872 36.9552 43.2435 35.7816 38.525L31.9692 23.1978C31.1899 20.0651 33.3886 16.9588 36.88 16.2597C38.5628 15.9227 40.3259 16.2016 41.7788 17.0347L56.5268 25.4914C61.0671 28.0948 66.5768 28.9665 71.8356 27.9134L88.9178 24.4927C92.4092 23.7935 95.8712 25.7663 96.6504 28.8989C97.0259 30.4089 96.7151 31.9908 95.7866 33.2944L86.3616 46.5273C83.4601 50.6011 82.4886 55.5447 83.6623 60.2633L87.4747 75.5904C88.2539 78.7231 86.0553 81.8294 82.5639 82.5285C80.8811 82.8655 79.118 82.5866 77.6651 81.7535L62.917 73.2969C58.3768 70.6935 52.867 69.8218 47.6082 70.8748Z" fill="#2EC4B6"/>
<path d="M107.689 64.9078C107.689 64.9078 31.1351 64.9439 0.825646 64.9078C-1.55333 60.2544 1.43949 54.0366 6.84596 52.4001C5.15396 54.1321 3.46195 55.8641 1.76995 57.596C4.74271 57.5692 107.689 57.596 107.689 57.596V64.9078Z" fill="white"/>
<path fill-rule="evenodd" clip-rule="evenodd" d="M82.9985 64.9178C44.988 64.931 17.597 64.9276 0.825546 64.9076C-1.55343 60.2542 56.7781 62.2137 78.8972 62.2137C101.016 62.2137 90.7832 64.9151 82.9985 64.9178Z" fill="#EDFFFC"/>
<path fill-rule="evenodd" clip-rule="evenodd" d="M67.1686 11.5614C67.4388 11.285 67.9719 11.2646 68.2674 11.5193C67.3132 9.82343 64.5213 9.31507 63.9215 7.49317C63.1537 5.16094 62.021 2.92566 60.5672 0.873291C59.9622 2.8911 58.8065 4.77406 57.2294 6.31148C56.8191 6.31314 56.4088 6.3148 55.9984 6.31646C55.0663 6.32022 54.1259 6.32479 53.2156 6.50459C51.5777 6.8281 50.1097 7.70446 48.4504 7.92253C48.5733 7.78433 48.6963 7.64612 48.8193 7.50791C48.7851 7.36528 48.5547 7.30003 48.4354 7.39918C48.2253 6.64903 47.5482 6.05996 46.7801 5.70881C46.012 5.35766 44.8794 4.70408 42.6124 4.876C45.3629 7.63864 44.5111 19.1398 45.1878 21.3194C45.4186 21.3747 45.5952 21.1483 45.7453 20.9816C45.8954 20.8149 46.2459 20.7125 46.3269 20.9141C46.8904 22.3154 46.9704 24.4718 48.6974 25.3067C49.0307 25.4678 49.2289 25.1668 49.2031 25.0201C49.1701 24.8328 49.4208 24.6885 49.6298 24.717C49.8387 24.7454 50.0058 24.8812 50.1688 25.002C52.9159 27.0371 57.414 25.9881 60.1643 28.0197C60.7077 28.4212 61.1866 28.9444 61.8648 29.1133C62.2696 29.2142 62.7008 29.1744 63.1143 29.1079C65.5763 28.712 67.7682 27.4014 69.4781 25.7635C71.188 24.1257 72.4647 22.1673 73.6533 20.1926C72.5581 19.6362 71.4068 19.0296 70.8118 18.0345C70.3431 17.2504 70.0548 16.1265 69.0689 16.0307C69.3816 16.942 69.6943 17.8533 70.007 18.7646C70.1215 19.0983 70.2374 19.4463 70.1768 19.7912C70.1163 20.1361 69.8225 20.4749 69.4339 20.4924C68.9065 20.5161 68.535 19.9806 68.0113 19.9196C67.9121 21.6822 67.1578 23.4101 65.8964 24.7643C65.4587 25.2342 64.617 25.6609 64.1729 25.1959C64.8471 24.2186 65.5213 23.2414 66.1955 22.2641C66.6156 21.655 67.0468 21.0178 67.1238 20.3049C67.2008 19.5919 66.8068 18.7832 66.0429 18.5753C66.0089 18.3868 66.2305 18.2249 66.4432 18.2193C66.6559 18.2137 66.8518 18.3147 67.0346 18.4125C67.7146 18.7765 68.3947 19.1405 69.0748 19.5045C68.8578 18.0575 68.4141 16.638 67.7608 15.3009C68.3938 15.2471 69.041 15.3338 69.6288 15.5513C69.1762 14.3766 68.3465 13.3211 67.265 12.5444C66.9452 12.3146 66.8984 11.8377 67.1686 11.5614Z" fill="white"/>
<path fill-rule="evenodd" clip-rule="evenodd" d="M53.5868 8.44324C54.1471 8.77601 54.5891 9.26664 54.8342 9.82797C54.9105 10.0025 55.127 10.0867 55.2731 10.2208C55.4192 10.3548 55.4434 10.6413 55.2387 10.6787C55.1492 10.6951 55.0612 10.6509 54.9828 10.6088C53.7266 9.93579 52.199 9.39239 50.8285 9.85206C51.0539 9.95533 51.1676 10.2203 51.0777 10.4325C51.3575 10.4416 51.6182 10.5545 51.8695 10.6651C52.0908 10.7626 52.3121 10.86 52.5334 10.9575C52.5102 11.0161 52.4871 11.0747 52.4639 11.1333C51.4633 10.6762 50.2411 10.6287 49.2003 11.0064C49.5462 11.0536 49.8987 11.0622 50.247 11.032C50.7548 11.2617 51.2627 11.4913 51.7705 11.721C51.8835 11.7721 52.0027 11.8283 52.0663 11.9264C52.1298 12.0246 52.1057 12.1768 51.9874 12.2172C51.0698 11.4911 49.7717 11.17 48.569 11.3716C48.4286 11.3952 48.3326 11.2195 48.3922 11.1031C48.4518 10.9866 48.5946 10.9269 48.7274 10.88C49.3941 10.6444 50.0973 10.4921 50.8103 10.4287C50.4536 10.132 50.0405 9.8901 49.5942 9.71664C49.5207 9.49111 49.8834 9.27494 50.0866 9.42312C51.6308 9.15151 53.2852 9.42103 54.6245 10.1624C54.6357 9.92666 54.4409 9.72844 54.2586 9.5584C53.6887 9.02685 53.1188 8.4953 52.5489 7.96375C53.5468 8.07719 54.5249 8.32928 55.4378 8.70828C55.6442 8.794 55.8481 8.88655 56.0351 9.00273C56.7394 9.4402 57.1585 10.2227 57.0992 10.9895C56.6726 10.1804 55.9973 9.4783 55.1677 8.98126C54.6935 8.69716 54.1559 8.47595 53.5868 8.44324V8.44324Z" fill="#EDFFFC"/>
<path fill-rule="evenodd" clip-rule="evenodd" d="M17.3134 46.6832C15.8683 47.847 15.9945 49.9061 16.5161 51.5844C17.187 53.7433 18.3218 55.7855 19.8395 57.5656L1.76995 57.7286L6.84596 52.5327C1.43949 54.1691 -1.55333 60.3869 0.825646 65.0403C31.1351 65.0765 61.4447 65.0208 91.7537 64.8734C86.2255 68.2256 80.8663 72.2926 78.2974 77.8179C75.7286 83.3432 76.7923 90.6076 82.2534 94.0473C84.2875 95.3285 86.7301 95.9851 89.1719 96.4C91.6897 96.8279 94.7387 96.8458 96.2927 95.0176C97.2004 93.9498 96.7665 92.2744 96.3374 90.6175C96.0381 89.4616 95.7411 88.3148 95.9034 87.3894C96.4538 84.2517 98.808 82.6605 101.494 80.8448C102.059 80.4634 102.638 80.072 103.218 79.6544C108.17 76.0882 113.847 71.5794 115.292 66.0315C116.612 60.9639 115.159 55.937 111.384 51.9864C110.024 50.564 108.353 49.2693 106.674 47.9681C104.417 46.2196 102.144 44.4593 100.593 42.3612C99.6454 41.08 99.3132 39.7104 98.9647 38.2731C98.8396 37.7572 98.7124 37.2326 98.5538 36.7003C96.5184 29.8655 89.2602 26.3513 81.7863 22.7327L81.7862 22.7326C80.8397 22.2744 79.8897 21.8144 78.9464 21.3458C74.6212 19.1972 70.2558 16.4468 68.867 12.1416C69.6329 12.1684 69.9168 11.1355 69.4755 10.5732C69.1473 10.155 68.6289 9.91969 68.1117 9.68497C67.9335 9.60406 67.7553 9.52321 67.5852 9.43498C66.006 8.61581 65.1006 6.94461 64.1734 5.23319C62.7805 2.662 61.3384 0 57.4879 0C57.3428 0.872347 57.493 1.64951 57.6337 2.37766C57.8512 3.50295 58.0461 4.51118 57.0931 5.57274C54.3644 5.30122 51.5435 5.83662 49.171 7.07631C47.7995 4.73988 44.3209 3.74183 41.5011 4.49827C41.8582 4.90155 42.0699 5.10383 42.2455 5.2715C42.6163 5.62572 42.8255 5.82554 43.9013 7.43971C45.4864 9.81801 44.4822 18.5612 44.2313 19.9435C43.9805 21.3259 45.1675 22.3083 46.2533 21.6256C45.7244 23.6745 47.6299 25.6298 49.9729 25.6888C50.7732 25.8169 51.2705 26.1642 51.7404 26.4925C52.0328 26.6966 52.3146 26.8934 52.6521 27.0255C45.2124 31.8002 36.9764 35.5743 28.3037 38.1829L28.1512 38.2287C26.5285 38.716 24.8322 39.2254 23.6832 40.3568C22.4982 41.5238 22.2199 43.5954 23.5989 44.5759C22.757 45.261 21.6046 45.4473 20.452 45.6336C19.304 45.8191 18.1558 46.0048 17.3134 46.6832ZM94.1685 55.9236C92.8259 57.0619 90.1971 57.1215 88.3499 57.1147L64.3945 57.0268C63.7026 56.2017 64.1306 54.9336 65.0246 54.2833C65.9186 53.6331 67.1222 53.4581 68.2695 53.3766C71.9723 53.1136 75.7382 53.5909 79.2149 54.764C80.1912 54.9197 80.9325 53.8145 80.6966 52.9504C80.4606 52.0863 79.6405 51.4682 78.8778 50.8996C76.4168 49.0652 74.0036 46.9994 72.8485 44.3223C71.6505 41.546 71.998 38.2708 73.7584 35.7472C70.803 37.9501 70.1821 41.9995 71.5093 45.2346C72.8365 48.4698 75.7512 50.9863 78.9093 52.9497C77.1845 53.267 75.3938 52.9135 73.6213 52.5636C71.4735 52.1397 69.3524 51.721 67.4072 52.5073L67.0062 42.6902L65.9665 51.2953C65.8892 51.935 65.6647 52.7266 64.9599 52.8456C63.0468 53.1686 61.9127 55.4165 62.9045 56.9195C62.0497 57.4371 60.7455 57.2055 60.1747 56.4348C59.604 55.6641 59.8715 54.4956 60.7345 53.989C62.8278 52.7604 62.9935 50.1135 62.9365 47.8697L62.5434 32.3774C62.534 32.0034 62.6283 31.5117 63.0413 31.4603C69.0854 30.7068 74.4593 26.6319 76.2951 21.4102C81.6517 23.5632 87.0091 26.0457 91.3315 29.4645C101.223 37.2883 98.5098 43.7938 97.8001 45.4956C97.6757 45.7938 97.6129 45.9445 97.6901 45.929C98.1832 45.8301 98.4173 45.3318 98.5538 44.8952C98.8729 43.8753 99.0807 42.8274 99.1732 41.7713C100.806 44.4925 103.405 46.56 106.009 48.6316C108.39 50.5251 110.774 52.422 112.429 54.8247C114.981 58.5299 115.516 63.2987 113.836 67.3855C111.853 72.2134 107.294 75.5906 102.797 78.9215L102.797 78.9217L102.796 78.922L102.795 78.9231C101.715 79.723 100.639 80.5202 99.6027 81.3342C97.4327 83.0391 95.2496 85.1516 95.1796 87.7388C95.1609 88.432 95.2988 89.1153 95.437 89.7997C95.5347 90.2834 95.6325 90.7677 95.6751 91.2563C95.778 92.4362 95.4535 93.7785 94.34 94.4129C93.8704 94.6804 93.3119 94.7906 92.7614 94.8619C87.0539 95.6016 80.0623 92.1361 78.4342 87.1723C76.8365 82.3014 79.6409 76.2921 83.3256 72.4385C85.6146 70.0445 88.5765 68.3337 91.5482 66.6172C93.36 65.5707 95.1754 64.5221 96.8442 63.3153C98.4081 62.1843 99.9526 60.9652 100.942 59.3969C101.932 57.8286 102.287 55.8348 101.398 54.2186C100.67 52.8942 99.2339 51.9744 97.826 51.0726C96.0556 49.9386 94.3293 48.8328 94.1091 46.986C94.1361 47.8158 94.5265 48.7453 94.9135 49.6667C95.2509 50.47 95.5856 51.2671 95.6747 51.9864C95.8658 53.5307 95.4272 54.8564 94.1685 55.9236ZM97.0813 52.7567C99.4859 52.7803 100.898 55.5117 100.222 57.5823C99.5453 59.6529 97.5586 61.1266 95.6747 62.4677C94.7295 63.1405 93.6858 63.8461 92.4793 63.8542L1.50859 64.4649L1.11001 58.1329L18.655 58.1179C20.9243 58.116 23.4975 58.2324 24.9757 59.7774C25.5132 60.3392 26.4704 59.7275 27.1262 59.278C28.6798 58.2133 30.7894 58.1613 32.7443 58.1542L96.9328 57.9205C97.6211 57.918 98.5473 57.7106 98.5246 57.0933L94.2084 56.9476C95.7585 55.9903 96.8282 54.4298 97.0813 52.7567ZM30.3246 57.4309C31.2875 55.3443 32.018 53.1714 32.5018 50.9551C32.6376 50.3327 32.7544 49.6953 32.6621 49.0665C32.385 47.1793 30.3878 45.9373 28.553 44.9818C29.3362 44.9677 30.0041 44.471 30.5068 43.9319C30.6467 43.7819 30.7803 43.6258 30.9139 43.4698L30.9139 43.4698C31.2603 43.0651 31.6067 42.6605 32.0631 42.3612C32.9995 41.7472 33.1494 41.7362 35.0837 41.5939C35.2829 41.5792 35.501 41.5632 35.7408 41.545C37.4418 41.4156 41.5556 40.0249 44.5595 39.0095L44.5596 39.0094L44.5597 39.0094L44.5598 39.0094L44.5598 39.0093L44.5599 39.0093C46.0923 38.4913 47.3357 38.0709 47.8225 37.9655C54.4849 36.523 59.103 38.4116 60.143 39.4295C60.7106 39.985 60.8498 40.7816 60.9638 41.5283C61.4768 44.8873 61.99 48.2992 61.4497 51.6547C61.3488 52.2811 61.1623 52.9716 60.5703 53.3157C59.9767 53.6608 59.4177 54.0538 58.9023 54.4884C58.0759 55.1851 57.3329 56.3164 57.9748 57.1552L30.3246 57.4309ZM68.2471 11.2702C67.9516 11.0155 67.4186 11.0359 67.1483 11.3123C66.8781 11.5886 66.9249 12.0655 67.2448 12.2953C68.3262 13.072 69.1559 14.1275 69.6085 15.3022C69.0207 15.0848 68.3735 14.998 67.7406 15.0518C68.3939 16.3889 68.8376 17.8084 69.0545 19.2554L67.0143 18.1635C66.8315 18.0656 66.6357 17.9646 66.4229 17.9702C66.2102 17.9759 65.9886 18.1378 66.0226 18.3262C66.7865 18.5341 67.1805 19.3428 67.1035 20.0558C67.0265 20.7687 66.5954 21.4059 66.1752 22.015L64.1526 24.9468C64.5967 25.4118 65.4384 24.9851 65.8761 24.5152C67.1375 23.161 67.8918 21.4331 67.9911 19.6705C68.2343 19.6988 68.4447 19.8295 68.6531 19.959C68.8935 20.1083 69.1312 20.256 69.4136 20.2433C69.8022 20.2258 70.096 19.887 70.1566 19.5421C70.2171 19.1972 70.1013 18.8492 69.9868 18.5155L69.0486 15.7816C69.8134 15.8559 70.1584 16.5489 70.4935 17.222C70.5904 17.4166 70.6864 17.6096 70.7916 17.7854C71.3865 18.7805 72.5378 19.3871 73.633 19.9436C72.4444 21.9182 71.1677 23.8766 69.4579 25.5144C67.748 27.1523 65.556 28.463 63.0941 28.8589C62.6805 28.9254 62.2494 28.9651 61.8446 28.8643C61.3375 28.7379 60.9418 28.4136 60.5473 28.0901L60.5473 28.0901C60.4141 27.981 60.2811 27.8719 60.144 27.7707C58.7697 26.7554 56.9589 26.5095 55.1483 26.2635C53.3355 26.0173 51.5229 25.7711 50.1485 24.7529L50.1094 24.7237C49.9586 24.6111 49.8018 24.4941 49.6095 24.4679C49.4005 24.4394 49.1498 24.5837 49.1828 24.771C49.2087 24.9177 49.0104 25.2187 48.6772 25.0576C47.3921 24.4363 47.0189 23.0833 46.6799 21.8542C46.5633 21.4316 46.4508 21.0236 46.3066 20.665C46.2256 20.4634 45.8751 20.5658 45.725 20.7325L45.6885 20.7735C45.5463 20.9336 45.3798 21.1212 45.1675 21.0703C44.9141 20.2341 45.0024 19.289 45.0878 18.3746L45.0879 18.3745C45.1226 18.0023 45.1569 17.6351 45.1675 17.2825C45.1685 17.2506 45.1795 17.1543 45.1967 17.0033L45.1967 17.0031C45.393 15.2819 46.3993 6.45767 42.6124 4.87605C43.5128 4.7168 44.9658 4.86415 46.2533 5.57274C47.5558 6.28962 48.4919 7.60393 48.4301 7.67344C49.3298 7.55521 50.1731 7.24348 51.0179 6.93126C51.7312 6.66761 52.4454 6.40361 53.1953 6.2555C54.1056 6.07569 55.0461 6.07113 55.9782 6.06736L57.2091 6.06238C58.5352 4.76969 58.4839 3.35361 58.4244 1.71143C58.4131 1.40054 58.4016 1.08155 58.399 0.753761C60.6973 1.02461 63.1334 4.91185 63.9012 7.24408C64.222 8.2182 65.1693 8.81682 66.1274 9.4222C66.9612 9.94906 67.8031 10.4811 68.2471 11.2702ZM29.0739 38.7696L29.0743 38.7696C29.3374 38.7096 29.5989 38.65 29.8568 38.5888C33.8049 37.6515 37.4899 36.002 41.143 34.3634C45.4952 32.4113 49.9225 30.4121 53.4141 27.3714C53.684 27.1363 54.112 27.1526 54.4849 27.1958C55.8642 27.3553 57.2208 27.6712 58.5125 28.1336C59.1893 28.3759 59.9505 28.792 59.9553 29.4458C59.9569 29.676 59.8585 29.8961 59.7615 30.1093L59.1113 31.5394C58.8338 32.1495 58.5516 32.7823 58.5756 33.4409C58.5995 34.0995 59.0163 34.7946 59.7225 34.9756C60.4287 35.1565 61.301 34.5671 61.1185 33.9288C60.8061 32.8358 60.5922 31.7201 60.4798 30.5963C61.8557 33.0412 61.3812 35.9583 60.8739 38.659C59.0528 37.7982 57.1466 37.0824 55.1849 36.523C54.5112 36.3309 53.7559 36.1616 53.1195 36.4377C51.5611 37.1137 48.628 37.2939 48.3392 37.1122C48.0503 36.9305 47.6552 37.0181 47.3224 37.1231C46.7865 37.2921 45.7651 37.6494 44.5448 38.0762C41.5505 39.1236 37.3591 40.5898 36.2051 40.721C35.9013 40.7555 35.5957 40.7811 35.2903 40.8066C34.6298 40.8619 33.9696 40.9172 33.3277 41.0629C32.3889 41.276 31.4634 41.7176 30.9665 42.4634C30.5952 42.2802 30.3635 41.9562 30.1305 41.6305C30.018 41.4733 29.9053 41.3156 29.7764 41.1732C29.3805 40.7356 28.5492 40.4656 28.1696 40.9146C27.8366 39.8927 26.1506 39.4982 25.3038 40.2441C25.1729 40.3593 25.0637 40.4922 24.9546 40.625C24.8411 40.763 24.7276 40.9011 24.5898 41.0193C24.3195 41.2513 23.8868 41.3943 23.5731 41.2114C24.8551 39.7307 27.0131 39.2391 29.0739 38.7696ZM24.8953 57.3283C23.9281 57.6405 22.8609 57.3362 21.9013 57.0055C20.9943 56.6928 20.0475 56.3198 19.4965 55.6017C18.8333 54.7375 18.9048 53.5971 19.0025 52.5515L19.4118 48.1717C18.8048 48.6298 18.359 49.2573 18.1525 49.9444C17.6619 48.9734 18.3916 47.6766 19.5535 47.4541C19.0626 47.0893 18.2546 47.3286 17.9081 47.8087C17.5616 48.2887 17.5695 48.9068 17.6708 49.4715C17.6981 49.6238 17.7314 49.7759 17.7647 49.928L17.7647 49.928C17.8547 50.3397 17.9448 50.7515 17.9171 51.1683C17.1878 50.1457 17.0488 48.8032 17.5556 47.6775C17.7852 47.1677 18.1921 46.6689 18.7871 46.5376C19.3822 46.4063 20.1186 46.8426 20.02 47.3852C19.7941 48.6288 20.4404 49.9055 21.4316 50.7981C22.4227 51.6908 23.7215 52.2531 25.0324 52.7049C25.5149 52.8711 26.1148 53.2519 25.8796 53.6648C25.6339 54.0961 25.4644 54.5841 25.5488 55.0625C25.6332 55.5408 26.0237 55.9979 26.5556 56.0804C27.2113 56.1821 27.7947 55.7264 28.2661 55.3051L31.0506 52.8158C30.6796 53.7409 30.2443 54.6452 29.7481 55.5218C29.4082 56.1222 29.0195 56.7304 28.4051 57.1172C27.7907 57.5039 26.8912 57.6046 26.31 57.1784C25.9862 56.941 25.5444 57.0989 25.1332 57.2459L25.1329 57.246C25.0522 57.2749 24.9726 57.3033 24.8953 57.3283ZM24.6196 48.6176L24.6196 48.6175L24.6195 48.6175L24.6195 48.6175L24.6194 48.6174C24.3597 48.4629 24.0998 48.3082 23.8305 48.1719C22.996 47.7496 21.8878 47.5224 21.1217 48.0388C20.8761 47.3295 21.3616 46.5678 21.9948 46.0895C23.1149 45.2434 24.7572 44.9952 26.1244 45.4655C27.4207 45.9113 28.7365 46.3967 29.7662 47.2322C30.7958 48.0677 31.4998 49.3311 31.2353 50.5539C30.9457 50.6171 30.704 50.4086 30.4782 50.2136C30.4351 50.1764 30.3926 50.1397 30.3504 50.1054C29.71 49.5856 28.8316 49.5716 27.9365 49.5572H27.9364C27.3922 49.5485 26.8417 49.5396 26.3347 49.417C25.7083 49.2654 25.1646 48.9418 24.6196 48.6176ZM26.6049 54.9352C26.8625 54.357 27.0199 53.7203 26.8791 53.1105C26.7384 52.5008 26.2476 51.9292 25.5722 51.7859C24.0098 51.4543 22.5896 50.6086 21.6422 49.4455C21.4513 49.2112 21.296 48.8456 21.5502 48.666C21.6544 48.5924 21.7965 48.5814 21.9291 48.5832C22.7847 48.5947 23.5333 48.9944 24.2831 49.3947C24.5865 49.5567 24.89 49.7187 25.2008 49.8552C25.9444 50.1817 26.7637 50.3684 27.5907 50.3999C27.7564 50.4062 27.924 50.4066 28.0917 50.407C28.6196 50.4083 29.1491 50.4096 29.6288 50.5944C30.2609 50.838 30.7272 51.5762 30.3325 52.0817C29.3956 53.2817 28.087 54.2005 26.7985 55.1005L26.6049 54.9352ZM74.0297 20.6334C74.1736 20.4003 74.387 20.1325 74.682 20.1627C75.064 20.2017 75.1409 20.6695 75.0885 21.0112C74.7163 23.4356 73.0438 25.5911 70.916 27.1221C68.7881 28.6531 66.2281 29.6224 63.6385 30.3907C63.4605 30.4435 63.286 30.5431 63.1147 30.6409C62.7873 30.8278 62.4713 31.0082 62.164 30.8429C61.8099 30.6524 61.9004 30.1298 62.2226 29.8981C62.5149 29.688 62.9041 29.6429 63.2793 29.5994L63.2796 29.5994L63.2798 29.5994L63.28 29.5993C63.3182 29.5949 63.3561 29.5905 63.3938 29.586C65.8976 29.2835 68.1338 27.9507 69.8443 26.2824C71.5548 24.6142 72.8062 22.6167 74.0297 20.6334ZM27.6041 41.0545C27.8296 41.2956 28.0782 41.5613 28.4205 41.5547C28.7085 41.5491 28.8878 41.7589 29.0737 41.9763C29.2055 42.1304 29.3405 42.2883 29.5198 42.376C29.9486 42.5858 29.9855 43.1698 29.704 43.5279C29.4226 43.886 28.9342 44.0603 28.4616 44.1711C27.4981 44.3969 26.4808 44.436 25.4993 44.2847C24.8592 44.1861 24.1957 43.9842 23.7923 43.5276C23.3888 43.0709 23.3774 42.3039 23.9116 41.9725C24.0902 41.8616 24.3054 41.81 24.5192 41.7586C24.7743 41.6974 25.0276 41.6365 25.2152 41.4763C25.3545 41.3573 25.4379 41.1987 25.5212 41.0404C25.6085 40.8745 25.6956 40.7088 25.8467 40.5893C26.0912 40.3957 26.4617 40.3692 26.7695 40.4659C27.0773 40.5627 27.3303 40.7652 27.5416 40.988C27.5623 41.0098 27.5831 41.0321 27.6041 41.0545ZM25.7999 58.8821C25.7009 58.9171 25.5894 58.9228 25.4866 58.898C25.3872 58.874 25.2966 58.8216 25.2311 58.7504C24.9645 58.4606 25.3361 57.9368 25.7415 58.0307C26.1469 58.1246 26.1895 58.7443 25.7999 58.8821ZM58.7636 57.0641C58.665 57.1701 58.4246 57.1591 58.399 57.0229C58.2939 56.4629 58.2439 55.774 58.7601 55.4454L58.8476 56.6675C58.8575 56.8053 58.8622 56.9581 58.7636 57.0641ZM53.5868 7.56988C54.1471 7.90264 54.5891 8.39328 54.8343 8.95461C54.8842 9.069 54.9944 9.1446 55.1056 9.22085C55.164 9.26094 55.2227 9.30122 55.2731 9.34742C55.4192 9.48145 55.4434 9.76793 55.2387 9.80537C55.1492 9.82174 55.0612 9.77749 54.9828 9.73546C53.7266 9.06243 52.199 8.51902 50.8285 8.9787C51.0539 9.08197 51.1676 9.34696 51.0777 9.55918C51.3575 9.56825 51.6182 9.68113 51.8695 9.79177L52.5334 10.0841L52.4639 10.26C51.4633 9.80284 50.2412 9.75531 49.2003 10.133C49.5462 10.1802 49.8987 10.1888 50.247 10.1587L51.7705 10.8476C51.8835 10.8987 52.0027 10.9549 52.0663 11.0531C52.1298 11.1512 52.1057 11.3034 51.9874 11.3439C51.0698 10.6177 49.7717 10.2966 48.569 10.4983C48.4286 10.5218 48.3326 10.3461 48.3922 10.2297C48.4518 10.1133 48.5946 10.0535 48.7274 10.0066C49.3941 9.77106 50.0973 9.61871 50.8103 9.55529C50.4536 9.25862 50.0405 9.01673 49.5942 8.84328C49.5207 8.61774 49.8834 8.40158 50.0866 8.54976C51.6309 8.27815 53.2852 8.54766 54.6245 9.28902C54.6357 9.05329 54.4409 8.85507 54.2586 8.68503L52.5489 7.09038C53.5468 7.20382 54.5249 7.45591 55.4378 7.83492C55.6442 7.92063 55.8481 8.01319 56.0351 8.12937C56.7394 8.56683 57.1585 9.34939 57.0992 10.1161C56.6726 9.30705 55.9973 8.60494 55.1677 8.1079C54.6935 7.8238 54.1559 7.60259 53.5868 7.56988ZM57.1025 15.0156C57.0056 14.339 57.0012 13.6173 57.3599 13.0158C57.4671 12.8359 57.616 12.6631 57.8273 12.5877C58.1505 12.4723 58.5226 12.6196 58.7776 12.832C59.41 13.3589 59.5446 14.2124 59.4904 14.9853C59.4669 15.3211 59.4118 15.6646 59.2283 15.9581C59.0448 16.2516 58.7093 16.4877 58.3343 16.4926C57.9578 16.4976 57.6141 16.2692 57.4183 15.9806C57.2225 15.6921 57.1505 15.3507 57.1025 15.0156ZM48.099 17.5326C47.3878 16.5558 47.4357 15.1819 48.2137 14.2471C48.3067 14.1354 48.4124 14.0271 48.5505 13.9632C48.8196 13.8388 49.1633 13.9138 49.3964 14.0871C49.6295 14.2604 49.7696 14.5141 49.8711 14.77C50.1716 15.528 50.184 16.3753 49.9059 17.1401C49.7372 17.604 49.3189 18.1058 48.7832 18.022C48.4875 17.9756 48.2632 17.7581 48.099 17.5326ZM54.9313 22.5494C55.0168 22.5281 55.1018 22.5069 55.1647 22.4529C55.298 22.3384 55.2511 22.1173 55.0998 22.0226C54.9485 21.9278 54.736 21.9442 54.5747 22.0245C54.4113 22.1058 54.2814 22.2666 54.3091 22.4323C54.3367 22.5981 54.573 22.7218 54.725 22.6244C54.7853 22.5857 54.8585 22.5675 54.9313 22.5494ZM56.8518 19.8563C58.0327 19.6216 58.6928 19.6513 59.7059 19.8829L59.9194 19.9329C60.9303 20.1698 61.5618 20.1708 62.8448 19.7976C62.9982 19.753 63.1629 19.8284 63.2126 19.9661C63.2624 20.1037 60.9211 20.7006 59.8508 20.4581L59.6535 20.412C58.6681 20.1798 58.0947 20.1459 56.9781 20.3679C56.8207 20.3992 56.6647 20.3101 56.6299 20.1688C56.595 20.0275 56.6943 19.8876 56.8518 19.8563ZM66.127 17.3259C66.0558 17.1961 65.8808 17.1426 65.7361 17.2065C63.658 18.1243 62.5066 18.2439 60.6116 18.0268L60.1335 17.9737C60.079 17.9681 60.031 17.9636 59.9806 17.9592L59.8099 17.9456C58.6818 17.866 57.7873 18.0378 56.6395 18.6528C56.501 18.727 56.4558 18.8879 56.5385 19.0121C56.6212 19.1364 56.8004 19.1769 56.9389 19.1027C58.0068 18.5305 58.7952 18.3886 59.8491 18.4745C59.9189 18.4802 59.9772 18.4853 60.0448 18.492L60.7456 18.5694C62.6281 18.7655 66.1983 17.4557 66.127 17.3259ZM51.7104 19.7855C51.8712 19.7752 52.0109 19.8839 52.0224 20.0282C52.0338 20.1726 51.9127 20.2979 51.7518 20.3082C51.0862 20.3507 50.6277 20.5538 49.9394 21.0515L49.6905 21.236L49.5137 21.3687C48.907 21.8226 48.5029 22.0699 47.9669 22.2671C47.8177 22.322 46.7872 22.5102 47.5859 22.1241C48.3846 21.7381 49.4253 20.752 49.4253 20.752L49.5776 20.6401C50.35 20.0823 50.9025 19.8371 51.7104 19.7855ZM52.1486 21.0389C52.0853 20.9059 51.9137 20.844 51.7654 20.9008C51.0324 21.1816 50.6197 21.5403 49.9262 22.3548L49.7121 22.6047C49.5718 22.7658 49.4542 22.9283 49.34 23.086C49.0883 23.4338 48.8535 23.7583 48.4297 23.9922C47.8137 24.3322 48.694 24.1539 48.8314 24.0781C49.3783 23.7763 49.7331 23.4433 50.2867 22.7946L50.4473 22.6062C51.0482 21.9071 51.3991 21.6109 51.9946 21.3828C52.143 21.326 52.2119 21.172 52.1486 21.0389Z" fill="#111111"/>
<path fill-rule="evenodd" clip-rule="evenodd" d="M53.1715 20.2067C52.9326 20.0135 52.5856 19.9544 52.3523 19.7558C52.1311 19.5675 52.0465 19.2606 52.1443 19.0015C52.2422 18.7424 52.5173 18.5448 52.8205 18.516C53.6901 18.4333 54.5598 18.3506 55.4294 18.2678C55.6358 18.2482 55.8639 18.2335 56.0311 18.3438C56.2864 18.5123 56.2462 18.8806 56.0616 19.1118C55.8771 19.3429 55.5927 19.4919 55.3704 19.6945C55.0838 19.9557 54.9046 20.3097 54.874 20.6751C54.8512 20.9465 54.8842 21.27 54.6445 21.4367C54.3436 21.646 53.8986 21.3987 53.7144 21.0997C53.5302 20.8007 53.4544 20.4354 53.1715 20.2067H53.1715Z" fill="#F28A0C"/>
<path fill-rule="evenodd" clip-rule="evenodd" d="M88.4343 57.1886C90.2815 57.1954 92.9102 57.1358 94.2529 55.9975C95.5116 54.9303 95.9502 53.6046 95.759 52.0603C95.5679 50.516 94.2439 48.6131 94.1934 47.0599C94.5888 50.3753 99.838 51.3025 101.483 54.2925C102.372 55.9087 102.016 57.9025 101.027 59.4708C100.037 61.0391 98.4925 62.2582 96.9286 63.3892C92.5226 66.5754 87.0946 68.6588 83.4099 72.5124C79.7252 76.366 76.9209 82.3753 78.5186 87.2462C80.1467 92.21 87.1382 95.6755 92.8457 94.9358C93.3963 94.8645 93.9548 94.7543 94.4244 94.4868C95.5379 93.8524 95.8624 92.5101 95.7595 91.3302C95.6566 90.1503 95.2319 88.9958 95.264 87.8127C95.334 85.2254 97.5171 83.113 99.687 81.4081C105.038 77.2037 111.46 73.4474 113.921 67.4594C115.6 63.3726 115.066 58.6038 112.514 54.8986C109.048 49.8672 102.382 47.0534 99.2576 41.8452C99.165 42.9013 98.9572 43.9492 98.6382 44.9691C98.5016 45.4057 98.2676 45.904 97.7744 46.0029C97.2566 46.1068 103.04 38.7329 91.4158 29.5384C87.0935 26.1196 81.7361 23.6371 76.3795 21.4841C74.5437 26.7058 69.1698 30.7807 63.1256 31.5342C62.7127 31.5856 62.6183 32.0773 62.6278 32.4513C62.7588 37.6154 62.8899 42.7795 63.0209 47.9436C63.0778 50.1874 62.9122 52.8343 60.8189 54.0629C59.9558 54.5695 59.6884 55.738 60.2591 56.5087C60.8298 57.2794 62.134 57.511 62.9889 56.9934C61.997 55.4904 63.1312 53.2425 65.0443 52.9195C65.7491 52.8005 65.9735 52.0089 66.0508 51.3692C66.3974 48.5008 66.744 45.6325 67.0905 42.7641C67.2242 46.0365 67.3579 49.3088 67.4916 52.5812C71.042 51.1459 75.1789 53.7254 78.9937 53.0236C75.8355 51.0602 72.9209 48.5437 71.5937 45.3085C70.2664 42.0734 70.8874 38.024 73.8427 35.8211C72.0824 38.3447 71.7348 41.6199 72.9328 44.3962C74.088 47.0733 76.5011 49.1391 78.9621 50.9735C79.7248 51.5421 80.545 52.1601 80.7809 53.0243C81.0168 53.8884 80.2755 54.9936 79.2992 54.8379C75.8225 53.6648 72.0567 53.1875 68.3538 53.4505C67.2066 53.532 66.0029 53.707 65.1089 54.3572C64.2149 55.0075 63.7869 56.2756 64.4789 57.1007C72.464 57.13 80.4491 57.1593 88.4343 57.1886Z" fill="white"/>
<path fill-rule="evenodd" clip-rule="evenodd" d="M92.7615 94.862C93.312 94.7907 93.8705 94.6805 94.3401 94.4129C95.4537 93.7786 95.7781 92.4362 95.6752 91.2563C95.5723 90.0764 95.1477 88.922 95.1797 87.7388C95.2497 85.1516 97.4328 83.0392 99.6028 81.3342C104.954 77.1299 111.376 73.3735 113.836 67.3856C114.822 64.9881 102.452 72.3196 95.6752 80.9512C90.8999 87.0333 90.4022 95.1677 92.7615 94.862Z" fill="#EDFFFC"/>
<path fill-rule="evenodd" clip-rule="evenodd" d="M97.3117 35.2388C96.4733 33.4271 94.1359 31.6828 91.3315 29.4647C87.0092 26.0458 81.6518 23.5634 76.2952 21.4104C81.5477 24.8436 87.9511 27.7094 92.5076 32.0183C94.7284 34.1185 96.2308 38.3509 97.4864 39.711C98.4475 40.7522 99.703 40.4056 97.3117 35.2388Z" fill="#EDFFFC"/>
<path fill-rule="evenodd" clip-rule="evenodd" d="M60.2989 34.5281C60.4894 34.1549 60.6234 32.4326 59.6199 32.4326C58.994 33.0702 59.0582 34.2938 60.2989 34.5281Z" fill="#F28A0C"/>
<path fill-rule="evenodd" clip-rule="evenodd" d="M29.8567 38.5889C27.5785 39.1297 25.0187 39.5416 23.573 41.2114C23.8867 41.3943 24.3194 41.2514 24.5897 41.0194C24.8601 40.7874 25.0368 40.4792 25.3037 40.2441C26.1505 39.4982 27.8365 39.8927 28.1695 40.9146C28.5491 40.4656 29.3804 40.7357 29.7763 41.1732C30.1722 41.6108 30.416 42.1918 30.9664 42.4634C31.4633 41.7176 32.3887 41.276 33.3276 41.0629C34.2664 40.8498 35.2443 40.8302 36.205 40.721C37.8293 40.5364 39.4163 40.0912 40.8685 39.4127C40.7803 39.5753 46.7972 37.2342 52.3032 36.8948C56.3238 36.647 60.1052 38.2957 60.8738 38.6591C61.3811 35.9583 61.8556 33.0412 60.4797 30.5963C60.5921 31.7202 60.8059 32.8359 61.1184 33.9288C61.3009 34.5671 60.4286 35.1565 59.7224 34.9756C59.0162 34.7947 58.5994 34.0995 58.5754 33.441C58.5515 32.7824 58.8337 32.1495 59.1111 31.5394C59.3279 31.0627 59.5447 30.586 59.7614 30.1093C59.8583 29.8962 59.9568 29.6761 59.9552 29.4459C59.9504 28.792 59.1892 28.3759 58.5124 28.1336C57.2207 27.6712 55.8641 27.3553 54.4848 27.1958C54.1118 27.1527 53.6838 27.1364 53.414 27.3714C49.9224 30.4121 45.4951 32.4113 41.1428 34.3635C37.4898 36.002 33.8048 37.6515 29.8567 38.5889Z" fill="white"/>
<path fill-rule="evenodd" clip-rule="evenodd" d="M30.9665 42.4635C31.4634 41.7177 32.3889 41.2761 33.3277 41.063C34.2665 40.8499 35.2444 40.8302 36.2051 40.7211C36.58 40.6785 38.1193 40.4605 40.1173 39.8314C43.0063 38.9219 46.9722 37.4698 50.7505 37.1004C55.6827 36.6182 60.0807 38.2842 60.8739 38.6591C61.3812 35.9584 59.6655 36.2827 58.7444 36.1973C38.3809 34.3101 30.4161 42.1919 30.9665 42.4635Z" fill="#EDFFFC"/>
</svg>
