<svg width="106" height="96" viewBox="0 0 106 96" fill="none" xmlns="http://www.w3.org/2000/svg">
<path fill-rule="evenodd" clip-rule="evenodd" d="M58.3689 0C85.7219 0 91.4807 37.5836 91.5926 37.8928C91.7079 38.2115 91.8166 38.5394 91.9215 38.8577C92.1349 39.5042 92.4094 40.1266 92.6228 40.7687C92.7533 41.1605 92.9933 41.485 93.1541 41.8549C93.466 42.5618 93.8481 43.2362 94.295 43.8682C94.4794 44.1185 94.6244 44.3951 94.7249 44.6885C94.7955 44.913 95.0293 44.973 95.1303 45.1712C95.2936 45.4919 95.5114 45.7851 95.6999 46.0931C95.7428 46.2014 95.8414 46.2784 95.9578 46.2945L95.921 46.6004C95.9892 46.7105 96.0126 46.5616 96.0839 46.5878C96.1733 46.7071 96.3008 46.8132 96.3138 46.9948C96.3256 47.1656 96.5267 47.1817 96.5955 47.3307C96.7463 47.654 97.1659 47.8189 97.1597 48.2432C97.4613 48.4309 97.6097 48.7532 97.8373 49.0061C97.9542 49.1226 98.0254 49.2759 98.0389 49.4387L98.041 49.4764C98.0394 49.6382 98.3546 49.6019 98.2697 49.8227C98.7523 50.1819 98.8776 50.7686 99.1325 51.2546C99.5412 52.0346 100.012 52.7881 100.29 53.6422C100.429 54.0694 100.698 54.4735 100.848 54.9061C101.185 55.8785 101.59 56.8297 101.809 57.8423C101.899 58.2607 102.084 58.6591 102.17 59.0786L102.27 59.5634C102.419 60.291 102.559 61.0203 102.653 61.7576C102.701 61.9239 102.701 62.1002 102.653 62.2665C102.572 62.4558 102.786 62.5771 102.803 62.7669C102.825 62.9922 102.734 63.2056 102.799 63.4447C102.835 63.5764 102.799 63.7881 102.84 63.941C102.975 64.4382 102.805 64.9508 102.951 65.4446C102.974 65.6354 102.954 65.8289 102.892 66.0111C102.79 66.6189 102.975 67.2396 102.791 67.8331C102.704 68.1258 102.688 68.4341 102.742 68.7337L102.765 68.8492C102.781 68.9348 102.792 69.0181 102.75 69.0757C102.582 69.3037 102.625 69.5724 102.592 69.8217L102.585 69.8631C102.537 70.1423 102.587 70.4349 102.502 70.7193C102.386 70.9977 102.32 71.2943 102.309 71.5953C102.352 72.1058 102.179 72.5639 102.073 73.0377C102.02 73.2745 102.063 73.556 101.801 73.7321C101.667 73.8217 101.982 73.9955 101.791 74.1267L101.769 74.1406C101.628 74.2191 101.634 74.3459 101.674 74.4976C101.71 74.6364 101.466 74.7324 101.536 74.8744C101.606 75.0163 101.637 75.2231 101.555 75.2492C101.351 75.3156 101.559 75.5359 101.387 75.5777C101.37 75.5868 101.359 75.6031 101.356 75.6219C101.297 76.1551 100.951 76.5926 100.865 77.1255C100.8 77.4437 100.675 77.7468 100.497 78.019C100.349 78.2819 100.223 78.5564 100.121 78.8397C99.9291 79.3161 99.6004 79.714 99.4153 80.1882C99.365 80.3165 99.0297 80.2736 99.2002 80.537C99.0046 80.6054 99.064 80.8063 98.9854 80.9318C98.8987 81.0266 98.7978 81.1076 98.6862 81.172C98.6139 81.4542 98.4755 81.7156 98.2821 81.935C97.9443 82.4249 97.5755 82.8932 97.1779 83.337L96.8495 83.7016C96.4105 84.1878 95.9574 84.6633 95.3789 84.9984C95.2301 85.0845 95.2979 85.248 95.1755 85.3365C94.4663 85.8556 93.813 86.4445 93.006 86.8379C92.6684 87.0028 92.3788 87.2954 92.0337 87.467C91.3794 87.7925 90.772 88.1978 90.0723 88.4514L89.9478 88.4945C89.5021 88.6415 89.0634 88.8643 88.611 89.0261C87.6816 89.3881 86.7116 89.6379 85.7219 89.7704L85.1114 89.8374C84.5686 89.8969 84.0253 89.9517 83.477 89.9666C83.2176 89.9736 82.9687 89.8921 82.7312 89.9215C82.4999 89.9505 82.265 89.9317 82.0414 89.8664C81.8647 89.8174 81.7153 89.9681 81.525 89.8871C81.3789 89.7965 81.1979 89.783 81.0406 89.8491L81.0094 89.8634C80.9192 89.9152 80.7417 89.8194 80.6042 89.7887C80.4038 89.761 80.2069 89.7127 80.0165 89.6447C79.8691 89.577 79.6811 89.7942 79.5784 89.5633C79.3918 89.7068 66.7193 86.7212 55.0784 92.7841C54.1304 93.4068 53.0212 93.6802 52.0082 94.1638C51.5373 94.3892 51.008 94.492 50.501 94.6459L50.3928 94.6797C49.498 94.9664 48.5804 95.1621 47.6641 95.3665C46.8222 95.5472 45.9693 95.6729 45.1107 95.7427C44.4935 95.798 43.8733 95.8237 43.2575 95.8905C43.0078 95.9173 42.763 95.7429 42.5187 95.8927C41.9697 95.7446 41.3933 95.9244 40.8458 95.757C40.4817 95.8639 40.1396 95.7314 39.8049 95.6336C39.5495 95.5585 39.3088 95.7144 39.0507 95.6038C38.8158 95.4824 38.5526 95.4244 38.2878 95.4359C37.8482 95.5026 37.4656 95.3428 37.0652 95.2583C36.1349 95.0619 35.2079 94.8495 34.2842 94.6213C33.9817 94.5463 33.6419 94.5752 33.3827 94.3458C33.1554 94.1446 32.7966 94.2707 32.5731 94.033C32.4916 93.9465 32.3876 94.1142 32.2648 94.0488C32.0253 93.9212 31.7174 94.0054 31.4936 93.7753C31.3278 93.605 31.0149 93.7202 30.8313 93.5146L30.8071 93.4845C30.6988 93.3353 30.4129 93.6869 30.3284 93.3548C29.9868 93.3287 29.7037 93.1441 29.3995 93.0176C29.1475 92.9132 28.8501 92.9722 28.6226 92.7546C28.4289 92.5692 28.0626 92.7056 27.8948 92.4277C27.4841 92.4243 27.1812 92.1196 26.7899 92.0395C26.4928 91.9622 26.2075 91.8458 25.9417 91.6934C25.5202 91.4786 25.0923 91.2761 24.6612 91.0841C24.5065 91.0128 24.3559 90.9331 24.2101 90.8453C24.1284 90.7979 24.1085 90.693 23.9917 90.6674C23.2525 90.505 22.6307 90.0779 21.9992 89.7043C21.6391 89.5197 21.2946 89.307 20.9689 89.0682L20.861 88.9877C20.7657 88.9064 20.5677 88.8663 20.4839 88.7533C20.2502 88.4387 19.9007 88.2848 19.5838 88.0958L19.5313 88.064C19.3528 87.9596 19.1905 87.8302 19.0495 87.6797C19.0228 87.651 19.012 87.5888 18.9837 87.5819C18.4576 87.4531 18.1437 87.0223 17.7414 86.7212C17.3955 86.4623 17.0928 86.1469 16.7522 85.8831L16.6225 85.7868C15.8252 85.2214 7.10138 75.7041 6.11284 74.0617L5.82996 73.5916C5.54747 73.1206 5.26823 72.6463 5.01113 72.1626L4.79219 71.7507C4.57359 71.338 4.35842 70.9224 4.1682 70.4995L3.91369 69.9351C3.40591 68.8054 2.90904 67.6702 2.48555 66.5041C2.10791 65.4636 1.79528 64.406 1.47966 63.3476C1.2775 62.668 1.10668 61.9853 0.962367 61.2929C0.731805 60.1863 0.52621 59.0753 0.345584 57.9598C0.177115 56.9094 0.239432 55.8436 0.0144557 54.8052C0.161851 54.1674 -0.109136 53.5203 0.0591257 52.8832C-0.0656933 52.5688 0.0440625 52.2423 0.0557938 51.9323C0.0678267 51.6123 -0.00459018 51.277 0.124329 50.9526C0.183387 50.8053 0.0468699 50.6282 0.120838 50.4483C0.202039 50.2985 0.21141 50.1207 0.146391 49.9634C0.365583 49.8635 0.104315 49.7097 0.19534 49.5674C0.29348 49.413 0.336833 49.2305 0.318552 49.049C0.254722 48.6426 0.490817 48.2674 0.449369 47.9003C0.406152 47.5248 0.593164 47.2066 0.592575 46.8701L0.590164 46.8068C0.557888 46.365 0.876393 46.0324 0.887016 45.6145C0.888021 45.5779 0.975197 45.5442 1.02299 45.5078C1.00766 45.4138 0.902808 45.4351 0.82843 45.362C0.947167 45.2598 1.05106 45.1419 1.13715 45.0116C1.20232 44.8328 1.24861 44.6479 1.27526 44.4597L0.973333 44.0735C1.08475 43.8526 1.04591 43.6517 1.19466 43.4785C1.2594 43.4028 1.2233 43.1715 1.23129 43.0118C1.24183 42.802 1.51373 42.677 1.44814 42.5114C1.39754 42.3208 1.41393 42.1189 1.49462 41.9388C1.88361 40.2385 2.27983 38.54 2.68329 36.843C2.72573 36.6611 2.68881 36.4323 2.91457 36.3258C2.66787 36.0733 3.0553 35.9851 3.06131 35.7849C3.09276 35.5978 3.16548 35.4199 3.27432 35.2638C3.4284 34.9716 3.44258 34.609 3.53035 34.2798C3.55346 34.0471 3.64238 33.8255 3.7869 33.6405C3.93719 33.4862 3.91553 33.2175 4.0287 33.0008C4.18856 32.739 4.31247 32.4573 4.39713 32.1632C4.42263 31.9518 4.50763 31.7517 4.64244 31.5858C4.76215 31.4548 4.66383 31.1835 4.89649 31.0846C4.96175 30.7043 5.19075 30.399 5.36028 30.0658L5.39132 30.003C5.80776 29.1457 6.27582 28.3138 6.79297 27.512C7.22262 26.8372 7.64068 26.1552 8.07689 25.4845C8.2188 25.2681 8.3697 25.0524 8.52575 24.8469C9.06784 24.0911 9.65175 23.3655 10.2748 22.6735C10.8446 22.0748 11.3878 21.4492 11.9861 20.8735C12.3042 20.5673 12.5645 20.1913 12.8733 19.866C13.601 19.0982 14.3483 18.3511 15.1342 17.6421C15.798 16.992 16.5239 16.407 17.3017 15.8955C17.5131 15.768 17.687 15.5811 17.8911 15.44C18.1389 15.3046 18.3767 15.1521 18.6027 14.9834C18.8656 14.7383 19.1881 14.5823 19.4537 14.3553C19.6598 14.1791 19.9895 14.2795 20.137 13.9626C20.2445 13.732 20.647 13.8165 20.7826 13.547C21.1541 13.5348 21.3276 13.1781 21.665 13.0609L21.7099 13.047C22.0654 12.9509 22.3688 12.6664 22.6949 12.4647C23.0095 12.2438 23.3386 12.0441 23.6801 11.8668C24.3213 11.5805 24.8747 11.1444 25.5014 10.8487C26.099 10.5672 26.6367 10.155 27.2884 9.99808C27.4424 9.9611 27.4137 9.82649 27.5197 9.76904C27.6299 9.70895 27.7507 9.74876 27.8503 9.67944C28.2624 9.41289 31.0158 0 58.3689 0Z" fill="#2EC4B6"/>
<path fill-rule="evenodd" clip-rule="evenodd" d="M27.5143 20.1761C26.5993 20.6878 25.2596 20.035 25.1094 19.0041C25.693 18.9732 26.3168 18.9281 26.7781 18.5724C27.2394 18.2168 27.401 17.4291 26.9385 17.0749C23.1736 16.6165 19.5111 15.3482 16.277 13.383C18.4853 12.7233 20.3855 11.3317 22.4597 10.3318C24.534 9.33196 27.0427 8.74063 29.1114 9.75166C31.1427 10.7444 33.4812 9.47808 35.6009 8.68759C39.2868 7.31303 43.5133 7.42827 47.1174 9.0016C49.7469 10.1495 54.2026 8.28631 57.0432 7.85901C61.6832 7.16103 66.2128 10.3853 70.872 9.82689C70.3721 10.1546 69.8723 10.4822 69.3725 10.8099C69.8648 10.7653 70.3596 10.7472 70.8538 10.7559C66.9872 12.5904 63.1206 14.4249 59.2539 16.2593C60.2335 16.6522 61.213 17.045 62.1925 17.4378C61.9623 18.1697 61.1368 18.664 60.3762 18.5255C60.9882 19.0083 61.6002 19.4912 62.2122 19.9741C61.559 20.4341 60.7321 20.6454 59.936 20.5559C60.7839 21.0986 61.4837 21.8665 61.9427 22.7577C63.9625 22.0906 66.175 22.0084 68.2395 22.524C66.3742 22.7664 64.509 23.0089 62.6437 23.2513C62.9254 24.0117 63.207 24.7721 63.4887 25.5325C65.9255 24.9795 68.5151 25.1052 70.8858 25.8915C68.535 25.9508 66.1843 26.0101 63.8335 26.0694C63.7785 29.1616 62.2259 32.3149 59.4996 33.8176C56.7733 35.3203 51.3254 36.6564 49.5209 32.2812C48.1394 33.1801 48.2372 35.3409 49.2222 36.6564C50.2071 37.9718 51.772 38.6999 53.1873 39.5456C57.8884 42.3546 61.4343 47.0064 62.8765 52.2572C64.3188 57.508 63.6417 63.3 61.0263 68.0845C64.5524 68.628 67.829 70.6175 69.9197 73.4846C74.4222 71.4076 76.9158 66.6683 80.3646 63.1258C84.2878 59.0962 89.7034 56.5276 95.3298 56.0281C98.6587 55.7326 102.455 56.3689 104.397 59.066C106.921 62.5716 104.594 68.0222 100.565 69.6338C97.3716 70.9112 93.7695 70.2687 90.3344 70.5101C83.4269 70.9954 77.3625 75.0337 71.6667 78.9385C71.4344 80.2028 71.9006 81.5716 72.8585 82.4374C74.896 80.3495 77.466 78.7765 80.2617 77.9062C81.295 77.5846 82.844 77.6685 82.9588 78.7363C83.0022 79.1404 82.7878 79.5237 82.5709 79.8686C80.707 82.8311 78.0788 85.3165 75.0061 87.0226C73.3842 87.9231 71.5719 88.6211 69.7159 88.518C67.8599 88.4149 65.9698 87.3528 65.3395 85.619C65.0474 84.8156 65.0157 83.8856 64.4625 83.231C63.5265 82.1235 61.7287 82.4551 60.4167 83.0842C59.1048 83.7132 57.7063 84.5686 56.2985 84.1953C52.7791 83.2621 49.1164 82.8619 45.4765 83.013C40.8411 83.2053 36.118 84.2752 31.6269 83.1211C30.1266 82.7355 28.4477 82.1274 27.1186 82.9179C24.4993 84.4758 26.266 89.4627 23.5789 90.9024C22.6271 91.4124 21.4606 91.2243 20.4105 90.9659C15.7702 89.824 11.4176 87.5501 7.84407 84.4009C7.49968 84.0974 7.14486 83.7565 7.04831 83.3098C6.75873 81.9699 8.75358 81.4125 10.1129 81.6606C12.4219 82.0819 14.6302 83.0362 16.5133 84.4263C17.1734 84.9136 18.1778 84.3451 18.4575 83.5777C18.7372 82.8103 18.5447 81.9652 18.4356 81.1564C17.7462 76.0481 20.9786 70.6774 25.8404 68.8532C22.8968 64.5944 21.7775 59.1377 22.8095 54.0773C23.8415 49.0169 27.011 44.4199 31.3921 41.6294C33.1422 40.5146 35.1531 39.6028 36.2685 37.8619C37.3839 36.1211 36.8943 33.2004 34.8539 32.799C32.9313 34.8634 29.8042 35.7365 27.0776 34.9703C24.351 34.2041 22.1512 31.834 21.6071 29.0764C19.7974 29.6824 17.9877 30.2883 16.1779 30.8943C17.7842 29.667 19.6865 28.8231 21.6799 28.4535C21.8712 27.6317 22.0625 26.8098 22.2538 25.9879C18.8007 25.7671 15.2988 26.3305 12.0933 27.6228C14.0659 26.1507 16.5756 25.4026 19.0399 25.5523C21.5463 25.7045 24.0942 24.4886 25.5377 22.4514C24.6346 22.1366 23.8229 21.5683 23.2215 20.8297C24.1426 20.334 25.2582 20.2056 26.2694 20.4788M45.229 74.0784C45.0647 74.237 44.8878 74.4254 44.8994 74.6526C44.911 74.8797 45.2547 75.0493 45.3733 74.8545C46.0204 73.7917 47.1458 73.0276 48.3792 72.8135C49.6127 72.5994 50.9329 72.9392 51.9057 73.7209C52.2451 73.9936 52.5481 74.3195 52.9359 74.519C53.0754 74.5908 53.3143 74.5927 53.3201 74.4369C53.322 74.3857 53.2925 74.3392 53.2635 74.2969C52.565 73.276 51.5204 72.4924 50.3397 72.1034C49.3047 71.7625 48.1055 71.741 47.1798 72.3128C46.8436 72.5204 46.557 72.7966 46.2732 73.0705C45.9251 73.4065 45.5771 73.7424 45.229 74.0784ZM40.2099 72.221C38.8699 72.0453 37.4272 72.4912 36.5349 73.4977C36.3776 73.6752 36.2346 73.8748 36.1805 74.1048C36.1264 74.3349 36.1773 74.601 36.357 74.7561C37.0473 73.6929 38.2739 72.9917 39.5478 72.9321C40.8217 72.8726 42.1094 73.4561 42.8976 74.4502C43.0208 74.6056 43.1384 74.7755 43.3133 74.8705C43.4882 74.9654 43.7428 74.9533 43.8493 74.7861C43.9765 74.5864 43.8227 74.331 43.6658 74.1534C42.7755 73.1451 41.5499 72.3966 40.2099 72.221ZM49.6619 70.8608C49.6411 71.0855 49.9404 71.2252 50.1555 71.1517C50.3706 71.0782 50.5133 70.8817 50.6573 70.7071C51.8552 69.2545 54.1362 68.8169 55.7942 69.7215C56.0117 69.5394 56.0241 69.1902 55.8785 68.9476C55.733 68.7051 55.4673 68.5562 55.1962 68.4703C54.6089 68.2842 53.9712 68.3476 53.3669 68.4689C51.9367 68.7558 50.4919 69.428 49.74 70.6679C49.7036 70.7278 49.6683 70.7912 49.6619 70.8608ZM44.0389 75.5735C43.4511 75.614 42.8758 75.7682 42.3255 75.9771C41.5649 76.2657 40.8161 76.686 40.3709 77.3621C41.0238 77.5454 41.6497 77.0627 42.2461 76.7418C43.5839 76.022 45.3193 76.0964 46.5895 76.9281C46.988 77.189 47.5 77.526 47.8886 77.2507C46.9795 76.1208 45.4932 75.4733 44.0389 75.5735ZM46.4538 75.2091C46.8997 74.9787 47.2561 74.6047 47.6984 74.3675C48.3075 74.0409 49.0662 74.0032 49.7052 74.2678C50.0521 74.4115 50.3593 74.6362 50.7012 74.7914C51.0431 74.9467 51.4503 75.0272 51.7909 74.8692C51.8287 74.8517 51.8678 74.8286 51.8838 74.7904C51.9097 74.7283 51.8637 74.6613 51.819 74.6107C51.0568 73.7481 49.8626 73.2808 48.7116 73.3947C47.5607 73.5086 46.4832 74.2008 45.908 75.1957C46.028 75.3524 46.2778 75.3001 46.4538 75.2091ZM37.5247 75.2502C37.7636 75.1155 37.9505 74.9075 38.1689 74.7421C38.6056 74.4114 39.1746 74.2592 39.7205 74.322C40.3288 74.392 40.8773 74.7113 41.3804 75.0575C41.5276 75.1587 41.6777 75.2653 41.8522 75.3055C42.0266 75.3457 42.2344 75.3021 42.3331 75.1539C42.4308 75.0073 42.3916 74.8028 42.2871 74.661C42.1826 74.5191 42.0257 74.4258 41.8729 74.3369C41.2511 73.9753 40.5939 73.6139 39.874 73.577C38.9742 73.5309 38.1377 73.996 37.3594 74.4463C37.0438 74.6289 36.6814 74.9055 36.7482 75.2617C36.9642 75.4301 37.2858 75.3849 37.5247 75.2502ZM41.5775 71.7918C41.7399 72.0002 42.058 71.7767 42.2374 71.5825C42.7898 70.984 43.5862 70.6134 44.4035 70.5745C45.2209 70.5356 46.0494 70.8288 46.6571 71.3721C46.8104 71.5091 46.9721 71.671 47.1784 71.6766C47.3847 71.6821 47.5706 71.3966 47.4069 71.2719C46.5308 70.6045 45.5114 70.0591 44.4089 69.9871C43.3064 69.915 42.1182 70.4054 41.6078 71.377C41.5394 71.5071 41.487 71.6757 41.5775 71.7918ZM51.3254 71.6091C51.4709 71.5481 51.5775 71.4239 51.6889 71.3129C52.5372 70.4668 53.9743 70.2777 55.0158 70.875C55.2763 71.0245 55.6681 71.1892 55.8194 70.9313C55.9456 70.7163 55.7207 70.4661 55.5061 70.3371C54.1052 69.4949 52.1082 69.8157 51.0473 71.0534C50.9392 71.1795 50.8355 71.3523 50.9097 71.5005C50.98 71.6408 51.1799 71.6701 51.3254 71.6091ZM52.0998 71.6886C52.0396 71.7385 51.9796 71.7944 51.9542 71.868C51.8834 72.0736 52.1355 72.2661 52.3539 72.2489C52.5724 72.2317 52.7581 72.0924 52.9564 71.9998C53.4397 71.7738 54.0205 71.8277 54.511 72.0377C54.7051 72.1208 54.8931 72.2281 55.1022 72.2593C55.3112 72.2905 55.5551 72.2218 55.6503 72.0346C54.819 71.013 53.1158 70.847 52.0998 71.6886ZM38.9554 71.2965C39.0795 71.3543 39.2488 71.3431 39.3286 71.2327C39.4372 71.0825 39.3208 70.878 39.2056 70.7327C38.8154 70.2409 38.3957 69.7566 37.8594 69.4267C37.3232 69.0968 36.6477 68.9381 36.0504 69.1403C35.9897 69.359 36.2642 69.5075 36.4803 69.5822C37.3123 69.8698 38.0673 70.373 38.6501 71.0282C38.7407 71.1301 38.8314 71.2388 38.9554 71.2965ZM46.3074 71.8454C45.3256 71.2246 43.9855 71.2137 42.9935 71.8185C42.8211 71.9236 42.644 72.0713 42.6306 72.2715C42.6172 72.4717 42.8914 72.6575 43.0274 72.5089C43.5754 71.91 44.5766 71.7857 45.2566 72.2323C45.5905 72.4515 46.07 72.4216 46.3735 72.1626C46.5168 72.1478 46.4289 71.9222 46.3074 71.8454ZM53.4495 75.2045C52.0545 75.1111 50.7564 75.9248 49.7437 76.8808C49.8174 77.0497 50.0689 77.005 50.2393 76.9319C51.3924 76.4371 52.5456 75.9423 53.6987 75.4475C53.7854 75.3338 53.593 75.2141 53.4495 75.2045ZM40.1724 75.8204C40.3439 75.9169 40.512 76.048 40.7092 76.0482C40.9064 76.0483 41.1019 75.8129 40.9768 75.6617C40.5829 75.1855 39.9638 74.9008 39.3427 74.9103C38.7216 74.9197 38.1115 75.2231 37.7325 75.711C37.7792 75.8883 37.9981 75.9699 38.181 75.9434C38.3639 75.917 38.525 75.8148 38.6946 75.742C39.1638 75.5404 39.7276 75.5704 40.1724 75.8204ZM47.0901 75.6905C47.0745 75.8266 47.2301 75.9308 47.3681 75.9233C47.5062 75.9159 47.6274 75.8358 47.7485 75.7697C48.2567 75.4922 48.8825 75.4353 49.4331 75.6165C49.7859 75.7327 50.2262 75.9226 50.4809 75.654C50.5032 75.5006 50.3479 75.3848 50.2099 75.312C49.7153 75.0511 49.1709 74.8544 48.6107 74.8595C48.0505 74.8646 47.4724 75.0976 47.1526 75.5536C47.1235 75.5952 47.0959 75.6402 47.0901 75.6905ZM46.0489 69.7143C46.6255 69.919 47.1626 70.2328 47.6228 70.6336C47.8125 70.7988 47.994 70.9819 48.2242 71.085C48.4543 71.188 48.753 71.1907 48.9331 71.0153C48.5346 70.7122 48.2072 70.3178 47.9839 69.8717C47.8637 69.6315 47.5431 69.5875 47.2728 69.5744C46.8779 69.5552 46.483 69.5361 46.088 69.5169C46.0463 69.5726 46.0315 69.6471 46.0489 69.7143ZM40.8978 71.0892C41.1017 70.9004 41.2521 70.6624 41.4405 70.4583C41.7327 70.1419 42.1174 69.9106 42.5355 69.8C42.7158 69.7523 42.953 69.6608 42.9257 69.4777C42.4148 69.3897 41.8318 69.3187 41.4288 69.6424C40.8644 70.0957 40.417 70.691 40.1402 71.3568C40.4126 71.4165 40.6938 71.278 40.8978 71.0892ZM36.3558 70.8599C36.722 71.0965 37.0881 71.333 37.4543 71.5695C37.6093 71.6697 37.8073 71.7722 37.9681 71.6815C38.1173 71.5973 38.1401 71.3804 38.0623 71.2287C37.9846 71.0769 37.8362 70.9754 37.6938 70.8803C37.3957 70.6813 37.0976 70.4823 36.7994 70.2832C36.5497 70.1165 36.143 69.9836 36.0072 70.25C35.8901 70.4796 36.1384 70.7195 36.3558 70.8599ZM44.0658 73.7036C44.2059 73.8414 44.4022 73.9904 44.5802 73.9059C44.6614 73.8673 44.7136 73.7882 44.7618 73.7128C44.9205 73.464 45.0793 73.2153 45.238 72.9665C44.8224 72.5083 44.0065 72.496 43.5771 72.9416C43.5441 72.9758 43.5119 73.015 43.506 73.062C43.4967 73.1364 43.5547 73.2008 43.6084 73.2536C43.7609 73.4036 43.9133 73.5536 44.0658 73.7036ZM37.6579 77.2606C37.9557 77.3642 38.3071 77.3948 38.5698 77.2214C38.1744 76.7705 37.711 76.3784 37.1998 76.0621C37.0547 75.9724 36.8912 75.8857 36.722 75.9096C36.5527 75.9335 36.4029 76.1243 36.4849 76.273C36.7364 76.7295 37.1628 77.0885 37.6579 77.2606ZM53.9961 73.6367C54.1368 73.4681 54.2776 73.2995 54.4183 73.1309C54.4668 73.0729 54.518 73.0073 54.5149 72.932C54.5111 72.8364 54.4227 72.7676 54.3387 72.7207C54.0462 72.5576 53.7009 72.4895 53.3678 72.5293C53.2404 72.5445 53.1077 72.5789 53.0181 72.67C52.9285 72.7611 52.9027 72.9228 52.9928 73.0134C53.1971 73.2186 53.4014 73.4238 53.6057 73.629C53.6725 73.6961 53.7571 73.7688 53.85 73.7488C53.9113 73.7355 53.956 73.6847 53.9961 73.6367ZM39.3111 69.9943C39.4373 70.129 39.5959 70.267 39.7807 70.2518C40.1771 70.2193 40.3049 69.5412 40.7008 69.5783C40.8072 69.4046 40.517 69.2656 40.3121 69.2624C39.7817 69.254 39.2514 69.2457 38.721 69.2374C38.8941 69.5066 39.0919 69.7603 39.3111 69.9943ZM42.5866 77.3851C43.6899 77.3803 44.7931 77.3756 45.8964 77.3708C45.7997 77.1546 45.5408 77.0668 45.3073 77.0188C44.5417 76.8615 43.7389 76.8855 42.9843 77.0883C42.8153 77.1337 42.6225 77.2152 42.5866 77.3851ZM49.3986 76.2341C49.0336 76.2504 48.6686 76.2668 48.3036 76.2832C48.1857 76.2884 48.0345 76.3223 48.0199 76.4384C48.0135 76.4903 48.0397 76.54 48.0651 76.5858C48.1617 76.7596 48.2644 76.9403 48.4312 77.0497C48.5981 77.1592 48.8493 77.1699 48.9792 77.019C49.0787 76.9034 49.0865 76.7228 49.2052 76.6264C49.2817 76.5643 49.3877 76.552 49.4723 76.5013C49.5569 76.4505 49.6108 76.3189 49.5323 76.2592C49.4956 76.2312 49.4449 76.232 49.3986 76.2341ZM39.9469 76.8395C40.0444 76.6886 39.9522 76.4751 39.8002 76.378C39.6483 76.2809 39.4583 76.2692 39.2778 76.2604C39.0784 76.2506 38.8159 76.287 38.7801 76.4817C38.7631 76.5745 38.8107 76.6656 38.8568 76.748C38.9921 76.9902 39.1911 77.2679 39.469 77.2405C39.6843 77.2194 39.8301 77.0202 39.9469 76.8395ZM54.3668 74.6691C54.5306 74.6825 54.6774 74.5724 54.7924 74.4559C55.1429 74.1006 55.3659 73.6239 55.413 73.129C55.297 73.0555 55.1551 73.1696 55.0662 73.2738C54.7677 73.6237 54.4692 73.9736 54.1707 74.3236C54.0646 74.448 54.2029 74.6557 54.3668 74.6691ZM36.1068 72.19C36.2732 72.3966 36.5943 72.4613 36.8289 72.3356C36.949 72.2712 37.0504 72.1435 37.0265 72.0102C37.0053 71.8915 36.8963 71.8111 36.7958 71.7432C36.6507 71.645 36.5055 71.5469 36.3604 71.4488C36.316 71.4188 36.2651 71.3874 36.2125 71.3982C36.1763 71.4056 36.1472 71.432 36.1229 71.4596C35.9475 71.6587 35.9403 71.9835 36.1068 72.19ZM48.9983 70.0101C49.1726 70.1551 49.4309 70.0053 49.6039 69.8587C49.7916 69.6997 49.9793 69.5407 50.167 69.3816C50.0608 69.2811 49.891 69.3038 49.7472 69.3333C49.3292 69.4189 48.9113 69.5045 48.4934 69.5901C48.6617 69.7301 48.83 69.8701 48.9983 70.0101ZM55.5612 67.9775C55.6664 68.1074 55.8879 68.0795 56.0086 67.9635C56.1292 67.8474 56.1737 67.676 56.2083 67.5129C56.2166 67.4737 56.2244 67.4314 56.2078 67.3948C56.1657 67.3019 56.0267 67.3299 55.9336 67.373C55.6831 67.4887 55.3881 67.7639 55.5612 67.9775Z" fill="white"/>
<path fill-rule="evenodd" clip-rule="evenodd" d="M22.8095 54.0773C23.8415 49.0169 27.3699 44.7808 31.7509 41.9902C29.5359 45.0008 22.7382 49.9378 24.9231 55.4381C28.4156 64.2302 42.0019 65.6129 41.5292 65.7085C33.4935 67.3329 22.0412 57.845 22.8095 54.0773Z" fill="#EDFFFC"/>
<path fill-rule="evenodd" clip-rule="evenodd" d="M48.5131 10.1637C47.9541 10.231 47.4616 10.6749 47.3409 11.2202C51.8661 8.80793 57.3318 8.18777 62.2897 9.52404C62.2939 12.003 60.54 14.3873 58.1579 15.1407L52.9937 16.7742C54.356 16.924 55.7558 16.7259 57.0215 16.2043C57.4711 16.9068 58.2119 17.4198 59.0319 17.5967L57.4445 17.9419C57.6785 18.6489 58.1564 19.2742 58.7797 19.6887C58.2508 19.5091 57.6622 19.5073 57.1322 19.6836L57.4876 20.9632C55.1469 20.6413 52.6458 20.9573 50.6743 22.2491C48.7028 23.5408 47.3789 25.9154 47.7342 28.2317C48.1499 25.7133 49.8906 23.4476 52.2289 22.3811C54.5672 21.3146 57.4351 21.4784 59.6344 22.8041L58.1426 23.8997C58.7156 24.1256 59.3945 24.0679 59.9203 23.7485C61.0686 24.2522 60.7506 26.3353 59.5034 26.4795L61.1532 26.5933C61.4391 29.3746 59.7062 32.2429 57.0978 33.3053C54.4895 34.3677 51.2233 33.5357 49.4545 31.3583C47.2589 32.4699 47.4128 35.839 48.9776 37.7278C50.07 39.0463 51.5742 39.9029 53.081 40.7608C53.7327 41.1319 54.3849 41.5033 55.0043 41.9124C58.2952 44.0856 60.7483 47.4746 61.7715 51.2614C59.9845 52.4477 58.3949 53.9257 57.0862 55.6177C59.0225 55.5282 60.9187 54.7451 62.3465 53.4453L62.6514 56.3693C61.0838 56.8479 59.6753 57.8249 58.6845 59.1208C60.0815 59.2619 61.5222 58.9384 62.7215 58.2142C62.2919 61.5787 61.5166 64.8997 60.4115 68.1092L56.8084 68.08C57.6633 65.7379 58.5291 63.218 57.8993 60.8068C57.2696 58.3955 54.4449 56.4051 52.2216 57.565C54.7786 55.5216 56.7149 52.7244 57.7184 49.6241L51.2794 57.8645L46.3383 57.906C46.1829 55.5979 46.0334 53.2321 46.6952 51.0138C47.3571 48.7956 49.0096 46.7189 51.2863 46.2131C51.5334 46.1582 51.7963 46.1135 52.0627 46.0683L52.0628 46.0683C53.1756 45.8793 54.349 45.68 54.6757 44.6829C50.9849 44.4701 47.2852 46.8126 45.9276 50.222C44.9602 52.6515 45.1307 55.3595 45.316 57.9649C41.9039 57.4771 38.4102 57.5555 35.0239 58.196C34.436 56.2092 33.8264 54.1779 32.5933 52.507C31.3601 50.8361 29.3582 49.5688 27.2803 49.775C30.6268 50.2681 32.2844 53.9549 33.5463 57.0671C34.8082 60.1793 37.0988 63.7342 40.4677 63.4262C41.4272 63.3385 41.7326 64.901 40.9973 65.5183C40.262 66.1356 39.1693 66.018 38.2281 65.8138C33.3797 64.7619 28.8529 62.2936 25.3603 58.7974C24.6803 58.1166 24.0227 57.3717 23.7085 56.4657C23.3208 55.3477 23.5014 54.1132 23.8348 52.9782C25.5378 47.1799 30.779 43.2071 35.7599 39.7308C38.4396 37.8606 38.3435 33.226 35.5885 31.4665C33.5491 33.3039 30.8299 34.5886 28.091 34.2889C25.352 33.9892 22.7597 31.7657 22.6714 29.0351C23.5317 28.9599 24.3748 28.6981 25.1246 28.2733C24.3887 28.014 23.5592 28.0251 22.8306 28.3039C22.6324 27.568 22.7771 26.7485 23.2156 26.1231L24.7773 25.9577C24.4633 25.6057 24.0255 25.3647 23.5582 25.2865C24.6852 23.4246 27.301 22.915 29.3972 23.5442C31.4935 24.1733 33.1912 25.6723 34.8154 27.1291C33.1217 23.4476 28.5294 22.2609 24.5197 21.5065L26.2694 20.4788C25.2582 20.2056 24.1426 20.334 23.2215 20.8297C23.8229 21.5683 24.6346 22.1366 25.5377 22.4514C24.0942 24.4886 21.5463 25.7045 19.0399 25.5523C16.5756 25.4027 14.0659 26.1507 12.0933 27.6228C15.2988 26.3305 18.8007 25.7671 22.2538 25.9879L21.6799 28.4535C19.6865 28.8231 17.7842 29.667 16.1779 30.8943L21.6071 29.0764C22.1512 31.834 24.351 34.2041 27.0776 34.9703C29.8042 35.7365 32.9313 34.8634 34.8539 32.799C36.8943 33.2004 37.3839 36.1211 36.2685 37.8619C35.3853 39.2404 33.9407 40.099 32.5086 40.9502C32.1321 41.174 31.7564 41.3973 31.3921 41.6294C27.011 44.4199 23.8415 49.0169 22.8095 54.0773C21.7775 59.1377 22.8968 64.5944 25.8404 68.8532C20.9786 70.6774 17.7462 76.0481 18.4356 81.1565C18.4514 81.2735 18.4689 81.3912 18.4865 81.5094C18.5905 82.2081 18.6967 82.9213 18.4575 83.5777C18.1778 84.3451 17.1734 84.9136 16.5133 84.4263C14.6302 83.0362 12.4219 82.0819 10.1129 81.6606C8.75358 81.4125 6.75873 81.9699 7.04831 83.3098C7.14486 83.7565 7.49968 84.0974 7.84407 84.4009C11.4176 87.5502 15.7702 89.824 20.4105 90.9659C21.4606 91.2243 22.6271 91.4124 23.5789 90.9024C24.934 90.1764 25.1564 88.5483 25.3799 86.9127C25.5995 85.305 25.8202 83.6902 27.1186 82.9179C28.291 82.2206 29.7358 82.6116 31.0899 82.9782C31.2708 83.0271 31.4501 83.0757 31.6269 83.1211C34.8469 83.9486 38.1862 83.6328 41.5269 83.3169H41.527H41.5271H41.5272H41.5273H41.5274H41.5275H41.5276H41.5277H41.5278H41.5279H41.528H41.528H41.5281H41.5282H41.5283H41.5284H41.5285H41.5286H41.5287H41.5288H41.5289H41.529H41.529H41.5291H41.5292H41.5293H41.5294H41.5295H41.5296H41.5297H41.5298H41.5299H41.53H41.5301C42.8477 83.1921 44.1656 83.0674 45.4765 83.013C49.1164 82.8619 52.7791 83.2621 56.2985 84.1953C57.5242 84.5204 58.7429 83.914 59.9035 83.3365C60.0759 83.2507 60.247 83.1655 60.4167 83.0842C61.7287 82.4551 63.5265 82.1235 64.4625 83.231C64.8326 83.6689 64.9693 84.2301 65.1066 84.7941C65.1746 85.0732 65.2428 85.3531 65.3395 85.619C65.9698 87.3528 67.8599 88.4149 69.7159 88.518C71.5719 88.6211 73.3842 87.9231 75.0061 87.0226C78.0788 85.3165 80.707 82.8311 82.5709 79.8686C82.7878 79.5237 83.0022 79.1404 82.9588 78.7363C82.844 77.6685 81.295 77.5846 80.2617 77.9062C77.466 78.7765 74.896 80.3495 72.8585 82.4374C71.9006 81.5716 71.4344 80.2028 71.6667 78.9385C77.3625 75.0337 83.4269 70.9954 90.3344 70.5101C91.4175 70.434 92.5171 70.4457 93.6153 70.4575C96.0003 70.483 98.3784 70.5085 100.565 69.6338C104.594 68.0222 106.921 62.5716 104.397 59.066C102.455 56.3689 98.6587 55.7326 95.3298 56.0281C89.7034 56.5276 84.2878 59.0962 80.3646 63.1258C79.2746 64.2455 78.2799 65.4847 77.2871 66.7216C75.1388 69.3982 72.9991 72.0641 69.9197 73.4846C67.829 70.6175 64.5524 68.628 61.0263 68.0845C63.6417 63.3 64.3188 57.508 62.8765 52.2572C61.4343 47.0065 57.8884 42.3546 53.1873 39.5456C52.9311 39.3925 52.67 39.2432 52.4083 39.0937C51.2245 38.4171 50.0288 37.7337 49.2222 36.6564C48.2372 35.3409 48.1394 33.1801 49.5209 32.2812C51.358 34.7805 55.2133 35.3203 57.9396 33.8176C60.6659 32.3149 62.2185 29.1616 62.2735 26.0694L69.3258 25.8915C66.9551 25.1052 64.3655 24.9795 61.9287 25.5325L61.0837 23.2513L66.6795 22.524C64.615 22.0085 62.4025 22.0906 60.3827 22.7577C59.9237 21.8665 59.2239 21.0986 58.376 20.5559C59.1721 20.6454 59.999 20.4341 60.6522 19.9741L58.8162 18.5255C59.5768 18.664 60.4023 18.1697 60.6325 17.4378L57.6939 16.2593L69.2938 10.7559C68.7995 10.7472 68.3048 10.7653 67.8125 10.8099L69.312 9.82689C67.0226 10.1013 64.7645 9.46234 62.5092 8.82422C60.1747 8.16368 57.8432 7.50399 55.4832 7.85901C54.556 7.99848 53.623 8.29092 52.6953 8.5817C50.7807 9.18179 48.8887 9.77481 47.1174 9.0016C43.5133 7.42827 39.2868 7.31303 35.6009 8.68759C35.275 8.80914 34.9438 8.94194 34.6095 9.07605C32.7693 9.8141 30.8304 10.5918 29.1114 9.75166C27.0427 8.74063 24.534 9.33196 22.4597 10.3318C21.7316 10.6828 21.0249 11.0821 20.3188 11.481C19.0135 12.2185 17.7101 12.9549 16.277 13.383C19.5111 15.3482 23.1736 16.6165 26.9385 17.0749C27.401 17.4291 27.2394 18.2168 26.7781 18.5724C26.3168 18.9281 25.693 18.9732 25.1094 19.0041C25.2596 20.035 26.5993 20.6878 27.5143 20.1761C27.1298 20.2469 27.1011 19.6276 27.2608 19.2737L28.2577 17.0651C29.0318 17.3469 29.9953 16.8947 30.2662 16.1224C28.3491 16.3512 26.3599 16.5737 24.5234 15.9824C22.6869 15.3911 21.046 13.7415 21.1321 11.8289C25.2218 9.4796 30.7122 9.7977 34.4982 12.6033C34.2058 11.7575 33.4873 11.0684 32.6249 10.8068C33.6206 9.83495 34.9424 9.19712 36.3282 9.0198C35.5049 9.66559 35.1276 10.8201 35.4125 11.8219L39.1089 8.45123C38.5025 9.52898 38.1629 10.753 38.1279 11.9866C39.4988 11.0984 40.5909 9.79357 41.2187 8.29395L42.8631 8.52285C41.8564 9.36613 41.2956 10.7061 41.4043 12.0083C42.6572 11.236 43.6286 10.0247 44.1051 8.64043C45.6491 8.88774 47.1486 9.40593 48.5131 10.1637ZM93.9343 69.8329C93.1076 69.8058 92.2802 69.7786 91.4578 69.8018C85.3363 69.9741 79.6451 72.9302 74.5944 76.3637L74.3817 76.5087C73.4233 77.1622 72.4554 77.8222 71.3613 78.2077L70.0759 74.4935C70.0069 74.2942 69.9645 74.0203 70.1514 73.9201C72.1168 72.8664 73.9115 71.5004 75.446 69.8901C76.4685 68.8172 77.3754 67.6382 78.2813 66.4606C79.564 64.793 80.8447 63.1281 82.4483 61.7712C85.0093 59.6044 88.2331 58.3642 91.468 57.4393C93.862 56.7547 96.3705 56.2177 98.833 56.5937C101.295 56.9697 103.72 58.4268 104.623 60.7291C105.34 62.5576 104.989 64.7146 103.884 66.3422C102.779 67.9698 100.985 69.0776 99.0626 69.5422C97.3906 69.9463 95.6638 69.8896 93.9343 69.8329ZM23.4997 77.7009C23.6291 78.0062 23.7108 78.4136 23.4524 78.6233C23.1196 78.8935 22.6474 78.5453 22.3677 78.2213L19.9841 75.4596C19.4134 76.9304 19.1516 78.5181 19.2201 80.0925C19.2339 80.4085 19.2599 80.7292 19.286 81.051C19.3856 82.2808 19.4865 83.5268 18.9121 84.5933C18.6601 85.061 18.2313 85.4904 17.6976 85.5247C17.3951 85.5442 17.1005 85.4345 16.8213 85.3174C16.056 84.9966 15.302 84.6022 14.5481 84.208L14.548 84.2079C12.6075 83.1931 10.6685 82.1791 8.54361 82.421C8.25343 82.4541 7.89207 82.596 7.9034 82.8854C7.90848 83.015 7.99374 83.1263 8.07665 83.2267C11.1402 86.9362 15.9311 88.735 20.5687 90.0932C21.3272 90.3153 22.1266 90.5316 22.8989 90.363C23.6713 90.1943 24.3882 89.5039 24.2949 88.7252C24.0482 86.6651 24.6992 84.5145 26.0494 82.9296C26.5884 82.2969 27.27 81.7338 28.0879 81.5653C29.0925 81.3584 30.0743 81.7688 31.0413 82.1729L31.0413 82.173L31.0414 82.173L31.0415 82.173L31.0415 82.173L31.0416 82.1731L31.0417 82.1731L31.0418 82.1731L31.0418 82.1731L31.0419 82.1731L31.042 82.1732L31.0421 82.1732L31.0422 82.1733C31.2903 82.277 31.5375 82.3803 31.7838 82.4726C33.6739 83.1812 35.7985 83.2585 37.736 82.6892C36.9786 82.6794 36.6148 81.7789 36.4578 81.0442C35.4406 76.284 34.8999 71.4239 34.846 66.5584C34.8402 66.0294 34.4659 65.5616 34.0144 65.2795C33.6322 65.0408 33.1964 64.908 32.763 64.7759C32.6845 64.752 32.606 64.728 32.5279 64.7035C30.9499 64.2079 29.463 63.4287 28.1611 62.4153C27.9983 62.2886 27.838 62.1579 27.6776 62.0272L27.6775 62.0271L27.6774 62.027L27.6772 62.0269L27.6771 62.0269L27.677 62.0268L27.6769 62.0267L27.6768 62.0266L27.6767 62.0265L27.6766 62.0264L27.6764 62.0263L27.6763 62.0262L27.6762 62.0261L27.6761 62.026L27.676 62.0259L27.6759 62.0258L27.6758 62.0258L27.6756 62.0257L27.6755 62.0256L27.6754 62.0255L27.6753 62.0254L27.6752 62.0253L27.6751 62.0252L27.675 62.0251L27.6748 62.025L27.6747 62.0249L27.6746 62.0248L27.6745 62.0247L27.6744 62.0247L27.6743 62.0246L27.6742 62.0245L27.674 62.0244L27.6739 62.0243L27.6738 62.0242C27.1755 61.6182 26.6768 61.2118 26.1048 60.9208C25.3472 60.5354 24.4096 60.3783 23.6503 60.7604C23.4809 61.1605 23.7872 61.6255 24.1791 61.8187C24.4759 61.965 24.8085 62.0047 25.1402 62.0443C25.2465 62.057 25.3527 62.0697 25.4577 62.0858C25.9567 62.1627 26.4424 62.3239 26.8876 62.5602C27.3553 62.8085 27.7982 63.4641 27.3814 63.7896C27.2105 63.923 26.9709 63.9137 26.754 63.8979L24.3064 63.7196C24.9031 65.329 25.6638 66.8787 26.5732 68.3372C26.6548 68.4682 26.7638 68.6137 26.919 68.6151C29.317 68.6365 31.9947 68.9693 33.5143 70.8085C33.8023 71.1571 34.0386 71.6609 33.7916 72.0393C32.3987 70.3717 30.2198 69.3786 28.0363 69.4159C25.8528 69.4533 23.7098 70.5204 22.3758 72.2347C23.5533 73.016 24.4893 74.15 25.0289 75.4489C25.1918 75.8412 25.1619 76.4828 24.734 76.4739L22.1647 73.355C22.0499 73.2156 21.912 73.0643 21.7306 73.0588C21.5851 73.0544 21.4568 73.1466 21.3414 73.2346C21.0915 73.425 20.8321 73.6269 20.7017 73.9114C20.5712 74.1958 20.6198 74.5873 20.8915 74.7455C22.0498 75.42 22.9793 76.4732 23.4997 77.7009ZM52.7917 82.5819C54.4417 81.2174 54.9799 78.9704 55.423 76.8859L57.0466 69.2475C57.064 69.1659 57.0839 69.0794 57.1431 69.0201C57.2213 68.9418 57.3438 68.9333 57.4549 68.93C60.4144 68.8414 63.5653 69.1209 65.949 70.8622C64.9764 71.3404 64.1262 72.061 63.4985 72.9393C63.3224 73.1857 63.1754 73.5563 63.402 73.758C63.487 73.8336 63.6055 73.8604 63.7194 73.8684C64.2876 73.9085 64.8067 73.5566 65.2219 73.17C65.3114 73.0866 65.3993 73.0004 65.4874 72.9141C65.8076 72.6 66.1292 72.2846 66.5355 72.1002C67.0535 71.865 67.773 71.931 68.0588 72.4196C67.135 72.8861 66.3738 73.6622 65.9293 74.5908C65.8136 74.8326 65.718 75.112 65.8117 75.363C65.9055 75.614 66.2742 75.7612 66.4555 75.5628L68.2403 73.6094C68.3266 73.5149 68.4465 73.4112 68.5673 73.4549C68.6325 73.4785 68.675 73.5396 68.7123 73.5976C69.6582 75.0692 70.0342 76.7826 70.4118 78.5034C70.6329 79.511 70.8545 80.5212 71.1915 81.4868C71.4615 82.2605 71.9827 83.1296 72.8084 83.1302C73.2648 83.1305 73.6684 82.8521 74.0297 82.5756C74.4157 82.2803 74.7997 81.9704 75.1857 81.659L75.186 81.6587L75.1861 81.6587C77.0012 80.1942 78.8575 78.6965 81.1433 78.5172C81.5037 78.4889 81.966 78.5677 82.0506 78.9162C82.0997 79.1185 81.9898 79.3222 81.8804 79.4998C80.1812 82.2571 77.6326 84.4312 74.8171 86.0587C73.3755 86.8919 71.7949 87.6075 70.1263 87.6203C68.4577 87.6331 66.6909 86.7873 66.0604 85.2556C65.9318 84.9432 65.8531 84.6133 65.7745 84.2838L65.7745 84.2837C65.6836 83.9026 65.5928 83.5218 65.4249 83.1688C64.9922 82.259 64.0333 81.6186 63.0203 81.563C62.0558 81.51 61.1688 81.936 60.2837 82.361C59.9728 82.5104 59.6621 82.6596 59.3483 82.7879C57.2654 83.6396 54.8162 83.5627 52.7917 82.5819ZM41.7778 66.1377C41.1568 66.6631 40.3213 66.8729 39.5071 66.9321C38.04 67.0389 36.5429 66.6984 35.2695 65.9683L35.7949 67.9402C35.8176 68.0251 35.8445 68.1167 35.9157 68.169C35.9775 68.2145 36.0594 68.2202 36.1362 68.2242L43.6861 68.6176C44.7868 68.6749 45.8889 68.7323 46.9907 68.7007C50.0809 68.6122 53.1481 67.8123 55.8824 66.382C56.0401 66.2995 56.2008 66.2117 56.3144 66.0753C56.4498 65.9129 56.5033 65.7 56.5486 65.494C56.9316 63.7525 56.9978 61.9429 56.7432 60.1784C56.6806 59.745 56.5935 59.3006 56.3478 58.9368C56.102 58.573 55.66 58.3071 55.2262 58.389C50.7831 59.2278 46.2474 58.9687 41.7122 58.7096L41.7119 58.7096L41.7116 58.7096L41.7114 58.7096L41.7111 58.7096L41.7109 58.7096L41.7106 58.7096L41.7103 58.7095L41.7101 58.7095L41.7098 58.7095L41.7095 58.7095L41.7093 58.7095L41.709 58.7095L41.7088 58.7095L41.7085 58.7095L41.7082 58.7095L41.708 58.7094L41.7077 58.7094L41.7074 58.7094L41.7072 58.7094L41.7069 58.7094L41.7066 58.7094L41.7064 58.7094L41.7061 58.7094L41.7059 58.7094L41.7056 58.7093L41.7053 58.7093L41.7051 58.7093L41.7048 58.7093L41.7045 58.7093L41.7043 58.7093L41.704 58.7093C39.9974 58.6117 38.2909 58.5142 36.5894 58.4755C36.2851 58.4685 35.9651 58.4671 35.6978 58.6114C35.4306 58.7557 35.2466 59.0984 35.3839 59.3677C36.161 60.892 37.7667 61.8648 39.4316 62.3036C39.5509 62.3351 39.6731 62.3659 39.7967 62.397L39.7969 62.3971L39.7973 62.3972C40.8743 62.6688 42.0603 62.9679 42.4514 63.9618C42.7481 64.7159 42.3989 65.6122 41.7778 66.1377ZM53.891 79.0571C53.5865 80.2561 52.9463 81.4999 51.7846 81.9495C51.3782 82.1068 50.9382 82.1536 50.5038 82.1937C46.4764 82.5653 42.4059 82.4758 38.3991 81.9275C38.1605 81.8948 37.909 81.855 37.7231 81.7033C37.4966 81.5185 37.4198 81.2126 37.3605 80.9278C37.1786 80.0549 37.0376 79.1736 36.9382 78.2877C36.9206 78.1308 36.9645 77.9069 37.1233 77.9191C39.6872 78.1169 42.2585 78.2208 44.8301 78.2305C46.6041 78.2372 48.3922 78.1976 50.1247 77.8198C51.8573 77.4419 53.5466 76.7036 54.8132 75.4722C54.4531 76.2219 54.2981 77.0409 54.1429 77.8611C54.067 78.2621 53.9911 78.6635 53.891 79.0571ZM45.229 74.0784C45.0647 74.237 44.8878 74.4254 44.8994 74.6526C44.911 74.8797 45.2547 75.0493 45.3733 74.8545C46.0204 73.7917 47.1458 73.0276 48.3792 72.8135C49.6127 72.5994 50.9329 72.9392 51.9057 73.7209C52.0067 73.802 52.1044 73.8878 52.2021 73.9736L52.2024 73.9739L52.2025 73.9739C52.4331 74.1765 52.6636 74.379 52.9359 74.519C53.0754 74.5908 53.3143 74.5927 53.3201 74.4369C53.322 74.3857 53.2925 74.3392 53.2635 74.2969C52.565 73.276 51.5204 72.4924 50.3397 72.1034C49.3047 71.7625 48.1055 71.741 47.1798 72.3128C46.8436 72.5204 46.557 72.7966 46.2732 73.0705L45.229 74.0784ZM36.5349 73.4977C37.4272 72.4912 38.8699 72.0453 40.2099 72.221C41.5499 72.3966 42.7755 73.1451 43.6658 74.1534C43.8227 74.331 43.9765 74.5864 43.8493 74.7861C43.7428 74.9533 43.4882 74.9654 43.3133 74.8705C43.1607 74.7876 43.0517 74.6477 42.9446 74.5102C42.9289 74.4901 42.9133 74.47 42.8976 74.4502C42.1094 73.4561 40.8217 72.8726 39.5478 72.9321C38.2739 72.9917 37.0473 73.6929 36.357 74.7561C36.1773 74.601 36.1264 74.3349 36.1805 74.1048C36.2346 73.8748 36.3776 73.6752 36.5349 73.4977ZM49.6619 70.8608C49.6411 71.0855 49.9404 71.2252 50.1555 71.1517C50.3491 71.0855 50.484 70.9198 50.614 70.76L50.6573 70.7071C51.8552 69.2545 54.1362 68.8169 55.7942 69.7215C56.0117 69.5394 56.0241 69.1902 55.8785 68.9476C55.733 68.7051 55.4673 68.5562 55.1962 68.4703C54.6089 68.2842 53.9712 68.3476 53.3669 68.4689C51.9367 68.7558 50.4919 69.428 49.74 70.6679C49.7036 70.7278 49.6683 70.7912 49.6619 70.8608ZM42.3255 75.9771C42.8758 75.7682 43.4511 75.614 44.0389 75.5735C45.4932 75.4733 46.9795 76.1208 47.8886 77.2507C47.5013 77.5251 46.9913 77.1912 46.5933 76.9306L46.5895 76.9281C45.3193 76.0964 43.5839 76.022 42.2461 76.7418C42.1417 76.798 42.0364 76.8591 41.9302 76.9208C41.4297 77.2113 40.9095 77.5133 40.3709 77.3621C40.8161 76.686 41.5649 76.2657 42.3255 75.9771ZM47.0912 74.7804L47.0913 74.7804C47.2868 74.6319 47.4823 74.4834 47.6984 74.3675C48.3075 74.0409 49.0662 74.0032 49.7052 74.2678C49.8916 74.345 50.0665 74.4456 50.2415 74.5462C50.3922 74.6329 50.543 74.7196 50.7012 74.7914C51.0431 74.9467 51.4503 75.0272 51.7909 74.8692C51.8287 74.8517 51.8678 74.8286 51.8838 74.7904C51.9097 74.7283 51.8637 74.6613 51.819 74.6107C51.0568 73.7481 49.8626 73.2808 48.7116 73.3947C47.5607 73.5086 46.4832 74.2008 45.908 75.1957C46.028 75.3524 46.2778 75.3001 46.4538 75.2091C46.6819 75.0913 46.8865 74.9359 47.0912 74.7804ZM37.9342 74.9382C37.8044 75.052 37.6748 75.1656 37.5247 75.2502C37.2858 75.3849 36.9642 75.4301 36.7482 75.2617C36.6814 74.9055 37.0438 74.6289 37.3594 74.4463C38.1377 73.996 38.9742 73.5309 39.874 73.577C40.5939 73.6139 41.2511 73.9753 41.8729 74.3369C42.0257 74.4258 42.1826 74.5191 42.2871 74.661C42.3916 74.8028 42.4308 75.0073 42.3331 75.1539C42.2344 75.3021 42.0266 75.3457 41.8522 75.3055C41.6842 75.2668 41.5388 75.1666 41.3969 75.0688L41.3804 75.0575C40.8773 74.7113 40.3288 74.392 39.7205 74.322C39.1746 74.2592 38.6056 74.4114 38.1689 74.7421C38.0877 74.8035 38.011 74.8708 37.9342 74.9381L37.9342 74.9382ZM41.5775 71.7918C41.7399 72.0002 42.058 71.7767 42.2374 71.5825C42.7898 70.984 43.5862 70.6134 44.4035 70.5745C45.2209 70.5356 46.0494 70.8288 46.6571 71.3721L46.6944 71.4057C46.8368 71.5342 46.9887 71.6714 47.1784 71.6766C47.3847 71.6821 47.5706 71.3966 47.4069 71.2719C46.5308 70.6045 45.5114 70.0591 44.4089 69.9871C43.3064 69.915 42.1182 70.4054 41.6078 71.377C41.5394 71.5071 41.487 71.6757 41.5775 71.7918ZM51.6396 71.3628C51.5451 71.4593 51.4493 71.5571 51.3254 71.6091C51.1799 71.6701 50.98 71.6408 50.9097 71.5005C50.8355 71.3523 50.9392 71.1795 51.0473 71.0534C52.1082 69.8157 54.1052 69.4949 55.5061 70.3371C55.7207 70.4661 55.9456 70.7163 55.8194 70.9313C55.6681 71.1892 55.2763 71.0245 55.0158 70.875C53.9743 70.2777 52.5372 70.4668 51.6889 71.3129L51.6635 71.3384L51.6401 71.3623L51.64 71.3624L51.6399 71.3625L51.6398 71.3626L51.6397 71.3627L51.6396 71.3628ZM52.0998 71.6886C52.0396 71.7385 51.9796 71.7944 51.9542 71.868C51.8834 72.0736 52.1355 72.2661 52.3539 72.2489C52.5121 72.2364 52.653 72.16 52.794 72.0837C52.8478 72.0545 52.9016 72.0254 52.9564 71.9998C53.4397 71.7738 54.0205 71.8277 54.511 72.0377C54.5571 72.0574 54.6029 72.0785 54.6487 72.0997L54.649 72.0998L54.6494 72.1L54.6498 72.1002C54.7964 72.1678 54.9432 72.2355 55.1022 72.2593C55.3112 72.2905 55.5551 72.2218 55.6503 72.0346C54.819 71.013 53.1158 70.847 52.0998 71.6886ZM39.3286 71.2327C39.2488 71.3431 39.0795 71.3543 38.9554 71.2965C38.8402 71.2429 38.7537 71.1453 38.6694 71.05L38.6501 71.0282C38.0673 70.373 37.3123 69.8698 36.4803 69.5822C36.2642 69.5075 35.9897 69.359 36.0504 69.1403C36.6477 68.9381 37.3232 69.0968 37.8594 69.4267C38.3957 69.7566 38.8154 70.2409 39.2056 70.7327C39.3208 70.878 39.4372 71.0825 39.3286 71.2327ZM46.3074 71.8454C45.3256 71.2246 43.9855 71.2137 42.9935 71.8185C42.8211 71.9236 42.644 72.0713 42.6306 72.2715C42.6172 72.4717 42.8914 72.6575 43.0274 72.5089C43.5754 71.91 44.5766 71.7857 45.2566 72.2323C45.5905 72.4515 46.07 72.4216 46.3735 72.1626C46.5168 72.1478 46.4289 71.9222 46.3074 71.8454ZM49.7437 76.8808C50.7564 75.9248 52.0545 75.1111 53.4495 75.2045C53.593 75.2141 53.7854 75.3338 53.6987 75.4475L50.2393 76.9319C50.0689 77.005 49.8174 77.0497 49.7437 76.8808ZM40.1724 75.8204C40.2064 75.8396 40.2403 75.8601 40.2743 75.8807C40.4117 75.9638 40.5511 76.048 40.7092 76.0482C40.9064 76.0483 41.1019 75.8129 40.9768 75.6617C40.5829 75.1855 39.9638 74.9008 39.3427 74.9103C38.7216 74.9197 38.1115 75.2231 37.7325 75.711C37.7792 75.8883 37.9981 75.9699 38.181 75.9434C38.3128 75.9244 38.4334 75.866 38.5539 75.8075C38.6006 75.7849 38.6473 75.7623 38.6946 75.742C39.1638 75.5404 39.7276 75.5704 40.1724 75.8204ZM47.3681 75.9233C47.2301 75.9308 47.0745 75.8266 47.0901 75.6905C47.0959 75.6402 47.1235 75.5952 47.1526 75.5536C47.4724 75.0976 48.0505 74.8646 48.6107 74.8595C49.1709 74.8544 49.7153 75.0511 50.2099 75.312C50.3479 75.3848 50.5032 75.5006 50.4809 75.654C50.2517 75.8958 49.8721 75.7661 49.5412 75.653L49.4943 75.637L49.4668 75.6278L49.4331 75.6165C48.8825 75.4353 48.2567 75.4922 47.7485 75.7697C47.731 75.7792 47.7135 75.7891 47.696 75.7989C47.5921 75.8574 47.4862 75.9169 47.3681 75.9233ZM46.0489 69.7143C46.6255 69.919 47.1626 70.2328 47.6228 70.6336C47.6548 70.6615 47.6867 70.69 47.7186 70.7185C47.8753 70.8585 48.033 70.9994 48.2242 71.085C48.4543 71.188 48.753 71.1907 48.9331 71.0153C48.5346 70.7122 48.2072 70.3178 47.9839 69.8717C47.8637 69.6315 47.5431 69.5875 47.2728 69.5744L46.088 69.5169C46.0463 69.5726 46.0315 69.6471 46.0489 69.7143ZM41.2204 70.7222C41.119 70.8503 41.0176 70.9782 40.8978 71.0892C40.6938 71.278 40.4126 71.4165 40.1402 71.3568C40.417 70.691 40.8644 70.0957 41.4288 69.6424C41.8318 69.3187 42.4148 69.3897 42.9257 69.4777C42.953 69.6608 42.7158 69.7523 42.5355 69.8C42.1174 69.9106 41.7327 70.1419 41.4405 70.4583C41.3628 70.5424 41.2916 70.6323 41.2204 70.7222ZM36.3558 70.8599L37.4543 71.5695C37.6093 71.6697 37.8073 71.7722 37.9681 71.6815C38.1173 71.5973 38.1401 71.3804 38.0623 71.2287C37.9846 71.0769 37.8362 70.9754 37.6938 70.8803L36.7994 70.2832C36.5497 70.1165 36.143 69.9836 36.0072 70.25C35.8901 70.4796 36.1384 70.7195 36.3558 70.8599ZM44.5802 73.9059C44.4022 73.9904 44.2059 73.8414 44.0658 73.7036L43.6084 73.2536C43.5547 73.2008 43.4967 73.1364 43.506 73.062C43.5119 73.015 43.5441 72.9758 43.5771 72.9416C44.0065 72.496 44.8224 72.5083 45.238 72.9665L44.7618 73.7128C44.7136 73.7882 44.6614 73.8673 44.5802 73.9059ZM37.6579 77.2606C37.9557 77.3642 38.3071 77.3948 38.5698 77.2214C38.1744 76.7705 37.711 76.3784 37.1998 76.0621C37.0547 75.9724 36.8912 75.8857 36.722 75.9096C36.5527 75.9335 36.4029 76.1243 36.4849 76.273C36.7364 76.7295 37.1628 77.0885 37.6579 77.2606ZM54.4183 73.1309L53.9961 73.6367C53.956 73.6847 53.9113 73.7355 53.85 73.7488C53.7571 73.7688 53.6725 73.6961 53.6057 73.629L52.9928 73.0134C52.9027 72.9228 52.9285 72.7611 53.0181 72.67C53.1077 72.5789 53.2404 72.5445 53.3678 72.5293C53.7009 72.4895 54.0462 72.5576 54.3387 72.7207C54.4228 72.7676 54.5111 72.8364 54.5149 72.932C54.518 73.0073 54.4668 73.0729 54.4183 73.1309ZM39.3111 69.9943C39.4373 70.129 39.5959 70.267 39.7807 70.2518C39.9722 70.2361 40.101 70.0697 40.2277 69.906C40.3632 69.731 40.4962 69.5591 40.7008 69.5783C40.8071 69.4046 40.517 69.2656 40.3121 69.2624L38.721 69.2374C38.8941 69.5066 39.0919 69.7603 39.3111 69.9943ZM45.8964 77.3708L42.5866 77.3851C42.6225 77.2152 42.8153 77.1337 42.9843 77.0883C43.7389 76.8855 44.5417 76.8615 45.3073 77.0188C45.5409 77.0668 45.7997 77.1546 45.8964 77.3708ZM49.3986 76.2341L48.3036 76.2832C48.1857 76.2884 48.0345 76.3223 48.0199 76.4384C48.0135 76.4903 48.0397 76.54 48.0651 76.5858C48.1617 76.7596 48.2644 76.9403 48.4312 77.0497C48.5981 77.1592 48.8493 77.1699 48.9792 77.019C49.0238 76.9671 49.05 76.9021 49.0761 76.8375C49.1081 76.7582 49.1398 76.6795 49.2052 76.6264C49.2485 76.5912 49.3014 76.572 49.3545 76.5527C49.395 76.538 49.4357 76.5232 49.4723 76.5013C49.5569 76.4505 49.6108 76.3189 49.5323 76.2592C49.4956 76.2312 49.4449 76.232 49.3986 76.2341ZM39.8002 76.378C39.9522 76.4751 40.0444 76.6886 39.9469 76.8395C39.8301 77.0202 39.6843 77.2194 39.469 77.2405C39.1911 77.2679 38.9921 76.9902 38.8568 76.748C38.8107 76.6656 38.7631 76.5745 38.7801 76.4817C38.8159 76.287 39.0784 76.2506 39.2778 76.2604C39.4583 76.2692 39.6483 76.2809 39.8002 76.378ZM54.3668 74.6691C54.5306 74.6825 54.6774 74.5724 54.7924 74.4559C55.1429 74.1006 55.3659 73.6239 55.413 73.129C55.297 73.0555 55.1551 73.1696 55.0662 73.2738L54.1707 74.3236C54.0646 74.448 54.2029 74.6557 54.3668 74.6691ZM36.8289 72.3356C36.5943 72.4613 36.2732 72.3966 36.1068 72.19C35.9403 71.9835 35.9475 71.6587 36.1229 71.4596C36.1472 71.432 36.1763 71.4056 36.2125 71.3982C36.2651 71.3874 36.316 71.4188 36.3604 71.4488L36.7958 71.7432C36.8963 71.8111 37.0053 71.8915 37.0265 72.0102C37.0504 72.1435 36.949 72.2712 36.8289 72.3356ZM48.9983 70.0101C49.1726 70.1551 49.4309 70.0053 49.6039 69.8587L50.167 69.3816C50.0608 69.2811 49.891 69.3038 49.7472 69.3333L48.4934 69.5901L48.9983 70.0101ZM23.6513 59.0769C23.5233 58.964 23.4905 58.7795 23.4867 58.6097C23.4823 58.4181 23.505 58.2259 23.5537 58.0404L24.3847 59.113C24.4343 59.177 24.475 59.287 24.4018 59.3222C24.2979 59.2531 24.1701 59.2335 24.0432 59.214C23.8996 59.192 23.7571 59.1701 23.6513 59.0769ZM55.5612 67.9775C55.6664 68.1074 55.8879 68.0795 56.0086 67.9635C56.1292 67.8474 56.1737 67.676 56.2083 67.5129C56.2166 67.4737 56.2244 67.4314 56.2078 67.3948C56.1657 67.3019 56.0267 67.3299 55.9336 67.373C55.6831 67.4887 55.3881 67.7639 55.5612 67.9775ZM46.1571 20.5541C46.2588 20.3023 46.4956 20.1322 46.7287 19.9902C47.4323 19.5618 48.2136 19.2592 49.0239 19.1014C49.2178 19.0637 49.4487 19.0452 49.5833 19.1887C49.7348 19.35 49.659 19.6291 49.491 19.7733C49.3413 19.9018 49.1442 19.9545 48.9515 20.0061C48.9279 20.0124 48.9043 20.0187 48.881 20.0251C48.233 20.203 47.6234 20.5171 47.1041 20.9407C46.9045 21.1035 46.6679 21.2953 46.4188 21.2267C46.1552 21.1541 46.0554 20.806 46.1571 20.5541ZM31.5824 20.613C31.3943 20.512 31.2673 20.2601 31.3843 20.0826C31.4524 19.9793 31.5794 19.9322 31.7 19.9019C32.6769 19.6561 33.6883 20.0901 34.5719 20.5707C34.7708 20.6789 34.9755 20.7968 35.1009 20.9843C35.2263 21.1717 35.2446 21.4495 35.081 21.6054C34.8072 21.8662 34.3731 21.5979 34.0639 21.3793C33.5225 20.9963 32.8721 20.7669 32.2084 20.7246C32.1788 20.7228 32.149 20.7212 32.1191 20.7196L32.1191 20.7196C31.9334 20.7099 31.7444 20.6999 31.5824 20.613ZM41.8233 34.4993L41.1807 32.6823C40.6088 33.0915 40.1812 33.6952 39.9872 34.3675C39.8116 34.2259 39.8051 33.9866 39.7988 33.7515V33.7515V33.7514C39.7968 33.6812 39.795 33.6113 39.7886 33.5446C39.7506 33.1485 39.4997 32.7787 39.144 32.5945C38.7882 32.4103 38.3387 32.4175 37.9892 32.613C38.0819 32.8142 38.3003 32.878 38.5252 32.9438C38.6745 32.9874 38.8267 33.0319 38.9467 33.118C39.2003 33.2997 39.2729 33.6423 39.2768 33.9525C39.2778 34.0302 39.2758 34.1085 39.2738 34.1869V34.187V34.187C39.2677 34.4213 39.2617 34.656 39.3355 34.8767C39.3594 34.9479 39.3932 35.0189 39.4514 35.0669C39.6162 35.2029 39.8658 35.0899 40.0327 34.9565C40.4098 34.655 40.7063 34.2554 40.8843 33.8088C41.0413 33.9643 41.0993 34.1826 41.1568 34.3993L41.1568 34.3993C41.1737 34.4629 41.1906 34.5264 41.2099 34.5881C41.295 34.8599 41.4985 35.1504 41.7852 35.1372C41.9762 35.1284 42.1302 34.9858 42.2656 34.8518L43.043 34.0818C43.1367 33.989 43.2383 33.871 43.2081 33.7432C43.1792 33.6204 43.0325 33.5547 42.9066 33.5723C42.7807 33.59 42.673 33.6686 42.5745 33.7483C42.2984 33.9716 42.0462 34.2238 41.8233 34.4993ZM40.0475 27.2108C40.0889 26.8778 40.1117 26.4898 39.8649 26.2602C39.4045 25.8317 39.0012 25.3428 38.6689 24.8104C38.524 24.5782 38.3879 24.3069 38.457 24.0426C38.5613 23.6433 39.0508 23.4989 39.4638 23.4491C40.1244 23.3693 40.7932 23.3558 41.4566 23.4087C41.7416 23.4315 42.0438 23.4739 42.262 23.6573C42.4801 23.8406 42.5588 24.2123 42.3483 24.4042C41.3161 25.3449 40.7117 26.7306 40.7274 28.1205C41.1101 28.3668 41.4991 28.6161 41.9351 28.7493C42.3711 28.8825 42.8681 28.8869 43.2614 28.6576C43.427 28.561 43.5659 28.4289 43.7051 28.2965L43.7052 28.2964C43.8013 28.205 43.8975 28.1135 44.0028 28.0335C44.2605 27.8375 44.6295 27.7161 44.9057 27.8856L43.8549 28.8447C43.4362 29.2269 42.9162 29.6381 42.362 29.5094C42.1784 29.4668 42.0173 29.3684 41.8556 29.2696L41.8555 29.2696C41.7593 29.2108 41.6628 29.1519 41.5613 29.1045C41.0186 28.8513 40.3819 28.9459 39.7955 29.0707L39.6881 29.0937C39.1347 29.2126 38.562 29.3357 38.0188 29.1879C37.4403 29.0306 36.933 28.4345 37.114 27.8676C37.4781 28.396 38.1121 28.7309 38.7575 28.7358C39.0054 28.7376 39.2609 28.6906 39.4663 28.553C39.8865 28.2713 39.9853 27.71 40.0475 27.2108Z" fill="#111111"/>
</svg>
