<svg width="900" height="600" viewBox="0 0 900 600" fill="none" xmlns="http://www.w3.org/2000/svg">
<g clip-path="url(#clip0_4686_18650)">
<path d="M746.372 374.101H689.212C675.205 374.101 663.47 364.568 663.47 352.493C663.47 346.456 666.499 341.054 671.041 337.241C675.584 333.428 682.019 330.886 689.212 330.886H697.54C704.732 330.886 711.167 328.344 715.71 324.531C720.252 320.718 723.281 315.316 723.281 309.279C723.281 297.522 711.924 287.671 697.54 287.671H522.952C518.39 287.671 515.459 282.065 515.459 277.503C515.459 266.064 504.481 256.849 490.853 256.849H425.883C425.069 256.849 424.264 256.689 423.512 256.377C422.76 256.066 422.077 255.61 421.502 255.034C420.926 254.459 420.47 253.776 420.159 253.024C419.847 252.272 419.687 251.467 419.687 250.653C419.687 249.839 419.847 249.034 420.159 248.282C420.47 247.53 420.926 246.847 421.502 246.272C422.077 245.696 422.76 245.24 423.512 244.929C424.264 244.617 425.069 244.457 425.883 244.457H674.827C685.805 244.457 696.025 240.644 703.218 234.606C710.41 228.569 714.953 219.99 714.953 210.775C714.953 192.027 696.783 177.093 674.827 177.093H546.251C526.076 177.093 506.106 161.523 485.932 161.523H414.146C403.617 161.523 395.081 152.987 395.081 142.457C395.081 131.928 403.617 123.392 414.146 123.392H574.89C582.461 123.392 589.654 120.85 594.575 116.719C599.496 112.589 602.524 106.869 602.524 100.196C602.524 87.486 590.032 77 574.89 77H204.293C196.722 77 189.53 79.542 184.609 83.673C179.688 87.803 176.659 93.523 176.659 100.196C176.659 112.906 189.151 123.392 204.293 123.392H213.757C226.249 123.392 236.848 131.972 236.848 142.775C236.848 148.177 234.198 152.943 230.034 156.439C225.87 159.934 220.192 162.158 213.757 162.158H167.953C160.003 162.158 152.432 165.018 147.133 169.467C141.833 173.915 138.426 179.953 138.426 186.943C138.426 200.607 151.675 211.41 167.574 211.41H214.135C229.277 211.41 241.769 221.896 241.769 234.606C241.769 240.962 238.741 246.681 233.82 250.812C228.899 254.943 222.085 257.485 214.514 257.485H172.874C166.06 257.485 160.003 259.709 155.461 263.522C150.918 267.335 148.268 272.419 148.268 278.139C148.268 289.578 159.246 298.793 172.874 298.793H206.564C225.87 298.793 241.391 311.821 241.391 328.026C241.391 335.97 237.605 343.596 231.17 348.68C224.735 354.082 216.028 357.26 206.564 357.26H159.625C150.161 357.26 141.454 360.437 135.398 365.839C128.962 370.923 125.177 378.232 125.177 386.176C125.177 402.063 140.697 415.091 159.625 415.091H304.566C320.574 415.091 336.298 423.988 352.305 423.988H378.703C388.793 423.988 396.973 432.168 396.973 442.259C396.973 452.35 388.793 460.53 378.703 460.53H314.45C306.122 460.53 298.93 463.39 293.63 467.838C288.331 472.287 284.924 478.642 284.924 485.315C284.924 498.978 298.173 510.1 314.45 510.1H708.139C716.467 510.1 723.659 507.24 728.959 502.792C734.259 498.343 737.666 491.988 737.666 485.315C737.666 471.652 724.416 460.53 708.139 460.53H696.404C684.29 460.53 674.827 452.268 674.827 442.418C674.827 437.334 677.098 432.885 681.262 429.708C685.048 426.53 690.726 424.306 696.783 424.306H746.372C754.7 424.306 761.893 421.446 767.192 416.998C772.492 412.549 775.899 406.194 775.899 399.521C775.899 385.222 762.65 374.101 746.372 374.101Z" fill="url(#paint0_linear_4686_18650)"/>
<path d="M791.199 339.979C781.558 344.761 768.764 338.612 768.764 338.612C768.764 338.612 771.607 324.713 781.252 319.937C790.893 315.155 803.682 321.297 803.682 321.297C803.682 321.297 800.839 335.197 791.199 339.979Z" fill="url(#paint1_linear_4686_18650)"/>
<path d="M116.452 335.034C130.529 343.471 150.725 335.672 150.725 335.672C150.725 335.672 148.084 314.197 133.999 305.77C119.922 297.333 99.735 305.123 99.735 305.123C99.735 305.123 102.376 326.597 116.452 335.034Z" fill="url(#paint2_linear_4686_18650)"/>
<path d="M757.238 191.565C753.622 191.565 750.691 194.496 750.691 198.112C750.691 201.728 753.622 204.659 757.238 204.659C760.854 204.659 763.785 201.728 763.785 198.112C763.785 194.496 760.854 191.565 757.238 191.565Z" fill="#2EC4B6"/>
<path d="M215.409 463.124C210.011 463.124 205.635 458.748 205.635 453.35C205.635 447.952 210.011 443.576 215.409 443.576C220.807 443.576 225.183 447.952 225.183 453.35C225.183 458.748 220.807 463.124 215.409 463.124Z" fill="#2EC4B6"/>
<path d="M728.897 273.347C725.283 273.347 722.353 270.417 722.353 266.803C722.353 263.189 725.283 260.259 728.897 260.259C732.511 260.259 735.441 263.189 735.441 266.803C735.441 270.417 732.511 273.347 728.897 273.347Z" fill="#2EC4B6"/>
<path d="M766.988 472.937C761.88 472.937 757.739 468.796 757.739 463.688C757.739 458.58 761.88 454.439 766.988 454.439C772.096 454.439 776.237 458.58 776.237 463.688C776.237 468.796 772.096 472.937 766.988 472.937Z" fill="#E1E4E5"/>
<path d="M662.766 136.306C656.345 136.306 651.14 131.101 651.14 124.68C651.14 118.259 656.345 113.054 662.766 113.054C669.187 113.054 674.392 118.259 674.392 124.68C674.392 131.101 669.187 136.306 662.766 136.306Z" fill="#E1E4E5"/>
<path d="M208.712 237.018C210.031 241.944 207.108 247.007 202.182 248.327C197.256 249.647 192.193 246.724 190.873 241.798C189.553 236.872 192.476 231.808 197.402 230.488C202.328 229.169 207.392 232.092 208.712 237.018Z" fill="#E1E4E5"/>
<path d="M304.695 136.571C297.911 136.571 292.411 131.071 292.411 124.287C292.411 117.503 297.911 112.003 304.695 112.003C311.479 112.003 316.979 117.503 316.979 124.287C316.979 131.071 311.479 136.571 304.695 136.571Z" fill="#E1E4E5"/>
<path d="M712.506 360.068C707.288 360.068 703.057 356.684 703.057 352.509C703.057 348.334 707.288 344.95 712.506 344.95C717.725 344.95 721.955 348.334 721.955 352.509C721.955 356.684 717.725 360.068 712.506 360.068Z" fill="#E1E4E5"/>
<path d="M606.692 113.752C606.692 122.081 599.94 128.834 591.61 128.834C583.281 128.834 576.528 122.081 576.528 113.752C576.528 105.422 583.281 98.6699 591.61 98.6699C599.94 98.6699 606.692 105.422 606.692 113.752Z" fill="#E1E4E5"/>
<path d="M120.964 225.615H121.099C121.896 236.909 130.295 237.083 130.295 237.083C130.295 237.083 121.033 237.264 121.033 250.314C121.033 237.264 111.771 237.083 111.771 237.083C111.771 237.083 120.167 236.909 120.964 225.615ZM224.109 498.25H224.239C225.004 509.51 233.068 509.684 233.068 509.684C233.068 509.684 224.176 509.864 224.176 522.875C224.176 509.864 215.283 509.684 215.283 509.684C215.283 509.684 223.344 509.51 224.109 498.25Z" fill="#E1E4E5"/>
<path fill-rule="evenodd" clip-rule="evenodd" d="M401.7 444.038C401.7 467.093 382.882 485.783 359.669 485.783C336.456 485.783 317.638 467.093 317.638 444.038C317.638 420.982 336.456 402.292 359.669 402.292C382.882 402.292 401.7 420.982 401.7 444.038ZM373.68 444.038C373.68 451.723 367.407 457.953 359.669 457.953C351.932 457.953 345.659 451.723 345.659 444.038C345.659 436.353 351.932 430.123 359.669 430.123C367.407 430.123 373.68 436.353 373.68 444.038ZM541.804 444.038C541.804 467.093 522.986 485.783 499.773 485.783C476.56 485.783 457.742 467.093 457.742 444.038C457.742 420.982 476.56 402.292 499.773 402.292C522.986 402.292 541.804 420.982 541.804 444.038ZM513.784 444.038C513.784 451.723 507.511 457.953 499.773 457.953C492.035 457.953 485.763 451.723 485.763 444.038C485.763 436.353 492.035 430.123 499.773 430.123C507.511 430.123 513.784 436.353 513.784 444.038Z" fill="#2EC4B6"/>
<path d="M308.235 312.945L302.849 210.62C333.88 213.185 396.711 218.314 399.789 218.314C402.866 218.314 536.479 210.62 602.9 206.773L610.594 268.322L568.279 362.954L540.582 367.57H399.789C394.865 367.57 349.011 361.415 326.699 358.338L308.235 312.945Z" fill="#2EC4B6"/>
<path fill-rule="evenodd" clip-rule="evenodd" d="M233.396 125.582C238.291 115.84 250.198 111.891 259.99 116.762L279.882 126.657C298.302 135.821 310.646 153.814 312.51 174.219L313.458 184.598C313.923 189.677 318.203 193.566 323.329 193.566H584.844C619.444 193.566 643.393 227.949 631.244 260.181L596.489 352.39C587.785 375.482 565.597 390.78 540.808 390.78H346.796C316.04 390.78 290.358 367.446 287.573 336.972L273.028 177.79C272.407 170.988 268.292 164.991 262.152 161.936L242.26 152.041C232.469 147.17 228.5 135.324 233.396 125.582ZM328.735 233.009C322.907 233.009 318.337 237.987 318.865 243.762L327.055 333.401C327.983 343.559 336.544 351.337 346.796 351.337H540.808C549.071 351.337 556.467 346.238 559.369 338.54L594.124 246.332C596.554 239.885 591.764 233.009 584.844 233.009H328.735Z" fill="#2EC4B6"/>
<path d="M501.101 262.047L422.537 340.61C414.867 348.28 402.431 348.28 394.761 340.61C387.091 332.94 387.091 320.504 394.761 312.834L473.324 234.271C480.995 226.601 493.43 226.601 501.101 234.271C508.771 241.941 508.771 254.377 501.101 262.047ZM428.29 248.159C428.29 259.006 419.497 267.8 408.649 267.8C397.802 267.8 389.009 259.006 389.009 248.159C389.009 237.312 397.802 228.518 408.649 228.518C419.497 228.518 428.29 237.312 428.29 248.159ZM467.572 326.722C467.572 337.569 476.365 346.363 487.212 346.363C498.06 346.363 506.853 337.569 506.853 326.722C506.853 315.875 498.06 307.081 487.212 307.081C476.365 307.081 467.572 315.875 467.572 326.722Z" fill="white"/>
</g>
<defs>
<linearGradient id="paint0_linear_4686_18650" x1="464.412" y1="752.921" x2="455.523" y2="-394.226" gradientUnits="userSpaceOnUse">
<stop stop-color="white"/>
<stop offset="1" stop-color="#EEEEEE"/>
</linearGradient>
<linearGradient id="paint1_linear_4686_18650" x1="754.179" y1="354.895" x2="833.692" y2="292.001" gradientUnits="userSpaceOnUse">
<stop stop-color="white"/>
<stop offset="1" stop-color="#EEEEEE"/>
</linearGradient>
<linearGradient id="paint2_linear_4686_18650" x1="170.926" y1="362.192" x2="57.659" y2="256.952" gradientUnits="userSpaceOnUse">
<stop stop-color="white"/>
<stop offset="1" stop-color="#EEEEEE"/>
</linearGradient>
<clipPath id="clip0_4686_18650">
<rect width="900" height="600" fill="white"/>
</clipPath>
</defs>
</svg>
