<svg width="900" height="600" viewBox="0 0 900 600" fill="none" xmlns="http://www.w3.org/2000/svg">
<g clip-path="url(#clip0_4466_18652)">
<path d="M691.916 435.313C681.23 496.05 535.616 590.758 401.568 512.022C339.225 475.4 353.019 441.873 312.577 384.061C288.471 349.605 249.505 318.729 246.578 276.107C244.042 239.316 259.073 203.898 282.89 184.124C336.452 139.654 427.842 121.919 489.645 225.964C551.448 330.01 719.457 278.663 691.916 435.313Z" fill="url(#paint0_linear_4466_18652)"/>
<path d="M703.791 235.696C691.195 258.175 663.609 261.264 619.415 256.992C586.178 253.773 555.869 251.283 522.629 233.16C499.363 220.484 480.947 203.335 467.506 186.678C452.94 168.633 432.609 148.04 442.576 127.58C456.272 99.475 535.478 75.805 612.39 114.514C696.877 157.048 716.112 213.725 703.791 235.696Z" fill="url(#paint1_linear_4466_18652)"/>
<path d="M788.937 282.693C765.208 294.464 733.714 279.329 733.714 279.329C733.714 279.329 740.714 245.117 764.455 233.362C788.184 221.592 819.665 236.71 819.665 236.71C819.665 236.71 812.666 270.922 788.937 282.693Z" fill="url(#paint2_linear_4466_18652)"/>
<path d="M113.482 367.11C138.781 382.273 175.077 368.256 175.077 368.256C175.077 368.256 170.331 329.662 145.017 314.516C119.718 299.354 83.438 313.353 83.438 313.353C83.438 313.353 88.184 351.948 113.482 367.11Z" fill="url(#paint3_linear_4466_18652)"/>
<path d="M742.247 190.863C735.092 190.863 729.291 196.664 729.291 203.819C729.291 210.974 735.092 216.775 742.247 216.775C749.403 216.775 755.203 210.974 755.203 203.819C755.203 196.664 749.403 190.863 742.247 190.863Z" fill="#2EC4B6"/>
<path d="M346.127 231.818C340.236 231.818 335.461 236.593 335.461 242.484C335.461 248.375 340.236 253.15 346.127 253.15C352.018 253.15 356.793 248.375 356.793 242.484C356.793 236.593 352.018 231.818 346.127 231.818Z" fill="#2EC4B6"/>
<path d="M317.324 478.406C312.648 478.406 308.858 474.616 308.858 469.94C308.858 465.264 312.648 461.474 317.324 461.474C322 461.474 325.79 465.264 325.79 469.94C325.79 474.616 322 478.406 317.324 478.406Z" fill="#2EC4B6"/>
<path d="M716.337 276.728C713.207 276.728 710.669 274.19 710.669 271.06C710.669 267.93 713.207 265.392 716.337 265.392C719.467 265.392 722.005 267.93 722.005 271.06C722.005 274.19 719.467 276.728 716.337 276.728Z" fill="#2EC4B6"/>
<path d="M713.065 491.488C709.04 491.488 705.777 488.225 705.777 484.2C705.777 480.175 709.04 476.912 713.065 476.912C717.09 476.912 720.353 480.175 720.353 484.2C720.353 488.225 717.09 491.488 713.065 491.488Z" fill="#E1E4E5"/>
<path d="M154.433 442.481C148.619 442.481 143.906 437.768 143.906 431.954C143.906 426.14 148.619 421.427 154.433 421.427C160.247 421.427 164.96 426.14 164.96 431.954C164.96 437.768 160.247 442.481 154.433 442.481Z" fill="#E1E4E5"/>
<path d="M750.179 420.157C745.754 420.157 742.167 416.57 742.167 412.145C742.167 407.72 745.754 404.133 750.179 404.133C754.604 404.133 758.191 407.72 758.191 412.145C758.191 416.57 754.604 420.157 750.179 420.157Z" fill="#E1E4E5"/>
<path d="M665.155 173.372C660.235 173.372 656.247 169.384 656.247 164.464C656.247 159.544 660.235 155.556 665.155 155.556C670.075 155.556 674.063 159.544 674.063 164.464C674.063 169.384 670.075 173.372 665.155 173.372Z" fill="#E1E4E5"/>
<path d="M186.28 263.477C187.424 267.744 184.892 272.131 180.624 273.274C176.357 274.417 171.971 271.885 170.828 267.618C169.684 263.351 172.217 258.964 176.484 257.821C180.751 256.678 185.137 259.21 186.28 263.477Z" fill="#E1E4E5"/>
<path d="M385.263 119.634C379.386 119.634 374.622 114.87 374.622 108.993C374.622 103.116 379.386 98.3521 385.263 98.3521C391.14 98.3521 395.904 103.116 395.904 108.993C395.904 114.87 391.14 119.634 385.263 119.634Z" fill="#E1E4E5"/>
<path d="M721.017 374.313C716.497 374.313 712.832 371.381 712.832 367.765C712.832 364.149 716.497 361.217 721.017 361.217C725.538 361.217 729.202 364.149 729.202 367.765C729.202 371.381 725.538 374.313 721.017 374.313Z" fill="#E1E4E5"/>
<path d="M582.708 90.963C585.088 99.8436 579.818 108.972 570.937 111.351C562.057 113.731 552.928 108.461 550.549 99.5801C548.169 90.6995 553.439 81.5714 562.32 79.1918C571.201 76.8123 580.329 82.0824 582.708 90.963Z" fill="#E1E4E5"/>
<path d="M214.992 210.413H215.108C215.799 220.196 223.074 220.347 223.074 220.347C223.074 220.347 215.051 220.503 215.051 231.808C215.051 220.503 207.028 220.347 207.028 220.347C207.028 220.347 214.301 220.196 214.992 210.413ZM202.802 466.506H202.914C203.577 476.26 210.562 476.41 210.562 476.41C210.562 476.41 202.859 476.566 202.859 487.837C202.859 476.566 195.156 476.41 195.156 476.41C195.156 476.41 202.139 476.26 202.802 466.506Z" fill="#E1E4E5"/>
<path d="M482.147 515.055V406.872C482.147 395.231 472.709 385.793 461.067 385.793C449.426 385.793 439.988 395.231 439.988 406.872V515.055C439.988 526.696 449.426 536.134 461.067 536.134C472.709 536.134 482.147 526.696 482.147 515.055Z" fill="white" stroke="#E1E4E5" stroke-width="5.247"/>
<path d="M326.006 205.874H580.872C624.211 205.874 659.343 241.006 659.343 284.344V411.778C659.343 423.118 650.137 432.324 638.797 432.324H268.081C256.741 432.324 247.535 423.118 247.535 411.778V284.344C247.535 241.006 282.668 205.874 326.006 205.874Z" fill="white" stroke="#E1E4E5" stroke-width="5.247"/>
<path d="M499.78 133.741V295.929" stroke="#E1E4E5" stroke-width="9.568"/>
<path d="M499.757 287.239C497.454 287.25 495.249 288.173 493.625 289.805C492.001 291.438 491.089 293.648 491.091 295.951C491.091 300.747 494.984 304.64 499.78 304.616C502.084 304.615 504.293 303.7 505.923 302.071C507.552 300.442 508.467 298.232 508.468 295.928C508.468 291.132 504.576 287.239 499.757 287.239Z" stroke="#E1E4E5" stroke-width="19.435" stroke-linecap="round" stroke-linejoin="round"/>
<path fill-rule="evenodd" clip-rule="evenodd" d="M326.009 203.25C370.796 203.25 407.103 239.557 407.103 284.344V434.947" fill="white"/>
<mask id="mask0_4466_18652" style="mask-type:luminance" maskUnits="userSpaceOnUse" x="326" y="203" width="82" height="232">
<path fill-rule="evenodd" clip-rule="evenodd" d="M326.009 203.25C370.796 203.25 407.103 239.557 407.103 284.344V434.947" fill="#E1E4E5"/>
</mask>
<g mask="url(#mask0_4466_18652)">
<path d="M326.009 208.497C367.898 208.497 401.856 242.455 401.856 284.344H412.351C412.351 236.659 373.694 198.003 326.009 198.003V208.497ZM401.856 284.344V434.947H412.351V284.344H401.856Z" fill="#E1E4E5"/>
</g>
<path d="M662.89 211.942C664.787 215.17 662.46 219.237 658.716 219.237H494.607C493.323 219.237 492.092 218.726 491.184 217.818C490.276 216.91 489.766 215.679 489.766 214.395V132.45C489.766 126.006 494.976 120.797 501.42 120.797H658.833C662.581 120.797 664.908 124.872 663.002 128.1L639.699 167.561C639.26 168.305 639.027 169.154 639.026 170.018C639.026 170.882 639.256 171.731 639.694 172.476L662.89 211.942Z" fill="#2EC4B6"/>
<path d="M361.072 402.597H219.173C209.422 402.597 201.526 394.7 201.526 384.949V303.865C201.526 294.114 209.422 286.217 219.173 286.217H361.072C370.823 286.217 378.719 294.114 378.719 303.865V384.949C378.719 394.7 370.823 402.597 361.072 402.597Z" fill="white" stroke="#E1E4E5" stroke-width="5.247"/>
<path d="M330.661 316.622H340.796C342.788 316.623 344.698 317.415 346.107 318.823C347.515 320.232 348.307 322.142 348.308 324.134V334.27C348.307 336.262 347.515 338.172 346.107 339.581C344.698 340.989 342.788 341.781 340.796 341.782H330.661C328.669 341.781 326.759 340.989 325.35 339.581C323.942 338.172 323.15 336.262 323.149 334.27V324.134C323.15 322.142 323.942 320.232 325.35 318.823C326.759 317.415 328.669 316.623 330.661 316.622Z" fill="white" stroke="#E1E4E5" stroke-width="5.247"/>
<path d="M482.499 107.954L467.764 97.4504C466.076 96.2473 463.733 96.6402 462.53 98.328C461.326 100.016 461.719 102.359 463.407 103.562L478.142 114.067C479.83 115.27 482.174 114.877 483.377 113.189C484.58 111.501 484.187 109.158 482.499 107.954Z" fill="#E1E4E5"/>
<path d="M496.949 107.132V94.9341C496.949 92.8751 495.28 91.2061 493.222 91.2061C491.163 91.2061 489.494 92.8751 489.494 94.9341V107.132C489.494 109.191 491.163 110.86 493.222 110.86C495.28 110.86 496.949 109.191 496.949 107.132Z" fill="#E1E4E5"/>
<path d="M476.278 120.348H462.724C460.665 120.348 458.996 122.017 458.996 124.076C458.996 126.134 460.665 127.803 462.724 127.803H476.278C478.337 127.803 480.006 126.134 480.006 124.076C480.006 122.017 478.337 120.348 476.278 120.348Z" fill="#E1E4E5"/>
</g>
<defs>
<linearGradient id="paint0_linear_4466_18652" x1="468.193" y1="762.271" x2="478.856" y2="-278.363" gradientUnits="userSpaceOnUse">
<stop stop-color="white"/>
<stop offset="1" stop-color="#EEEEEE"/>
</linearGradient>
<linearGradient id="paint1_linear_4466_18652" x1="618.938" y1="381.383" x2="506.671" y2="-123.1" gradientUnits="userSpaceOnUse">
<stop stop-color="white"/>
<stop offset="1" stop-color="#EEEEEE"/>
</linearGradient>
<linearGradient id="paint2_linear_4466_18652" x1="697.816" y1="319.409" x2="893.531" y2="164.598" gradientUnits="userSpaceOnUse">
<stop stop-color="white"/>
<stop offset="1" stop-color="#EEEEEE"/>
</linearGradient>
<linearGradient id="paint3_linear_4466_18652" x1="211.382" y1="415.918" x2="7.81898" y2="226.781" gradientUnits="userSpaceOnUse">
<stop stop-color="white"/>
<stop offset="1" stop-color="#EEEEEE"/>
</linearGradient>
<clipPath id="clip0_4466_18652">
<rect width="900" height="600" fill="white"/>
</clipPath>
</defs>
</svg>
