<svg width="900" height="600" viewBox="0 0 900 600" fill="none" xmlns="http://www.w3.org/2000/svg">
<g clip-path="url(#clip0_4316_18649)">
<path d="M607.786 182.51C599.246 197.751 580.542 199.846 550.577 196.949C528.041 194.767 507.49 193.078 484.952 180.79C469.177 172.196 456.69 160.568 447.577 149.274C437.701 137.039 423.916 123.076 430.673 109.204C439.96 90.148 493.665 74.098 545.813 100.344C603.099 129.184 616.141 167.613 607.786 182.51Z" fill="url(#paint0_linear_4316_18649)"/>
<path d="M757.166 307.424C725.45 323.157 683.355 302.927 683.355 302.927C683.355 302.927 692.711 257.199 724.443 241.488C756.159 225.755 798.238 245.963 798.238 245.963C798.238 245.963 788.882 291.691 757.166 307.424Z" fill="url(#paint1_linear_4316_18649)"/>
<path d="M189.213 197.976C205.177 207.544 228.08 198.699 228.08 198.699C228.08 198.699 225.085 174.346 209.111 164.789C193.148 155.221 170.254 164.055 170.254 164.055C170.254 164.055 173.249 188.408 189.213 197.976Z" fill="url(#paint2_linear_4316_18649)"/>
<path d="M702.385 357.104C694.07 357.104 687.329 363.845 687.329 372.16C687.329 380.475 694.07 387.216 702.385 387.216C710.7 387.216 717.441 380.475 717.441 372.16C717.441 363.845 710.7 357.104 702.385 357.104Z" fill="#2EC4B6"/>
<path d="M200.92 243.348C194.075 243.348 188.526 248.897 188.526 255.742C188.526 262.587 194.075 268.136 200.92 268.136C207.765 268.136 213.314 262.587 213.314 255.742C213.314 248.897 207.765 243.348 200.92 243.348Z" fill="#2EC4B6"/>
<path d="M262.634 479.245C254.839 479.245 248.519 472.926 248.519 465.13C248.519 457.335 254.839 451.015 262.634 451.015C270.43 451.015 276.749 457.335 276.749 465.13C276.749 472.926 270.43 479.245 262.634 479.245Z" fill="#2EC4B6"/>
<path d="M624.292 302.671C620.654 302.671 617.705 299.722 617.705 296.084C617.705 292.446 620.654 289.497 624.292 289.497C627.93 289.497 630.879 292.446 630.879 296.084C630.879 299.722 627.93 302.671 624.292 302.671Z" fill="#2EC4B6"/>
<path d="M236.838 132.225C232.161 132.225 228.369 128.433 228.369 123.756C228.369 119.079 232.161 115.287 236.838 115.287C241.515 115.287 245.307 119.079 245.307 123.756C245.307 128.433 241.515 132.225 236.838 132.225Z" fill="#E1E4E5"/>
<path d="M161.533 348.574C154.777 348.574 149.3 343.097 149.3 336.341C149.3 329.585 154.777 324.108 161.533 324.108C168.289 324.108 173.766 329.585 173.766 336.341C173.766 343.097 168.289 348.574 161.533 348.574Z" fill="#E1E4E5"/>
<path d="M505.31 494.62C500.168 494.62 496 490.452 496 485.31C496 480.168 500.168 476 505.31 476C510.452 476 514.62 480.168 514.62 485.31C514.62 490.452 510.452 494.62 505.31 494.62Z" fill="#E1E4E5"/>
<path d="M662.342 231.684C653.869 231.684 647 224.815 647 216.342C647 207.869 653.869 201 662.342 201C670.815 201 677.684 207.869 677.684 216.342C677.684 224.815 670.815 231.684 662.342 231.684Z" fill="#E1E4E5"/>
<path d="M120.759 241.006C122.088 245.965 119.145 251.062 114.187 252.39C109.228 253.719 104.131 250.777 102.803 245.818C101.474 240.859 104.417 235.763 109.375 234.434C114.334 233.105 119.431 236.048 120.759 241.006Z" fill="#E1E4E5"/>
<path d="M306.959 145.314C300.13 145.314 294.594 139.778 294.594 132.949C294.594 126.12 300.13 120.584 306.959 120.584C313.788 120.584 319.324 126.12 319.324 132.949C319.324 139.778 313.788 145.314 306.959 145.314Z" fill="#E1E4E5"/>
<path d="M765.603 438.678C760.35 438.678 756.091 435.271 756.091 431.069C756.091 426.867 760.35 423.46 765.603 423.46C770.856 423.46 775.115 426.867 775.115 431.069C775.115 435.271 770.856 438.678 765.603 438.678Z" fill="#E1E4E5"/>
<path d="M432.378 494.686C435.143 505.005 429.018 515.613 418.699 518.378C408.379 521.143 397.771 515.019 395.006 504.699C392.241 494.379 398.365 483.772 408.685 481.007C419.005 478.241 429.612 484.366 432.378 494.686Z" fill="#E1E4E5"/>
<path d="M275.896 316.032H276.145C277.619 336.909 293.145 337.231 293.145 337.231C293.145 337.231 276.024 337.565 276.024 361.689C276.024 337.565 258.903 337.231 258.903 337.231C258.903 337.231 274.423 336.909 275.896 316.032ZM225.1 386.408H225.23C226 397.743 234.118 397.917 234.118 397.917C234.118 397.917 225.167 398.099 225.167 411.196C225.167 398.099 216.215 397.917 216.215 397.917C216.215 397.917 224.33 397.743 225.1 386.408Z" fill="#E1E4E5"/>
<path d="M387.466 259.994V215.854C387.466 183.352 413.818 157 446.32 157C478.822 157 505.174 183.352 505.174 215.854V259.994" stroke="#2EC4B6" stroke-width="23" stroke-linecap="round" stroke-linejoin="round"/>
<path fill-rule="evenodd" clip-rule="evenodd" d="M533.395 440.017H359.244C340 440.017 324.414 424.43 324.414 405.186V283.28C324.414 264.037 340 248.45 359.244 248.45H533.395C552.639 248.45 568.226 264.037 568.226 283.28V405.186C568.226 424.43 552.639 440.017 533.395 440.017Z" fill="#2EC4B6" stroke="#2EC4B6" stroke-width="17.13" stroke-linecap="round" stroke-linejoin="round"/>
<path d="M445.176 386.018V342.338M445.127 316.321C438.035 316.321 432.28 322.076 432.331 329.168C432.331 336.259 438.086 342.015 445.178 342.015C452.27 342.015 458.025 336.259 458.025 329.168C458.025 322.076 452.27 316.321 445.127 316.321Z" stroke="white" stroke-width="35.743" stroke-linecap="round" stroke-linejoin="round"/>
<path d="M307.447 127.224H135.249C114.677 127.224 98 143.901 98 164.473C98 185.044 114.677 201.721 135.249 201.721H307.447C328.019 201.721 344.696 185.044 344.696 164.473C344.696 143.901 328.019 127.224 307.447 127.224Z" fill="url(#paint3_linear_4316_18649)"/>
<path d="M331.872 99.135H159.674C139.102 99.135 122.425 115.812 122.425 136.384C122.425 156.955 139.102 173.632 159.674 173.632H331.872C352.444 173.632 369.121 156.955 369.121 136.384C369.121 115.812 352.444 99.135 331.872 99.135Z" fill="#2A4F4C"/>
<path d="M166.768 146.863H172.251L171.721 138.975L178.326 143.398L181.057 138.587L173.964 135.122L181.057 131.657L178.326 126.846L171.721 131.27L172.251 123.381H166.768L167.278 131.27L160.674 126.846L157.942 131.657L165.056 135.122L157.942 138.587L160.674 143.398L167.278 138.975L166.768 146.863ZM204.908 146.863H210.391L209.861 138.975L216.465 143.398L219.196 138.587L212.103 135.122L219.196 131.657L216.465 126.846L209.861 131.27L210.391 123.381H204.908L205.417 131.27L198.813 126.846L196.082 131.657L203.195 135.122L196.082 138.587L198.813 143.398L205.417 138.975L204.908 146.863ZM243.047 146.863H248.53L248 138.975L254.604 143.398L257.336 138.587L250.242 135.122L257.336 131.657L254.604 126.846L248 131.27L248.53 123.381H243.047L243.556 131.27L236.952 126.846L234.221 131.657L241.335 135.122L234.221 138.587L236.952 143.398L243.556 138.975L243.047 146.863ZM281.186 146.863H286.669L286.139 138.975L292.744 143.398L295.475 138.587L288.381 135.122L295.475 131.657L292.744 126.846L286.139 131.27L286.669 123.381H281.186L281.696 131.27L275.092 126.846L272.36 131.657L279.474 135.122L272.36 138.587L275.092 143.398L281.696 138.975L281.186 146.863ZM319.325 146.863H324.809L324.279 138.975L330.883 143.398L333.614 138.587L326.521 135.122L333.614 131.657L330.883 126.846L324.279 131.27L324.809 123.381H319.325L319.835 131.27L313.231 126.846L310.499 131.657L317.613 135.122L310.499 138.587L313.231 143.398L319.835 138.975L319.325 146.863Z" fill="white"/>
<path fill-rule="evenodd" clip-rule="evenodd" d="M669.087 426.009C669.087 467.879 637.568 507.029 595.208 516.535C552.847 507.029 521.328 467.879 521.328 426.009V393.12C521.329 389.457 522.422 385.877 524.466 382.837C526.511 379.797 529.415 377.435 532.807 376.053L578.982 357.188C589.382 352.937 601.034 352.937 611.434 357.188L657.608 376.053C661 377.436 663.903 379.798 665.948 382.838C667.992 385.877 669.085 389.457 669.087 393.12V426.009Z" fill="#2A4F4C"/>
<path d="M625.173 416.419L590.598 450.994L569.853 430.249" stroke="white" stroke-width="12.547" stroke-linecap="round" stroke-linejoin="round"/>
</g>
<defs>
<linearGradient id="paint0_linear_4316_18649" x1="550.253" y1="281.291" x2="474.132" y2="-60.766" gradientUnits="userSpaceOnUse">
<stop stop-color="white"/>
<stop offset="1" stop-color="#EEEEEE"/>
</linearGradient>
<linearGradient id="paint1_linear_4316_18649" x1="635.374" y1="356.499" x2="896.968" y2="149.577" gradientUnits="userSpaceOnUse">
<stop stop-color="white"/>
<stop offset="1" stop-color="#EEEEEE"/>
</linearGradient>
<linearGradient id="paint2_linear_4316_18649" x1="250.989" y1="228.775" x2="122.537" y2="109.426" gradientUnits="userSpaceOnUse">
<stop stop-color="white"/>
<stop offset="1" stop-color="#EEEEEE"/>
</linearGradient>
<linearGradient id="paint3_linear_4316_18649" x1="226.608" y1="243.489" x2="225.914" y2="46.16" gradientUnits="userSpaceOnUse">
<stop stop-color="white"/>
<stop offset="1" stop-color="#EEEEEE"/>
</linearGradient>
<clipPath id="clip0_4316_18649">
<rect width="900" height="600" fill="white"/>
</clipPath>
</defs>
</svg>
