<svg width="900" height="600" viewBox="0 0 900 600" fill="none" xmlns="http://www.w3.org/2000/svg">
<g clip-path="url(#clip0_4361_18649)">
<path d="M206.279 172.22C206.708 172.218 207.122 172.38 207.436 172.672C207.751 172.964 207.942 173.365 207.972 173.793C208.001 174.221 207.867 174.644 207.595 174.977C207.324 175.309 206.936 175.526 206.511 175.583C202.355 176.173 198.216 176.879 194.1 177.702C193.883 177.745 193.659 177.745 193.442 177.701C193.225 177.658 193.018 177.572 192.834 177.448C192.65 177.325 192.493 177.167 192.37 176.982C192.247 176.798 192.162 176.591 192.119 176.374C192.033 175.935 192.124 175.48 192.372 175.108C192.62 174.736 193.006 174.478 193.444 174.389C197.624 173.554 201.826 172.836 206.046 172.234C206.124 172.227 206.201 172.22 206.279 172.22ZM181.406 177.137C181.817 177.139 182.214 177.29 182.521 177.563C182.829 177.837 183.026 178.213 183.076 178.621C183.127 179.029 183.026 179.442 182.794 179.781C182.562 180.121 182.214 180.364 181.815 180.465C177.749 181.492 173.709 182.62 169.699 183.849C169.272 183.979 168.81 183.934 168.416 183.725C168.021 183.516 167.725 183.159 167.592 182.733C167.46 182.305 167.504 181.842 167.712 181.446C167.921 181.05 168.279 180.753 168.706 180.62C172.771 179.372 176.867 178.227 180.99 177.187C181.131 177.158 181.272 177.137 181.406 177.137ZM157.21 184.605C157.606 184.606 157.989 184.745 158.293 185C158.596 185.255 158.8 185.608 158.869 185.998C158.938 186.389 158.867 186.79 158.67 187.134C158.472 187.477 158.16 187.74 157.788 187.876C153.858 189.325 149.973 190.891 146.138 192.574C145.935 192.663 145.717 192.711 145.495 192.716C145.274 192.72 145.054 192.681 144.848 192.6C144.641 192.52 144.453 192.399 144.294 192.245C144.134 192.092 144.006 191.908 143.918 191.705C143.738 191.295 143.728 190.83 143.891 190.413C144.053 189.995 144.375 189.659 144.785 189.479C148.681 187.767 152.63 186.177 156.625 184.711C156.816 184.633 157.013 184.605 157.21 184.605ZM134.043 194.799C134.65 194.799 135.242 195.131 135.538 195.711C135.968 196.537 135.643 197.562 134.819 197.985C131.112 199.917 127.478 201.984 123.922 204.181C123.734 204.298 123.525 204.377 123.306 204.413C123.087 204.449 122.863 204.441 122.648 204.39C122.432 204.339 122.229 204.245 122.05 204.115C121.871 203.984 121.719 203.819 121.604 203.63C121.487 203.442 121.408 203.232 121.372 203.014C121.336 202.795 121.343 202.572 121.394 202.356C121.444 202.14 121.536 201.936 121.665 201.756C121.794 201.576 121.958 201.423 122.146 201.306C125.772 199.062 129.479 196.953 133.261 194.983C133.515 194.863 133.783 194.799 134.043 194.799ZM112.568 208.166C113.083 208.166 113.59 208.399 113.921 208.851C114.187 209.212 114.3 209.664 114.234 210.107C114.168 210.551 113.929 210.95 113.569 211.218C110.224 213.703 106.997 216.343 103.899 219.13C103.566 219.429 103.128 219.583 102.682 219.559C102.235 219.535 101.816 219.335 101.517 219.003C101.219 218.669 101.065 218.23 101.089 217.783C101.113 217.336 101.312 216.916 101.644 216.615C104.819 213.757 108.128 211.05 111.56 208.505C111.87 208.272 112.223 208.166 112.568 208.166ZM93.834 225.114C94.236 225.114 94.638 225.255 94.962 225.552C95.652 226.174 95.709 227.248 95.082 227.94C92.304 231.027 89.7015 234.268 87.287 237.647C87.158 237.828 86.9948 237.981 86.8065 238.098C86.6183 238.216 86.4088 238.295 86.1899 238.332C85.971 238.368 85.7471 238.361 85.5309 238.311C85.3148 238.261 85.1106 238.169 84.93 238.04C84.7494 237.911 84.596 237.748 84.4786 237.56C84.3611 237.371 84.2818 237.162 84.2453 236.943C84.2089 236.724 84.2158 236.5 84.2659 236.284C84.3159 236.068 84.408 235.864 84.537 235.683C87.0257 232.198 89.7087 228.856 92.573 225.672C92.7338 225.498 92.9287 225.358 93.1456 225.262C93.3625 225.166 93.5968 225.116 93.834 225.114ZM79.217 245.68C79.5095 245.682 79.7966 245.759 80.0502 245.905C80.3037 246.051 80.5151 246.26 80.6635 246.512C80.812 246.764 80.8925 247.051 80.8971 247.343C80.9018 247.636 80.8304 247.924 80.69 248.181C78.7073 251.823 76.9467 255.581 75.418 259.435C75.3421 259.649 75.2239 259.845 75.0705 260.012C74.917 260.179 74.7315 260.314 74.5249 260.408C74.3183 260.501 74.0949 260.553 73.8681 260.558C73.6412 260.564 73.4156 260.523 73.2047 260.44C72.9938 260.356 72.802 260.231 72.6406 260.071C72.4792 259.912 72.3517 259.721 72.2655 259.511C72.1794 259.302 72.1365 259.076 72.1393 258.85C72.1421 258.623 72.1907 258.399 72.282 258.191C73.8593 254.208 75.6787 250.324 77.73 246.563C77.877 246.297 78.0923 246.075 78.3536 245.92C78.615 245.764 78.913 245.682 79.217 245.68ZM69.913 269.121C70.1711 269.121 70.4257 269.181 70.6572 269.295C70.8886 269.41 71.0908 269.576 71.248 269.78C71.4053 269.985 71.5135 270.223 71.5643 270.476C71.6151 270.729 71.6071 270.99 71.541 271.24C70.4848 275.253 69.6519 279.322 69.046 283.427C69.0144 283.647 68.9395 283.858 68.8258 284.048C68.7121 284.239 68.5618 284.405 68.3836 284.537C68.2053 284.669 68.0027 284.764 67.7873 284.817C67.572 284.871 67.3482 284.881 67.129 284.847C66.9094 284.814 66.6983 284.739 66.5079 284.624C66.3176 284.51 66.1516 284.359 66.0194 284.181C65.8873 284.002 65.7916 283.8 65.7378 283.584C65.6841 283.369 65.6732 283.145 65.706 282.925C66.3301 278.694 67.1887 274.5 68.278 270.364C68.379 270.008 68.5931 269.694 68.8879 269.469C69.1828 269.245 69.5426 269.123 69.913 269.121ZM66.023 294.088H66.143C67.073 294.151 67.771 294.957 67.707 295.889C67.4843 299.115 67.3716 302.348 67.369 305.582C67.369 306.529 67.376 307.475 67.397 308.394C67.4067 308.841 67.2383 309.274 66.9289 309.598C66.6195 309.921 66.1944 310.108 65.747 310.118C65.2997 310.127 64.8674 309.957 64.545 309.647C64.2226 309.337 64.0367 308.911 64.028 308.464C64.007 307.518 64 306.543 64 305.575C64 302.353 64.12 299.019 64.345 295.649C64.3774 295.226 64.568 294.83 64.879 294.541C65.1899 294.251 65.5983 294.09 66.023 294.088ZM66.657 319.373C67.489 319.373 68.215 319.994 68.327 320.842C68.884 325.074 69.695 329.178 70.737 333.036C70.977 333.94 70.449 334.866 69.554 335.106C69.34 335.163 69.1168 335.178 68.8972 335.149C68.6776 335.12 68.4658 335.048 68.2741 334.937C68.0823 334.826 67.9143 334.678 67.7795 334.503C67.6448 334.327 67.5461 334.126 67.489 333.912C66.41 329.906 65.572 325.66 64.994 321.28C64.9628 321.043 64.9824 320.802 65.0516 320.572C65.1207 320.343 65.2378 320.132 65.3951 319.951C65.5524 319.771 65.7463 319.626 65.9638 319.526C66.1814 319.427 66.4177 319.374 66.657 319.373ZM73.332 343.704C73.972 343.704 74.586 344.078 74.868 344.7C76.595 348.536 78.632 352.146 80.929 355.424C81.1863 355.79 81.2878 356.244 81.2114 356.685C81.1349 357.126 80.8866 357.519 80.521 357.777C80.3401 357.905 80.1358 357.995 79.9198 358.044C79.7038 358.092 79.4804 358.098 79.2623 358.06C79.0442 358.022 78.8358 357.941 78.6491 357.822C78.4623 357.703 78.3009 357.548 78.174 357.367C75.756 353.919 73.614 350.125 71.795 346.092C71.6112 345.684 71.5971 345.219 71.7557 344.8C71.9144 344.382 72.2328 344.043 72.641 343.859C72.8567 343.757 73.0934 343.704 73.332 343.704ZM128.631 345.668C129.512 345.668 130.259 346.36 130.308 347.25C130.336 347.697 130.186 348.138 129.89 348.474C129.594 348.811 129.176 349.016 128.729 349.045C124.825 349.285 120.744 350.189 116.931 351.659C116.724 351.738 116.503 351.776 116.282 351.77C116.06 351.764 115.842 351.714 115.64 351.624C115.437 351.533 115.255 351.404 115.103 351.242C114.95 351.081 114.832 350.891 114.753 350.684C114.674 350.477 114.636 350.256 114.642 350.034C114.647 349.812 114.697 349.594 114.787 349.391C114.878 349.188 115.007 349.005 115.168 348.853C115.329 348.7 115.519 348.58 115.726 348.501C119.856 346.911 124.282 345.936 128.525 345.668C128.56 345.675 128.602 345.668 128.631 345.668ZM141.056 347.377C141.268 347.377 141.479 347.42 141.683 347.497C146.934 349.624 150.092 353.347 150.564 357.982C150.61 358.426 150.478 358.871 150.196 359.217C149.915 359.564 149.507 359.785 149.063 359.832C148.843 359.854 148.62 359.833 148.408 359.769C148.195 359.705 147.998 359.599 147.826 359.459C147.655 359.319 147.513 359.146 147.408 358.951C147.303 358.756 147.238 358.542 147.216 358.321C146.779 354.054 143.283 351.779 140.429 350.62C140.064 350.476 139.761 350.209 139.572 349.866C139.384 349.522 139.321 349.123 139.395 348.738C139.47 348.353 139.677 348.006 139.98 347.758C140.283 347.509 140.664 347.374 141.056 347.377ZM105.379 354.619C105.879 354.619 106.373 354.838 106.704 355.262C106.981 355.614 107.107 356.061 107.056 356.505C107.004 356.95 106.779 357.356 106.429 357.635C103.258 360.145 100.515 363.154 98.309 366.544C98.1886 366.73 98.0327 366.89 97.8503 367.016C97.6678 367.141 97.4624 367.23 97.2458 367.276C97.0291 367.322 96.8055 367.324 96.5878 367.284C96.3701 367.243 96.1625 367.16 95.977 367.039C95.6018 366.794 95.3392 366.41 95.2468 365.971C95.1544 365.533 95.2397 365.076 95.484 364.7C97.886 361.002 100.876 357.72 104.336 354.986C104.631 354.747 104.999 354.618 105.379 354.619ZM87.844 364.227C88.252 364.227 88.661 364.375 88.985 364.672C91.9844 367.45 95.3014 369.864 98.867 371.864C99.2577 372.082 99.5458 372.446 99.668 372.876C99.7901 373.307 99.7364 373.768 99.5185 374.159C99.3006 374.549 98.9365 374.837 98.5062 374.959C98.0759 375.082 97.6147 375.028 97.224 374.81C93.4296 372.677 89.8982 370.107 86.702 367.152C86.5387 367.002 86.4066 366.821 86.3132 366.619C86.2199 366.418 86.1671 366.2 86.1579 365.979C86.1487 365.757 86.1833 365.535 86.2597 365.327C86.336 365.119 86.4527 364.927 86.603 364.764C86.941 364.41 87.394 364.227 87.844 364.227ZM144.728 368.112C145.046 368.114 145.357 368.205 145.626 368.375C145.894 368.545 146.11 368.787 146.247 369.074C146.384 369.361 146.438 369.68 146.403 369.996C146.367 370.312 146.244 370.612 146.046 370.861C143.333 374.238 139.689 376.873 135.213 378.688C134.802 378.836 134.35 378.818 133.952 378.64C133.553 378.461 133.24 378.135 133.077 377.73C132.913 377.325 132.913 376.873 133.077 376.468C133.24 376.063 133.554 375.738 133.952 375.559C137.885 373.962 141.07 371.673 143.417 368.748C143.573 368.55 143.773 368.39 144 368.28C144.227 368.17 144.476 368.112 144.728 368.112ZM91.783 375.453C91.931 375.453 92.079 375.474 92.227 375.509C92.4413 375.567 92.642 375.667 92.8175 375.803C92.9931 375.939 93.1401 376.109 93.2501 376.302C93.3601 376.495 93.4309 376.707 93.4585 376.928C93.4861 377.148 93.47 377.372 93.411 377.586C92.389 381.338 91.84 385.407 91.783 389.674C91.777 390.117 91.5971 390.54 91.2821 390.852C90.9671 391.164 90.5422 391.339 90.099 391.341H90.078C89.8565 391.338 89.6377 391.292 89.4342 391.204C89.2307 391.117 89.0464 390.99 88.8919 390.831C88.7373 390.673 88.6156 390.485 88.5336 390.279C88.4516 390.073 88.411 389.853 88.414 389.632C88.478 385.075 89.063 380.723 90.162 376.696C90.2587 376.34 90.4696 376.025 90.7625 375.801C91.0554 375.576 91.4139 375.454 91.783 375.453ZM109.735 376.392C109.876 376.392 110.024 376.414 110.165 376.449C114.196 377.509 118.263 377.996 122.203 377.89C122.424 377.885 122.645 377.923 122.851 378.003C123.058 378.083 123.247 378.203 123.407 378.355C123.567 378.508 123.696 378.691 123.785 378.894C123.875 379.096 123.924 379.315 123.929 379.536C123.936 379.758 123.898 379.978 123.819 380.186C123.74 380.393 123.621 380.582 123.468 380.743C123.316 380.904 123.133 381.033 122.93 381.123C122.727 381.213 122.509 381.262 122.287 381.267C118.03 381.38 113.639 380.857 109.305 379.713C108.872 379.598 108.502 379.317 108.277 378.93C108.051 378.544 107.987 378.083 108.1 377.65C108.197 377.29 108.409 376.972 108.705 376.745C109 376.517 109.362 376.393 109.735 376.392ZM91.17 400.575C91.974 400.575 92.686 401.154 92.826 401.974C93.503 405.831 94.518 409.894 95.843 414.034C95.9787 414.461 95.9401 414.924 95.7355 415.322C95.5309 415.721 95.1769 416.022 94.751 416.16C94.3244 416.296 93.8614 416.257 93.4635 416.051C93.0657 415.846 92.7655 415.491 92.629 415.065C91.255 410.777 90.205 406.573 89.507 402.56C89.4639 402.317 89.4746 402.067 89.5383 401.829C89.6019 401.591 89.7171 401.369 89.8756 401.18C90.0341 400.99 90.2321 400.838 90.4558 400.734C90.6794 400.629 90.9232 400.575 91.17 400.575ZM98.733 424.687C99.0604 424.688 99.3805 424.784 99.6544 424.963C99.9283 425.142 100.144 425.397 100.276 425.697C101.952 429.524 103.779 433.284 105.753 436.966C105.962 437.362 106.007 437.824 105.878 438.253C105.749 438.681 105.455 439.041 105.062 439.255C104.667 439.465 104.205 439.51 103.777 439.38C103.349 439.25 102.99 438.956 102.778 438.562C100.767 434.8 98.9024 430.961 97.189 427.054C97.0767 426.797 97.0301 426.516 97.0533 426.237C97.0765 425.958 97.1688 425.688 97.322 425.454C97.4751 425.219 97.6843 425.026 97.9306 424.892C98.1769 424.758 98.4527 424.688 98.733 424.687ZM110.799 446.906C111.335 446.906 111.856 447.16 112.187 447.634C114.554 451.036 117.136 454.283 119.919 457.355C120.221 457.687 120.378 458.125 120.357 458.572C120.336 459.02 120.138 459.441 119.806 459.743C119.642 459.893 119.451 460.008 119.243 460.083C119.034 460.159 118.813 460.192 118.592 460.182C118.37 460.171 118.153 460.117 117.953 460.022C117.752 459.928 117.573 459.794 117.424 459.63C114.542 456.449 111.868 453.086 109.418 449.562C109.243 449.309 109.14 449.013 109.121 448.705C109.101 448.398 109.166 448.091 109.308 447.818C109.45 447.545 109.664 447.315 109.927 447.155C110.19 446.994 110.491 446.908 110.799 446.906ZM127.714 465.613C128.102 465.613 128.497 465.748 128.814 466.023C131.894 468.68 135.22 471.223 138.695 473.597C139.463 474.119 139.668 475.172 139.139 475.942C139.015 476.126 138.856 476.283 138.671 476.405C138.486 476.527 138.279 476.611 138.062 476.652C137.844 476.694 137.621 476.691 137.404 476.646C137.187 476.6 136.982 476.512 136.799 476.387C133.26 473.979 129.86 471.373 126.615 468.581C126.447 468.436 126.309 468.26 126.209 468.062C126.109 467.864 126.049 467.648 126.033 467.427C126.016 467.206 126.044 466.984 126.113 466.773C126.183 466.562 126.294 466.368 126.439 466.2C126.596 466.016 126.792 465.867 127.012 465.766C127.232 465.665 127.472 465.612 127.714 465.613ZM408.121 478.825C408.797 478.825 409.432 479.234 409.692 479.898C409.854 480.315 409.845 480.779 409.667 481.189C409.489 481.599 409.156 481.923 408.741 482.089C405.337 483.424 401.277 484.823 396.661 486.25C396.233 486.381 395.771 486.338 395.376 486.128C394.98 485.919 394.684 485.561 394.553 485.133C394.422 484.705 394.465 484.243 394.674 483.847C394.883 483.451 395.24 483.154 395.667 483.021C400.199 481.615 404.188 480.245 407.508 478.938C407.705 478.86 407.916 478.825 408.121 478.825ZM148.555 479.877C148.823 479.877 149.105 479.941 149.359 480.082C153.021 482.067 156.77 483.889 160.593 485.543C160.796 485.631 160.98 485.758 161.134 485.918C161.288 486.077 161.409 486.265 161.49 486.471C161.572 486.677 161.611 486.897 161.607 487.119C161.603 487.34 161.556 487.559 161.467 487.762C161.38 487.965 161.253 488.149 161.095 488.304C160.936 488.458 160.749 488.579 160.543 488.661C160.337 488.742 160.117 488.782 159.896 488.778C159.675 488.774 159.457 488.727 159.254 488.638C155.341 486.941 151.504 485.077 147.752 483.049C147.424 482.869 147.164 482.585 147.015 482.242C146.865 481.898 146.834 481.515 146.926 481.152C147.018 480.789 147.228 480.467 147.523 480.236C147.817 480.005 148.181 479.879 148.555 479.877ZM383.995 486.426C384.742 486.426 385.426 486.928 385.623 487.684C385.681 487.898 385.696 488.122 385.666 488.341C385.637 488.561 385.565 488.773 385.454 488.965C385.342 489.157 385.194 489.325 385.018 489.459C384.841 489.593 384.64 489.691 384.425 489.747C380.332 490.832 376.223 491.852 372.098 492.806C371.882 492.856 371.658 492.863 371.44 492.826C371.221 492.79 371.012 492.71 370.824 492.593C370.636 492.475 370.474 492.322 370.345 492.142C370.216 491.961 370.125 491.757 370.075 491.541C370.025 491.325 370.017 491.101 370.053 490.882C370.09 490.664 370.168 490.454 370.286 490.266C370.403 490.078 370.556 489.914 370.737 489.785C370.917 489.656 371.121 489.564 371.337 489.514C375.545 488.532 379.661 487.514 383.565 486.476C383.706 486.44 383.854 486.426 383.995 486.426ZM171.708 489.98C171.891 489.98 172.075 490.008 172.258 490.072C176.208 491.432 180.202 492.662 184.233 493.76C184.664 493.878 185.03 494.163 185.252 494.551C185.474 494.939 185.533 495.399 185.417 495.83C185.359 496.044 185.26 496.244 185.125 496.419C184.99 496.594 184.822 496.741 184.63 496.851C184.439 496.961 184.227 497.032 184.008 497.061C183.788 497.089 183.565 497.074 183.352 497.016C179.247 495.901 175.18 494.65 171.158 493.265C170.782 493.133 170.465 492.873 170.262 492.53C170.059 492.187 169.984 491.784 170.05 491.391C170.116 490.998 170.318 490.641 170.621 490.383C170.925 490.125 171.31 489.982 171.708 489.98ZM359.362 492.177C360.145 492.177 360.85 492.728 361.012 493.526C361.101 493.964 361.013 494.42 360.768 494.793C360.522 495.167 360.139 495.428 359.701 495.519C355.613 496.359 351.419 497.165 347.24 497.914C346.799 497.992 346.346 497.892 345.979 497.636C345.611 497.381 345.36 496.99 345.28 496.55C345.202 496.109 345.301 495.656 345.556 495.288C345.811 494.92 346.201 494.668 346.641 494.586C350.778 493.841 354.906 493.047 359.024 492.205C359.137 492.184 359.25 492.177 359.362 492.177ZM334.469 496.649C335.286 496.649 336.005 497.242 336.132 498.083C336.201 498.526 336.091 498.978 335.826 499.339C335.562 499.701 335.165 499.943 334.722 500.012C330.55 500.662 326.328 501.269 322.163 501.813C321.943 501.843 321.72 501.829 321.505 501.772C321.291 501.715 321.09 501.616 320.914 501.481C320.738 501.345 320.591 501.176 320.481 500.984C320.371 500.791 320.301 500.578 320.274 500.358C320.216 499.914 320.336 499.466 320.608 499.111C320.88 498.756 321.282 498.523 321.726 498.465C325.893 497.917 330.054 497.321 334.208 496.677C334.3 496.656 334.384 496.649 334.469 496.649ZM196.08 496.656C196.193 496.656 196.313 496.67 196.426 496.691C200.415 497.532 204.573 498.295 208.774 498.966C209.215 499.037 209.61 499.28 209.873 499.641C210.136 500.003 210.245 500.453 210.176 500.895C210.028 501.82 209.176 502.442 208.245 502.301C204.054 501.641 199.88 500.873 195.728 499.998C195.29 499.905 194.907 499.642 194.663 499.267C194.419 498.892 194.333 498.436 194.424 497.998C194.507 497.62 194.716 497.28 195.017 497.037C195.318 496.793 195.693 496.658 196.08 496.656ZM309.392 499.941C310.245 499.941 310.971 500.584 311.069 501.453C311.117 501.897 310.986 502.343 310.706 502.691C310.426 503.039 310.019 503.262 309.575 503.311C305.36 503.763 301.11 504.166 296.945 504.505C296.504 504.531 296.07 504.384 295.736 504.094C295.402 503.804 295.195 503.395 295.159 502.955C295.123 502.514 295.261 502.077 295.543 501.737C295.826 501.396 296.23 501.181 296.67 501.135C300.807 500.796 305.029 500.393 309.216 499.948C309.272 499.948 309.335 499.941 309.392 499.941ZM221.052 500.634C221.115 500.634 221.178 500.634 221.242 500.641C225.309 501.1 229.523 501.481 233.766 501.785C233.987 501.801 234.203 501.86 234.402 501.96C234.6 502.059 234.777 502.197 234.922 502.365C235.066 502.533 235.177 502.728 235.246 502.939C235.315 503.15 235.341 503.373 235.324 503.594C235.309 503.815 235.25 504.031 235.151 504.23C235.052 504.428 234.915 504.605 234.747 504.75C234.579 504.895 234.385 505.006 234.174 505.075C233.963 505.145 233.741 505.172 233.52 505.155C229.293 504.85 225.073 504.464 220.861 503.996C220.435 503.945 220.044 503.733 219.769 503.404C219.493 503.075 219.353 502.654 219.377 502.225C219.402 501.797 219.588 501.394 219.9 501.098C220.211 500.802 220.623 500.636 221.052 500.634ZM284.195 502.004C285.083 502.004 285.83 502.704 285.879 503.601C285.904 504.047 285.751 504.485 285.454 504.819C285.157 505.152 284.74 505.354 284.294 505.381C280.044 505.614 275.78 505.798 271.614 505.911C271.167 505.918 270.735 505.75 270.411 505.442C270.086 505.134 269.896 504.712 269.88 504.265C269.873 504.043 269.91 503.823 269.989 503.615C270.067 503.408 270.186 503.218 270.338 503.057C270.49 502.896 270.672 502.766 270.874 502.675C271.076 502.584 271.294 502.534 271.516 502.527C275.646 502.414 279.882 502.237 284.103 501.997C284.133 502.003 284.164 502.005 284.195 502.004ZM246.269 502.456H246.333C250.442 502.605 254.678 502.682 258.921 502.689C259.851 502.689 260.605 503.452 260.605 504.385C260.605 504.606 260.562 504.825 260.477 505.029C260.392 505.233 260.268 505.419 260.112 505.575C259.955 505.731 259.77 505.855 259.565 505.939C259.361 506.023 259.142 506.067 258.921 506.066H258.914C254.635 506.059 250.364 505.975 246.213 505.826C245.992 505.818 245.775 505.767 245.573 505.675C245.372 505.583 245.191 505.452 245.04 505.29C244.89 505.128 244.773 504.938 244.696 504.73C244.619 504.523 244.584 504.302 244.592 504.081C244.607 503.646 244.789 503.233 245.102 502.93C245.415 502.627 245.833 502.457 246.269 502.456ZM688.694 437.557C688.252 437.56 687.825 437.394 687.501 437.094C687.177 436.793 686.979 436.38 686.949 435.939C686.918 435.498 687.057 435.061 687.337 434.719C687.617 434.377 688.017 434.154 688.455 434.096C692.729 433.489 696.985 432.761 701.218 431.914C701.442 431.87 701.672 431.87 701.895 431.915C702.118 431.96 702.331 432.048 702.52 432.175C702.709 432.302 702.871 432.465 702.997 432.655C703.124 432.845 703.211 433.057 703.255 433.281C703.343 433.733 703.25 434.201 702.995 434.584C702.739 434.967 702.343 435.233 701.892 435.325C697.442 436.212 693.086 436.954 688.934 437.543C688.854 437.55 688.774 437.557 688.694 437.557ZM714.271 432.496C713.849 432.493 713.442 432.336 713.126 432.055C712.811 431.774 712.608 431.388 712.557 430.968C712.505 430.549 712.608 430.125 712.846 429.776C713.084 429.427 713.441 429.176 713.85 429.071C718.031 428.013 722.186 426.852 726.309 425.588C726.745 425.467 727.211 425.521 727.609 425.739C728.006 425.956 728.302 426.32 728.435 426.753C728.568 427.185 728.527 427.653 728.321 428.056C728.115 428.459 727.76 428.766 727.331 428.911C723.151 430.196 718.938 431.374 714.698 432.445C714.558 432.476 714.415 432.493 714.271 432.496ZM739.152 424.809C738.745 424.807 738.352 424.663 738.041 424.4C737.729 424.138 737.52 423.775 737.449 423.374C737.379 422.974 737.451 422.561 737.653 422.208C737.855 421.855 738.175 421.584 738.557 421.443C742.598 419.951 746.593 418.339 750.537 416.607C750.746 416.515 750.97 416.466 751.198 416.461C751.426 416.456 751.652 416.497 751.864 416.58C752.076 416.663 752.27 416.787 752.434 416.945C752.598 417.103 752.729 417.292 752.82 417.501C753.005 417.923 753.015 418.401 752.848 418.831C752.681 419.26 752.351 419.606 751.929 419.792C747.922 421.554 743.862 423.191 739.753 424.7C739.557 424.78 739.354 424.809 739.152 424.809ZM762.974 414.316C762.656 414.316 762.345 414.229 762.074 414.063C761.803 413.898 761.583 413.661 761.438 413.378C761.226 412.97 761.184 412.493 761.323 412.054C761.461 411.615 761.769 411.249 762.177 411.037C765.989 409.048 769.726 406.921 773.382 404.659C773.575 404.538 773.791 404.457 774.016 404.42C774.241 404.383 774.471 404.392 774.692 404.444C774.914 404.497 775.123 404.593 775.308 404.728C775.492 404.862 775.648 405.031 775.766 405.226C776.009 405.617 776.087 406.089 775.982 406.538C775.877 406.987 775.599 407.375 775.208 407.619C771.48 409.929 767.668 412.1 763.779 414.127C763.528 414.249 763.253 414.313 762.974 414.316ZM785.057 400.558C784.528 400.558 784.006 400.318 783.666 399.852C783.392 399.481 783.277 399.016 783.344 398.559C783.412 398.103 783.658 397.692 784.028 397.416C787.468 394.858 790.787 392.141 793.972 389.272C794.141 389.12 794.339 389.002 794.554 388.927C794.769 388.851 794.996 388.818 795.224 388.83C795.451 388.842 795.674 388.899 795.879 388.997C796.085 389.096 796.269 389.234 796.421 389.403C796.727 389.747 796.885 390.199 796.861 390.659C796.837 391.119 796.632 391.551 796.291 391.861C793.026 394.803 789.623 397.589 786.094 400.209C785.775 400.449 785.412 400.558 785.057 400.558ZM804.321 383.112C803.908 383.112 803.495 382.967 803.162 382.662C802.82 382.352 802.614 381.92 802.591 381.459C802.568 380.998 802.729 380.546 803.038 380.204C805.916 377.004 808.612 373.637 811.054 370.212C811.186 370.026 811.354 369.868 811.547 369.747C811.74 369.626 811.955 369.545 812.18 369.507C812.405 369.469 812.635 369.476 812.857 369.527C813.079 369.578 813.289 369.673 813.475 369.805C814.258 370.365 814.432 371.448 813.881 372.234C811.323 375.821 808.564 379.261 805.619 382.538C805.453 382.717 805.253 382.861 805.03 382.96C804.806 383.058 804.565 383.11 804.321 383.112ZM819.353 361.944C819.064 361.946 818.779 361.873 818.526 361.733C818.326 361.623 818.149 361.475 818.006 361.296C817.863 361.118 817.756 360.913 817.693 360.694C817.629 360.475 817.609 360.245 817.634 360.018C817.659 359.79 817.728 359.57 817.838 359.37C819.877 355.621 821.687 351.753 823.259 347.786C823.342 347.574 823.467 347.38 823.626 347.216C823.784 347.052 823.974 346.921 824.183 346.83C824.393 346.739 824.618 346.691 824.846 346.688C825.074 346.685 825.301 346.726 825.513 346.811C825.941 346.981 826.283 347.314 826.465 347.737C826.647 348.16 826.654 348.637 826.484 349.065C824.862 353.165 822.992 357.163 820.882 361.035C820.731 361.309 820.51 361.538 820.241 361.697C819.972 361.857 819.666 361.942 819.353 361.944ZM828.919 337.816C828.653 337.815 828.392 337.753 828.154 337.635C827.916 337.517 827.708 337.347 827.546 337.136C827.385 336.925 827.274 336.68 827.221 336.42C827.169 336.16 827.177 335.891 827.245 335.634C828.331 331.503 829.188 327.315 829.811 323.09C829.843 322.864 829.92 322.647 830.037 322.451C830.154 322.255 830.308 322.084 830.491 321.948C830.675 321.812 830.883 321.714 831.105 321.659C831.326 321.604 831.556 321.594 831.782 321.629C832.008 321.663 832.225 321.741 832.421 321.858C832.617 321.976 832.788 322.131 832.924 322.315C833.06 322.498 833.158 322.707 833.213 322.929C833.269 323.151 833.28 323.381 833.246 323.607C832.604 327.962 831.721 332.279 830.601 336.536C830.497 336.903 830.277 337.226 829.974 337.457C829.67 337.688 829.3 337.814 828.919 337.816ZM832.92 312.117H832.797C832.569 312.101 832.347 312.041 832.143 311.939C831.939 311.837 831.757 311.696 831.608 311.524C831.458 311.352 831.344 311.152 831.272 310.935C831.2 310.719 831.172 310.49 831.188 310.263C831.42 306.874 831.536 303.522 831.536 300.286C831.536 299.311 831.528 298.337 831.507 297.391C831.502 297.163 831.542 296.936 831.624 296.724C831.706 296.512 831.83 296.317 831.987 296.153C832.145 295.988 832.333 295.856 832.542 295.764C832.75 295.672 832.975 295.622 833.203 295.617C833.663 295.608 834.108 295.783 834.439 296.102C834.771 296.421 834.962 296.859 834.971 297.319C834.993 298.293 835 299.297 835 300.293C835 303.609 834.877 307.041 834.645 310.51C834.612 310.946 834.416 311.353 834.097 311.651C833.777 311.948 833.357 312.115 832.92 312.117ZM832.268 286.091C831.412 286.091 830.666 285.451 830.55 284.578C829.977 280.222 829.144 275.997 828.071 272.027C827.951 271.583 828.012 271.109 828.24 270.71C828.468 270.311 828.846 270.018 829.289 269.896C829.509 269.837 829.739 269.822 829.965 269.852C830.19 269.882 830.408 269.956 830.605 270.07C830.803 270.184 830.975 270.336 831.114 270.517C831.252 270.698 831.353 270.905 831.412 271.125C832.521 275.248 833.384 279.619 833.978 284.127C834.011 284.371 833.991 284.62 833.92 284.855C833.849 285.091 833.728 285.31 833.567 285.495C833.405 285.681 833.205 285.83 832.982 285.933C832.758 286.036 832.514 286.09 832.268 286.091ZM825.404 261.046C825.07 261.045 824.743 260.947 824.463 260.766C824.183 260.584 823.961 260.325 823.824 260.021C822.049 256.072 819.954 252.357 817.591 248.982C817.327 248.605 817.223 248.138 817.301 247.685C817.38 247.231 817.636 246.827 818.012 246.561C818.198 246.43 818.408 246.336 818.63 246.286C818.852 246.236 819.082 246.231 819.306 246.27C819.531 246.309 819.745 246.393 819.937 246.515C820.129 246.637 820.295 246.796 820.425 246.983C822.911 250.531 825.114 254.436 826.984 258.589C827.173 259.009 827.188 259.487 827.025 259.917C826.862 260.348 826.535 260.697 826.115 260.886C825.883 260.996 825.643 261.046 825.404 261.046ZM768.54 259.025C768.099 259.024 767.675 258.855 767.355 258.552C767.034 258.25 766.841 257.836 766.815 257.396C766.786 256.936 766.94 256.483 767.245 256.136C767.549 255.79 767.979 255.579 768.439 255.549C772.454 255.302 776.65 254.371 780.571 252.858C780.784 252.776 781.011 252.738 781.239 252.744C781.467 252.75 781.691 252.801 781.9 252.895C782.108 252.988 782.295 253.121 782.452 253.287C782.608 253.453 782.73 253.649 782.811 253.862C782.976 254.293 782.963 254.771 782.775 255.193C782.588 255.614 782.24 255.943 781.81 256.109C777.563 257.745 773.012 258.749 768.649 259.025C768.613 259.018 768.569 259.025 768.54 259.025ZM755.763 257.265C755.542 257.263 755.324 257.221 755.118 257.141C749.718 254.953 746.472 251.12 745.986 246.35C745.939 245.893 746.075 245.435 746.364 245.078C746.654 244.721 747.073 244.493 747.53 244.445C747.757 244.422 747.986 244.445 748.204 244.511C748.423 244.577 748.626 244.685 748.802 244.829C748.978 244.974 749.125 245.152 749.232 245.353C749.34 245.554 749.407 245.774 749.429 246.001C749.878 250.393 753.473 252.735 756.408 253.927C756.62 254.012 756.812 254.139 756.975 254.299C757.138 254.458 757.267 254.649 757.356 254.859C757.445 255.069 757.492 255.295 757.493 255.523C757.495 255.751 757.451 255.978 757.365 256.189C757.235 256.507 757.014 256.78 756.728 256.971C756.443 257.163 756.107 257.265 755.763 257.265ZM792.45 249.811C792.187 249.812 791.928 249.753 791.692 249.639C791.456 249.524 791.249 249.357 791.087 249.15C790.802 248.788 790.672 248.328 790.725 247.87C790.778 247.412 791.01 246.994 791.37 246.706C794.631 244.122 797.451 241.025 799.719 237.536C799.843 237.345 800.003 237.18 800.191 237.05C800.378 236.921 800.59 236.83 800.813 236.783C801.036 236.736 801.266 236.733 801.49 236.775C801.714 236.817 801.927 236.902 802.118 237.027C802.922 237.551 803.147 238.627 802.625 239.434C800.155 243.241 797.081 246.618 793.522 249.433C793.219 249.679 792.84 249.813 792.45 249.811ZM810.482 239.922C810.047 239.922 809.628 239.758 809.308 239.463C806.224 236.605 802.813 234.12 799.147 232.061C798.764 231.827 798.487 231.454 798.373 231.021C798.259 230.587 798.317 230.126 798.535 229.734C798.753 229.343 799.114 229.05 799.543 228.919C799.972 228.787 800.435 228.826 800.835 229.028C804.738 231.224 808.369 233.87 811.656 236.911C812.359 237.558 812.409 238.664 811.757 239.369C811.593 239.543 811.395 239.681 811.176 239.776C810.957 239.871 810.721 239.921 810.482 239.922ZM751.987 235.922C751.603 235.922 751.219 235.798 750.9 235.537C750.542 235.247 750.313 234.828 750.263 234.37C750.213 233.912 750.345 233.453 750.632 233.093C753.422 229.617 757.169 226.905 761.771 225.036C761.982 224.95 762.208 224.907 762.435 224.909C762.663 224.911 762.888 224.958 763.098 225.048C763.307 225.137 763.497 225.266 763.656 225.429C763.815 225.592 763.941 225.785 764.025 225.996C764.198 226.423 764.194 226.901 764.014 227.325C763.835 227.749 763.495 228.084 763.068 228.257C759.024 229.901 755.748 232.257 753.335 235.268C753.174 235.472 752.969 235.636 752.736 235.75C752.503 235.863 752.246 235.922 751.987 235.922ZM806.43 228.367C806.278 228.367 806.126 228.345 805.974 228.308C805.753 228.248 805.547 228.145 805.366 228.005C805.186 227.865 805.034 227.69 804.921 227.492C804.808 227.293 804.735 227.074 804.707 226.847C804.679 226.621 804.695 226.39 804.756 226.17C805.807 222.309 806.372 218.12 806.43 213.728C806.436 213.272 806.621 212.837 806.945 212.516C807.269 212.195 807.706 212.014 808.162 212.012H808.184C809.141 212.027 809.909 212.812 809.895 213.772C809.829 218.462 809.228 222.942 808.097 227.087C807.998 227.454 807.781 227.777 807.48 228.009C807.179 228.24 806.81 228.366 806.43 228.367ZM787.971 227.399C787.826 227.399 787.674 227.378 787.529 227.341C783.383 226.25 779.201 225.749 775.15 225.858C774.69 225.869 774.244 225.696 773.911 225.378C773.578 225.06 773.385 224.623 773.374 224.163C773.367 223.935 773.406 223.708 773.487 223.495C773.569 223.282 773.691 223.087 773.848 222.921C774.005 222.756 774.193 222.623 774.402 222.53C774.61 222.438 774.835 222.387 775.063 222.382C779.441 222.265 783.956 222.804 788.413 223.982C788.858 224.1 789.238 224.39 789.47 224.788C789.703 225.186 789.768 225.659 789.652 226.105C789.553 226.475 789.334 226.803 789.03 227.036C788.727 227.27 788.354 227.398 787.971 227.399ZM807.061 202.508C806.653 202.507 806.259 202.362 805.947 202.098C805.636 201.835 805.427 201.47 805.358 201.068C804.662 197.097 803.618 192.916 802.256 188.655C802.116 188.216 802.156 187.739 802.366 187.329C802.576 186.919 802.941 186.609 803.379 186.466C803.818 186.327 804.294 186.367 804.703 186.578C805.112 186.789 805.421 187.154 805.561 187.593C806.974 192.007 808.054 196.334 808.771 200.464C808.815 200.714 808.804 200.971 808.739 201.216C808.674 201.462 808.555 201.69 808.392 201.884C808.229 202.079 808.026 202.236 807.796 202.344C807.566 202.451 807.315 202.508 807.061 202.508ZM799.284 177.689C798.947 177.688 798.618 177.589 798.336 177.405C798.054 177.22 797.832 176.958 797.697 176.649C795.974 172.71 794.095 168.84 792.066 165.05C791.85 164.643 791.804 164.167 791.937 163.726C792.07 163.285 792.371 162.914 792.776 162.694C793.182 162.478 793.657 162.431 794.097 162.565C794.538 162.699 794.907 163.001 795.124 163.407C797.262 167.428 799.197 171.406 800.871 175.253C800.987 175.517 801.035 175.806 801.011 176.093C800.987 176.381 800.892 176.658 800.735 176.899C800.577 177.141 800.362 177.34 800.109 177.477C799.856 177.615 799.572 177.688 799.284 177.689ZM786.876 154.819C786.326 154.819 785.789 154.557 785.449 154.07C783.015 150.568 780.359 147.226 777.498 144.064C777.188 143.722 777.026 143.272 777.048 142.811C777.069 142.35 777.273 141.917 777.614 141.606C777.782 141.452 777.979 141.333 778.193 141.255C778.408 141.177 778.635 141.143 778.863 141.154C779.091 141.164 779.314 141.22 779.52 141.318C779.727 141.415 779.911 141.553 780.064 141.722C783.027 144.996 785.777 148.457 788.297 152.084C788.477 152.345 788.583 152.65 788.603 152.966C788.622 153.282 788.556 153.598 788.41 153.879C788.263 154.16 788.043 154.396 787.773 154.562C787.503 154.728 787.193 154.816 786.876 154.819ZM769.482 135.563C769.067 135.563 768.665 135.413 768.352 135.141C765.113 132.355 761.721 129.752 758.191 127.345C757.401 126.807 757.191 125.724 757.734 124.931C757.861 124.742 758.025 124.58 758.215 124.455C758.405 124.33 758.618 124.243 758.842 124.2C759.065 124.158 759.295 124.16 759.518 124.207C759.741 124.254 759.952 124.344 760.14 124.473C763.779 126.952 767.276 129.635 770.613 132.508C771.338 133.134 771.425 134.232 770.794 134.959C770.454 135.359 769.968 135.563 769.482 135.563ZM481.14 121.964C480.791 121.964 480.45 121.858 480.161 121.661C479.873 121.464 479.651 121.184 479.524 120.859C479.357 120.43 479.366 119.953 479.549 119.531C479.733 119.109 480.075 118.776 480.502 118.605C484.003 117.23 488.177 115.79 492.924 114.321C493.142 114.254 493.371 114.231 493.597 114.252C493.824 114.274 494.044 114.34 494.246 114.447C494.447 114.553 494.625 114.699 494.77 114.874C494.915 115.05 495.024 115.252 495.091 115.47C495.226 115.91 495.182 116.386 494.968 116.794C494.753 117.201 494.386 117.508 493.946 117.645C489.286 119.092 485.184 120.503 481.77 121.848C481.567 121.928 481.35 121.964 481.14 121.964ZM748.051 120.881C747.762 120.882 747.478 120.809 747.225 120.67C743.459 118.627 739.604 116.752 735.673 115.049C735.464 114.958 735.275 114.827 735.116 114.663C734.958 114.499 734.833 114.306 734.75 114.093C734.666 113.881 734.625 113.655 734.63 113.427C734.634 113.199 734.683 112.974 734.774 112.765C734.863 112.556 734.993 112.366 735.157 112.207C735.32 112.049 735.513 111.924 735.724 111.84C735.936 111.756 736.162 111.715 736.389 111.719C736.617 111.723 736.842 111.773 737.05 111.864C741.073 113.61 745.02 115.53 748.878 117.616C749.216 117.802 749.482 118.094 749.636 118.447C749.79 118.8 749.822 119.195 749.727 119.568C749.632 119.942 749.416 120.273 749.113 120.511C748.81 120.748 748.436 120.879 748.051 120.881ZM505.948 114.14C505.565 114.139 505.193 114.012 504.891 113.778C504.588 113.543 504.371 113.215 504.274 112.845C504.215 112.625 504.2 112.395 504.23 112.169C504.259 111.943 504.334 111.724 504.448 111.527C504.563 111.33 504.715 111.157 504.897 111.019C505.078 110.881 505.285 110.78 505.506 110.722C509.714 109.605 513.94 108.555 518.182 107.573C518.404 107.522 518.634 107.515 518.859 107.552C519.084 107.59 519.299 107.672 519.492 107.792C519.685 107.913 519.853 108.071 519.985 108.257C520.117 108.443 520.211 108.653 520.262 108.875C520.314 109.097 520.322 109.328 520.285 109.553C520.248 109.778 520.167 109.994 520.046 110.187C519.926 110.381 519.768 110.549 519.583 110.682C519.397 110.815 519.187 110.91 518.965 110.962C514.758 111.94 510.566 112.983 506.39 114.089C506.245 114.124 506.097 114.141 505.948 114.14ZM724.243 110.482C724.055 110.482 723.867 110.453 723.678 110.387C719.616 108.987 715.51 107.721 711.365 106.591C710.921 106.469 710.544 106.177 710.316 105.778C710.088 105.378 710.027 104.905 710.147 104.461C710.206 104.241 710.308 104.036 710.447 103.855C710.585 103.675 710.758 103.524 710.955 103.41C711.153 103.297 711.37 103.223 711.596 103.194C711.821 103.164 712.05 103.18 712.27 103.239C716.491 104.388 720.673 105.676 724.809 107.1C725.198 107.234 725.528 107.501 725.738 107.854C725.949 108.208 726.027 108.625 725.959 109.031C725.891 109.437 725.682 109.805 725.367 110.071C725.053 110.337 724.655 110.483 724.243 110.482ZM531.278 108.22C530.879 108.219 530.492 108.08 530.183 107.827C529.874 107.574 529.662 107.222 529.582 106.831C529.49 106.381 529.581 105.912 529.833 105.528C530.086 105.144 530.48 104.875 530.93 104.781C535.191 103.904 539.462 103.083 543.744 102.316C544.197 102.237 544.663 102.34 545.04 102.604C545.417 102.867 545.674 103.269 545.756 103.722C545.837 104.175 545.736 104.641 545.474 105.02C545.213 105.398 544.812 105.657 544.36 105.741C540.106 106.507 535.861 107.324 531.626 108.191C531.511 108.212 531.395 108.221 531.278 108.22ZM556.876 103.617C556.461 103.617 556.061 103.468 555.747 103.197C555.433 102.926 555.227 102.551 555.166 102.141C555.096 101.686 555.209 101.221 555.48 100.849C555.752 100.476 556.161 100.227 556.616 100.156C560.906 99.486 565.247 98.861 569.531 98.301C569.757 98.2703 569.987 98.2848 570.207 98.3437C570.428 98.4026 570.634 98.5047 570.815 98.6441C570.996 98.7834 571.147 98.9573 571.26 99.1555C571.373 99.3538 571.445 99.5725 571.473 99.799C571.503 100.025 571.488 100.255 571.429 100.475C571.37 100.695 571.269 100.902 571.13 101.083C570.992 101.264 570.819 101.416 570.621 101.53C570.424 101.644 570.206 101.718 569.98 101.748C565.695 102.312 561.416 102.925 557.145 103.588C557.057 103.608 556.966 103.618 556.876 103.617ZM699.181 103.61C699.066 103.61 698.942 103.595 698.826 103.574C694.613 102.689 690.38 101.909 686.129 101.232C685.675 101.159 685.268 100.909 684.998 100.537C684.728 100.165 684.615 99.7014 684.686 99.247C684.721 99.0215 684.8 98.805 684.919 98.6102C685.038 98.4153 685.194 98.2458 685.379 98.1113C685.563 97.9769 685.772 97.8802 685.994 97.8268C686.216 97.7734 686.447 97.7643 686.672 97.8C691.05 98.49 695.384 99.29 699.544 100.17C699.994 100.266 700.388 100.537 700.639 100.922C700.89 101.308 700.979 101.777 700.885 102.228C700.8 102.618 700.585 102.967 700.276 103.218C699.966 103.469 699.58 103.608 699.181 103.61ZM582.663 100.229C582.234 100.227 581.821 100.067 581.503 99.7799C581.185 99.4927 580.984 99.0982 580.938 98.672C580.889 98.2148 581.023 97.7567 581.311 97.3983C581.599 97.0399 582.018 96.8103 582.475 96.76C586.809 96.294 591.179 95.88 595.462 95.53C595.921 95.4935 596.376 95.641 596.727 95.9399C597.078 96.2388 597.295 96.6647 597.332 97.124C597.412 98.084 596.702 98.92 595.745 99C591.491 99.349 587.149 99.763 582.844 100.221C582.786 100.221 582.721 100.229 582.663 100.229ZM673.504 99.516C673.438 99.516 673.373 99.516 673.308 99.509C669.023 99.0289 664.73 98.6361 660.429 98.331C660.201 98.3148 659.979 98.2537 659.775 98.1512C659.571 98.0487 659.389 97.9068 659.24 97.7337C659.091 97.5606 658.978 97.3597 658.907 97.1426C658.836 96.9256 658.809 96.6966 658.827 96.469C658.893 95.509 659.726 94.789 660.683 94.862C665.089 95.182 669.467 95.582 673.699 96.055C674.135 96.1104 674.534 96.3291 674.815 96.667C675.097 97.005 675.239 97.437 675.214 97.8759C675.19 98.3149 674.999 98.7281 674.682 99.0323C674.365 99.3365 673.944 99.51 673.504 99.516ZM608.573 98.106C607.66 98.106 606.892 97.386 606.841 96.462C606.815 96.0028 606.972 95.5519 607.278 95.2083C607.583 94.8647 608.013 94.6563 608.472 94.629C612.842 94.389 617.227 94.2 621.51 94.084C621.97 94.0767 622.414 94.25 622.748 94.5667C623.081 94.8835 623.277 95.3184 623.293 95.778C623.322 96.738 622.568 97.538 621.611 97.567C617.364 97.683 613.008 97.865 608.667 98.112C608.638 98.105 608.609 98.106 608.573 98.106ZM647.572 97.64H647.507C643.194 97.486 638.879 97.406 634.563 97.4C634.102 97.3976 633.66 97.2125 633.336 96.8852C633.011 96.5579 632.829 96.1152 632.83 95.654C632.83 94.694 633.606 93.924 634.563 93.924H634.57C638.969 93.931 643.361 94.018 647.63 94.171C647.858 94.1791 648.081 94.2321 648.288 94.3268C648.495 94.4215 648.681 94.5562 648.836 94.723C648.991 94.8898 649.112 95.0856 649.191 95.2991C649.27 95.5126 649.306 95.7395 649.297 95.967C649.282 96.415 649.094 96.8398 648.772 97.1519C648.451 97.464 648.02 97.639 647.572 97.64Z" fill="#E1E4E5"/>
<path fill-rule="evenodd" clip-rule="evenodd" d="M192.136 149.418H374.208C397.602 149.418 416.55 168.367 416.55 191.761V530.499L283.341 461.206L149.793 530.499V191.761C149.793 168.367 168.742 149.418 192.136 149.418Z" fill="#2EC4B6" stroke="#2EC4B6" stroke-width="11.75" stroke-linecap="round" stroke-linejoin="round"/>
<path d="M240.826 297.616H325.511M283.168 255.273V339.958" stroke="white" stroke-width="20" stroke-linecap="round" stroke-linejoin="round"/>
<path fill-rule="evenodd" clip-rule="evenodd" d="M497.623 70H679.694C703.089 70 722.037 88.948 722.037 112.342V451.081L588.828 381.787L455.28 451.081V112.342C455.28 88.948 474.228 70 497.623 70Z" fill="#2EC4B6" stroke="#2EC4B6" stroke-width="11.75" stroke-linecap="round" stroke-linejoin="round"/>
<path d="M546.313 218.198H630.997M588.655 175.854V260.539" stroke="white" stroke-width="20" stroke-linecap="round" stroke-linejoin="round"/>
<path d="M394.979 127.112L418.967 103.124C419.841 102.25 419.841 100.834 418.967 99.9602C418.094 99.0866 416.677 99.0866 415.804 99.9602L391.816 123.948C390.942 124.822 390.942 126.238 391.816 127.112C392.689 127.985 394.106 127.985 394.979 127.112Z" fill="#E1E4E5"/>
<path d="M397.327 109.937L404.245 103.02C405.119 102.146 405.119 100.73 404.245 99.8562C403.372 98.9826 401.955 98.9826 401.082 99.8562L394.164 106.774C393.29 107.647 393.29 109.064 394.164 109.937C395.037 110.811 396.454 110.811 397.327 109.937Z" fill="#E1E4E5"/>
<path d="M594.904 425.866L574.285 446.485C573.534 447.235 573.534 448.452 574.285 449.203L574.286 449.204C575.036 449.954 576.253 449.954 577.004 449.204L597.622 428.585C598.373 427.835 598.373 426.618 597.622 425.867L597.622 425.866C596.871 425.116 595.654 425.116 594.904 425.866Z" fill="#E1E4E5"/>
<path d="M592.886 440.628L586.939 446.575C586.189 447.326 586.189 448.542 586.939 449.293L586.94 449.294C587.69 450.044 588.907 450.044 589.658 449.294L595.605 443.347C596.355 442.596 596.355 441.379 595.605 440.629L595.604 440.628C594.853 439.878 593.636 439.878 592.886 440.628Z" fill="#E1E4E5"/>
<path d="M487.67 467.004L453.391 501.283C452.143 502.531 452.143 504.555 453.391 505.803L453.392 505.804C454.64 507.052 456.663 507.052 457.912 505.804L492.191 471.525C493.439 470.276 493.439 468.253 492.191 467.005L492.19 467.004C490.942 465.756 488.918 465.756 487.67 467.004Z" fill="#E1E4E5"/>
<path d="M484.316 491.546L474.43 501.432C473.182 502.68 473.182 504.704 474.43 505.952L474.431 505.953C475.679 507.201 477.702 507.201 478.95 505.953L488.836 496.067C490.085 494.818 490.085 492.795 488.836 491.547L488.836 491.546C487.588 490.298 485.564 490.298 484.316 491.546Z" fill="#E1E4E5"/>
</g>
<defs>
<clipPath id="clip0_4361_18649">
<rect width="900" height="600" fill="white"/>
</clipPath>
</defs>
</svg>
