<svg width="900" height="600" viewBox="0 0 900 600" fill="none" xmlns="http://www.w3.org/2000/svg">
<g clip-path="url(#clip0_4361_18662)">
<path d="M670.281 407.1C662.923 407.1 656.959 413.064 656.959 420.422C656.959 427.78 662.923 433.744 670.281 433.744C677.639 433.744 683.603 427.78 683.603 420.422C683.603 413.064 677.639 407.1 670.281 407.1Z" fill="#2EC4B6"/>
<path d="M714.363 231.646C703.898 231.646 695.415 240.129 695.415 250.594C695.415 261.059 703.898 269.542 714.363 269.542C724.828 269.542 733.311 261.059 733.311 250.594C733.311 240.129 724.828 231.646 714.363 231.646Z" fill="#2EC4B6"/>
<path d="M218.03 284.197C211.973 284.197 207.063 289.107 207.063 295.164C207.063 301.221 211.973 306.131 218.03 306.131C224.087 306.131 228.997 301.221 228.997 295.164C228.997 289.107 224.087 284.197 218.03 284.197Z" fill="#2EC4B6"/>
<path d="M311.848 521.066C304.95 521.066 299.358 515.474 299.358 508.576C299.358 501.678 304.95 496.086 311.848 496.086C318.746 496.086 324.338 501.678 324.338 508.576C324.338 515.474 318.746 521.066 311.848 521.066Z" fill="#2EC4B6"/>
<path d="M368.756 342.717C365.537 342.717 362.927 340.107 362.927 336.888C362.927 333.669 365.537 331.059 368.756 331.059C371.975 331.059 374.585 333.669 374.585 336.888C374.585 340.107 371.975 342.717 368.756 342.717Z" fill="#2EC4B6"/>
<path d="M603.464 520.479C599.325 520.479 595.97 517.124 595.97 512.985C595.97 508.846 599.325 505.491 603.464 505.491C607.603 505.491 610.958 508.846 610.958 512.985C610.958 517.124 607.603 520.479 603.464 520.479Z" fill="#E1E4E5"/>
<path d="M195.799 406.283C189.821 406.283 184.975 401.437 184.975 395.459C184.975 389.481 189.821 384.635 195.799 384.635C201.777 384.635 206.623 389.481 206.623 395.459C206.623 401.437 201.777 406.283 195.799 406.283Z" fill="#E1E4E5"/>
<path d="M733.689 403.565C729.139 403.565 725.451 399.877 725.451 395.327C725.451 390.777 729.139 387.089 733.689 387.089C738.239 387.089 741.927 390.777 741.927 395.327C741.927 399.877 738.239 403.565 733.689 403.565Z" fill="#E1E4E5"/>
<path d="M679.337 169.448C674.279 169.448 670.178 165.347 670.178 160.289C670.178 155.231 674.279 151.13 679.337 151.13C684.395 151.13 688.496 155.231 688.496 160.289C688.496 165.347 684.395 169.448 679.337 169.448Z" fill="#E1E4E5"/>
<path d="M177.018 238.148C178.194 242.536 175.59 247.046 171.202 248.222C166.815 249.398 162.304 246.794 161.129 242.406C159.953 238.018 162.557 233.508 166.945 232.333C171.332 231.157 175.843 233.761 177.018 238.148Z" fill="#E1E4E5"/>
<path d="M303.775 133.356C297.732 133.356 292.833 128.457 292.833 122.414C292.833 116.371 297.732 111.472 303.775 111.472C309.818 111.472 314.717 116.371 314.717 122.414C314.717 128.457 309.818 133.356 303.775 133.356Z" fill="#E1E4E5"/>
<path d="M607.864 91.57C607.864 98.4774 602.265 104.077 595.357 104.077C588.45 104.077 582.85 98.4774 582.85 91.57C582.85 84.6626 588.45 79.063 595.357 79.063C602.265 79.063 607.864 84.6626 607.864 91.57Z" fill="#E1E4E5"/>
<path d="M215.393 180.979H215.513C216.223 191.038 223.705 191.193 223.705 191.193C223.705 191.193 215.455 191.354 215.455 202.978C215.455 191.354 207.205 191.193 207.205 191.193C207.205 191.193 214.683 191.038 215.393 180.979ZM223.986 450.506H224.101C224.782 460.536 231.965 460.691 231.965 460.691C231.965 460.691 224.045 460.851 224.045 472.44C224.045 460.851 216.124 460.691 216.124 460.691C216.124 460.691 223.304 460.536 223.986 450.506Z" fill="#E1E4E5"/>
<path fill-rule="evenodd" clip-rule="evenodd" d="M612.453 346.824V433.845C612.453 441.861 610.275 449.725 606.151 456.599C602.027 463.472 596.113 469.095 589.04 472.867L476.284 533.07C469.881 536.484 462.736 538.27 455.48 538.27C448.223 538.27 441.078 536.484 434.675 533.07L321.92 472.867C314.847 469.095 308.933 463.472 304.809 456.599C300.685 449.726 298.507 441.861 298.507 433.845V346.824" fill="white"/>
<path d="M612.453 346.824V433.845C612.453 441.861 610.275 449.725 606.151 456.599C602.027 463.472 596.113 469.095 589.04 472.867L476.284 533.07C469.881 536.484 462.736 538.27 455.48 538.27C448.223 538.27 441.078 536.484 434.675 533.07L321.92 472.867C314.847 469.095 308.933 463.472 304.809 456.599C300.685 449.726 298.507 441.861 298.507 433.845V346.824" stroke="#E1E4E5" stroke-width="4"/>
<path fill-rule="evenodd" clip-rule="evenodd" d="M392.205 145.236L658.772 282.82C662.355 284.669 665.365 287.463 667.475 290.9C669.585 294.336 670.714 298.285 670.742 302.317C670.769 306.35 669.693 310.313 667.63 313.778C665.567 317.243 662.596 320.077 659.038 321.975L559.548 375.036C553.235 378.404 546.199 380.189 539.044 380.239C531.889 380.289 524.828 378.602 518.469 375.323L251.969 237.695C248.386 235.846 245.376 233.052 243.267 229.615C241.157 226.179 240.027 222.231 240 218.198C239.973 214.166 241.049 210.203 243.111 206.738C245.174 203.274 248.145 200.439 251.703 198.541L351.193 145.479C357.501 142.129 364.527 140.358 371.669 140.315C378.811 140.273 385.857 141.961 392.205 145.236Z" fill="white" stroke="#E1E4E5" stroke-width="4"/>
<path d="M541.596 340.05C536.947 340.05 533.179 337.036 533.179 333.317C533.179 329.598 536.947 326.584 541.596 326.584C546.245 326.584 550.013 329.598 550.013 333.317C550.013 337.036 546.245 340.05 541.596 340.05Z" fill="#E1E4E5"/>
<path d="M518.536 145.236L251.969 282.82C248.385 284.669 245.376 287.463 243.266 290.9C241.156 294.336 240.026 298.285 239.999 302.317C239.972 306.35 241.048 310.313 243.111 313.778C245.174 317.243 248.145 320.077 251.703 321.975L351.193 375.036C357.506 378.404 364.542 380.189 371.697 380.239C378.852 380.289 385.912 378.602 392.272 375.323L658.772 237.695C662.355 235.846 665.364 233.052 667.474 229.615C669.584 226.179 670.713 222.231 670.741 218.198C670.768 214.166 669.692 210.203 667.63 206.738C665.567 203.274 662.596 200.439 659.038 198.541L559.548 145.479C553.24 142.129 546.214 140.358 539.072 140.315C531.93 140.273 524.883 141.961 518.536 145.236Z" stroke="#E1E4E5" stroke-width="4"/>
<path d="M455.372 538.267V342.692" stroke="#E1E4E5" stroke-width="4"/>
<path d="M241.279 471.54H261.531M218.325 460.738H261.531M242.629 483.016H261.531M658.793 471.54H638.54M681.746 460.738H638.541M657.443 483.016H638.54" stroke="#E1E4E5" stroke-width="4.046" stroke-linecap="round" stroke-linejoin="round"/>
<path fill-rule="evenodd" clip-rule="evenodd" d="M351.718 191.9V139.432C351.719 130.759 353.994 122.238 358.317 114.719C362.64 107.2 368.859 100.946 376.354 96.582L425.936 67.727C433.509 63.3214 442.114 61.0005 450.875 61.0005C459.636 61.0005 468.241 63.3214 475.814 67.727L525.396 96.583C532.894 100.945 539.116 107.198 543.441 114.717C547.766 122.236 550.042 130.758 550.043 139.432V191.9C550.042 200.573 547.767 209.094 543.444 216.613C539.121 224.131 532.902 230.385 525.407 234.749L475.825 263.606C468.252 268.011 459.647 270.332 450.886 270.332C442.125 270.332 433.52 268.011 425.947 263.606L376.365 234.749C368.867 230.387 362.645 224.135 358.32 216.616C353.995 209.096 351.719 200.574 351.718 191.9Z" fill="#2EC4B6"/>
<path d="M450.881 165.666V116.085M450.87 204.23C450.509 204.229 450.151 204.3 449.817 204.439C449.483 204.577 449.18 204.78 448.925 205.036C448.67 205.292 448.468 205.596 448.331 205.93C448.194 206.265 448.124 206.623 448.126 206.984C448.15 207.699 448.45 208.376 448.964 208.874C449.478 209.371 450.165 209.649 450.88 209.649C451.596 209.649 452.283 209.371 452.797 208.874C453.311 208.376 453.611 207.699 453.635 206.984C453.634 206.622 453.563 206.263 453.423 205.928C453.284 205.594 453.08 205.29 452.823 205.034C452.567 204.778 452.262 204.576 451.927 204.438C451.592 204.3 451.232 204.229 450.87 204.23Z" stroke="white" stroke-width="15.588" stroke-linecap="round" stroke-linejoin="round"/>
</g>
<defs>
<clipPath id="clip0_4361_18662">
<rect width="900" height="600" fill="white"/>
</clipPath>
</defs>
</svg>
