<svg width="900" height="600" viewBox="0 0 900 600" fill="none" xmlns="http://www.w3.org/2000/svg">
<g clip-path="url(#clip0_4265_18649)">
<path d="M391.603 221.345L407.816 160.837C419.754 116.283 465.557 89.839 510.111 101.777C554.665 113.715 581.109 159.518 569.171 204.072L552.958 264.58" stroke="#2EC4B6" stroke-width="32.641" stroke-linecap="round" stroke-linejoin="round"/>
<path fill-rule="evenodd" clip-rule="evenodd" d="M525.521 521.722L286.792 457.755C260.412 450.687 244.771 423.595 251.839 397.216L296.616 230.106C303.685 203.726 330.776 188.085 357.156 195.153L595.885 259.121C622.264 266.189 637.905 293.28 630.837 319.66L586.06 486.77C578.992 513.15 551.9 528.791 525.521 521.722Z" fill="#2EC4B6" stroke="#2EC4B6" stroke-width="24.31" stroke-linecap="round" stroke-linejoin="round"/>
<path d="M424.422 415.298L440.466 355.421M449.955 319.738C440.233 317.133 430.23 322.909 427.695 332.649C425.09 342.37 430.866 352.374 440.587 354.978C450.309 357.583 460.312 351.808 462.917 342.086C465.522 332.365 459.746 322.361 449.955 319.738Z" stroke="white" stroke-width="50.726" stroke-linecap="round" stroke-linejoin="round"/>
<path d="M368 172C368 110.696 318.304 61 257 61C195.696 61 146 110.696 146 172C146 233.304 195.696 283 257 283C318.304 283 368 233.304 368 172Z" fill="#2A4F4C"/>
<path d="M249.512 213.477H267.955L266.172 186.944L288.386 201.822L297.574 185.641L273.714 173.986L297.574 162.33L288.386 146.149L266.172 161.027L267.955 134.494H249.512L251.226 161.027L229.012 146.149L219.824 162.33L243.752 173.986L219.824 185.641L229.012 201.822L251.226 186.944L249.512 213.477Z" fill="white"/>
<path d="M753 287C753 242.265 716.735 206 672 206C627.265 206 591 242.265 591 287C591 331.735 627.265 368 672 368C716.735 368 753 331.735 753 287Z" fill="#2A4F4C"/>
<path d="M666.536 317.808H679.994L678.693 298.445L694.904 309.302L701.608 297.495L684.197 288.989L701.608 280.484L694.904 268.676L678.693 279.533L679.994 260.171H666.536L667.786 279.533L651.576 268.676L644.872 280.484L662.333 288.989L644.872 297.495L651.576 309.302L667.786 298.445L666.536 317.808Z" fill="white"/>
<path d="M354 466C354 423.474 319.526 389 277 389C234.474 389 200 423.474 200 466C200 508.526 234.474 543 277 543C319.526 543 354 508.526 354 466Z" fill="#2A4F4C"/>
<path d="M271.805 495.052H284.599L283.363 476.646L298.773 486.966L305.146 475.742L288.595 467.656L305.146 459.571L298.773 448.347L283.363 458.667L284.599 440.261H271.805L272.994 458.667L257.585 448.347L251.211 459.571L267.81 467.656L251.211 475.742L257.585 486.966L272.994 476.646L271.805 495.052Z" fill="white"/>
</g>
<defs>
<clipPath id="clip0_4265_18649">
<rect width="900" height="600" fill="white"/>
</clipPath>
</defs>
</svg>
