<svg width="900" height="600" viewBox="0 0 900 600" fill="none" xmlns="http://www.w3.org/2000/svg">
<g clip-path="url(#clip0_4564_18690)">
<path fill-rule="evenodd" clip-rule="evenodd" d="M297.448 274.58C313.79 274.58 306.144 248.638 285.439 254.834C284.293 218.814 225.642 192.459 201.389 241.042C194.532 235.61 179.135 245.87 182.545 254.834C174.928 255.484 168.936 256.366 164.274 257.534C153.509 260.232 155.64 274.458 166.736 274.359L297.448 274.58Z" fill="white" stroke="#E1E4E5" stroke-width="11"/>
<path fill-rule="evenodd" clip-rule="evenodd" d="M297.897 183.52H363.455C369.316 183.52 371.842 175.869 367.045 172.476C366.978 172.427 366.91 172.379 366.842 172.332C360.013 167.6 351.05 168.03 351.05 168.03C351.05 168.03 349.771 142.427 325.657 142.427C303.855 142.427 295.161 163.999 292.025 175.884C291.006 179.745 293.934 183.52 297.897 183.52Z" fill="white" stroke="#E1E4E5" stroke-width="4"/>
<path fill-rule="evenodd" clip-rule="evenodd" d="M199.905 180.085H243.923C247.859 180.085 249.554 174.915 246.334 172.623C246.289 172.59 246.243 172.557 246.197 172.525C241.612 169.328 235.594 169.618 235.594 169.618C235.594 169.618 234.735 152.319 218.544 152.319C203.906 152.319 198.068 166.895 195.963 174.925C195.279 177.534 197.244 180.085 199.905 180.085ZM148.448 125.389H103.494C99.4739 125.389 97.7429 120.22 101.032 117.927C101.078 117.894 101.124 117.861 101.171 117.83C105.854 114.632 112 114.923 112 114.923C112 114.923 112.877 97.623 129.413 97.623C144.362 97.623 150.324 112.199 152.474 120.23C153.173 122.839 151.165 125.389 148.448 125.389ZM101.326 197.737H146.28C150.299 197.737 152.031 192.361 148.742 189.976C148.696 189.942 148.649 189.908 148.602 189.875C143.919 186.55 137.774 186.852 137.774 186.852C137.774 186.852 136.896 168.86 120.361 168.86C105.411 168.86 99.4489 184.019 97.2989 192.371C96.6009 195.084 98.6079 197.737 101.326 197.737ZM303.64 111.062H217.075C210.067 111.062 207.044 102.17 212.781 98.225L213.024 98.059C221.191 92.559 231.91 93.059 231.91 93.059C231.91 93.059 233.441 63.305 262.279 63.305C276.536 63.305 288.059 87.183 288.059 87.183C288.059 87.183 307.454 87.183 310.664 102.186C311.634 106.731 308.381 111.062 303.64 111.062ZM571.621 187.962C583.675 187.962 578.035 168.773 562.764 173.356C561.918 146.712 518.658 127.217 500.77 163.154C495.713 159.136 484.356 166.725 486.871 173.356C481.253 173.837 476.833 174.49 473.395 175.354C465.455 177.349 467.027 187.872 475.21 187.799L571.621 187.962ZM719.902 183.76H785.46C791.322 183.76 793.847 176.11 789.051 172.716C788.984 172.668 788.916 172.619 788.848 172.572C782.018 167.84 773.056 168.27 773.056 168.27C773.056 168.27 771.776 142.667 747.662 142.667C725.86 142.667 717.166 164.239 714.03 176.124C713.012 179.985 715.939 183.76 719.902 183.76ZM528.912 109.108H572.929C576.865 109.108 578.56 103.938 575.34 101.645L575.204 101.548C570.618 98.351 564.6 98.641 564.6 98.641C564.6 98.641 563.741 81.342 547.55 81.342C532.912 81.342 527.075 95.918 524.969 103.948C524.285 106.557 526.251 109.108 528.912 109.108ZM646.167 152.422H601.213C597.194 152.422 595.462 147.253 598.751 144.96C598.797 144.927 598.843 144.894 598.89 144.863C603.573 141.665 609.719 141.956 609.719 141.956C609.719 141.956 610.596 124.656 627.132 124.656C642.082 124.656 648.043 139.232 650.194 147.263C650.892 149.872 648.885 152.422 646.167 152.422ZM396.253 92.181H441.207C445.227 92.181 446.958 86.805 443.669 84.421C443.623 84.3862 443.577 84.3522 443.53 84.319C438.847 80.994 432.701 81.296 432.701 81.296C432.701 81.296 431.824 63.305 415.289 63.305C400.339 63.305 394.377 78.464 392.227 86.815C391.528 89.528 393.536 92.181 396.253 92.181ZM743.35 103.554H656.785C649.777 103.554 646.754 94.663 652.491 90.718C652.571 90.663 652.653 90.606 652.734 90.552C660.901 85.052 671.62 85.551 671.62 85.551C671.62 85.551 673.151 55.797 701.989 55.797C716.246 55.797 727.769 79.676 727.769 79.676C727.769 79.676 747.164 79.676 750.374 94.679C751.344 99.224 748.091 103.554 743.35 103.554Z" fill="white" stroke="#E1E4E5" stroke-width="11"/>
<path d="M178.427 415.24L90.092 552.21H271.53L183.195 415.24C182.818 414.656 181.998 414.138 180.81 414.138C179.622 414.138 178.803 414.656 178.426 415.24H178.427ZM599.606 391.219L493.461 552.21H713.264L607.119 391.219C606.467 390.23 605.124 389.471 603.363 389.471C601.601 389.471 600.258 390.23 599.606 391.219Z" fill="white" stroke="#E1E4E5" stroke-width="11"/>
<path d="M308.254 354.592L178.148 552.21H449.446L319.341 354.592C318.289 352.995 316.251 351.935 313.797 351.935C311.343 351.935 309.305 352.995 308.254 354.592ZM696.128 397.248L589.982 558.239H809.786L703.641 397.248C702.988 396.259 701.646 395.5 699.884 395.5C698.122 395.5 696.78 396.259 696.128 397.248Z" fill="white" stroke="#E1E4E5" stroke-width="11"/>
<path d="M313.797 527.647L341.738 545.685L369.325 527.647L341.738 457.971L313.797 527.647Z" fill="white" stroke="#E1E4E5" stroke-width="11"/>
<path d="M345.47 509.609V557.71M326.897 517.159L344.232 529.542" stroke="#E1E4E5" stroke-width="11"/>
<path d="M388.87 527.647L416.811 545.685L444.398 527.647L416.811 457.971L388.87 527.647Z" fill="white" stroke="#E1E4E5" stroke-width="11"/>
<path d="M420.542 509.609V557.71M401.969 517.159L419.304 529.542" stroke="#E1E4E5" stroke-width="11"/>
<path d="M463.942 520.55L498.479 542.846L532.58 520.55L498.479 434.425L463.942 520.55Z" fill="white" stroke="#E1E4E5" stroke-width="11"/>
<path d="M501.793 498.254V557.711M479.38 508.643L500.807 523.949" stroke="#E1E4E5" stroke-width="11"/>
<path d="M654.713 160.203C644.936 202.852 598.678 229.521 550.547 218.488C502.415 207.455 472.392 163.3 482.168 120.651C491.944 78.001 538.202 51.333 586.334 62.366C634.466 73.399 664.489 117.553 654.713 160.203Z" fill="white" stroke="#E1E4E5" stroke-width="11"/>
<path d="M764.175 265.565C761.663 276.524 753.478 286.243 739.567 294.221C725.649 302.204 706.488 308.133 683.225 311.585C636.734 318.485 575.033 315.323 509.253 300.244C443.472 285.165 386.554 261.137 347.711 234.676C328.274 221.436 313.608 207.753 304.557 194.505C295.51 181.264 292.376 168.95 294.888 157.992C297.4 147.033 305.585 137.314 319.495 129.336C333.413 121.354 352.574 115.424 375.838 111.972C422.329 105.072 484.029 108.235 549.81 123.313C615.591 138.392 672.508 162.42 711.352 188.881C730.789 202.122 745.454 215.805 754.506 229.052C763.552 242.293 766.687 254.607 764.175 265.565Z" fill="white" stroke="#E1E4E5" stroke-width="11"/>
<path d="M408.102 162.055C426.177 163.128 441.199 157.763 441.655 150.072C442.112 142.38 427.83 135.275 409.756 134.202C391.681 133.13 376.659 138.495 376.203 146.186C375.746 153.878 390.028 160.983 408.102 162.055Z" fill="#E1E4E5"/>
<path d="M498.024 173.052C515.886 176.012 531.388 172.249 532.647 164.647C533.907 157.046 520.447 148.485 502.584 145.526C484.722 142.566 469.22 146.329 467.961 153.931C466.702 161.532 480.161 170.093 498.024 173.052Z" fill="#E1E4E5"/>
<path d="M588.986 200.091C605.729 206.983 621.679 206.794 624.612 199.669C627.545 192.544 616.349 181.181 599.606 174.289C582.863 167.397 566.913 167.586 563.98 174.711C561.047 181.836 572.243 193.199 588.986 200.091Z" fill="#E1E4E5"/>
<path d="M511.816 270.539C557.897 282.049 599.224 275.483 604.122 255.874C609.019 236.265 575.634 211.039 529.552 199.529C483.471 188.019 442.144 194.585 437.246 214.194C432.348 233.803 465.734 259.029 511.816 270.539Z" fill="#E1E4E5"/>
<path d="M680.531 246.303C695.69 256.204 711.395 259.001 715.608 252.55C719.822 246.099 710.948 232.844 695.789 222.943C680.63 213.042 664.925 210.245 660.712 216.696C656.499 223.147 665.372 236.402 680.531 246.303Z" fill="#E1E4E5"/>
<path d="M236.34 558.427L438.738 210.503C545.38 199.347 592.514 238.858 602.75 260.007L561.572 558.427H236.34Z" fill="#2EC4B6"/>
<path d="M405.479 435.978H412.416V448.165H405.479V462.65H389.682V448.165H363.291L362.354 438.509L389.682 394.54V394.4H405.479V435.978ZM377.4 435.978H389.682V414.978L388.697 416.572L377.4 435.978ZM466.744 434.759C466.744 443.978 464.666 451.087 460.51 456.087C456.385 461.087 450.557 463.587 443.025 463.587C435.432 463.587 429.557 461.072 425.4 456.04C421.244 451.009 419.166 443.915 419.166 434.759V422.29C419.166 413.072 421.229 405.962 425.354 400.962C429.51 395.962 435.369 393.462 442.932 393.462C450.494 393.462 456.354 395.978 460.51 401.009C464.666 406.04 466.744 413.15 466.744 422.337V434.759ZM450.947 420.275C450.947 415.368 450.307 411.712 449.025 409.306C447.744 406.868 445.713 405.65 442.932 405.65C440.213 405.65 438.229 406.775 436.979 409.025C435.76 411.275 435.104 414.681 435.01 419.243V436.681C435.01 441.775 435.65 445.509 436.932 447.884C438.213 450.228 440.244 451.4 443.025 451.4C445.713 451.4 447.697 450.259 448.979 447.978C450.26 445.665 450.916 442.056 450.947 437.15V420.275ZM516.666 435.978H523.604V448.165H516.666V462.65H500.869V448.165H474.479L473.541 438.509L500.869 394.54V394.4H516.666V435.978ZM488.588 435.978H500.869V414.978L499.885 416.572L488.588 435.978Z" fill="white"/>
<path d="M140.44 548.412V534.116" stroke="#E1E4E5" stroke-width="4"/>
<path d="M155.835 548.412V538.515" stroke="#E1E4E5" stroke-width="4"/>
<path d="M125.043 548.412V538.515" stroke="#E1E4E5" stroke-width="4"/>
<path d="M215.512 548.412V534.116" stroke="#E1E4E5" stroke-width="4"/>
<path d="M230.908 548.412V538.515" stroke="#E1E4E5" stroke-width="4"/>
<path d="M200.116 548.412V538.515" stroke="#E1E4E5" stroke-width="4"/>
<path d="M671.309 553.296V539" stroke="#E1E4E5" stroke-width="4"/>
<path d="M686.705 553.296V543.399" stroke="#E1E4E5" stroke-width="4"/>
<path d="M655.913 553.296V543.399" stroke="#E1E4E5" stroke-width="4"/>
</g>
<defs>
<clipPath id="clip0_4564_18690">
<rect width="900" height="600" fill="white"/>
</clipPath>
</defs>
</svg>
