<svg width="900" height="600" viewBox="0 0 900 600" fill="none" xmlns="http://www.w3.org/2000/svg">
<g clip-path="url(#clip0_4221_18649)">
<path d="M606.693 205.487C597.229 222.378 576.5 224.699 543.292 221.489C518.317 219.071 495.541 217.199 470.564 203.581C453.082 194.057 439.244 181.17 429.143 168.654C418.198 155.095 402.921 139.62 410.41 124.246C420.702 103.128 480.22 85.341 538.013 114.428C601.499 146.389 615.952 188.978 606.693 205.487Z" fill="url(#paint0_linear_4221_18649)"/>
<path d="M736.634 300.401C712.733 312.257 681.012 297.013 681.012 297.013C681.012 297.013 688.062 262.554 711.975 250.714C735.875 238.859 767.583 254.086 767.583 254.086C767.583 254.086 760.534 288.546 736.634 300.401Z" fill="url(#paint1_linear_4221_18649)"/>
<path d="M213.061 209.673C226.898 217.966 246.749 210.299 246.749 210.299C246.749 210.299 244.154 189.19 230.308 180.907C216.471 172.614 196.628 180.27 196.628 180.27C196.628 180.27 199.224 201.38 213.061 209.673Z" fill="url(#paint2_linear_4221_18649)"/>
<path d="M667.398 347.6C660.191 347.6 654.348 353.443 654.348 360.65C654.348 367.857 660.191 373.7 667.398 373.7C674.605 373.7 680.448 367.857 680.448 360.65C680.448 353.443 674.605 347.6 667.398 347.6Z" fill="#2EC4B6"/>
<path d="M199.743 265C193.81 265 189 269.81 189 275.743C189 281.676 193.81 286.486 199.743 286.486C205.676 286.486 210.486 281.676 210.486 275.743C210.486 269.81 205.676 265 199.743 265Z" fill="#2EC4B6"/>
<path d="M231.772 422.606C225.015 422.606 219.538 417.129 219.538 410.372C219.538 403.615 225.015 398.138 231.772 398.138C238.529 398.138 244.006 403.615 244.006 410.372C244.006 417.129 238.529 422.606 231.772 422.606Z" fill="#2EC4B6"/>
<path d="M637.173 264.619C634.02 264.619 631.464 262.063 631.464 258.91C631.464 255.757 634.02 253.201 637.173 253.201C640.326 253.201 642.882 255.757 642.882 258.91C642.882 262.063 640.326 264.619 637.173 264.619Z" fill="#2EC4B6"/>
<path d="M254.341 152.682C250.287 152.682 247 149.395 247 145.341C247 141.287 250.287 138 254.341 138C258.395 138 261.682 141.287 261.682 145.341C261.682 149.395 258.395 152.682 254.341 152.682Z" fill="#E1E4E5"/>
<path d="M131.184 427.266C125.328 427.266 120.581 422.519 120.581 416.663C120.581 410.807 125.328 406.06 131.184 406.06C137.04 406.06 141.787 410.807 141.787 416.663C141.787 422.519 137.04 427.266 131.184 427.266Z" fill="#E1E4E5"/>
<path d="M546.58 492.527C542.123 492.527 538.51 488.914 538.51 484.457C538.51 480 542.123 476.387 546.58 476.387C551.037 476.387 554.65 480 554.65 484.457C554.65 488.914 551.037 492.527 546.58 492.527Z" fill="#E1E4E5"/>
<path d="M651.972 184.944C647.017 184.944 643 180.927 643 175.972C643 171.017 647.017 167 651.972 167C656.927 167 660.944 171.017 660.944 175.972C660.944 180.927 656.927 184.944 651.972 184.944Z" fill="#E1E4E5"/>
<path d="M163.261 246.971C164.413 251.269 161.862 255.687 157.564 256.839C153.266 257.99 148.848 255.44 147.696 251.142C146.544 246.844 149.095 242.426 153.393 241.274C157.691 240.122 162.109 242.673 163.261 246.971Z" fill="#E1E4E5"/>
<path d="M315.12 164.027C309.201 164.027 304.402 159.228 304.402 153.309C304.402 147.39 309.201 142.591 315.12 142.591C321.039 142.591 325.838 147.39 325.838 153.309C325.838 159.228 321.039 164.027 315.12 164.027Z" fill="#E1E4E5"/>
<path d="M722.194 418.307C717.64 418.307 713.949 415.354 713.949 411.711C713.949 408.068 717.64 405.115 722.194 405.115C726.748 405.115 730.439 408.068 730.439 411.711C730.439 415.354 726.748 418.307 722.194 418.307Z" fill="#E1E4E5"/>
<path d="M320.155 476.313C322.552 485.258 317.243 494.452 308.299 496.849C299.354 499.245 290.16 493.937 287.763 484.992C285.367 476.048 290.675 466.854 299.62 464.457C308.564 462.06 317.758 467.369 320.155 476.313Z" fill="#E1E4E5"/>
<path d="M643.152 401.826H643.368C644.645 419.922 658.103 420.2 658.103 420.2C658.103 420.2 643.263 420.49 643.263 441.4C643.263 420.49 628.423 420.2 628.423 420.2C628.423 420.2 641.875 419.922 643.152 401.826ZM179.902 451.464H180.015C180.683 461.288 187.719 461.44 187.719 461.44C187.719 461.44 179.96 461.597 179.96 472.949C179.96 461.597 172.202 461.44 172.202 461.44C172.202 461.44 179.235 461.288 179.902 451.464Z" fill="#E1E4E5"/>
<path d="M449.705 494.658C564.743 494.658 658 401.401 658 286.363C658 171.325 564.743 78.068 449.705 78.068C334.667 78.068 241.41 171.325 241.41 286.363C241.41 401.401 334.667 494.658 449.705 494.658Z" fill="url(#paint3_linear_4221_18649)"/>
<path d="M449.01 142.313H449.009C369.746 142.313 305.49 206.569 305.49 285.832V285.833C305.49 365.096 369.746 429.352 449.009 429.352H449.01C528.273 429.352 592.529 365.096 592.529 285.833V285.832C592.529 206.569 528.273 142.313 449.01 142.313Z" fill="#2EC4B6"/>
<path fill-rule="evenodd" clip-rule="evenodd" d="M514.239 346.038V355.635C514.239 360.932 509.996 365.232 504.768 365.232H391.123C385.895 365.232 381.653 360.932 381.653 355.635V345.885C381.653 316.845 414.401 297.978 447.946 297.978C481.49 297.978 514.239 316.855 514.239 345.885M471.715 213.671C484.847 226.803 484.847 248.094 471.715 261.226C458.583 274.358 437.291 274.358 424.159 261.226C411.027 248.094 411.027 226.803 424.159 213.671C437.291 200.538 458.583 200.538 471.715 213.671Z" fill="white"/>
<path d="M449.202 521.808C484.845 521.808 513.74 492.913 513.74 457.27C513.74 421.627 484.845 392.732 449.202 392.732C413.559 392.732 384.664 421.627 384.664 457.27C384.664 492.913 413.559 521.808 449.202 521.808Z" fill="#2A4F4C"/>
<path d="M454.479 435.351C454.479 432.437 452.117 430.074 449.203 430.074C446.288 430.074 443.926 432.437 443.926 435.351V479.187C443.926 482.101 446.288 484.464 449.203 484.464C452.117 484.464 454.479 482.101 454.479 479.187V435.351Z" fill="white"/>
<path d="M471.12 462.546C474.034 462.546 476.397 460.184 476.397 457.27C476.397 454.355 474.034 451.993 471.12 451.993H427.284C424.37 451.993 422.007 454.355 422.007 457.27C422.007 460.184 424.37 462.546 427.284 462.546H471.12Z" fill="white"/>
</g>
<defs>
<linearGradient id="paint0_linear_4221_18649" x1="542.933" y1="314.96" x2="458.573" y2="-64.121" gradientUnits="userSpaceOnUse">
<stop stop-color="white"/>
<stop offset="1" stop-color="#EEEEEE"/>
</linearGradient>
<linearGradient id="paint1_linear_4221_18649" x1="644.855" y1="337.382" x2="841.983" y2="181.454" gradientUnits="userSpaceOnUse">
<stop stop-color="white"/>
<stop offset="1" stop-color="#EEEEEE"/>
</linearGradient>
<linearGradient id="paint2_linear_4221_18649" x1="266.606" y1="236.368" x2="155.268" y2="132.92" gradientUnits="userSpaceOnUse">
<stop stop-color="white"/>
<stop offset="1" stop-color="#EEEEEE"/>
</linearGradient>
<linearGradient id="paint3_linear_4221_18649" x1="458.588" y1="728.222" x2="445.742" y2="-375.11" gradientUnits="userSpaceOnUse">
<stop stop-color="white"/>
<stop offset="1" stop-color="#EEEEEE"/>
</linearGradient>
<clipPath id="clip0_4221_18649">
<rect width="900" height="600" fill="white"/>
</clipPath>
</defs>
</svg>
