<svg width="900" height="600" viewBox="0 0 900 600" fill="none" xmlns="http://www.w3.org/2000/svg">
<g clip-path="url(#clip0_4300_18649)">
<path d="M464.718 560.564C608.468 560.564 725 444.032 725 300.282C725 156.532 608.468 40 464.718 40C320.968 40 204.436 156.532 204.436 300.282C204.436 444.032 320.968 560.564 464.718 560.564Z" fill="url(#paint0_linear_4300_18649)"/>
<path fill-rule="evenodd" clip-rule="evenodd" d="M630.736 155L557.456 81.656C552.646 76.8404 546.935 73.0196 540.648 70.4117C534.362 67.8038 527.623 66.46 520.817 66.457H334.975C306.342 66.457 283.15 89.669 283.15 118.328V481.419C283.15 510.077 306.342 533.289 334.975 533.289H594.096C622.729 533.289 645.92 510.077 645.92 481.419V191.672C645.916 177.919 640.455 164.73 630.736 155Z" fill="white" stroke="#E1E4E5" stroke-width="4"/>
<path d="M563.583 387.392H366.928C359.687 387.392 353.818 393.262 353.818 400.502V400.503C353.818 407.743 359.687 413.613 366.928 413.613H563.583C570.823 413.613 576.693 407.743 576.693 400.503V400.502C576.693 393.262 570.823 387.392 563.583 387.392Z" fill="#E1E4E5"/>
<path d="M563.583 282.44H366.928C359.687 282.44 353.818 288.31 353.818 295.55V295.551C353.818 302.791 359.687 308.661 366.928 308.661H563.583C570.823 308.661 576.693 302.791 576.693 295.551V295.55C576.693 288.31 570.823 282.44 563.583 282.44Z" fill="#E1E4E5"/>
<path d="M488.333 177.488H366.588C359.343 177.488 353.469 183.362 353.469 190.607C353.469 197.852 359.343 203.726 366.588 203.726H488.333C495.578 203.726 501.452 197.852 501.452 190.607C501.452 183.362 495.578 177.488 488.333 177.488Z" fill="#E1E4E5"/>
<path d="M563.583 439.868H366.928C359.687 439.868 353.818 445.738 353.818 452.978V452.979C353.818 460.219 359.687 466.089 366.928 466.089H563.583C570.823 466.089 576.693 460.219 576.693 452.979V452.978C576.693 445.738 570.823 439.868 563.583 439.868Z" fill="#E1E4E5"/>
<path d="M563.583 334.916H366.928C359.687 334.916 353.818 340.786 353.818 348.026V348.027C353.818 355.267 359.687 361.137 366.928 361.137H563.583C570.823 361.137 576.693 355.267 576.693 348.027V348.026C576.693 340.786 570.823 334.916 563.583 334.916Z" fill="#E1E4E5"/>
<path d="M563.583 229.964H366.928C359.687 229.964 353.818 235.834 353.818 243.074V243.075C353.818 250.315 359.687 256.185 366.928 256.185H563.583C570.823 256.185 576.693 250.315 576.693 243.075V243.074C576.693 235.834 570.823 229.964 563.583 229.964Z" fill="#E1E4E5"/>
<path d="M217.38 321.738V278.358C217.38 246.416 243.278 220.518 275.22 220.518C307.162 220.518 333.06 246.416 333.06 278.358V321.738" stroke="#2EC4B6" stroke-width="13.552" stroke-linecap="round" stroke-linejoin="round"/>
<path fill-rule="evenodd" clip-rule="evenodd" d="M347.52 480.798H202.92C186.942 480.798 174 467.856 174 451.878V350.658C174 334.679 186.942 321.738 202.92 321.738H347.52C363.498 321.738 376.44 334.679 376.44 350.658V451.878C376.44 467.856 363.498 480.798 347.52 480.798Z" fill="#2EC4B6" stroke="#2EC4B6" stroke-width="13.552" stroke-linecap="round" stroke-linejoin="round"/>
<path d="M274.27 435.962V399.694M274.229 378.092C268.341 378.092 263.562 382.87 263.605 388.759C263.605 394.647 268.383 399.426 274.272 399.426C280.16 399.426 284.939 394.647 284.939 388.759C284.939 382.87 280.16 378.092 274.229 378.092Z" stroke="white" stroke-width="28.278" stroke-linecap="round" stroke-linejoin="round"/>
</g>
<defs>
<linearGradient id="paint0_linear_4300_18649" x1="475.818" y1="852.422" x2="459.766" y2="-526.285" gradientUnits="userSpaceOnUse">
<stop stop-color="white"/>
<stop offset="1" stop-color="#EEEEEE"/>
</linearGradient>
<clipPath id="clip0_4300_18649">
<rect width="900" height="600" fill="white"/>
</clipPath>
</defs>
</svg>
