<svg width="1000" height="141" viewBox="0 0 1000 141" fill="none" xmlns="http://www.w3.org/2000/svg">
<g clip-path="url(#clip0_4249_18650)">
<g clip-path="url(#clip1_4249_18650)">
<g clip-path="url(#clip2_4249_18650)">
<g clip-path="url(#clip3_4249_18650)">
<g clip-path="url(#clip4_4249_18650)">
<g clip-path="url(#clip5_4249_18650)">
<g clip-path="url(#clip6_4249_18650)">
<path d="M24.082 138.21H1.46265V4.02795H47.9664C57.8064 4.02795 66.2152 5.52312 73.1927 8.51346C80.1957 11.5294 85.5502 16.2322 89.2562 22.6218C92.9622 29.0114 94.8152 37.2796 94.8152 47.4263C94.8152 57.5986 92.975 65.9307 89.2946 72.4226C85.6397 78.8889 80.3235 83.6939 73.346 86.8376C66.3941 89.9557 58.062 91.5148 48.3498 91.5148H24.082V138.21ZM24.082 23.0052V72.5376H45.5511C54.4455 72.5376 61.1035 70.5313 65.5251 66.5186C69.9723 62.4803 72.1959 56.2185 72.1959 47.733C72.1959 39.222 69.9979 32.973 65.6018 28.9859C61.1802 24.9987 54.3688 23.0052 45.1677 23.0052H24.082ZM200.321 138.21H114.061V4.02795H198.519V25.1137H136.68V57.5859H185.101V78.6717H136.68V117.124H200.321V138.21ZM270.479 138.21H248.243V25.1137H209.905V4.02795H308.893V25.1137H270.479V138.21ZM365.442 140.894C359.947 140.894 354.362 140.421 348.688 139.475C342.989 138.504 337.736 137.303 332.931 135.872C328.101 134.415 324.178 132.958 321.162 131.501L323.96 107.923C328.05 109.891 332.522 111.796 337.378 113.636C342.235 115.45 347.321 116.946 352.637 118.121C357.979 119.297 363.372 119.885 368.815 119.885C376.1 119.885 381.927 118.505 386.298 115.744C390.668 112.958 392.853 108.69 392.853 102.939C392.853 98.5179 391.678 94.9397 389.326 92.2049C386.949 89.4446 383.371 87.0293 378.592 84.9591C373.787 82.8888 367.716 80.6397 360.381 78.2116C353.148 75.8602 346.592 73.1254 340.714 70.0073C334.835 66.9147 330.158 62.902 326.682 57.9692C323.206 53.062 321.468 46.7107 321.468 38.9154C321.468 31.6312 323.283 25.1393 326.912 19.4397C330.567 13.7658 335.998 9.33134 343.206 6.13652C350.439 2.94171 359.359 1.3443 369.966 1.3443C378.4 1.3443 386.323 2.26441 393.735 4.10463C401.147 5.9704 407.371 7.98952 412.406 10.162L410.105 33.1647C402.693 29.4587 395.678 26.7112 389.058 24.9221C382.464 23.133 375.678 22.2384 368.7 22.2384C361.289 22.2384 355.41 23.5163 351.065 26.0722C346.72 28.628 344.548 32.6152 344.548 38.0336C344.548 42.0718 345.672 45.3305 347.921 47.8097C350.145 50.3145 353.353 52.4614 357.544 54.2505C361.736 56.0396 366.86 57.8542 372.918 59.6944C382.502 62.7103 390.617 66.033 397.262 69.6623C403.907 73.3171 408.942 77.7643 412.367 83.0038C415.792 88.2433 417.504 94.7224 417.504 102.441C417.504 106.914 416.738 111.438 415.204 116.013C413.671 120.588 410.962 124.741 407.077 128.472C403.217 132.23 397.901 135.233 391.128 137.482C384.355 139.757 375.793 140.894 365.442 140.894ZM492.263 140.894C479.663 140.894 469.261 138.428 461.056 133.495C452.852 128.587 446.731 121.648 442.692 112.677C438.68 103.681 436.673 93.0867 436.673 80.8952V4.02795H458.909V75.0296C458.909 81.3681 459.357 87.2465 460.251 92.6649C461.146 98.1089 462.756 102.876 465.082 106.965C467.408 111.054 470.781 114.236 475.203 116.511C479.599 118.76 485.286 119.885 492.263 119.885C499.292 119.885 504.991 118.76 509.362 116.511C513.732 114.236 517.106 111.054 519.483 106.965C521.834 102.876 523.445 98.0961 524.314 92.6266C525.183 87.1571 525.617 81.2914 525.617 75.0296V4.02795H547.853V80.8952C547.853 93.0867 545.834 103.681 541.796 112.677C537.783 121.648 531.662 128.587 523.432 133.495C515.228 138.428 504.838 140.894 492.263 140.894ZM598.804 138.21H576.185V4.02795H622.688C632.529 4.02795 640.95 5.52312 647.953 8.51346C654.931 11.5294 660.272 16.2322 663.978 22.6218C667.684 29.0114 669.537 37.2796 669.537 47.4263C669.537 57.5986 667.71 65.9307 664.055 72.4226C660.375 78.8889 655.046 83.6939 648.068 86.8376C641.116 89.9557 632.784 91.5148 623.072 91.5148H598.804V138.21ZM598.804 23.0052V72.5376H620.273C629.168 72.5376 635.838 70.5313 640.286 66.5186C644.707 62.4803 646.918 56.2185 646.918 47.733C646.918 39.222 644.72 32.973 640.324 28.9859C635.902 24.9987 629.091 23.0052 619.89 23.0052H598.804ZM711.44 138.21H688.821V4.02795H735.287C745.127 4.02795 753.548 5.52312 760.551 8.51346C767.554 11.5294 772.909 16.2322 776.615 22.6218C780.321 29.0114 782.174 37.2796 782.174 47.4263C782.174 57.5986 780.334 65.9307 776.653 72.4226C772.973 78.8889 767.656 83.6939 760.705 86.8376C753.727 89.9557 745.382 91.5148 735.67 91.5148H711.44V138.21ZM711.44 23.0052V72.5376H732.91C741.778 72.5376 748.436 70.5313 752.884 66.5186C757.331 62.4803 759.554 56.2185 759.554 47.733C759.554 39.222 757.344 32.973 752.922 28.9859C748.526 24.9987 741.727 23.0052 732.526 23.0052H711.44ZM881.162 138.21H801.419V4.02795H823.655V118.275H881.162V138.21ZM950.17 138.21H927.934V82.5054L880.664 4.02795H905.315L944.113 71.0041H933.761L972.674 4.02795H997.326L950.17 82.5054V138.21Z" fill="#F28A0C"/>
</g>
</g>
</g>
</g>
</g>
</g>
</g>
<defs>
<clipPath id="clip0_4249_18650">
<rect width="1000" height="141" fill="white" transform="translate(-0.605957 0.61908)"/>
</clipPath>
<clipPath id="clip1_4249_18650">
<rect width="995.863" height="142.238" fill="white" transform="translate(1.46265)"/>
</clipPath>
<clipPath id="clip2_4249_18650">
<rect width="995.863" height="142.238" fill="white" transform="translate(1.46265)"/>
</clipPath>
<clipPath id="clip3_4249_18650">
<rect width="995.863" height="142.238" fill="white" transform="translate(1.46265)"/>
</clipPath>
<clipPath id="clip4_4249_18650">
<rect width="995.863" height="142.238" fill="white" transform="translate(1.46265)"/>
</clipPath>
<clipPath id="clip5_4249_18650">
<rect width="995.863" height="142.238" fill="white" transform="translate(1.46265)"/>
</clipPath>
<clipPath id="clip6_4249_18650">
<rect width="995.863" height="142.238" fill="white" transform="translate(1.46265)"/>
</clipPath>
</defs>
</svg>
